<?xml version="1.0" encoding="utf-8"?>
<!-- Generator: Adobe Illustrator 23.0.1, SVG Export Plug-In . SVG Version: 6.00 Build 0)  -->
<svg version="1.1" id="Logo_Expo_2020_Dubai_Australia_Flag"
	 xmlns="http://www.w3.org/2000/svg" xmlns:xlink="http://www.w3.org/1999/xlink" x="0px" y="0px" viewBox="0 0 220 59"
	 style="enable-background:new 0 0 220 59;" xml:space="preserve">
<style type="text/css">
	.st0{fill:none;}
	.st1{fill:#4B3524;}
	.st2{fill:#00008B;}
	.st3{fill:#FF0000;}
	.st4{fill:url(#Shape-11_1_);}
</style>
<rect id="Logo_Expo_2020_Dubai_Australia_Flag_background" class="st0" width="220" height="59"/>
<g id="Expo_2020_Dubai_Australia_Flag_RGB-03" transform="translate(0.492 0.295)">
	<path id="Shape" class="st1" d="M126.2,58.7c-0.3,0-0.5-0.2-0.5-0.5c0-0.3,0.2-0.5,0.5-0.5c0.3,0,0.5,0.2,0.5,0.5c0,0,0,0,0,0
		C126.7,58.4,126.5,58.7,126.2,58.7C126.2,58.7,126.2,58.7,126.2,58.7z M126.2,55.5c-0.3,0-0.5-0.2-0.5-0.5c0-0.3,0.2-0.5,0.5-0.5
		c0.3,0,0.5,0.2,0.5,0.5c0,0,0,0,0,0C126.7,55.2,126.5,55.5,126.2,55.5C126.2,55.5,126.2,55.5,126.2,55.5L126.2,55.5z M126.2,52.3
		c-0.3,0-0.5-0.2-0.5-0.5c0-0.3,0.2-0.5,0.5-0.5c0.3,0,0.5,0.2,0.5,0.5c0,0,0,0,0,0C126.7,52,126.5,52.3,126.2,52.3L126.2,52.3z
		 M126.2,49.1c-0.3,0-0.5-0.2-0.5-0.5c0-0.3,0.2-0.5,0.5-0.5c0.3,0,0.5,0.2,0.5,0.5c0,0,0,0,0,0C126.7,48.8,126.5,49.1,126.2,49.1
		L126.2,49.1z M126.2,45.9c-0.3,0-0.5-0.2-0.5-0.5c0-0.3,0.2-0.5,0.5-0.5c0.3,0,0.5,0.2,0.5,0.5c0,0,0,0,0,0
		C126.7,45.6,126.5,45.9,126.2,45.9L126.2,45.9z M126.2,42.7c-0.3,0-0.5-0.2-0.5-0.5c0-0.3,0.2-0.5,0.5-0.5c0.3,0,0.5,0.2,0.5,0.5
		c0,0,0,0,0,0C126.7,42.4,126.5,42.7,126.2,42.7L126.2,42.7z M126.2,39.5c-0.3,0-0.5-0.2-0.5-0.5c0-0.3,0.2-0.5,0.5-0.5
		c0.3,0,0.5,0.2,0.5,0.5c0,0,0,0,0,0C126.7,39.2,126.5,39.5,126.2,39.5z M126.2,36.3c-0.3,0-0.5-0.2-0.5-0.5c0-0.3,0.2-0.5,0.5-0.5
		c0.3,0,0.5,0.2,0.5,0.5c0,0,0,0,0,0C126.7,36,126.5,36.3,126.2,36.3C126.2,36.3,126.2,36.3,126.2,36.3L126.2,36.3z M126.2,33.1
		c-0.3,0-0.5-0.2-0.5-0.5c0-0.3,0.2-0.5,0.5-0.5c0.3,0,0.5,0.2,0.5,0.5c0,0,0,0,0,0C126.7,32.8,126.5,33.1,126.2,33.1
		C126.2,33.1,126.2,33.1,126.2,33.1L126.2,33.1z M126.2,29.9c-0.3,0-0.5-0.2-0.5-0.5c0-0.3,0.2-0.5,0.5-0.5s0.5,0.2,0.5,0.5
		c0,0,0,0,0,0C126.7,29.6,126.5,29.9,126.2,29.9C126.2,29.9,126.2,29.9,126.2,29.9L126.2,29.9z M126.2,26.7c-0.3,0-0.5-0.2-0.5-0.5
		c0-0.3,0.2-0.5,0.5-0.5s0.5,0.2,0.5,0.5c0,0,0,0,0,0C126.7,26.4,126.5,26.7,126.2,26.7C126.2,26.7,126.2,26.7,126.2,26.7
		L126.2,26.7z M126.2,23.5c-0.3,0-0.5-0.2-0.5-0.5c0-0.3,0.2-0.5,0.5-0.5s0.5,0.2,0.5,0.5c0,0,0,0,0,0
		C126.7,23.2,126.5,23.5,126.2,23.5C126.2,23.5,126.2,23.5,126.2,23.5L126.2,23.5z M126.2,20.3c-0.3,0-0.5-0.2-0.5-0.5
		c0-0.3,0.2-0.5,0.5-0.5s0.5,0.2,0.5,0.5c0,0,0,0,0,0C126.7,20,126.5,20.3,126.2,20.3C126.2,20.3,126.2,20.3,126.2,20.3L126.2,20.3z
		 M126.2,17.1c-0.3,0-0.5-0.2-0.5-0.5c0-0.3,0.2-0.5,0.5-0.5c0.3,0,0.5,0.2,0.5,0.5c0,0,0,0,0,0C126.7,16.8,126.5,17.1,126.2,17.1
		C126.2,17.1,126.2,17.1,126.2,17.1L126.2,17.1z M126.2,13.9c-0.3,0-0.5-0.2-0.5-0.5c0-0.3,0.2-0.5,0.5-0.5c0.3,0,0.5,0.2,0.5,0.5
		c0,0,0,0,0,0C126.7,13.6,126.5,13.9,126.2,13.9C126.2,13.9,126.2,13.9,126.2,13.9L126.2,13.9z M126.2,10.7c-0.3,0-0.5-0.2-0.5-0.5
		c0-0.3,0.2-0.5,0.5-0.5c0.3,0,0.5,0.2,0.5,0.5c0,0,0,0,0,0C126.7,10.4,126.5,10.7,126.2,10.7C126.2,10.7,126.2,10.7,126.2,10.7
		L126.2,10.7z M126.2,7.5c-0.3,0-0.5-0.2-0.5-0.5c0-0.3,0.2-0.5,0.5-0.5c0.3,0,0.5,0.2,0.5,0.5c0,0,0,0,0,0
		C126.7,7.2,126.5,7.5,126.2,7.5C126.2,7.5,126.2,7.5,126.2,7.5L126.2,7.5z M126.2,4.3c-0.3,0-0.5-0.2-0.5-0.5
		c0-0.3,0.2-0.5,0.5-0.5c0.3,0,0.5,0.2,0.5,0.5c0,0,0,0,0,0C126.7,4,126.5,4.3,126.2,4.3C126.2,4.3,126.2,4.3,126.2,4.3L126.2,4.3z
		 M126.2,1.1c-0.3,0-0.5-0.2-0.5-0.5c0-0.3,0.2-0.5,0.5-0.5s0.5,0.2,0.5,0.5c0,0,0,0,0,0C126.7,0.8,126.5,1.1,126.2,1.1L126.2,1.1z"
		/>
	<path id="Path" class="st2" d="M158.7,10h-11.2l11.2,5.6V10z"/>
	<path id="Path-2" class="st2" d="M150.7,22.6h-8.2v4.1L150.7,22.6z"/>
	<path id="Path-3" class="st2" d="M150.7,16.6l-8.2-4.1v4.1H150.7z"/>
	<path id="Path-4" class="st2" d="M164.7,10v5.6l11.2-5.6H164.7z"/>
	<path id="Shape-2" class="st2" d="M219.2,48.6h-76.7V29.3h5l11.2-5.6v5.6h6v-5.6l11.2,5.6h5v-2.5l-8.2-4.1h8.2v-6h-8.2l8.2-4.1V10
		h38.4V48.6z M200,43.4L200,43.4l1.2,1.3l-0.2-1.7l1.7-0.2l-1.5-0.9l1-1.4l-1.6,0.6l-0.5-1.7l-0.5,1.7l-1.6-0.6l1,1.4l-1.5,0.9
		l1.7,0.2l-0.2,1.7L200,43.4L200,43.4z M161.7,41.5L161.7,41.5l2.5,2.6l-0.5-3.6l3.6-0.3l-3.1-1.9l2-3l-3.4,1.3l-1.1-3.5l-1.1,3.5
		l-3.4-1.3l2,3l-3.1,1.9l3.6,0.3l-0.5,3.6L161.7,41.5L161.7,41.5z M203.9,31.6L203.9,31.6l0.9,0.6l-0.2-1.1l0.8-0.7l-1.1-0.1l-0.4-1
		l-0.4,1l-1.1,0.1l0.8,0.7l-0.3,1.1L203.9,31.6L203.9,31.6z M190.5,28.1L190.5,28.1l1.2,1.3l-0.2-1.7l1.7-0.2l-1.5-0.9l1-1.4
		l-1.6,0.6l-0.5-1.7l-0.5,1.7l-1.6-0.6l0.9,1.4l-1.5,0.9l1.7,0.2l-0.2,1.7L190.5,28.1L190.5,28.1z M208.6,25.5L208.6,25.5l1.2,1.3
		l-0.2-1.7l1.7-0.1l-1.5-0.9l1-1.4l-1.6,0.6l-0.5-1.7l-0.5,1.7l-1.6-0.6l1,1.4l-1.5,0.9l1.7,0.1l-0.2,1.7L208.6,25.5L208.6,25.5z
		 M200.1,17.6L200.1,17.6l1.2,1.3l-0.2-1.7l1.7-0.2l-1.5-0.9l1-1.4l-1.6,0.6l-0.5-1.7l-0.5,1.7l-1.6-0.6l0.9,1.4l-1.5,0.9l1.7,0.2
		l-0.2,1.7L200.1,17.6L200.1,17.6z"/>
	<path id="Path-5" class="st3" d="M178.2,10L165,16.6h2.7l13.2-6.6H178.2z"/>
	<path id="Path-6" class="st3" d="M155.7,16.6L142.5,10l0,0v1.3l10.5,5.3H155.7z"/>
	<path id="Path-7" class="st3" d="M155.7,22.6l-13.2,6.6h2.7l13.2-6.6H155.7z"/>
	<path id="Path-8" class="st3" d="M167.7,22.6l13.2,6.6v-1.3l-10.5-5.3H167.7z"/>
	<path id="Path-9" class="st3" d="M142.5,21.4h17.4v7.8h3.6v-7.8h17.4v-3.6h-17.4V10h-3.6v7.8h-17.4V21.4z"/>
	<path id="Path-10" class="st1" d="M66.5,4.5h7.7v1.6h-5.7v3h5.2l0.2,1.6h-5.4v3.2h5.9v1.6h-7.8V4.5z"/>
	<path id="Path-11" class="st1" d="M79.7,11.2l-3,4.3h-2.1l4-5.7l-3.7-5.2L77,4.4l2.9,4l2.7-3.9h2.1L81,9.8l4.1,5.6L83,15.6
		L79.7,11.2z"/>
	<path id="Shape-3" class="st1" d="M87.6,15.5h-1.9v-11h4.7c2.6,0,4.2,1.4,4.2,3.6s-1.6,3.6-4.2,3.6h-2.7V15.5L87.6,15.5z M87.6,6.1
		v4.1h2.7c1.1,0.2,2.1-0.6,2.3-1.7c0-0.1,0-0.2,0-0.3c0-0.6-0.2-1.1-0.6-1.5c-0.5-0.4-1.1-0.5-1.7-0.5H87.6z"/>
	<path id="Shape-4" class="st1" d="M100.9,15.6c-1.6,0.1-3.2-0.5-4.3-1.7c-1-1.1-1.6-2.5-1.5-4c0-1.5,0.5-2.9,1.5-4
		c1.1-1.1,2.7-1.7,4.3-1.7c1.6-0.1,3.1,0.5,4.3,1.6c1,1.1,1.5,2.5,1.5,4c0,1.5-0.5,2.9-1.5,4C104.1,15.1,102.5,15.7,100.9,15.6z
		 M100.9,5.9c-1.1,0-2.1,0.4-2.8,1.1C97.4,7.9,97,8.9,97,10c0,1.1,0.3,2.1,1,2.9c0.7,0.8,1.8,1.2,2.8,1.1c1.1,0,2.1-0.4,2.8-1.1
		c0.7-0.8,1.1-1.9,1-2.9c0-1.1-0.3-2.1-1-2.9C103,6.3,102,5.9,100.9,5.9z"/>
	<path id="Shape-5" class="st1" d="M70.2,41.2h-3.7v-11h3.7c1.5-0.1,3,0.5,4.1,1.5c1,1.1,1.5,2.5,1.5,4c0.1,1.5-0.5,2.9-1.5,4
		C73.2,40.7,71.7,41.3,70.2,41.2z M67.1,30.9v9.7h3.1c1.3,0.1,2.6-0.4,3.6-1.3c0.9-1,1.4-2.2,1.3-3.6c0.1-1.3-0.4-2.6-1.3-3.6
		c-1-0.9-2.3-1.4-3.6-1.3H67.1z"/>
	<path id="Path-12" class="st1" d="M78.1,30.2v7c-0.1,1.9,1.4,3.5,3.4,3.6c0.2,0,0.3,0,0.5,0c1.9,0.2,3.6-1.2,3.8-3.1
		c0-0.2,0-0.3,0-0.5v-6.9l0.6-0.2v7c0,2.2-1.4,4.2-4.5,4.2c-3.2,0-4.5-2.1-4.5-4.2v-6.9L78.1,30.2z"/>
	<path id="Shape-6" class="st1" d="M93.3,41.3h-4.6v-11h4.1c1-0.1,1.9,0.2,2.8,0.7c0.7,0.5,1.1,1.3,1,2.2l0,0
		c0.1,1.1-0.6,2.2-1.7,2.5c0.6,0.1,1.2,0.4,1.5,0.9c0.4,0.5,0.5,1.2,0.5,1.8c0.1,0.8-0.3,1.7-0.9,2.2C95.2,41.1,94.3,41.3,93.3,41.3
		z M89.4,35.9v4.7h3.8c0.8,0.1,1.5-0.1,2.2-0.4c0.6-0.4,1-1.2,0.9-1.9c0.1-0.8-0.3-1.5-0.9-2c-0.7-0.3-1.5-0.5-2.2-0.4H89.4z
		 M89.4,30.9v4.4h3.3c0.8,0.1,1.6-0.1,2.3-0.3c0.7-0.4,1.1-1.1,1-1.9c0-2-1.6-2.2-3.3-2.2H89.4z"/>
	<path id="Shape-7" class="st1" d="M107.2,41.3L107.2,41.3l-1.3-3h-6.4l-1.2,2.9h-0.7l4.8-11l0.6-0.2l4.8,11.1L107.2,41.3
		L107.2,41.3z M102.7,31l-2.9,6.7h5.9L102.7,31z"/>
	<path id="Path-13" class="st1" d="M109.3,30.3v10.9h0.6V30.2L109.3,30.3z"/>
	<path id="Path-14" class="st1" d="M67.1,43.1v7c-0.1,1.9,1.4,3.5,3.4,3.6c0.2,0,0.3,0,0.5,0c1.9,0.2,3.6-1.2,3.8-3.1
		c0-0.2,0-0.3,0-0.5v-6.9l0.6-0.2v7c0,2.2-1.4,4.2-4.5,4.2c-3.2,0-4.5-2.1-4.5-4.2v-6.9L67.1,43.1z"/>
	<path id="Shape-8" class="st1" d="M86,54.2L86,54.2l-1.3-3h-6.4l-1.3,2.9h-0.7l4.8-11l0.6-0.2L86.7,54C86.7,54,86,54.2,86,54.2z
		 M81.5,43.9l-2.9,6.7h5.9L81.5,43.9z"/>
	<path id="Path-15" class="st1" d="M88.1,43.1h7.4v0.6h-6.7v4.4H95l0.2,0.6h-6.4v4.7h6.9v0.6h-7.5V43.1z"/>
	<path id="Path-16" class="st1" d="M70.1,17.2c2.2,0,4,1,4,3.1c0,3.5-5.8,4.1-5.8,6.4h5.7l0.2,1.6h-8.1v-1c0-4.2,5.9-4.2,5.9-6.9
		c0-1.3-1.1-1.7-2.2-1.7c-1.1,0.1-2.2,0.4-3.1,1.1l-0.3-1.5C67.6,17.6,68.8,17.2,70.1,17.2"/>
	<path id="Shape-9" class="st1" d="M79.8,28.5c-1.4,0.1-2.7-0.6-3.6-1.6c-0.8-1.2-1.3-2.6-1.2-4c-0.1-1.4,0.4-2.8,1.2-4
		c0.9-1.1,2.2-1.7,3.6-1.7c1.4-0.1,2.7,0.6,3.6,1.6c0.8,1.2,1.3,2.6,1.2,4c0.1,1.4-0.4,2.8-1.2,4C82.5,27.9,81.2,28.6,79.8,28.5z
		 M79.8,18.7c-1.9,0-2.9,1.5-2.9,4.1s1,4.1,2.9,4.1s2.9-1.5,2.9-4.1S81.6,18.7,79.8,18.7L79.8,18.7z"/>
	<path id="Path-17" class="st1" d="M89.1,17.2c2.2,0,4,1,4,3.1c0,3.5-5.8,4.1-5.8,6.4h5.7l0.2,1.6h-8.1v-1c0-4.2,5.9-4.2,5.9-6.9
		c0-1.3-1.1-1.7-2.2-1.7c-1.1,0.1-2.2,0.4-3.1,1.1l-0.3-1.5C86.6,17.6,87.8,17.2,89.1,17.2"/>
	<path id="Shape-10" class="st1" d="M98.8,28.5c-1.4,0.1-2.7-0.6-3.6-1.6c-0.8-1.2-1.3-2.6-1.2-4c-0.1-1.4,0.4-2.8,1.2-4
		c0.9-1.1,2.2-1.7,3.6-1.7c1.4-0.1,2.7,0.6,3.6,1.6c0.8,1.2,1.3,2.6,1.2,4c0.1,1.4-0.4,2.8-1.2,4C101.5,27.9,100.2,28.6,98.8,28.5z
		 M95.9,22.9c0,2.7,1,4.1,2.9,4.1c0.9,0,1.7-0.4,2.2-1.1c0.5-0.9,0.8-1.9,0.7-3c0-2.7-1-4.1-2.9-4.1S95.9,20.2,95.9,22.9L95.9,22.9z
		"/>
	<path id="Path-18" class="st1" d="M52.4,4.7h-0.8V4.5h2l0,0.3h-0.8v2.2h-0.3V4.7z"/>
	<path id="Path-19" class="st1" d="M55,6.3L54.2,5v1.9h-0.3V4.5h0.3l0.9,1.5l1-1.5h0.3v2.4l-0.3,0V5l-0.9,1.3H55z"/>
	
		<radialGradient id="Shape-11_1_" cx="25.9078" cy="36.4153" r="28.9468" gradientTransform="matrix(1.007 0 0 -1.013 3.0114 66.1962)" gradientUnits="userSpaceOnUse">
		<stop  offset="0" style="stop-color:#FFD600"/>
		<stop  offset="0.11" style="stop-color:#FED100"/>
		<stop  offset="0.25" style="stop-color:#FCC200"/>
		<stop  offset="0.3" style="stop-color:#FBBB00"/>
		<stop  offset="0.65" style="stop-color:#A66530"/>
		<stop  offset="0.96" style="stop-color:#3E1E00"/>
		<stop  offset="1" style="stop-color:#3E1E00"/>
	</radialGradient>
	<path id="Shape-11" class="st4" d="M28.9,58.6c-0.7,0-1.5-0.2-2.1-0.6c-0.7-0.5-1-1.2-1-2c0-0.6,0.2-1.3,0.5-1.8h-0.1
		c-0.7,0-1.5-0.1-2.2-0.4c0.2,0.6,0.1,1.3,0,1.9c-0.2,0.5-0.5,1-0.9,1.3c-0.5,0.3-1,0.5-1.6,0.5c-0.5,0-1-0.1-1.4-0.2
		c-0.8-0.2-1.4-0.7-1.9-1.3c-0.5-0.6-0.6-1.5-0.3-2.2c0.2-0.6,0.6-1.1,1.1-1.5c-0.4-0.1-0.8-0.2-1.1-0.4c-0.4-0.2-0.7-0.4-1-0.6
		c0,0.6-0.2,1.2-0.6,1.7c-0.4,0.7-1.2,1.1-2,1.1c-0.8,0-1.6-0.3-2.2-0.8c-0.7-0.4-1.2-1.1-1.4-1.8c-0.3-0.8-0.1-1.6,0.4-2.2
		c0.4-0.5,0.9-0.9,1.5-1.1c-0.3-0.2-0.6-0.5-0.9-0.8c-0.3-0.3-0.5-0.6-0.8-0.9c-0.2,0.6-0.6,1.1-1.1,1.5c-0.4,0.3-0.9,0.5-1.5,0.5
		c-1.1-0.1-2-0.7-2.6-1.6c-0.5-0.6-0.8-1.4-0.8-2.2c0-0.8,0.4-1.6,1.1-2c0.5-0.4,1.1-0.6,1.7-0.6c-0.3-0.3-0.5-0.6-0.7-1
		c-0.2-0.4-0.3-0.7-0.4-1.1c-0.4,0.5-0.9,0.9-1.5,1c-0.3,0.1-0.6,0.1-0.9,0.1c-1.2,0-2.2-0.9-2.7-2.4c-0.3-0.8-0.3-1.6-0.1-2.3
		c0.2-0.8,0.8-1.4,1.6-1.6c0.6-0.2,1.2-0.2,1.8,0c-0.1-0.4-0.2-0.8-0.3-1.2c-0.1-0.4-0.1-0.8-0.1-1.2c-0.5,0.3-1.1,0.5-1.8,0.5
		C1,32.6,0,31.3,0,29.3c0-0.8,0.2-1.6,0.6-2.3c0.4-0.6,1.2-1,1.9-1h0.1c0.6,0,1.2,0.2,1.8,0.5c0-0.4,0-0.8,0.1-1.2
		c0.1-0.4,0.2-0.8,0.3-1.2c-0.6,0.2-1.2,0.2-1.8,0C2.3,24,1.8,23.6,1.5,23c-0.4-0.9-0.4-1.8,0-2.7c0.2-0.8,0.7-1.5,1.3-2
		C3.4,17.8,4.2,17.7,5,18c0.6,0.2,1.1,0.6,1.5,1.1c0.1-0.4,0.3-0.8,0.4-1.1c0.2-0.4,0.4-0.7,0.6-1c-0.6,0-1.2-0.2-1.8-0.6
		c-0.5-0.4-0.9-0.9-1-1.6c-0.1-0.9,0.2-1.9,0.8-2.6c0.4-0.7,1.1-1.2,1.8-1.5C8.2,10.4,9,10.5,9.6,11c0.5,0.4,0.9,0.9,1.1,1.5
		c0.2-0.3,0.5-0.6,0.8-0.9c0.3-0.3,0.6-0.6,0.9-0.8c-0.6-0.2-1.1-0.6-1.5-1.1C10,8.3,10.4,6.8,12,5.6c0.6-0.5,1.4-0.8,2.2-0.8h0
		c0.8,0,1.5,0.4,2,1.1c0.4,0.5,0.6,1.1,0.6,1.7c0.6-0.5,1.4-0.9,2.1-1.1c-0.5-0.4-0.9-0.9-1-1.5c-0.5-1.6,0.4-2.9,2.3-3.5
		c0.7-0.3,1.6-0.3,2.3-0.1C23.2,1.6,23.8,2.2,24,3c0.2,0.6,0.2,1.3,0.1,1.9c0.4-0.1,0.8-0.2,1.2-0.3c0.3-0.1,0.6-0.1,0.9-0.1
		c0.1,0,0.2,0,0.3,0c-0.3-0.5-0.5-1.1-0.5-1.8c0-0.6,0.2-1.3,0.6-1.7c0.5-0.5,1.1-0.8,1.8-0.9h0C28.6,0,28.9,0,29.2,0l0,0h0.1
		c0.7,0,1.5,0.2,2.1,0.6c0.7,0.5,1,1.2,1,2c0,0.6-0.2,1.3-0.5,1.8c0.1,0,0.2,0,0.3,0c0.3,0,0.6,0,0.9,0.1c0.4,0.1,0.8,0.1,1.2,0.3
		c-0.2-0.6-0.1-1.3,0-1.9c0.2-0.5,0.5-1,0.9-1.3c0.5-0.3,1-0.5,1.6-0.5c0.5,0,1,0.1,1.4,0.2c0.8,0.2,1.4,0.7,1.9,1.3
		c0.5,0.6,0.6,1.5,0.3,2.2c-0.2,0.6-0.6,1.1-1.1,1.5c0.4,0.1,0.8,0.3,1.1,0.4c0.4,0.2,0.7,0.4,1,0.6c0-0.6,0.2-1.2,0.6-1.7
		c0.4-0.7,1.2-1.1,2-1.1c0.8,0,1.6,0.3,2.2,0.8c0.7,0.4,1.2,1.1,1.4,1.8c0.3,0.8,0.1,1.6-0.4,2.2c-0.4,0.5-0.9,0.9-1.5,1.1
		c0.3,0.2,0.6,0.5,0.9,0.8c0.3,0.3,0.5,0.6,0.8,0.9c0.2-0.6,0.6-1.1,1.1-1.5c0.4-0.3,0.9-0.5,1.5-0.5c1.1,0.1,2,0.7,2.6,1.6
		c0.5,0.6,0.8,1.4,0.8,2.2c0,0.8-0.4,1.6-1.1,2c-0.5,0.4-1.1,0.6-1.7,0.6c0.3,0.3,0.5,0.7,0.6,1c0.2,0.4,0.3,0.7,0.4,1.1
		c0.4-0.5,0.9-0.9,1.5-1c0.3-0.1,0.6-0.1,0.9-0.1c1.2,0,2.2,0.9,2.7,2.4c0.3,0.8,0.3,1.6,0.1,2.3c-0.2,0.8-0.8,1.4-1.6,1.6
		c-0.6,0.2-1.2,0.2-1.8,0c0.1,0.4,0.2,0.8,0.3,1.2c0.1,0.4,0.1,0.8,0.1,1.2c0.5-0.4,1.1-0.5,1.8-0.5h0c0.6,0,1.2,0.2,1.7,0.6
		c0.5,0.5,0.8,1.1,0.9,1.8v0c0,0.3,0.1,0.5,0.1,0.8c0,0.8-0.2,1.6-0.6,2.3c-0.4,0.6-1.2,1-1.9,1h-0.1c-0.6,0-1.2-0.2-1.8-0.5
		c0,0.4,0,0.8-0.1,1.2c-0.1,0.4-0.2,0.8-0.3,1.2c0.6-0.2,1.2-0.2,1.8,0c0.6,0.2,1.2,0.6,1.5,1.2c0.4,0.9,0.4,1.8,0,2.7
		c-0.2,0.8-0.7,1.5-1.3,2c-0.6,0.5-1.5,0.6-2.2,0.3c-0.6-0.2-1.1-0.6-1.5-1.1c-0.1,0.4-0.3,0.8-0.4,1.1c-0.2,0.4-0.4,0.7-0.6,1
		c0.6,0,1.2,0.2,1.7,0.6c0.5,0.4,0.9,0.9,1,1.6c0.1,0.9-0.2,1.9-0.8,2.6c-0.4,0.7-1.1,1.2-1.8,1.5c-0.8,0.3-1.6,0.1-2.2-0.4
		c-0.5-0.4-0.9-0.9-1.1-1.5c-0.2,0.3-0.5,0.6-0.8,0.9c-0.3,0.3-0.6,0.6-0.9,0.8c0.6,0.2,1.1,0.6,1.5,1.1c0.9,1.3,0.5,2.9-1.1,4.1
		c-0.6,0.5-1.4,0.8-2.2,0.8c-0.8,0-1.6-0.4-2-1.1c-0.4-0.5-0.6-1.1-0.6-1.8c-0.3,0.3-0.6,0.5-1,0.6c-0.4,0.2-0.7,0.3-1.1,0.4
		c0.5,0.4,0.9,0.9,1,1.5c0.2,0.6,0.2,1.3-0.1,1.9c-0.5,0.8-1.2,1.4-2.1,1.6c-0.7,0.3-1.6,0.3-2.3,0.1c-0.8-0.2-1.4-0.9-1.6-1.6
		c-0.2-0.6-0.2-1.2,0-1.9c-0.4,0.1-0.8,0.2-1.2,0.3c-0.3,0.1-0.6,0.1-0.9,0.1c-0.1,0-0.2,0-0.3,0c0.3,0.5,0.5,1.1,0.5,1.8
		c0,1.6-1.2,2.7-3.2,2.7L28.9,58.6z M26.9,34.9c0.1,0,0.3,0,0.4,0.1l0.2,0.1c0.2,0.1,0.4,0.3,0.6,0.6c0,0,0,0.1,0,0.1
		c0.3-0.3,0.6-0.5,1-0.5c0.1,0,0.1,0,0.2,0c0.3,0,0.5,0.2,0.7,0.4c0,0,0,0.1,0.1,0.1c0.1-0.4,0.4-0.6,0.8-0.8c0.1,0,0.1,0,0.2,0
		c0.1,0,0.1,0,0.2,0c0.2,0,0.4,0.1,0.6,0.1l0.1,0.1c0-0.4,0.2-0.7,0.5-1c0.1,0,0.1-0.1,0.2-0.1c0.2-0.1,0.4-0.1,0.6-0.1
		c0.1,0,0.1,0,0.2,0h0.1c-0.1-0.4,0-0.8,0.2-1.1c0-0.1,0.1-0.1,0.1-0.2c0.2-0.2,0.5-0.3,0.8-0.4h0h0.1c-0.2-0.3-0.2-0.7-0.1-1.1
		c0-0.1,0-0.1,0.1-0.2c0.1-0.3,0.3-0.5,0.6-0.6l0.1,0c-0.3-0.3-0.5-0.6-0.5-1c0-0.1,0-0.1,0-0.2c0-0.3,0.2-0.5,0.4-0.7l0.1-0.1
		c-0.4-0.1-0.6-0.4-0.8-0.8c0-0.1,0-0.1,0-0.2c0-0.3,0-0.6,0.2-0.8c0,0,0-0.1,0.1-0.1c-0.4,0-0.7-0.2-1-0.5c0-0.1-0.1-0.1-0.1-0.2
		c-0.1-0.3-0.2-0.5-0.1-0.8c0,0,0-0.1,0-0.1c-0.1,0-0.2,0-0.3,0c-0.3,0-0.5-0.1-0.8-0.3c-0.1,0-0.1-0.1-0.2-0.1
		c-0.2-0.2-0.3-0.5-0.4-0.7c0,0,0-0.1,0-0.1c-0.2,0.1-0.5,0.2-0.7,0.2c-0.1,0-0.3,0-0.4-0.1l-0.2-0.1c-0.2-0.1-0.5-0.3-0.6-0.6
		c0,0,0-0.1,0-0.1c-0.2,0.3-0.6,0.5-1,0.5c0,0-0.1,0-0.1,0c0,0-0.1,0-0.1,0c-0.3,0-0.5-0.2-0.7-0.4L28.2,23
		c-0.1,0.4-0.4,0.6-0.8,0.8c-0.1,0-0.1,0-0.2,0c-0.1,0-0.1,0-0.2,0c-0.2,0-0.4-0.1-0.6-0.1c0,0-0.1,0-0.1-0.1c0,0.4-0.2,0.7-0.5,1
		c-0.1,0-0.1,0.1-0.2,0.1c-0.2,0.1-0.4,0.2-0.6,0.1c-0.1,0-0.1,0-0.2,0l-0.1,0c0.1,0.4,0,0.8-0.2,1.1c0,0.1-0.1,0.1-0.1,0.2
		c-0.2,0.2-0.5,0.3-0.7,0.4h-0.1c0.2,0.3,0.2,0.7,0.1,1.1c0,0.1,0,0.1-0.1,0.2c-0.1,0.3-0.3,0.5-0.6,0.6l-0.1,0
		c0.3,0.3,0.5,0.6,0.5,1c0,0.1,0,0.1,0,0.2c0,0.3-0.2,0.5-0.4,0.7c0,0-0.1,0-0.1,0.1c0.4,0.2,0.6,0.4,0.8,0.8c0,0.1,0,0.1,0,0.2
		c0,0.3,0,0.6-0.1,0.8c0,0,0,0.1-0.1,0.1c0.4,0,0.7,0.2,1,0.5c0,0.1,0.1,0.1,0.1,0.2c0.1,0.3,0.2,0.5,0.1,0.8c0,0,0,0.1,0,0.1
		c0.1,0,0.2,0,0.3,0c0.3,0,0.6,0.1,0.8,0.2c0.1,0,0.1,0.1,0.2,0.1c0.2,0.2,0.3,0.5,0.4,0.7v0.1C26.5,35,26.7,34.9,26.9,34.9
		L26.9,34.9z M8.2,29.8c-0.2,0-0.5,0-0.7,0.1c-0.8,0.1-1.6,0.6-2.1,1.3c0,0,0,0.1-0.1,0.1c-0.3,0.6-0.4,1.3-0.2,2
		c0,0.7,0.3,1.3,0.8,1.8L6,35c0.5,0.4,1.2,0.6,1.9,0.6h0c0.2,0,0.3,0,0.5,0c1.1-0.1,2-0.8,2.4-1.8c0.4-1,0.2-2.2-0.5-3
		C9.8,30.1,9,29.8,8.2,29.8z M49.9,35.5L49.9,35.5c0.2,0,0.4,0,0.5,0h0c0.7,0,1.3-0.2,1.8-0.6l0.1-0.1c0.5-0.5,0.8-1.1,0.8-1.8
		c0.2-0.6,0.1-1.3-0.2-1.9l-0.1-0.1c-0.5-0.7-1.3-1.1-2.1-1.3c-0.2-0.1-0.5-0.1-0.7-0.1c-1.6,0-2.9,1.4-2.8,3
		C47.4,34.2,48.5,35.4,49.9,35.5L49.9,35.5L49.9,35.5z M44.9,33.4h0.2c0,0,0.1,0,0.1,0c0,0,0.1,0,0.1,0c0.2,0,0.4-0.1,0.6-0.3
		l0.6-0.6c0.1-0.1,0.2-0.2,0.2-0.3c0-0.1,0-0.3-0.1-0.4l-0.4-0.8c-0.2-0.3-0.5-0.5-0.9-0.6h-0.1c0,0-0.1,0-0.1,0
		c-0.3,0-0.5,0.1-0.8,0.3l-0.6,0.6c-0.2,0.2-0.3,0.5-0.1,0.7l0.4,0.8C44.2,33.1,44.5,33.3,44.9,33.4L44.9,33.4L44.9,33.4z
		 M13.2,33.3L13.2,33.3c0,0,0.1,0,0.1,0c0,0,0.1,0,0.1,0h0.1c0.3-0.1,0.6-0.3,0.8-0.5l0.4-0.8c0.1-0.2,0.1-0.6-0.1-0.7L14,30.6
		c-0.2-0.2-0.5-0.3-0.8-0.3c0,0-0.1,0-0.2,0c-0.4,0.1-0.7,0.3-0.9,0.6l-0.4,0.8c-0.1,0.1-0.1,0.3-0.1,0.4c0,0.1,0.1,0.3,0.2,0.3
		l0.7,0.6C12.6,33.2,12.9,33.3,13.2,33.3L13.2,33.3z M42,29.8c-0.3,0-0.6,0.1-0.8,0.3l-0.6,0.6c-0.2,0.2-0.3,0.5-0.1,0.7l0.4,0.8
		c0.2,0.3,0.5,0.5,0.9,0.5l1.8,0.3c0,0-0.1-0.1-0.1-0.1l-0.4-0.8c-0.1-0.2-0.2-0.5-0.1-0.7c0-0.2,0.2-0.5,0.3-0.7l0.6-0.6l0.1-0.1
		l-1.8-0.3C42.2,29.8,42.1,29.8,42,29.8z M14.8,33l-0.1,0.1l1.8-0.3c0.4,0,0.7-0.2,0.9-0.5l0.4-0.8c0.1-0.2,0.1-0.5-0.1-0.7
		l-0.6-0.6c-0.2-0.2-0.5-0.3-0.8-0.3c-0.1,0-0.2,0-0.2,0l-1.8,0.3l0.1,0.1l0.6,0.6c0.4,0.4,0.5,0.9,0.2,1.4L14.8,33L14.8,33L14.8,33
		z M21.4,31.8L21.4,31.8c0.1,0.4,0.5,0.6,0.9,0.6h0.1l0.1,0c0.2-0.1,0.4-0.2,0.5-0.5c0.1-0.2,0.1-0.5,0.1-0.7
		c-0.1-0.2-0.3-0.4-0.5-0.5c-0.1-0.1-0.3-0.1-0.4-0.1c-0.1,0-0.2,0-0.3,0.1c-0.2,0.1-0.4,0.2-0.5,0.5c-0.1,0.2-0.1,0.4-0.1,0.5
		C21.4,31.8,21.4,31.8,21.4,31.8L21.4,31.8L21.4,31.8z M38.6,32.1L38.6,32.1C38.6,32.1,38.6,32.1,38.6,32.1c0.1,0,0.2,0,0.2,0
		c0.7-0.1,1.2-0.8,1.1-1.4s-0.8-1.2-1.4-1.1c-0.7,0.1-1.2,0.8-1.1,1.4c0.1,0.5,0.5,1,1.1,1.1C38.4,32.1,38.5,32.1,38.6,32.1
		L38.6,32.1z M19.7,29.6c-0.1,0-0.1,0-0.2,0c-0.7,0.1-1.2,0.7-1.1,1.4c0.1,0.6,0.6,1.1,1.3,1.1c0,0,0.1,0,0.1,0c0,0,0.1,0,0.1,0
		c0.7-0.1,1.2-0.8,1-1.5C20.9,30,20.3,29.6,19.7,29.6L19.7,29.6z M55.6,26.6c-0.8,0-1.6,0.4-2.1,1.1c0,0,0,0,0,0.1l0,0.1
		c-0.6,0.8-1.4,1.3-2.3,1.5c0.9,0.2,1.7,0.7,2.3,1.5l0.1,0.1l0,0c0.5,0.7,1.3,1.1,2.2,1.1c0,0,0.2,0,0.4,0c0.5-0.1,0.9-0.4,1.2-0.8
		c0.4-0.6,0.6-1.2,0.5-1.9c0-0.5-0.1-1.1-0.3-1.6C57.1,27,56.4,26.6,55.6,26.6z M0.6,29.3c0,0.5,0.1,1.1,0.3,1.6
		c0.3,0.7,1,1.1,1.8,1.1c0.8,0,1.6-0.4,2.1-1.1l0-0.1c0,0,0,0,0-0.1c0.6-0.8,1.4-1.3,2.3-1.5c-0.9-0.2-1.8-0.7-2.3-1.5l-0.1-0.1
		c-0.5-0.7-1.3-1.1-2.2-1.1c0,0,0,0-0.1,0c-0.6,0-1.1,0.3-1.5,0.8C0.8,28,0.6,28.6,0.6,29.3L0.6,29.3z M42.3,29.3l3,0.5h0.1
		c0.5,0.1,1,0.4,1.3,0.9l0.3,0.6c0.5-1,1.4-1.7,2.5-1.9c-1.1-0.2-2-0.9-2.5-1.9L46.7,28c-0.3,0.5-0.7,0.8-1.3,0.9L42.3,29.3
		L42.3,29.3z M11.3,27.4c-0.5,1-1.4,1.7-2.4,1.9c1.1,0.2,2,0.9,2.4,1.9l0.3-0.6c0.3-0.5,0.7-0.8,1.3-0.9l3.1-0.5h0l-3-0.5h-0.1
		c-0.5-0.1-1-0.4-1.3-0.9L11.3,27.4z M16.5,29.3L16.5,29.3c0.3,0,0.7,0.2,0.9,0.4l0.6,0.6c0.1-0.4,0.4-0.8,0.8-1
		c-0.4-0.2-0.7-0.6-0.8-1l-0.6,0.6C17.2,29.1,16.9,29.3,16.5,29.3L16.5,29.3z M40.2,28.3L40.2,28.3c-0.1,0.4-0.4,0.8-0.8,1
		c0.4,0.2,0.7,0.6,0.8,1l0.6-0.6c0.3-0.2,0.6-0.4,0.9-0.4c-0.4,0-0.7-0.2-0.9-0.4L40.2,28.3L40.2,28.3z M35.4,29.3L35.4,29.3
		c0,0.5,0.4,0.9,0.9,0.9c0,0,0.1,0,0.1,0c0.4-0.1,0.7-0.4,0.8-0.8c0-0.1,0-0.1,0-0.2c0-0.5-0.4-0.9-0.9-0.9c-0.3,0-0.5,0.1-0.7,0.3
		C35.5,28.9,35.4,29.1,35.4,29.3L35.4,29.3z M21,29.3c0,0.2,0.1,0.5,0.3,0.7c0.2,0.2,0.4,0.3,0.7,0.3h0.2c0.5-0.1,0.8-0.5,0.8-0.9
		c0-0.5-0.4-0.9-0.9-0.9c-0.2,0-0.5,0.1-0.7,0.3C21.1,28.8,21,29,21,29.2C21,29.2,21,29.3,21,29.3L21,29.3z M37.3,28
		c0.1,0.6,0.6,1.1,1.2,1.1c0,0,0.1,0,0.1,0c0,0,0.1,0,0.1,0c0.7-0.1,1.2-0.8,1-1.5c-0.1-0.3-0.2-0.6-0.5-0.8
		c-0.2-0.2-0.5-0.2-0.7-0.2c-0.2,0-0.5,0.1-0.7,0.2C37.5,27,37.2,27.5,37.3,28L37.3,28L37.3,28z M19.8,29.1L19.8,29.1
		c0,0,0.1,0,0.1,0c0,0,0.1,0,0.1,0c0.7-0.1,1.2-0.8,1-1.4c-0.1-0.7-0.8-1.2-1.4-1c-0.7,0.1-1.2,0.8-1,1.4c0.1,0.5,0.5,1,1,1
		C19.6,29.1,19.7,29.1,19.8,29.1L19.8,29.1z M7.8,23c-0.7,0-1.3,0.2-1.8,0.6l0,0c-0.5,0.5-0.8,1.1-0.8,1.8c-0.2,0.6-0.1,1.3,0.2,1.9
		l0.1,0.1c0.5,0.7,1.3,1.1,2.1,1.3l-0.1,0.1c0.2,0,0.3,0,0.5,0H8c0.1,0,0.2,0,0.5,0c1.3-0.2,2.3-1.1,2.5-2.4
		c0.1-0.8-0.1-1.6-0.6-2.2c-0.5-0.6-1.2-1-2-1.1C8.2,23.1,8,23,7.8,23z M47.2,26.4L47.2,26.4c0.3,1.4,1.5,2.4,2.9,2.4h0.1
		c0.2,0,0.3,0,0.5,0c0.8-0.1,1.6-0.6,2.1-1.3l0.1-0.1c0.3-0.6,0.4-1.3,0.2-2c0-0.7-0.3-1.3-0.8-1.8l-0.1-0.1
		c-0.5-0.4-1.2-0.6-1.8-0.6c-0.2,0-0.4,0-0.5,0c-0.8,0.1-1.5,0.5-2,1.1C47.4,24.8,47.2,25.6,47.2,26.4L47.2,26.4z M16.3,28.8
		c0,0,0.1,0,0.1,0c0,0,0.1,0,0.1,0c0.2,0,0.4-0.1,0.6-0.3l0.6-0.6c0.2-0.2,0.3-0.5,0.1-0.7l-0.4-0.8c-0.2-0.3-0.5-0.5-0.9-0.6
		l-1.8-0.3c0,0,0,0,0,0l0,0l0,0l0,0c0,0,0,0,0,0.1l0.4,0.8c0.2,0.5,0.2,1-0.2,1.4l-0.6,0.6l-0.1,0.1l1.8,0.3l0,0L16.3,28.8z
		 M42,28.8L42,28.8c0.1,0,0.2,0,0.2,0l1.8-0.3l-0.1-0.1l-0.6-0.6c-0.4-0.4-0.5-0.9-0.2-1.4l0.4-0.8c0,0,0-0.1,0.1-0.1l-1.8,0.3
		c-0.4,0-0.7,0.3-0.9,0.6l-0.4,0.8c-0.1,0.2-0.1,0.6,0.1,0.7l0.6,0.6C41.4,28.7,41.7,28.8,42,28.8L42,28.8z M44.7,25.3
		c-0.3,0.1-0.6,0.3-0.8,0.5l-0.4,0.8c-0.1,0.2-0.1,0.5,0.1,0.7l0.6,0.6v0c0.2,0.2,0.5,0.3,0.8,0.3h0.3c0.4,0,0.7-0.3,0.9-0.6
		l0.4-0.8c0.1-0.1,0.1-0.3,0.1-0.4c0-0.1-0.1-0.3-0.2-0.3l-0.6-0.6c-0.2-0.2-0.5-0.3-0.8-0.3C45,25.3,44.9,25.3,44.7,25.3L44.7,25.3
		z M13.2,25.3c-0.3,0-0.6,0.1-0.8,0.3l-0.7,0.6c-0.1,0.1-0.2,0.2-0.2,0.3c0,0.1,0,0.3,0.1,0.4l0.4,0.8c0.2,0.3,0.5,0.5,0.9,0.6H13
		l0,0h0.2h0.1c0,0,0.1,0,0.1,0c0.2,0,0.4-0.1,0.5-0.3l0.6-0.6c0.2-0.2,0.3-0.5,0.1-0.7l-0.4-0.8c-0.2-0.3-0.5-0.5-0.9-0.6
		C13.4,25.3,13.3,25.3,13.2,25.3L13.2,25.3z M22.3,26.1c-0.1,0-0.3,0-0.4,0.1c-0.2,0.1-0.3,0.2-0.4,0.4c0,0,0,0.1-0.1,0.1
		c-0.1,0.5,0.1,1,0.6,1.1v0.1c0.1,0,0.2,0,0.3,0h0c0,0,0,0,0.1,0c0,0,0,0,0.1,0c0.1,0,0.2,0,0.3-0.1c0.5-0.2,0.6-0.8,0.4-1.3
		c-0.1-0.2-0.3-0.4-0.5-0.4C22.5,26.1,22.4,26.1,22.3,26.1L22.3,26.1z M35.1,27.3c0.1,0.4,0.5,0.6,0.9,0.6c0,0,0,0,0.1,0
		c0,0,0,0,0.1,0c0,0,0.1,0,0.1,0c0.2-0.1,0.4-0.2,0.5-0.5c0.1-0.2,0.1-0.4,0.1-0.5c0-0.1,0-0.1,0-0.1c-0.1-0.4-0.4-0.6-0.8-0.6H36
		c-0.5,0-0.9,0.4-0.9,0.9C35.1,27.1,35.1,27.2,35.1,27.3L35.1,27.3L35.1,27.3z M39.4,24.9c0,0.5-0.1,0.9-0.4,1.3
		c0.4,0.1,0.8,0.4,1,0.7l0.4-0.8c0.2-0.3,0.5-0.5,0.8-0.7c-0.1,0-0.2,0-0.3,0c-0.2,0-0.5,0-0.7-0.2L39.4,24.9z M17.2,25.4L17.2,25.4
		c0.3,0.1,0.6,0.4,0.8,0.7l0.4,0.8c0.2-0.4,0.6-0.6,1.1-0.7c-0.3-0.3-0.5-0.8-0.4-1.2l-0.8,0.4c-0.1,0.1-0.3,0.1-0.4,0.1l0,0
		c0,0-0.1,0-0.1,0s-0.1,0-0.1,0C17.4,25.4,17.3,25.4,17.2,25.4L17.2,25.4z M20.1,26.1L20.1,26.1c0.2,0.1,0.4,0.1,0.6,0.1h0
		c0,0,0.1,0,0.1,0c0,0,0.1,0,0.1,0c0.7-0.1,1.2-0.8,1-1.4c-0.1-0.5-0.5-1-1-1c-0.1,0-0.1,0-0.2,0c-0.7,0-1.3,0.6-1.3,1.3
		C19.4,25.4,19.7,25.9,20.1,26.1L20.1,26.1L20.1,26.1z M36.5,25.5L36.5,25.5c0.2,0.4,0.6,0.7,1.1,0.7c0,0,0.1,0,0.1,0
		c0,0,0.1,0,0.1,0c0.1,0,0.3-0.1,0.4-0.1c0.6-0.3,0.9-1.1,0.5-1.7s-1.1-0.9-1.7-0.5C36.5,24.1,36.2,24.9,36.5,25.5
		C36.5,25.5,36.5,25.5,36.5,25.5L36.5,25.5L36.5,25.5z M35,24.1c-0.1,0-0.1,0-0.2,0c-0.4,0.1-0.6,0.4-0.7,0.8c0,0.2,0,0.5,0.2,0.7
		l0,0c0.2,0.2,0.5,0.4,0.7,0.4h0.1c0.1,0,0.3-0.1,0.4-0.2c0.2-0.2,0.3-0.4,0.3-0.6c0-0.2,0-0.4-0.1-0.5c0,0-0.1-0.1-0.1-0.1
		C35.6,24.2,35.3,24.1,35,24.1z M22.8,25.8L22.8,25.8c0.2,0.1,0.3,0.2,0.5,0.2c0,0,0,0,0.1,0c0,0,0,0,0.1,0c0.2,0,0.5-0.2,0.6-0.4
		c0.3-0.4,0.2-1-0.2-1.3c-0.2-0.1-0.3-0.2-0.5-0.2c0,0-0.1,0-0.1,0c-0.2,0-0.4,0.1-0.5,0.3c0,0-0.1,0.1-0.1,0.1
		c-0.1,0.2-0.2,0.4-0.2,0.7C22.4,25.4,22.6,25.6,22.8,25.8L22.8,25.8L22.8,25.8z M45.1,24.7c0.4,0,0.8,0.2,1.2,0.5l0.5,0.5
		c0.2-1.1,0.8-2.1,1.8-2.6c-0.2,0-0.3,0-0.4,0c-1,0-1.9-0.4-2.6-1.1l-0.1,0.7c-0.1,0.5-0.5,1-1,1.2l-2.8,1.4l3-0.5h0.1
		C44.9,24.7,45,24.7,45.1,24.7L45.1,24.7z M9.8,23L9.8,23c1,0.6,1.6,1.5,1.8,2.6l0.5-0.5c0.3-0.3,0.7-0.4,1.2-0.4c0.1,0,0.2,0,0.3,0
		l3.1,0.5h0.1l-0.1,0l-2.7-1.4l-0.1,0c-0.5-0.2-0.8-0.7-0.9-1.2l-0.1-0.6c-0.5,0.6-1.2,1-2,1.1c-0.1,0-0.2,0-0.3,0s-0.2,0-0.3,0
		s-0.1,0-0.2,0S9.9,23,9.8,23z M16.6,21.1c0,0,0,0.1,0,0.1l0.1,0.9c0,0.2,0,0.5-0.1,0.7c-0.1,0.2-0.3,0.4-0.5,0.5l-0.8,0.4l-0.1,0
		l1.6,0.8l0,0c0.2,0.1,0.4,0.1,0.6,0.2h0.2c0.1,0,0.2,0,0.3-0.1l0.8-0.4c0.3-0.1,0.4-0.4,0.3-0.7l-0.1-0.9c-0.1-0.4-0.3-0.7-0.6-0.9
		L16.6,21.1z M40.4,24.7L40.4,24.7c0.1,0.1,0.3,0.1,0.4,0.1H41c0.1,0,0.3-0.1,0.4-0.1l1.6-0.8l-0.1-0.1l-0.8-0.4
		c-0.5-0.2-0.7-0.7-0.6-1.2l0.2-0.9c0,0,0-0.1,0-0.1L40,22c-0.3,0.2-0.6,0.5-0.7,0.8l-0.2,0.9c-0.1,0.3,0.1,0.5,0.3,0.7L40.4,24.7
		L40.4,24.7L40.4,24.7z M32.8,24.2c0.2,0.1,0.3,0.2,0.5,0.2h0.1c0.2,0,0.5-0.2,0.6-0.4c0.1-0.2,0.2-0.4,0.2-0.7
		c0-0.2-0.1-0.4-0.3-0.5c0,0-0.1-0.1-0.1-0.1c-0.2-0.1-0.4-0.2-0.6-0.2c-0.1,0-0.2,0-0.4,0.1c-0.5,0.2-0.7,0.7-0.5,1.2
		C32.6,23.9,32.7,24.1,32.8,24.2L32.8,24.2L32.8,24.2z M24.9,22.5c-0.1,0-0.3,0-0.4,0.1l-0.1,0.1C24,23,23.9,23.6,24.2,24
		c0.1,0.2,0.4,0.3,0.6,0.4H25c0.1,0,0.3-0.1,0.4-0.2c0.4-0.3,0.5-0.9,0.2-1.3c-0.1-0.2-0.4-0.3-0.6-0.4C25,22.5,25,22.5,24.9,22.5
		L24.9,22.5z M21.5,23.4c0.2,0.2,0.5,0.4,0.9,0.4h0.2c0.7-0.1,1.2-0.8,1.1-1.4c-0.1-0.5-0.4-0.9-0.9-1c-0.1,0-0.3-0.1-0.4-0.1
		c-0.7,0-1.3,0.6-1.3,1.3C21.1,22.9,21.3,23.2,21.5,23.4C21.5,23.4,21.5,23.4,21.5,23.4z M35.9,21.2c-0.7,0-1.3,0.6-1.3,1.3
		c0,0.3,0.1,0.7,0.4,0.9h0c0.2,0.2,0.6,0.4,0.9,0.4c0.1,0,0.1,0,0.2,0c0.3,0,0.5-0.2,0.7-0.4c0.5-0.5,0.5-1.3,0-1.8
		C36.5,21.4,36.2,21.2,35.9,21.2z M3.2,23.6L3.2,23.6c0.3,0.1,0.5,0.1,0.8,0.1c0.1,0,0.2,0,0.4,0c0.4-0.1,0.8-0.2,1.1-0.4l0.1,0
		l0.1,0c0.6-0.5,1.4-0.7,2.2-0.7c0.1,0,0.3,0,0.4,0c-0.8-0.5-1.4-1.2-1.7-2.1l0-0.1c-0.3-0.8-0.9-1.5-1.7-1.7
		c-0.6-0.2-1.2-0.1-1.7,0.2c-0.5,0.4-0.9,1-1.1,1.7c-0.3,0.7-0.3,1.5,0,2.3C2.2,23.2,2.7,23.5,3.2,23.6L3.2,23.6L3.2,23.6z
		 M50.5,22.5c0.8,0,1.6,0.2,2.2,0.7l0.1,0.1c0.4,0.3,1,0.5,1.5,0.5c0.1,0,0.3,0,0.4,0c0.1,0,0.3-0.1,0.4-0.1
		c0.6-0.2,1.1-0.6,1.2-1.2c0.2-0.7,0.1-1.4-0.1-2c-0.2-0.5-0.8-2-2.1-2c-0.2,0-0.5,0-0.7,0.1c-0.8,0.3-1.4,0.9-1.7,1.7v0.2l0,0
		c-0.3,0.9-0.9,1.7-1.7,2.1C50.2,22.5,50.3,22.5,50.5,22.5L50.5,22.5z M18.9,21.8L18.9,21.8c0.3,0.2,0.4,0.6,0.5,0.9l0.1,0.9
		c0.3-0.3,0.7-0.4,1.1-0.4c0.1,0,0.1,0,0.2,0c-0.2-0.4-0.2-0.9,0-1.3l-0.9,0.1c-0.1,0-0.1,0-0.2,0C19.4,22.1,19.1,22,18.9,21.8z
		 M37.6,23.2c0.4,0,0.8,0.1,1.1,0.4l0.1-0.9c0.1-0.3,0.2-0.6,0.5-0.9l0,0C39.1,22,38.8,22,38.5,22c0,0-0.1,0-0.1,0c0,0-0.1,0-0.1,0
		l-0.9-0.1c0.2,0.4,0.1,0.9-0.1,1.3C37.5,23.2,37.5,23.2,37.6,23.2L37.6,23.2z M14.1,23.3c0.2,0.1,0.3,0.1,0.5,0.1c0,0,0.1,0,0.1,0
		c0,0,0.1,0,0.1,0c0.1,0,0.2,0,0.3-0.1l0.8-0.4c0.3-0.1,0.4-0.4,0.3-0.7l-0.1-0.9c-0.1-0.4-0.3-0.7-0.7-0.8
		c-0.2-0.1-0.4-0.1-0.6-0.1c-0.2,0-0.3,0-0.4,0.1l-0.8,0.4c-0.1,0.1-0.2,0.2-0.3,0.3c-0.1,0.1-0.1,0.3-0.1,0.4l0.1,0.9
		c0.1,0.4,0.3,0.7,0.7,0.8L14.1,23.3L14.1,23.3L14.1,23.3z M43.2,23.3L43.2,23.3c0.1,0.1,0.3,0.1,0.4,0.1h0c0,0,0.1,0,0.1,0
		c0,0,0.1,0,0.1,0c0.1,0,0.3-0.1,0.4-0.1c0.3-0.2,0.6-0.5,0.7-0.8l0.2-0.9c0-0.1,0-0.3,0-0.4c-0.1-0.1-0.2-0.2-0.3-0.3l-0.8-0.4
		c-0.3-0.2-0.7-0.1-1.1,0.1l-0.1,0c-0.3,0.2-0.5,0.4-0.6,0.8L42,22.3c-0.1,0.3,0.1,0.5,0.3,0.7L43.2,23.3L43.2,23.3L43.2,23.3z
		 M31.1,23.3L31.1,23.3c0.1,0,0.2,0,0.3,0h0.2c0.3-0.1,0.6-0.3,0.7-0.6c0.1-0.2,0.1-0.5-0.1-0.7c-0.1-0.2-0.2-0.3-0.4-0.4
		c0,0-0.1,0-0.1-0.1c-0.1,0-0.2,0-0.3,0c-0.4,0-0.8,0.3-0.9,0.6c-0.1,0.2-0.1,0.5,0.1,0.7C30.6,23,30.8,23.2,31.1,23.3L31.1,23.3
		L31.1,23.3z M26.5,23.2L26.5,23.2c0.1,0.1,0.3,0.1,0.4,0.1H27c0.1,0,0.1,0,0.1,0c0.5-0.2,0.8-0.7,0.6-1.2c-0.1-0.4-0.5-0.6-0.9-0.6
		c0,0-0.1,0-0.1,0c0,0-0.1,0-0.1,0c-0.5,0.2-0.7,0.7-0.6,1.2C26.1,22.9,26.3,23.1,26.5,23.2L26.5,23.2L26.5,23.2z M28.5,22.7
		L28.5,22.7c0.2,0.2,0.4,0.3,0.6,0.3l0,0c0,0,0,0,0.1,0c0,0,0,0,0.1,0c0.5-0.1,0.8-0.5,0.8-0.9c0-0.2-0.1-0.5-0.3-0.7
		c-0.1-0.1-0.3-0.2-0.5-0.3h-0.2c-0.4,0-0.7,0.2-0.8,0.6C28.1,22,28.2,22.4,28.5,22.7L28.5,22.7L28.5,22.7z M9.8,16.6
		c-0.3,0-0.6,0.1-1,0.1l-0.1,0c-0.6,0.3-1.1,0.8-1.3,1.5c-0.4,0.6-0.5,1.2-0.4,1.9l0,0.1c0.3,0.8,0.9,1.5,1.6,1.9l0,0
		c0.5,0.2,1,0.4,1.5,0.4c0.2,0,0.3,0,0.5,0c0.9-0.1,1.7-0.7,2.1-1.5c0.7-1.5,0-3.3-1.5-4C10.8,16.7,10.3,16.6,9.8,16.6z M45.5,20.9
		L45.5,20.9c0.5,0.9,1.5,1.5,2.5,1.5h0.1c1.4,0,2.6-0.9,3.1-2.2c0,0,0-0.1,0-0.1c0.1-0.7,0-1.4-0.4-1.9c-0.2-0.6-0.7-1.1-1.3-1.4
		l-0.1,0c-0.8-0.2-1.7-0.2-2.4,0.2C45.5,17.6,44.8,19.4,45.5,20.9L45.5,20.9z M32.9,21.9L32.9,21.9c0.2,0.1,0.4,0.1,0.5,0.1h0.2
		c0.7-0.1,1.1-0.8,1-1.4c-0.1-0.5-0.5-0.9-1-1c-0.1,0-0.1,0-0.2,0c-0.7,0-1.3,0.6-1.2,1.3C32.2,21.3,32.5,21.7,32.9,21.9L32.9,21.9z
		 M24.8,19.5c-0.4,0-0.7,0.2-1,0.5c-0.3,0.4-0.4,0.9-0.2,1.4c0.2,0.4,0.6,0.7,1.1,0.7H25c0.1,0,0.3-0.1,0.4-0.1
		c0.6-0.3,0.9-1.1,0.5-1.7c-0.2-0.3-0.4-0.5-0.7-0.6C25.1,19.5,25,19.5,24.8,19.5L24.8,19.5z M39.8,21.5L39.8,21.5L39.8,21.5
		L39.8,21.5l2.7-1.4l0.1,0c0.3-0.1,0.5-0.2,0.8-0.2c0.2,0,0.5,0.1,0.7,0.2l0.5,0.3c-0.2-1.1,0.1-2.2,0.9-3c-1,0.5-2.2,0.4-3.2-0.1
		l0.1,0.7c0.1,0.5-0.1,1.1-0.5,1.5L39.8,21.5L39.8,21.5L39.8,21.5z M14.9,19.9c0.3,0,0.6,0.1,0.8,0.2l2.8,1.4h0l-0.1,0l-2.2-2.2
		l-0.1-0.1c-0.4-0.4-0.6-0.9-0.5-1.5l0.1-0.6c-0.5,0.3-1,0.4-1.6,0.4c-0.5,0-1-0.1-1.5-0.3c0.8,0.8,1.1,1.9,0.9,3l0.6-0.3
		C14.4,19.9,14.7,19.9,14.9,19.9z M17.6,19.8l1.3,1.3v0c0.2,0.2,0.5,0.4,0.9,0.4h0.1l0.9-0.1c0.3,0,0.5-0.3,0.5-0.5l0.1-0.9
		c0-0.4-0.1-0.7-0.4-1l-1.3-1.3c0,0,0,0.1,0,0.1l-0.1,0.9c0,0.2-0.2,0.5-0.3,0.7c-0.2,0.2-0.4,0.3-0.6,0.3l-0.9,0.1L17.6,19.8z
		 M38.5,17.6L38.5,17.6l-1.3,1.3c-0.3,0.3-0.4,0.6-0.4,1l0.1,0.9c0,0.3,0.3,0.5,0.5,0.5l0.9,0.2l0,0c0,0,0,0,0.1,0c0,0,0,0,0.1,0
		h0.2c0.3-0.1,0.5-0.2,0.7-0.4l1.3-1.3h-0.1l-0.9-0.1c-0.2,0-0.5-0.1-0.7-0.3c-0.2-0.2-0.3-0.4-0.3-0.7l-0.1-0.9
		C38.5,17.7,38.5,17.7,38.5,17.6L38.5,17.6z M26.4,20c0.1,0.6,0.6,1.1,1.2,1.1c0.1,0,0.1,0,0.2,0c0.7-0.1,1.2-0.8,1-1.5
		c-0.1-0.3-0.2-0.6-0.5-0.8c-0.4-0.3-1-0.3-1.4-0.1C26.5,19,26.3,19.5,26.4,20C26.4,20,26.4,20,26.4,20z M30.6,18.5
		c-0.7,0-1.3,0.6-1.3,1.3c0,0.6,0.5,1.1,1.1,1.2c0.1,0,0.3,0,0.4,0c0.7-0.1,1.2-0.8,1.1-1.5C31.8,19,31.2,18.5,30.6,18.5L30.6,18.5z
		 M22.4,20.8c0.2,0,0.5,0.1,0.7,0.2c0-0.5,0.1-0.9,0.4-1.3l-0.9-0.1c-0.3-0.1-0.6-0.2-0.9-0.5c0.2,0.3,0.2,0.7,0.2,1l-0.1,0.9
		C22,20.8,22.2,20.8,22.4,20.8z M36.6,19c-0.2,0.3-0.5,0.4-0.9,0.5l-0.9,0.1c0.3,0.4,0.4,0.8,0.4,1.3c0.2-0.1,0.5-0.2,0.7-0.1
		c0.2,0,0.4,0,0.6,0.1L36.4,20C36.3,19.7,36.4,19.3,36.6,19L36.6,19z M33,17.2c-0.1,0.3-0.4,0.6-0.7,0.8l-0.8,0.4l0,0.1
		c0.4,0.2,0.6,0.6,0.7,1.1c0.3-0.3,0.7-0.4,1.2-0.5h0.1l-0.4-0.8C33,17.9,32.9,17.6,33,17.2L33,17.2z M24.8,19
		c0.4,0,0.8,0.2,1.2,0.5c0.1-0.4,0.4-0.8,0.7-1.1l-0.8-0.4c-0.3-0.2-0.5-0.4-0.7-0.8c0.1,0.3,0,0.7-0.1,1L24.8,19
		C24.7,19,24.7,19,24.8,19L24.8,19z M17.9,16.4L17.9,16.4l-0.9,0.1c-0.1,0-0.3,0.1-0.4,0.2c-0.1,0.1-0.1,0.2-0.2,0.4l-0.1,0.9
		c0,0.4,0.1,0.7,0.4,1l0.1,0.1l0,0c0.2,0.2,0.5,0.3,0.8,0.3h0.1l0.9-0.1c0.3,0,0.5-0.3,0.5-0.5l0.1-0.9C19.2,17,18.6,16.4,17.9,16.4
		C17.9,16.4,17.9,16.4,17.9,16.4L17.9,16.4z M40.4,16.4c-0.3,0-0.7,0.1-0.9,0.4l-0.1,0.1c-0.2,0.2-0.3,0.6-0.3,0.9l0.1,0.9
		c0,0.3,0.3,0.5,0.5,0.5l0.9,0.1l0,0c0,0,0,0,0.1,0c0,0,0,0,0.1,0h0.2c0.3-0.1,0.5-0.2,0.7-0.4c0.3-0.3,0.4-0.6,0.4-1L41.9,17
		c0-0.1-0.1-0.3-0.2-0.4c-0.1-0.1-0.2-0.2-0.3-0.2L40.4,16.4C40.5,16.4,40.4,16.4,40.4,16.4L40.4,16.4z M21,16.7L21,16.7l0.9,1.6
		c0.2,0.3,0.5,0.6,0.8,0.7l0.9,0.1c0.3,0.1,0.5-0.1,0.7-0.3l0.4-0.8c0.2-0.3,0.1-0.7-0.1-1.1l-0.8-1.6c0,0,0,0.1-0.1,0.1l-0.4,0.8
		c-0.2,0.3-0.5,0.6-0.8,0.6l0,0c0,0-0.1,0-0.1,0c0,0-0.1,0-0.1,0c0,0-0.1,0-0.1,0s-0.1,0-0.1,0l-0.9-0.2L21,16.7L21,16.7z M34,18.8
		L34,18.8c0.1,0.2,0.3,0.3,0.5,0.4h0.1l0.9-0.2c0.4-0.1,0.7-0.3,0.8-0.7l0.8-1.6c0,0-0.1,0-0.1,0l-0.9,0.1c-0.1,0-0.1,0-0.2,0
		c-0.2,0-0.4,0-0.5-0.1c-0.2-0.1-0.4-0.3-0.5-0.5l-0.4-0.8l0-0.1l-0.8,1.6c-0.2,0.3-0.2,0.7-0.1,1.1L34,18.8L34,18.8L34,18.8z
		 M28.1,18.2L28.1,18.2c0.4,0.1,0.8,0.4,1,0.8c0.2-0.4,0.6-0.7,1-0.8l-0.6-0.6c-0.2-0.3-0.4-0.6-0.4-0.9c0,0.4-0.2,0.7-0.4,0.9
		L28.1,18.2L28.1,18.2z M38.1,13.7l0.3,0.6c0.2,0.5,0.2,1.1-0.1,1.6l-1.4,2.8v0l0-0.1l2.2-2.2l0.1-0.1c0.3-0.4,0.8-0.5,1.3-0.6
		c0.1,0,0.1,0,0.2,0l0.6,0.1c-0.5-1-0.6-2.2-0.1-3.2c-0.5,0.5-1.2,0.8-1.9,0.9l0,0c-0.2,0-0.3,0-0.5,0h0
		C38.5,13.7,38.3,13.7,38.1,13.7L38.1,13.7z M17.9,15.8c0.5,0,0.9,0.2,1.3,0.6l2.2,2.2l0,0l0,0L20,15.9l0-0.1
		c-0.3-0.5-0.3-1-0.1-1.5l0.3-0.6c-0.2,0-0.4,0.1-0.6,0.1c-0.9,0-1.8-0.3-2.4-1l0,0c0.5,1,0.4,2.2-0.1,3.2l0.6-0.1
		C17.8,15.8,17.9,15.8,17.9,15.8z M25.3,14.8l0.3,1.8c0,0.4,0.2,0.7,0.5,0.9l0.8,0.4c0.1,0.1,0.2,0.1,0.3,0.1c0,0,0.1,0,0.1,0
		c0.1,0,0.3-0.1,0.3-0.2l0.6-0.6c0.2-0.3,0.3-0.7,0.3-1l-0.3-1.8l-0.1,0.1l-0.6,0.6c-0.2,0.2-0.4,0.3-0.6,0.3c-0.1,0-0.1,0-0.2,0
		c-0.2,0-0.4-0.1-0.5-0.1l-0.8-0.4C25.4,14.8,25.4,14.8,25.3,14.8L25.3,14.8z M30.6,17.8L30.6,17.8c0.1,0.1,0.3,0.2,0.4,0.2h0.1
		c0.1,0,0.1,0,0.2-0.1l0.8-0.4c0.3-0.2,0.5-0.5,0.6-0.9l0.3-1.8l-0.1,0.1L32,15.3c-0.5,0.2-1,0.2-1.4-0.2L30,14.4
		c0,0-0.1-0.1-0.1-0.1l-0.3,1.8c-0.1,0.4,0,0.7,0.3,1L30.6,17.8L30.6,17.8L30.6,17.8z M13.6,11c-0.7,0.1-1.3,0.4-1.7,1
		c-0.5,0.4-0.9,1-1,1.7v0.1c0,0.8,0.4,1.6,1,2.2l0,0c0.6,0.6,1.4,1,2.3,1h0c0.7,0,1.4-0.3,1.9-0.8c1.1-1.2,1-3.1-0.2-4.3
		C15.4,11.4,14.6,11,13.6,11L13.6,11L13.6,11z M42.1,16.2c0.5,0.5,1.2,0.8,1.9,0.8h0c0.2,0,0.3,0,0.5,0c1.6-0.3,2.7-1.6,2.8-3.2v0
		c0,0,0,0,0-0.1c-0.1-0.7-0.4-1.3-1-1.7c-0.4-0.5-1-0.9-1.7-1h-0.1c-0.9,0-1.7,0.4-2.3,1C41.1,13.1,41,15,42.1,16.2L42.1,16.2
		L42.1,16.2z M32.8,11.6l0.4,0.5c0.4,0.4,0.5,1,0.4,1.5l-0.5,3.1l0,0v0l1.4-2.7c0,0,0-0.1,0-0.1c0.2-0.5,0.7-0.8,1.2-1l0.6-0.1
		c-0.8-0.8-1.2-1.9-1.1-3C34.9,10.8,34,11.4,32.8,11.6L32.8,11.6z M22.9,9.8L22.9,9.8c0.1,1.1-0.3,2.2-1.1,3l0.7,0.1
		c0.5,0.1,1,0.5,1.2,1l1.4,2.8v0l0,0l0,0l-0.5-3v-0.1c-0.1-0.5,0.1-1.1,0.4-1.5l0.5-0.5C24.4,11.5,23.4,10.8,22.9,9.8z M50.1,11.1
		c-0.4,0-0.8,0.2-1.1,0.4c-0.7,0.5-1.1,1.3-1.1,2.1v0.1c0,0,0,0,0,0.1c0,1-0.4,1.9-1,2.6c0.5-0.2,1-0.3,1.6-0.3
		c0.4,0,0.8,0.1,1.1,0.2l0.1,0c0.8,0.3,1.7,0.1,2.4-0.4c0.5-0.3,0.8-0.9,0.8-1.5c0-0.7-0.3-1.3-0.7-1.9C51.8,11.7,51,11.2,50.1,11.1
		z M21.3,13.3c-0.1,0-0.2,0-0.3,0.1c-0.1,0.1-0.2,0.2-0.3,0.3l-0.4,0.8c-0.1,0.3-0.1,0.7,0.1,1.1l0,0.1c0.2,0.3,0.5,0.5,0.8,0.6
		l0.9,0.2l0,0h0.2c0.2,0,0.4-0.2,0.4-0.3l0.4-0.8c0.1-0.3,0.1-0.7-0.1-1.1c-0.2-0.3-0.5-0.6-0.8-0.7l-0.9-0.2
		C21.4,13.3,21.4,13.3,21.3,13.3L21.3,13.3z M9.8,16c0.5,0,1.1,0.1,1.6,0.3c-0.6-0.7-1-1.6-1-2.5v-0.1c0-0.9-0.4-1.7-1.1-2.2
		c-0.5-0.4-1.1-0.5-1.7-0.3C7,11.4,6.4,11.9,6,12.4c-0.3,0.4-0.5,0.9-0.7,1.5c-0.2,0.7,0.1,1.5,0.8,1.9l0,0c0.5,0.3,1,0.5,1.5,0.5
		c0.1,0,0.3,0,0.4,0c0.1,0,0.2-0.1,0.4-0.1h0.1C9,16,9.4,16,9.8,16z M35.5,16L35.5,16c0.1,0.2,0.3,0.4,0.5,0.4h0.1l0.9-0.1
		c0.4-0.1,0.7-0.3,0.8-0.7c0.2-0.3,0.2-0.7,0.1-1.1l-0.4-0.8c-0.1-0.1-0.2-0.2-0.3-0.3c-0.1,0-0.2-0.1-0.3-0.1c0,0-0.1,0-0.1,0
		l-0.9,0.1c-0.4,0.1-0.7,0.3-0.8,0.7l0,0.1c-0.1,0.3-0.1,0.7,0,1L35.5,16L35.5,16z M29.2,8.8L29.2,8.8c-0.2,1.1-0.9,2-1.9,2.5
		l0.6,0.3c0.5,0.3,0.8,0.8,0.9,1.3l0.5,3.1l0.5-3v-0.1c0.1-0.5,0.4-1,0.9-1.3l0.6-0.3C30.1,10.9,29.4,9.9,29.2,8.8L29.2,8.8z
		 M31,14.7L31,14.7c0.1,0.1,0.3,0.2,0.4,0.2h0.1c0.1,0,0.1,0,0.2-0.1l0.8-0.4c0.6-0.4,0.8-1.2,0.4-1.8c0,0,0-0.1-0.1-0.1l-0.6-0.6
		c-0.1-0.1-0.2-0.2-0.3-0.2c0,0-0.1,0-0.1,0c-0.1,0-0.2,0-0.3,0.1l-0.8,0.4c-0.3,0.2-0.6,0.5-0.6,0.9v0.1c0,0.3,0.1,0.7,0.3,0.9
		L31,14.7L31,14.7L31,14.7z M26.5,14.8c0.1,0,0.2,0.1,0.3,0.1h0.1c0.1,0,0.3-0.1,0.3-0.2l0.6-0.6c0.5-0.6,0.4-1.4-0.2-1.9
		c0,0,0,0,0,0l-0.8-0.4c-0.1,0-0.2-0.1-0.3-0.1c0,0-0.1,0-0.1,0c-0.1,0-0.3,0.1-0.3,0.2l-0.6,0.6c-0.2,0.3-0.3,0.7-0.3,1v0.1
		c0.1,0.3,0.3,0.6,0.5,0.8L26.5,14.8L26.5,14.8L26.5,14.8z M16.8,11.3L16.8,11.3c0.5,1.1,1.6,1.7,2.7,1.8h0c0.4,0,0.8-0.1,1.2-0.3
		c1.4-0.8,1.9-2.6,1.1-4.1c-0.4-0.8-1-1.4-1.8-1.6H20c-0.2,0-0.3-0.1-0.5-0.1c-0.5,0-1,0.2-1.5,0.5c-0.6,0.2-1.1,0.7-1.4,1.3l0,0.1
		C16.3,9.7,16.4,10.6,16.8,11.3L16.8,11.3z M38.8,7c-0.2,0-0.3,0-0.5,0l-0.2,0c-0.8,0.3-1.5,0.9-1.8,1.6c-0.8,1.4-0.4,3.1,1,4
		c0.4,0.3,1,0.4,1.5,0.4c0.1,0,0.1,0,0.2,0c1.1-0.1,2-0.8,2.4-1.8c0.4-0.8,0.5-1.6,0.2-2.5V8.8c-0.3-0.6-0.8-1.1-1.4-1.3
		C39.8,7.2,39.3,7,38.8,7z M13.7,10.4c0.9,0,1.9,0.4,2.5,1c-0.4-0.9-0.5-1.8-0.2-2.7l0-0.1c0.3-0.8,0.1-1.7-0.4-2.4
		c-0.3-0.5-0.9-0.8-1.5-0.8h0c-0.7,0-1.3,0.3-1.8,0.7c-0.6,0.4-1.1,1.1-1.3,1.8c-0.1,0.5,0.1,1,0.4,1.4c0.5,0.7,1.3,1.1,2.1,1.1v0
		L13.7,10.4z M44,5.4c-0.6,0-1.2,0.3-1.5,0.8c-0.5,0.7-0.6,1.6-0.3,2.4v0.1c0,0,0,0,0,0.1c0.3,0.9,0.2,1.9-0.2,2.8
		c0.7-0.6,1.6-1,2.5-1h0.1c0.8,0,1.6-0.4,2.1-1.1c0.4-0.5,0.5-1.1,0.3-1.7c-0.2-0.6-0.7-1.2-1.2-1.5C45.4,5.7,44.7,5.4,44,5.4
		L44,5.4z M23,8.4L23,8.4c0.2,1.5,1.4,2.6,2.9,2.7c0.1,0,0.1,0,0.2,0s0.1,0,0.2,0c1.6-0.3,2.7-1.9,2.4-3.6c-0.1-0.8-0.6-1.6-1.3-2.1
		l-0.1-0.1C27,5.1,26.6,5,26.2,5c-0.3,0-0.6,0-0.9,0.1c-0.7,0-1.3,0.3-1.8,0.8L23.5,6C23,6.7,22.8,7.6,23,8.4L23,8.4z M32.2,5
		c-0.4,0-0.8,0.1-1.2,0.3l-0.1,0.1c-0.7,0.5-1.1,1.3-1.3,2.1c-0.4,1.5,0.6,3.1,2.1,3.5c0.2,0.1,0.5,0.1,0.7,0.1
		c0.4,0,0.7-0.1,1.1-0.2c1-0.4,1.7-1.4,1.8-2.4c0.1-0.8,0-1.7-0.5-2.4l-0.1-0.1c-0.5-0.5-1.1-0.8-1.8-0.8C32.7,5,32.5,5,32.2,5z
		 M36.8,1.8c-0.9-0.1-1.7,0.5-1.9,1.4c-0.3,0.8-0.1,1.7,0.3,2.3l0,0.1c0,0,0,0,0,0.1l0,0c0.6,0.8,0.8,1.7,0.7,2.6
		c0.5-0.8,1.2-1.4,2.1-1.8l0.1,0c0.8-0.3,1.4-0.9,1.7-1.7c0.2-0.6,0.1-1.2-0.2-1.7c-0.4-0.5-1-0.9-1.7-1.1
		C37.6,1.9,37.2,1.8,36.8,1.8z M20.2,6.5L20.2,6.5c0.9,0.3,1.7,0.9,2.1,1.8c-0.1-0.9,0.1-1.9,0.7-2.7l0.1-0.1
		c0.5-0.7,0.6-1.6,0.4-2.4c-0.2-0.6-0.6-1.1-1.2-1.3c-0.2-0.1-0.5-0.1-0.8-0.1c-0.4,0-0.8,0.1-1.2,0.2c-0.8,0.2-1.4,0.7-1.8,1.4
		c-0.2,0.5-0.2,1-0.1,1.5c0.3,0.8,0.9,1.4,1.7,1.7l0.1,0L20.2,6.5L20.2,6.5L20.2,6.5z M29.3,0.6h-0.1c-0.6,0-2.7,0.2-2.7,2.1
		c0,0.8,0.4,1.6,1.1,2.1l0.1,0l0,0l0,0c0.8,0.6,1.3,1.4,1.5,2.3c0.2-0.9,0.7-1.8,1.5-2.3l0.1-0.1c0.7-0.5,1.1-1.3,1.1-2.2
		c0-0.6-0.2-1.2-0.7-1.6C30.5,0.7,29.9,0.6,29.3,0.6z"/>
</g>
</svg>
