<svg id="Layer_1" data-name="Layer 1" xmlns="http://www.w3.org/2000/svg" xmlns:xlink="http://www.w3.org/1999/xlink" viewBox="0 0 453.54 170.08"><defs><style>.cls-1{fill:#4b3524;}.cls-2{fill:#00008b;}.cls-3{fill:red;}.cls-4{fill:url(#radial-gradient);}</style><radialGradient id="radial-gradient" cx="77.08" cy="84.7" r="54.16" gradientUnits="userSpaceOnUse"><stop offset="0" stop-color="#ffd600"/><stop offset="0.11" stop-color="#fed100"/><stop offset="0.25" stop-color="#fcc200"/><stop offset="0.3" stop-color="#fbbb00"/><stop offset="0.65" stop-color="#a66530"/><stop offset="0.96" stop-color="#3e1e00"/><stop offset="1" stop-color="#3e1e00"/></radialGradient></defs><title>Expo_2020_Dubai_Australia_Flag_RGB</title><path class="cls-1" d="M257.54,79.86a1,1,0,1,1,1-1,1,1,0,0,1-1,1m1,10.81a1,1,0,1,0-1,1,1,1,0,0,0,1-1m0,5.91a1,1,0,1,0-1,1,1,1,0,0,0,1-1m0-47.29a1,1,0,1,0-1,1,1,1,0,0,0,1-1m0,17.73a1,1,0,1,0-1,1,1,1,0,0,0,1-1m0-35.47a1,1,0,1,0-1,1,1,1,0,0,0,1-1m0,11.83a1,1,0,1,0-1,1,1,1,0,0,0,1-1m0-5.91a1,1,0,1,0-1,1,1,1,0,0,0,1-1m0,23.64a1,1,0,1,0-1,1,1,1,0,0,0,1-1m0,11.82a1,1,0,1,0-1,1,1,1,0,0,0,1-1m0,11.83a1,1,0,1,0-1,1,1,1,0,0,0,1-1m0-29.56a1,1,0,1,0-1,1,1,1,0,0,0,1-1m0,47.29a1,1,0,1,0-1,1,1,1,0,0,0,1-1m0,5.91a1,1,0,1,0-1,1,1,1,0,0,0,1-1m0,5.91a1,1,0,1,0-1,1,1,1,0,0,0,1-1m0,5.91a1,1,0,1,0-1,1,1,1,0,0,0,1-1m0,5.91a1,1,0,1,0-1,1,1,1,0,0,0,1-1m0,5.92a1,1,0,1,0-1,1,1,1,0,0,0,1-1m0,5.91a1,1,0,1,0-1,1,1,1,0,0,0,1-1"/><polygon class="cls-2" points="317.93 48.97 297.19 48.97 317.93 59.34 317.93 48.97"/><polygon class="cls-2" points="303.02 72.37 287.85 72.37 287.85 79.95 303.02 72.37"/><polygon class="cls-2" points="303.01 61.22 287.85 53.64 287.85 61.22 303.01 61.22"/><polygon class="cls-2" points="329.07 48.97 329.07 59.34 349.81 48.97 329.07 48.97"/><path class="cls-2" d="M359.16,49v4.67L344,61.22h15.17V72.37H344L359.16,80v4.67h-9.34L329.07,74.25V84.62H317.93V74.25L297.19,84.62h-9.34v35.66H430.47V49Zm-31,63.12-4.64-4.88-4.64,4.88.93-6.67-6.72-.59,5.8-3.44-3.73-5.61,6.3,2.39,2.06-6.41,2.07,6.41,6.3-2.39-3.73,5.61,5.79,3.44-6.71.59Zm62.69-54.41,3,1.13,1-3.05,1,3.05,3-1.13L397,60.35,399.78,62l-3.19.28.44,3.17-2.21-2.32-2.21,2.32.44-3.17-3.2-.28,2.76-1.64ZM379.2,84.76,377,82.43l-2.21,2.33.44-3.18L372,81.3l2.76-1.64L373,77l3,1.14,1-3.06,1,3.06L381,77l-1.78,2.67L382,81.3l-3.19.28ZM397,113l-2.21-2.32L392.61,113l.44-3.17-3.2-.28,2.76-1.64-1.78-2.67,3,1.14,1-3.06,1,3.06,3-1.14L397,107.89l2.76,1.64-3.19.28Zm6.66-23L402,88.92,400.2,90l.49-2-1.57-1.32,2.05-.15.78-1.91.77,1.91,2,.15L403.2,88Zm9.18-10-2.21-2.32L408.45,80l.44-3.18-3.19-.27,2.76-1.64-1.78-2.67,3,1.13,1-3.05,1,3.05,3-1.13-1.78,2.67,2.76,1.64-3.2.27Z"/><polygon class="cls-3" points="354.18 48.97 329.67 61.22 334.65 61.22 359.16 48.97 359.16 48.97 354.18 48.97"/><polygon class="cls-3" points="312.36 61.22 287.85 48.97 287.85 48.97 287.85 51.46 307.38 61.22 312.36 61.22"/><polygon class="cls-3" points="312.36 72.37 287.85 84.62 287.85 84.62 292.83 84.62 317.35 72.37 312.36 72.37"/><polygon class="cls-3" points="334.64 72.37 359.16 84.62 359.16 82.13 339.63 72.37 334.64 72.37"/><polygon class="cls-3" points="287.85 70.14 320.16 70.14 320.16 84.62 326.85 84.62 326.85 70.14 359.16 70.14 359.16 63.45 326.85 63.45 326.85 48.97 320.16 48.97 320.16 63.45 287.85 63.45 287.85 70.14"/><polygon class="cls-1" points="146.51 38.83 160.76 38.83 160.76 41.78 150.09 41.78 150.09 47.27 159.72 47.27 160.17 50.22 150.09 50.22 150.09 56.16 161.06 56.16 161.06 59.11 146.51 59.11 146.51 38.83"/><polygon class="cls-1" points="171.08 51.2 165.5 59.1 161.57 59.1 169.05 48.61 162.19 39.03 166.07 38.59 171.38 46.05 176.36 38.83 180.27 38.83 173.47 48.58 181.04 58.87 177.14 59.35 171.08 51.2"/><path class="cls-1" d="M195.06,45.54c0-2.48-1.79-3.76-4.29-3.76h-5v7.55h5c2.5,0,4.29-1.32,4.29-3.79m3.67,0c0,4-2.8,6.74-7.81,6.74h-5.1v6.83h-3.58V38.83h8.68c5,0,7.81,2.74,7.81,6.71"/><path class="cls-1" d="M203.32,49c0,4.41,2.66,7.48,7.16,7.48s7.16-3.07,7.16-7.48-2.63-7.49-7.16-7.49-7.16,3.07-7.16,7.49m-3.64,0c0-5.79,3.94-10.44,10.83-10.44S221.3,43.18,221.3,49s-3.93,10.44-10.79,10.44S199.68,54.78,199.68,49"/><path class="cls-1" d="M162.61,96.57c0-5.52-3.61-9-9.21-9h-5.7v18h5.7c5.6,0,9.21-3.46,9.21-9m-16.1-10.14h6.92c6.44,0,10.38,4.18,10.38,10.14s-3.94,10.14-10.38,10.14h-6.92Z"/><path class="cls-1" d="M168.1,86.28v13c0,3.69,2.45,6.65,7.16,6.65s7.16-3,7.16-6.65V86.58l1.19-.3v13c0,4.11-2.62,7.75-8.35,7.75-5.94,0-8.35-3.94-8.35-7.75V86.58Z"/><path class="cls-1" d="M189.1,105.58h7c3.25,0,5.81-.57,5.81-4.32s-2.56-4.39-5.81-4.39h-7Zm12.22-13.9c0-3.73-2.86-4.11-6.08-4.11H189.1v8.17h6.14c3.22,0,6.08-.3,6.08-4.06m1.2,0a4.6,4.6,0,0,1-3.22,4.66c2.53.47,3.81,2.26,3.81,5,0,3.75-2.35,5.45-6.71,5.45h-8.5V86.43h7.64c4.35,0,7,1.49,7,5.22"/><path class="cls-1" d="M219.27,100.21l-5.48-12.44-5.4,12.44Zm.48,1.13H207.88l-2.32,5.37H204.3l8.89-20.28,1.19-.3,9,20.43-1.19.3Z"/><polygon class="cls-1" points="226.04 86.58 226.04 106.71 227.24 106.71 227.24 86.28 226.04 86.58"/><path class="cls-1" d="M147.7,110.08v13c0,3.69,2.45,6.65,7.16,6.65s7.16-3,7.16-6.65V110.38l1.19-.3v13c0,4.11-2.62,7.75-8.35,7.75-5.94,0-8.35-3.94-8.35-7.75V110.38Z"/><path class="cls-1" d="M180,124l-5.49-12.43L169.08,124Zm.48,1.14H168.58l-2.33,5.37H165l8.89-20.29,1.19-.29,9,20.43-1.2.29Z"/><polygon class="cls-1" points="186.74 110.23 200.46 110.23 200.46 111.36 187.93 111.36 187.93 119.54 199.56 119.54 199.86 120.67 187.93 120.67 187.93 129.38 200.75 129.38 200.75 130.51 186.74 130.51 186.74 110.23"/><path class="cls-1" d="M153.29,62.33c4,0,7.42,1.76,7.42,5.82,0,6.44-10.73,7.54-10.73,11.8h10.67l.45,3H146V81.06c0-7.69,11-7.84,11-12.73,0-2.33-2-3.19-4.18-3.19a11.58,11.58,0,0,0-5.82,2l-.53-2.83a13.63,13.63,0,0,1,6.74-2"/><path class="cls-1" d="M165.87,72.77c0,4.56,1.67,7.63,5.37,7.63s5.37-3.07,5.37-7.63-1.67-7.64-5.37-7.64-5.37,3.08-5.37,7.64m-3.67,0c0-5.79,3-10.44,9-10.44s9,4.65,9,10.44-3,10.44-9,10.44-9-4.63-9-10.44"/><path class="cls-1" d="M188.63,62.33c4,0,7.42,1.76,7.42,5.82,0,6.44-10.73,7.54-10.73,11.8H196l.45,3H181.38V81.06c0-7.69,11-7.84,11-12.73,0-2.33-2-3.19-4.18-3.19a11.58,11.58,0,0,0-5.82,2l-.53-2.83a13.63,13.63,0,0,1,6.74-2"/><path class="cls-1" d="M201.21,72.77c0,4.56,1.67,7.63,5.37,7.63S212,77.33,212,72.77s-1.67-7.64-5.37-7.64-5.37,3.08-5.37,7.64m-3.67,0c0-5.79,3-10.44,9-10.44s9,4.65,9,10.44-3,10.44-9,10.44-9-4.63-9-10.44"/><polygon class="cls-1" points="120.25 39.31 118.67 39.31 118.67 38.78 122.46 38.78 122.37 39.31 120.88 39.31 120.88 43.33 120.25 43.33 120.25 39.31"/><polygon class="cls-1" points="125.24 42.24 123.66 39.85 123.66 43.33 123.09 43.33 123.09 38.78 123.7 38.78 125.46 41.46 127.23 38.78 127.84 38.78 127.84 43.29 127.22 43.38 127.22 39.85 125.62 42.24 125.24 42.24"/><path class="cls-4" d="M73.54,136.84A3.35,3.35,0,0,1,72.13,134a4.94,4.94,0,0,1,2-4l0,0,.18-.13a7,7,0,0,0,2.71-4.28,7,7,0,0,0,2.73,4.3l.1.07,0,0,.11.09a4.88,4.88,0,0,1,2,3.92c0,2.69-2.13,3.52-3.69,3.76a8.29,8.29,0,0,1-1.25.1,6,6,0,0,1-3.54-.95m-12.87-1.65a6,6,0,0,1-3.07-2,3.38,3.38,0,0,1-.45-3.19,5,5,0,0,1,3.18-3.17h0l.2-.06a7,7,0,0,0,3.91-3.24,7,7,0,0,0,1.27,4.94.36.36,0,0,1,.07.1l0,0,.08.11a4.9,4.9,0,0,1,.64,4.34,3.34,3.34,0,0,1-2.81,2.46,5.49,5.49,0,0,1-.8.06,7.6,7.6,0,0,1-2.28-.38m29.15.19a3.36,3.36,0,0,1-2.23-2.32,4.93,4.93,0,0,1,.7-4.43l0,0,.13-.18a7,7,0,0,0,1.25-4.91,7,7,0,0,0,3.93,3.24l.12,0,.05,0,.13.05A4.88,4.88,0,0,1,97,130c1.11,3.4-2.41,4.83-3.51,5.19a6.9,6.9,0,0,1-1.27.31,5.66,5.66,0,0,1-1,.08,4.51,4.51,0,0,1-1.4-.2M70,129.45a4.77,4.77,0,0,1-3.32-1.52.61.61,0,0,0-.1-.14,6,6,0,0,1-1-4.45A5.35,5.35,0,1,1,76.09,125a5.91,5.91,0,0,1-2.34,3.91s0,0,0,0h0l-.18.13h0a3,3,0,0,1-1.26.48,4.33,4.33,0,0,1-.73.05,10.24,10.24,0,0,1-1.57-.14M80.55,129l-.14-.11A5.92,5.92,0,0,1,78.07,125a5.34,5.34,0,1,1,10.52-1.67,6,6,0,0,1-1,4.45h0l-.13.17a0,0,0,0,1,0,0,4.73,4.73,0,0,1-3.25,1.47,10.47,10.47,0,0,1-1.58.14,3.54,3.54,0,0,1-2-.56M48.38,119.6a7.44,7.44,0,0,0,1-.09,7,7,0,0,0,3.66-1.79,7.06,7.06,0,0,0-.31,5.09.84.84,0,0,0,0,.12v0l0,.13a4.89,4.89,0,0,1-.73,4.32c-2.1,2.9-5.33.9-6.26.23a6.14,6.14,0,0,1-2.31-2.86,3.38,3.38,0,0,1,.56-3.17,5,5,0,0,1,4-2h.25ZM102,127.45a5,5,0,0,1-.7-4.43,0,0,0,0,0,0,0l.07-.21a7,7,0,0,0-.32-5.06,7,7,0,0,0,4.74,1.88h.31a4.9,4.9,0,0,1,3.89,2c2.11,2.89-.79,5.34-1.73,6a6.64,6.64,0,0,1-2.8,1.25,4.46,4.46,0,0,1-.63.05h0a3.38,3.38,0,0,1-2.83-1.51m-45.49-2.38c-1.36-.69-2.28-1.34-2.68-2.46l-.06-.17a6,6,0,0,1,.41-4.55,5.34,5.34,0,1,1,9.49,4.84,5.91,5.91,0,0,1-3.43,3h0l-.2.06h0l-.35.08a3.55,3.55,0,0,1-.46,0,6,6,0,0,1-2.69-.84m37.56.71-.17,0a6,6,0,0,1-3.44-3,5.35,5.35,0,1,1,9.5-4.84,6,6,0,0,1,.41,4.54s0,0,0,0l-.07.21h0a4.73,4.73,0,0,1-2.65,2.4,7.11,7.11,0,0,1-2.16.8,2.47,2.47,0,0,1-.54,0,2.91,2.91,0,0,1-.87-.13M71.9,117.34a1.19,1.19,0,0,1-.65-.35l-1.16-1.18a2.24,2.24,0,0,1-.49-1.89,2.26,2.26,0,0,1,1.06-1.65l1.48-.76a1.13,1.13,0,0,1,1.37.23l1.16,1.18a2.22,2.22,0,0,1,.51,1.71l0,.18a2.2,2.2,0,0,1-1.06,1.64l-1.48.76a1.07,1.07,0,0,1-.38.13H71.9m9.62-.13-1.47-.77a2.42,2.42,0,0,1-.55-3.53l1.17-1.18a1.12,1.12,0,0,1,1.37-.21l1.47.77a2.14,2.14,0,0,1,1,1.46l0,.18a2.26,2.26,0,0,1-.5,1.89L82.88,117a1.19,1.19,0,0,1-.65.35h-.16a1.14,1.14,0,0,1-.55-.15m-8,.68,1.06-.54A3.26,3.26,0,0,0,76.15,115a.58.58,0,0,0,0-.19l.91-5.56a.53.53,0,0,1,0-.13.38.38,0,0,0,0,.1L78,115a3.26,3.26,0,0,0,1.58,2.39l1.08.56a6.64,6.64,0,0,0-3.57,4.65,6.62,6.62,0,0,0-3.58-4.66M44.06,108.7a7,7,0,0,0-1.87,4.74v.17a.66.66,0,0,1,0,.14,4.91,4.91,0,0,1-2,3.89,3.71,3.71,0,0,1-1.63.71c-2.15.34-3.85-1.69-4.4-2.44a6.08,6.08,0,0,1-1.31-3.43,3.36,3.36,0,0,1,1.51-2.84,5,5,0,0,1,4.44-.7h0L39,109a6.86,6.86,0,0,0,2.09.33,7.2,7.2,0,0,0,3-.65m69.94,9a5,5,0,0,1-2-4v-.25a7,7,0,0,0-1.87-4.71,7,7,0,0,0,5.08.32l.12,0,0,0,.14,0a4.93,4.93,0,0,1,4.32.72c2.89,2.1.9,5.33.21,6.27a5.94,5.94,0,0,1-2.85,2.3,2.7,2.7,0,0,1-.56.14,2.85,2.85,0,0,1-.51,0,3.49,3.49,0,0,1-2.1-.74m-51.94-3.51a1.17,1.17,0,0,1-.5-.53l-.73-1.48a2.22,2.22,0,0,1,.11-1.95,2.25,2.25,0,0,1,1.52-1.24l1.64-.26a1.12,1.12,0,0,1,1.23.63l.74,1.49a2.21,2.21,0,0,1,0,1.78l-.08.16A2.29,2.29,0,0,1,64.43,114l-1.65.26h0l-.21,0a1.13,1.13,0,0,1-.51-.12m29.28.11L89.71,114a2.42,2.42,0,0,1-1.62-3.19l.75-1.48a1.13,1.13,0,0,1,1.24-.63l1.63.28A2.14,2.14,0,0,1,93.13,110l.08.16a2.22,2.22,0,0,1,.11,2l-.75,1.49a1.14,1.14,0,0,1-.51.53,1,1,0,0,1-.31.09l-.19,0-.22,0m-27.93.91L64.6,115a3.21,3.21,0,0,0,2.24-1.76.89.89,0,0,0,.08-.17l2.58-5s0-.09,0-.13a.44.44,0,0,0,0,.1l-.93,5.75a3.26,3.26,0,0,0,.76,2.76l.86.87a6.61,6.61,0,0,0-4.84,3.32,6.58,6.58,0,0,0-2-5.54m20.52,2.22.84-.85a3.22,3.22,0,0,0,.78-2.74q0-.11,0-.18L84.65,108s0-.09,0-.13a.36.36,0,0,0,0,.09l2.62,5.19A3.28,3.28,0,0,0,89.53,115l1.21.2a6.58,6.58,0,0,0-2,5.53,6.62,6.62,0,0,0-4.85-3.32m-38.88-.64c-1.07-1.08-1.75-2-1.79-3.17v-.18a6,6,0,0,1,1.79-4.19,5.35,5.35,0,1,1,7.54,7.53,6.16,6.16,0,0,1-3.32,1.73,6.36,6.36,0,0,1-.87.06h-.25c-1.14,0-2-.72-3.1-1.78m56.52,0a5.35,5.35,0,1,1,7.54-7.53,6,6,0,0,1,1.79,4.18v.24h0a4.73,4.73,0,0,1-1.77,3.1,5.29,5.29,0,0,1-2.79,1.75,1.61,1.61,0,0,1-.39,0h-.18a5.93,5.93,0,0,1-4.19-1.79m-31-8.56a2.25,2.25,0,0,1,1.07-1.65l1.47-.76a1.14,1.14,0,0,1,1.37.22l1.16,1.19a2.24,2.24,0,0,1,.49,1.9l-.53,3.33-.16-.18L74.23,111a2.12,2.12,0,0,0-2.55-.41l-1.48.76-.22.14Zm7.57.87a2.24,2.24,0,0,1,.51-1.89L79.77,106a1.11,1.11,0,0,1,1.36-.21l1.48.77a2.25,2.25,0,0,1,1,1.65l.52,3.34a1.43,1.43,0,0,0-.21-.12l-1.47-.77a2.16,2.16,0,0,0-1.35-.24A2.2,2.2,0,0,0,80,111l-1.17,1.18c-.06.06-.11.13-.17.2Zm-21.42.59a3.57,3.57,0,0,0,1.87-1l.12-.14,4-4,.09-.1,0,.09L60,109.7a3.27,3.27,0,0,0-.12,2.87l.54,1.09a6.64,6.64,0,0,0-5.63,1.67,6.6,6.6,0,0,0-.16-5.88l1.18.18.38,0a3.25,3.25,0,0,0,.44,0m37.55,3a3.22,3.22,0,0,0-.09-2.85l-.1-.16-2.54-5-.07-.11a.23.23,0,0,1,.07.07l4.1,4.13a3.27,3.27,0,0,0,2.68,1l1.21-.18a6.64,6.64,0,0,0-.16,5.87,6.57,6.57,0,0,0-5.63-1.67Zm-17.91-6.12-1.15-1.18a3.19,3.19,0,0,0,1.92-1.49A3.22,3.22,0,0,0,79,105.3l-1.13,1.14a3,3,0,0,0-.79,1.74,3,3,0,0,0-.78-1.71M63.59,105a2.23,2.23,0,0,1,1.52-1.23l1.64-.27a1.13,1.13,0,0,1,1.24.63l.73,1.49a2.22,2.22,0,0,1-.12,2l-1.54,3-.09-.22-.74-1.49a2.15,2.15,0,0,0-1-1,2.17,2.17,0,0,0-1.34-.2L62.3,108,62,108Zm22,2.55a2.18,2.18,0,0,1-.1-2l.75-1.49a1.11,1.11,0,0,1,1.23-.62l1.64.28A2.16,2.16,0,0,1,90.59,105l1.52,3-.23-.05-1.63-.28a2.22,2.22,0,0,0-1.36.19,2.25,2.25,0,0,0-1,1l-.74,1.48a2.56,2.56,0,0,0-.11.24Zm10.76.39a2.23,2.23,0,0,1-.71-1.83l.26-1.64a1.13,1.13,0,0,1,1-1l1.64-.24a2.14,2.14,0,0,1,1.68.59l.13.13a2.23,2.23,0,0,1,.71,1.83l-.26,1.64a1.1,1.1,0,0,1-1,1h0l-1.65.25h-.22a2.33,2.33,0,0,1-1.59-.72m-40.32.7-1.64-.25a1.15,1.15,0,0,1-.66-.32,1.2,1.2,0,0,1-.31-.66l-.24-1.64a2.22,2.22,0,0,1,.71-1.82,2.25,2.25,0,0,1,1.82-.7l1.64.25a1.12,1.12,0,0,1,1,1l.24,1.64A2.15,2.15,0,0,1,58,107.8l-.13.13a2.36,2.36,0,0,1-1.32.69,1.24,1.24,0,0,1-.27,0l-.24,0m13.52-5a3.23,3.23,0,0,0,1.66-.8,3.2,3.2,0,0,0,1.38,2l-1.43.74a3,3,0,0,0-1.3,1.41,3,3,0,0,0-.21-1.88l-.73-1.47H69a4.38,4.38,0,0,0,.51,0m13.55,2-1.45-.76a3.22,3.22,0,0,0,1.36-2,3.21,3.21,0,0,0,2.3.83l-.72,1.44a3,3,0,0,0-.22,1.9,3,3,0,0,0-1.27-1.39m-17.21-5.49a3.19,3.19,0,0,0,.68,2.35l-1.59.27a3,3,0,0,0-1.66.93,3.06,3.06,0,0,0,.38-1.84l-.24-1.62a3.29,3.29,0,0,0,2.43-.09m23.39,2.61-1.62-.27a3.22,3.22,0,0,0,.67-2.34,3.2,3.2,0,0,0,2.45.08l-.25,1.59a3,3,0,0,0,.39,1.87,3,3,0,0,0-1.64-.93m-15.31,1.76a2.34,2.34,0,1,1,.73,0l-.36,0-.37,0m3.6-2a2.34,2.34,0,1,1,2.68,2l-.37,0a2.36,2.36,0,0,1-2.31-2m-18,3.4-.24-1.64a2.27,2.27,0,0,0-.6-1.23,2.14,2.14,0,0,0-1.22-.6l-1.64-.26h-.27L58,99.83a2.19,2.19,0,0,1,1.82-.7l1.64.25a1.12,1.12,0,0,1,1,1l.24,1.65a2.23,2.23,0,0,1-.71,1.82l-2.4,2.38c0-.08,0-.16,0-.24M92.2,103.8a2.26,2.26,0,0,1-.7-1.83l.25-1.64a1.15,1.15,0,0,1,1-1l1.64-.23a2.22,2.22,0,0,1,1.82.71l2.39,2.4h-.24l-1.65.25a2.11,2.11,0,0,0-1.83,1.81L94.62,106a2.06,2.06,0,0,0,0,.26ZM51,102.1a3.77,3.77,0,0,0,1.06-.35.83.83,0,0,0,.16-.09l5-2.54.11-.07a.46.46,0,0,0-.07.07l-4.13,4.1a3.22,3.22,0,0,0-1,2.68l.17,1.21a6.62,6.62,0,0,0-5.86-.16,6.6,6.6,0,0,0,1.66-5.63l1.07.53a2.81,2.81,0,0,0,1.26.29,4.91,4.91,0,0,0,.53,0m51,3.83a3.28,3.28,0,0,0-1-2.68l-.14-.12-4-4L96.82,99l.08,0,5.18,2.66a3.25,3.25,0,0,0,2.86.13l1.1-.54A6.58,6.58,0,0,0,107.7,107a6.61,6.61,0,0,0-5.87.16Zm-34-3.35a2.36,2.36,0,1,1,1.43.22,2.22,2.22,0,0,1-.37,0,2.36,2.36,0,0,1-1.06-.25m15.07-1a2.33,2.33,0,1,1,3.14,1,2.14,2.14,0,0,1-.69.22,2.19,2.19,0,0,1-.36,0A2.36,2.36,0,0,1,83,101.56m-46.32,3.72A4.78,4.78,0,0,1,36,101.7a.69.69,0,0,0,0-.17,6,6,0,0,1,3-3.43,5.35,5.35,0,1,1,4.84,9.5,6.44,6.44,0,0,1-1.86.61,5.94,5.94,0,0,1-2.68-.2s0,0,0,0l-.2-.07h0a4.77,4.77,0,0,1-2.4-2.65m73.55,2.31a5.34,5.34,0,1,1,4.83-9.49,6,6,0,0,1,3,3.43v0l.06.2h0a4.67,4.67,0,0,1-.73,3.5A4.75,4.75,0,0,1,115,108l-.16,0a6.21,6.21,0,0,1-.85.21,5.62,5.62,0,0,1-.92.07,6,6,0,0,1-2.77-.69M76.8,99.83a1.81,1.81,0,0,1-.94-.48,1.72,1.72,0,0,1,1.21-2.94,1.64,1.64,0,0,1,1.22.5,1.73,1.73,0,0,1-.94,2.92l-.28,0h0l-.25,0M80.44,99a1.73,1.73,0,0,1,.25-3.17,1.66,1.66,0,0,1,1.31.1,1.72,1.72,0,0,1-.25,3.17,1.1,1.1,0,0,1-.26.06,1.23,1.23,0,0,1-.27,0,1.75,1.75,0,0,1-.78-.18m-8,.1L72.14,99a1.71,1.71,0,0,1-.85-2.06A1.72,1.72,0,1,1,74.56,98a1.74,1.74,0,0,1-1.37,1.17l-.27,0a1.88,1.88,0,0,1-.52-.08m30.15,1.73a2.22,2.22,0,0,1-1.23-1.51l-.27-1.65a1.1,1.1,0,0,1,.63-1.22l1.49-.74a2.17,2.17,0,0,1,1.78,0l.17.09a2.23,2.23,0,0,1,1.23,1.52l.26,1.64a1.11,1.11,0,0,1-.62,1.22l-1.49.74a1.92,1.92,0,0,1-.48.15l-.32,0a2.48,2.48,0,0,1-1.15-.29M49.64,101l-1.49-.75a1.22,1.22,0,0,1-.52-.51,1.15,1.15,0,0,1-.1-.72l.28-1.64A2.44,2.44,0,0,1,51,95.72l1.49.75a1.12,1.12,0,0,1,.62,1.24l-.28,1.63a2.18,2.18,0,0,1-1.07,1.42l-.17.08a2.56,2.56,0,0,1-.78.26c-.12,0-.24,0-.37,0a1.88,1.88,0,0,1-.8-.18M59,96.88l.28-1.62a3.19,3.19,0,0,0,2.33.67,3.2,3.2,0,0,0-.08,2.45L60,98.13a3,3,0,0,0-1.88.38A3,3,0,0,0,59,96.88m34.35-1a3.28,3.28,0,0,0,1.51-.67l.26,1.59a3.05,3.05,0,0,0,.93,1.67,3,3,0,0,0-1.84-.38l-1.62.24a3.2,3.2,0,0,0-.09-2.43l.35,0a4,4,0,0,0,.5,0m24.48,1.37a7.16,7.16,0,0,0,3-1.23l.1-.08,0,0,.12-.08a4.91,4.91,0,0,1,4.33-.64c3.41,1.1,2.51,4.79,2.15,5.89a6,6,0,0,1-2,3.07,3.34,3.34,0,0,1-3.18.45,5,5,0,0,1-3.18-3.17v0l-.07-.21a7,7,0,0,0-3.24-3.9,7.81,7.81,0,0,0,.83,0,8.47,8.47,0,0,0,1.13-.08m-91.26,3.83a6,6,0,0,1-.18-3.66,3.34,3.34,0,0,1,2.31-2.24,5,5,0,0,1,4.44.7,0,0,0,0,0,0,0l.17.14a7.08,7.08,0,0,0,4.92,1.25A7,7,0,0,0,35,101.24a.65.65,0,0,1,0,.13l0,0a1.12,1.12,0,0,1-.05.13,4.91,4.91,0,0,1-3.12,3.07,4.86,4.86,0,0,1-.69.16,3.88,3.88,0,0,1-.57,0c-2.51,0-3.63-2.77-3.94-3.72M62.9,98.89a2.34,2.34,0,1,1,3.3,0,2.32,2.32,0,0,1-1.28.65l-.37,0a2.29,2.29,0,0,1-1.65-.68m25.06,0a2.34,2.34,0,1,1,3.3,0,2.28,2.28,0,0,1-1.28.65,2.33,2.33,0,0,1-2-.65m-3.27-1.62a1.75,1.75,0,0,1-1.12-.69A1.73,1.73,0,0,1,84,94.17a1.75,1.75,0,0,1,1.28-.3,1.65,1.65,0,0,1,1.12.69A1.72,1.72,0,0,1,86,97l-.24.14a1.54,1.54,0,0,1-.51.17l-.26,0-.28,0M68.17,97,68,96.78a1.72,1.72,0,0,1-.47-1,1.67,1.67,0,0,1,.3-1.28,1.73,1.73,0,0,1,2.41-.38,1.7,1.7,0,0,1,.68,1.12,1.66,1.66,0,0,1-.3,1.28,1.71,1.71,0,0,1-1.12.69l-.28,0a1.74,1.74,0,0,1-1-.33M53.82,99.51l.28-1.64a2.11,2.11,0,0,0-1.16-2.3l-1.48-.75-.25-.1,3-1.53a2.2,2.2,0,0,1,2-.1l1.48.74a1.12,1.12,0,0,1,.63,1.24L58,96.7a2.24,2.24,0,0,1-1.25,1.52l-3,1.52a.86.86,0,0,0,0-.23m43.55-1.32a2.22,2.22,0,0,1-1.24-1.52L95.86,95a1.12,1.12,0,0,1,.64-1.23L98,93.06a2.24,2.24,0,0,1,2,.12l3,1.54-.22.1-1.49.73a2.11,2.11,0,0,0-1.18,2.3l.27,1.64a1,1,0,0,0,.06.25Zm11.51-5.77.87-.86a6.65,6.65,0,0,0,3.33,4.84,6.59,6.59,0,0,0-5.54,2l-.2-1.18a3.25,3.25,0,0,0-1.75-2.25l-.17-.08-5-2.57-.12-.05h.1l5.74.94a3.9,3.9,0,0,0,.59,0,3.11,3.11,0,0,0,2.17-.81m-64.47-.86.85.84a3.24,3.24,0,0,0,2.74.78l.18,0,5.58-.86.12,0-.09,0L48.6,94.92a3.2,3.2,0,0,0-1.78,2.24l-.21,1.2a6.61,6.61,0,0,0-5.53-2,6.6,6.6,0,0,0,3.33-4.84M86.92,94a1.74,1.74,0,0,1-.38-2.41,1.68,1.68,0,0,1,1.12-.69,1.72,1.72,0,0,1,1.67,2.71c-.06.07-.12.15-.18.21a1.73,1.73,0,0,1-1,.48l-.27,0a1.75,1.75,0,0,1-1-.32m-22.1-.4a1.76,1.76,0,0,1-.14-.23,1.72,1.72,0,0,1-.16-1.05,1.7,1.7,0,0,1,.68-1.12,1.72,1.72,0,1,1,2,2.78,1.66,1.66,0,0,1-.74.31l-.27,0a1.75,1.75,0,0,1-1.4-.71m-5.61.21a2.33,2.33,0,1,1,3.14,1,2.55,2.55,0,0,1-.69.23,2.22,2.22,0,0,1-.37,0,2.33,2.33,0,0,1-2.08-1.28m32.6,1a2.33,2.33,0,1,1,3.14-1,2.37,2.37,0,0,1-1.72,1.25,2.19,2.19,0,0,1-.36,0,2.24,2.24,0,0,1-1.06-.26M56.15,90.7l.76-1.46a3.17,3.17,0,0,0,2,1.37,3.19,3.19,0,0,0-.83,2.3l-1.44-.72A2.94,2.94,0,0,0,54.76,92a3.07,3.07,0,0,0,1.39-1.27m39.09-.09a3.21,3.21,0,0,0,2-1.38L98,90.66A3,3,0,0,0,99.41,92a3,3,0,0,0-1.87.21l-1.47.73a3.25,3.25,0,0,0-.83-2.28m-5.93-.12a1.72,1.72,0,1,1,2.17-1.1c0,.09-.07.17-.1.25a1.83,1.83,0,0,1-.75.76,2,2,0,0,1-.52.16l-.26,0a1.7,1.7,0,0,1-.54-.09M62.68,89.38a2.68,2.68,0,0,1-.07-.27,1.64,1.64,0,0,1,.17-1,1.67,1.67,0,0,1,1-.86A1.73,1.73,0,0,1,66,88.32a1.71,1.71,0,0,1-.11,1.31,1.66,1.66,0,0,1-1,.85l-.26.07-.27,0a1.71,1.71,0,0,1-1.63-1.19m43.61,2.81a2.27,2.27,0,0,1-1.64-1.07l-.76-1.48a1.1,1.1,0,0,1,.22-1.36l1.18-1.17A2.22,2.22,0,0,1,107,86.6l.18,0a2.21,2.21,0,0,1,1.64,1.07l.76,1.47a1.11,1.11,0,0,1,.13.72,1.18,1.18,0,0,1-.34.64l-1.19,1.16a2,2,0,0,1-1.06.5,2.6,2.6,0,0,1-.4,0l-.43,0M46,91.67,44.78,90.5a1.18,1.18,0,0,1-.34-.64,1.25,1.25,0,0,1,.13-.72l.77-1.47a2.42,2.42,0,0,1,3.53-.55l1.18,1.17a1.11,1.11,0,0,1,.22,1.37l-.77,1.47a2.19,2.19,0,0,1-1.46,1l-.19,0a3,3,0,0,1-.42,0A2.12,2.12,0,0,1,46,91.67m4.43-.07.77-1.47a2.13,2.13,0,0,0-.4-2.55l-1.18-1.17-.2-.17,3.36-.52a2.21,2.21,0,0,1,1.89.5l1.18,1.17A1.11,1.11,0,0,1,56,88.76l-.77,1.47a2.19,2.19,0,0,1-1.64,1h0l-3.34.51.13-.2m50.15-.34A2.2,2.2,0,0,1,98.9,90.2l-.76-1.48a1.1,1.1,0,0,1,.22-1.36l1.18-1.17a2.25,2.25,0,0,1,1.9-.49l3.33.54-.18.15-1.19,1.17a2.18,2.18,0,0,0-.64,1.21A2.1,2.1,0,0,0,103,90.1l.76,1.48a1,1,0,0,0,.13.22ZM34,95.21a0,0,0,0,1,0,0l-.17-.12h0a4.73,4.73,0,0,1-1.46-3.26,4.75,4.75,0,0,1,.41-3.62.83.83,0,0,0,.11-.15,6,6,0,0,1,3.91-2.34,5.35,5.35,0,1,1,1.67,10.53h0a5.51,5.51,0,0,1-1,.08A5.89,5.89,0,0,1,34,95.21m81.72,1a5.35,5.35,0,1,1,1.66-10.53A6,6,0,0,1,121.3,88v0l.12.17s0,0,0,0a4.77,4.77,0,0,1,.38,3.56,4.75,4.75,0,0,1-1.52,3.31l-.14.11a5.82,5.82,0,0,1-3.44,1.09,6.63,6.63,0,0,1-1-.08M57.27,87.84a2.33,2.33,0,1,1,2.67,2,2.23,2.23,0,0,1-.37,0,2.34,2.34,0,0,1-2.3-2m36.95,2a2.34,2.34,0,1,1,.72,0,2,2,0,0,1-.35,0,2.23,2.23,0,0,1-.37,0m-5.44-5.08A1.72,1.72,0,0,1,90.5,83a1.72,1.72,0,0,1,1.72,1.72,2.46,2.46,0,0,1,0,.28,1.71,1.71,0,0,1-1.43,1.42,1.23,1.23,0,0,1-.27,0,1.72,1.72,0,0,1-1.72-1.72m-26.84,0a1.32,1.32,0,0,1,0-.28,1.67,1.67,0,0,1,.48-.94,1.74,1.74,0,0,1,1.22-.5,1.72,1.72,0,0,1,1.72,1.72,1.74,1.74,0,0,1-.5,1.22,1.76,1.76,0,0,1-.95.48l-.27,0a1.71,1.71,0,0,1-1.72-1.72m-6.6.81a3,3,0,0,0-1.74-.79l.11,0a3,3,0,0,0,1.61-.76l1.17-1.15A3.27,3.27,0,0,0,58,84.71a3.24,3.24,0,0,0-1.51,1.93Zm40.83-.8a3.21,3.21,0,0,0,1.5-1.94l1.15,1.13a3,3,0,0,0,1.74.79,3,3,0,0,0-1.72.79l-1.17,1.14a3.22,3.22,0,0,0-1.5-1.91m13.55,2.52a3.25,3.25,0,0,0-2.36-1.6l-.19,0-5.57-.9-.13,0h.1l5.75-.89h0a3.24,3.24,0,0,0,2.38-1.58l.57-1.08a6.61,6.61,0,0,0,4.65,3.58,6.58,6.58,0,0,0-4.66,3.58ZM39.23,84.71a6.65,6.65,0,0,0,4.66-3.58l.55,1.06a3.24,3.24,0,0,0,2.36,1.59l.19,0,5.57.9.13,0h-.1l-5.75.89a3.26,3.26,0,0,0-2.39,1.58l-.57,1.08a6.61,6.61,0,0,0-4.65-3.57m83.08,2.91v0l-.13-.18a6.92,6.92,0,0,0-4.28-2.71,7,7,0,0,0,4.3-2.74l.07-.1,0,0a.76.76,0,0,1,.08-.11,4.92,4.92,0,0,1,3.93-2c3.57,0,3.85,3.78,3.86,4.94a6,6,0,0,1-1,3.54A3.22,3.22,0,0,1,127,89.6a3.82,3.82,0,0,1-.68.06h0a5,5,0,0,1-4-2M24,84.71a6,6,0,0,1,1-3.54,3.35,3.35,0,0,1,2.89-1.42,5,5,0,0,1,4,2s0,0,0,0L32,82a7,7,0,0,0,4.29,2.72A6.93,6.93,0,0,0,32,87.44a.61.61,0,0,0-.07.1l0,0-.09.11a5,5,0,0,1-3.92,2h0c-3.57,0-3.86-3.79-3.86-4.94m35.22-.47a2.33,2.33,0,1,1,.73,0,2.22,2.22,0,0,1-.37,0,2.28,2.28,0,0,1-.36,0M92.27,82.3a2.34,2.34,0,1,1,2.67,1.94,2.19,2.19,0,0,1-.36,0,2.34,2.34,0,0,1-2.31-2m-4.06-1.21a1.66,1.66,0,0,1,.1-1.31,1.73,1.73,0,0,1,3.17.25,2.68,2.68,0,0,1,.07.27,1.67,1.67,0,0,1-.17,1,1.71,1.71,0,0,1-1,.85,1.31,1.31,0,0,1-.27.06,1.09,1.09,0,0,1-.26,0,1.73,1.73,0,0,1-1.64-1.2m-24.42,1.1A1.73,1.73,0,0,1,62.68,80a1.86,1.86,0,0,1,.1-.25,1.81,1.81,0,0,1,.75-.75,1.68,1.68,0,0,1,1.32-.1,1.73,1.73,0,0,1,.25,3.17,2,2,0,0,1-.52.16,1.1,1.1,0,0,1-.26,0,1.59,1.59,0,0,1-.53-.08m35.74,1L98.35,82a1.11,1.11,0,0,1-.22-1.37l.78-1.47a2.21,2.21,0,0,1,1.65-1.05l3.34-.52a1.37,1.37,0,0,0-.13.2L103,79.28a2.11,2.11,0,0,0,.39,2.55L104.57,83l.2.17-3.35.52a3,3,0,0,1-.42,0,2.09,2.09,0,0,1-1.47-.54m-46.81.52-3.34-.54.18-.15,1.19-1.17a2.1,2.1,0,0,0,.41-2.54l-.76-1.48c0-.08-.09-.15-.13-.22l3.35.54a2.24,2.24,0,0,1,1.64,1.06L56,80.69a1.11,1.11,0,0,1-.22,1.37l-1.18,1.16a2,2,0,0,1-1.06.49,1.84,1.84,0,0,1-.41,0l-.43,0m52.56-1.42-1.18-1.17a1.12,1.12,0,0,1-.21-1.37l.77-1.47a2.19,2.19,0,0,1,1.46-1l.18,0a2.18,2.18,0,0,1,1.89.5l1.18,1.17a1.14,1.14,0,0,1,.35.64,1.25,1.25,0,0,1-.13.72l-.78,1.47a2.25,2.25,0,0,1-1.63,1.05l-.43,0a2.12,2.12,0,0,1-1.47-.53m-58.12.52-.19,0a2.26,2.26,0,0,1-1.64-1.06l-.76-1.48a1.16,1.16,0,0,1-.12-.72,1.12,1.12,0,0,1,.34-.64L46,77.72a2.43,2.43,0,0,1,3.53.57l.76,1.48a1.1,1.1,0,0,1-.22,1.36l-1.19,1.16a1.92,1.92,0,0,1-1,.5,2.73,2.73,0,0,1-.41,0h-.24m8.71-5.33a2.62,2.62,0,0,0,.75-.23l1.47-.73a3.23,3.23,0,0,0,.83,2.29,3.24,3.24,0,0,0-2,1.37l-.74-1.43a2.9,2.9,0,0,0-1.4-1.29,3.47,3.47,0,0,0,.64.06,2.59,2.59,0,0,0,.48,0m39.37,1.33a3.23,3.23,0,0,0,.83-2.31l1.44.72a2.93,2.93,0,0,0,1.89.22A3,3,0,0,0,98,78.71l-.76,1.46a3.18,3.18,0,0,0-2-1.36m-8.69-1a1.75,1.75,0,0,1-.31-1.29,1.72,1.72,0,0,1,3.09-.74,1.14,1.14,0,0,1,.15.23,1.72,1.72,0,0,1,.16,1A1.69,1.69,0,0,1,89,78.21a1.61,1.61,0,0,1-.74.31l-.27,0a1.75,1.75,0,0,1-1.39-.7m-21.34.36a1.71,1.71,0,0,1-.38-2.4.91.91,0,0,1,.18-.21,1.67,1.67,0,0,1,.95-.48,1.7,1.7,0,0,1,1.27.31,1.73,1.73,0,0,1,.39,2.4,1.68,1.68,0,0,1-1.12.69h0a1.23,1.23,0,0,1-.27,0,1.69,1.69,0,0,1-1-.33m-5,.54a2.33,2.33,0,1,1,1.42.23,2.19,2.19,0,0,1-.36,0,2.24,2.24,0,0,1-1.06-.26m30.56-1a2.33,2.33,0,1,1,3.14,1,2.3,2.3,0,0,1-.7.23,2.19,2.19,0,0,1-.36,0,2.33,2.33,0,0,1-2.08-1.28m-54,6a6,6,0,0,1-3.91-2.34,0,0,0,0,1,0,0h0l-.12-.17h0a4.7,4.7,0,0,1-.38-3.55,4.77,4.77,0,0,1,1.51-3.32L34,74.2a6,6,0,0,1,4.44-1,5.59,5.59,0,0,1,4.88,6.18,5.39,5.39,0,0,1-4.61,4.35,6,6,0,0,1-1,.07,6.55,6.55,0,0,1-1-.07m74.06-4.37a5.6,5.6,0,0,1,4.89-6.16,6,6,0,0,1,4.44,1l0,0,.17.12h0a4.78,4.78,0,0,1,1.47,3.26,4.75,4.75,0,0,1-.42,3.62l-.1.15a6,6,0,0,1-3.91,2.34h0a6.42,6.42,0,0,1-1,.07,5.51,5.51,0,0,1-5.58-4.44M79,72.89s0,.12.06.18a2.56,2.56,0,0,0,1.08,1.08l.36.15a2.5,2.5,0,0,0,2.06-.25,1.28,1.28,0,0,0,0,.19,2.44,2.44,0,0,0,.69,1.36,2.48,2.48,0,0,0,.3.25,2.42,2.42,0,0,0,2,.4,1.16,1.16,0,0,0,0,.18,2.45,2.45,0,0,0,.23,1.51,2.39,2.39,0,0,0,.21.34,2.49,2.49,0,0,0,1.81,1,.91.91,0,0,0-.11.16A2.47,2.47,0,0,0,87.4,81a2.62,2.62,0,0,0,.09.38,2.48,2.48,0,0,0,1.41,1.51l-.15.12a2.4,2.4,0,0,0-.69,1.36,1.72,1.72,0,0,0,0,.39,2.46,2.46,0,0,0,.88,1.87l-.18.07a2.5,2.5,0,0,0-1.08,1.08,2.39,2.39,0,0,0-.15.37,2.46,2.46,0,0,0,.25,2,1.23,1.23,0,0,0-.19,0,2.37,2.37,0,0,0-1.36.69,1.87,1.87,0,0,0-.26.3,2.45,2.45,0,0,0-.39,2l-.19,0a2.54,2.54,0,0,0-1.51.24,2.3,2.3,0,0,0-.33.21,2.44,2.44,0,0,0-1,1.8l-.17-.1a2.38,2.38,0,0,0-1.5-.24,2.34,2.34,0,0,0-.38.09,2.45,2.45,0,0,0-1.52,1.41.88.88,0,0,0-.12-.15,2.39,2.39,0,0,0-1.36-.7,2.34,2.34,0,0,0-.38,0,2.47,2.47,0,0,0-1.88.87s0-.12-.07-.18a2.54,2.54,0,0,0-1.07-1.08l-.37-.14a2.41,2.41,0,0,0-2,.25c0-.07,0-.13,0-.2a2.44,2.44,0,0,0-.69-1.35,1.48,1.48,0,0,0-.3-.26,2.52,2.52,0,0,0-2-.4,1.21,1.21,0,0,0,0-.18,2.45,2.45,0,0,0-.23-1.51,3.87,3.87,0,0,0-.21-.34,2.49,2.49,0,0,0-1.81-1,.91.91,0,0,0,.11-.16,2.47,2.47,0,0,0,.24-1.51,3,3,0,0,0-.09-.38,2.51,2.51,0,0,0-1.41-1.51,1.58,1.58,0,0,0,.15-.12,2.47,2.47,0,0,0,.69-1.36,2.56,2.56,0,0,0,0-.39,2.45,2.45,0,0,0-.87-1.87l.18-.07a2.5,2.5,0,0,0,1.08-1.08,2,2,0,0,0,.15-.37,2.46,2.46,0,0,0-.25-2h.19a2.51,2.51,0,0,0,1.36-.7,1.74,1.74,0,0,0,.25-.29,2.48,2.48,0,0,0,.4-2l.19.05a2.42,2.42,0,0,0,1.5-.24,1.9,1.9,0,0,0,.34-.2,2.48,2.48,0,0,0,1-1.81.91.91,0,0,1,.16.11,2.51,2.51,0,0,0,1.13.27,1.64,1.64,0,0,0,.38,0,1.62,1.62,0,0,0,.38-.09,2.44,2.44,0,0,0,1.51-1.4l.12.14a2.45,2.45,0,0,0,1.36.7,2.56,2.56,0,0,0,.39,0A2.47,2.47,0,0,0,79,72.89m5,2.35a1.72,1.72,0,1,1,2-2.78,1.12,1.12,0,0,1,.2.18,1.61,1.61,0,0,1,.48.94,1.7,1.7,0,0,1-.3,1.28,1.74,1.74,0,0,1-1.13.69l-.27,0a1.74,1.74,0,0,1-1-.33m-15,.31a1.78,1.78,0,0,1-1.13-.69,1.73,1.73,0,0,1,.38-2.41l.24-.14a1.65,1.65,0,0,1,1-.17,1.75,1.75,0,0,1,1.12.69,1.73,1.73,0,0,1-.38,2.4,1.8,1.8,0,0,1-.74.32h-.54m31.44,1.57,5.19-2.62a3.24,3.24,0,0,0,1.78-2.24l.2-1.21a6.64,6.64,0,0,0,5.54,2,6.6,6.6,0,0,0-3.33,4.85L108.9,77a3.22,3.22,0,0,0-2.74-.79l-.18,0-5.58.86-.13,0,.1,0M42.92,73A6.41,6.41,0,0,0,46.62,71l.19,1.18a3.25,3.25,0,0,0,1.76,2.25l.17.08,5,2.57.12.06-.1,0L48,76.23a3.25,3.25,0,0,0-2.76.76l-.88.86A6.61,6.61,0,0,0,41.08,73a6.28,6.28,0,0,0,.75,0A7.77,7.77,0,0,0,42.92,73M59,72.58a3,3,0,0,0-.94-1.67,2.94,2.94,0,0,0,1.85.38l1.62-.24a3.24,3.24,0,0,0,.08,2.43,3.22,3.22,0,0,0-2.35.69Zm37-1.68a3,3,0,0,0-.94,1.63l-.27,1.62a3.22,3.22,0,0,0-2.34-.67A3.2,3.2,0,0,0,92.6,71l1.59.25a2.31,2.31,0,0,0,.37,0,3.23,3.23,0,0,0,1.51-.41M80.7,73.58a1.7,1.7,0,0,1-1-.86,1.66,1.66,0,0,1-.1-1.31,1.71,1.71,0,0,1,2.16-1.1,1.17,1.17,0,0,1,.26.1,1.7,1.7,0,0,1,.75.75,1.78,1.78,0,0,1,.1,1.32,1.73,1.73,0,0,1-1.37,1.16l-.27,0a1.63,1.63,0,0,1-.53-.08m-8.54-.11a1.7,1.7,0,0,1-.86-1,1.73,1.73,0,0,1,1.1-2.17,1.31,1.31,0,0,1,.27-.06,1.72,1.72,0,0,1,1.9,1.17,1.71,1.71,0,0,1-1.1,2.16.9.9,0,0,1-.27.07l-.26,0a1.64,1.64,0,0,1-.78-.19m-9.26.36a2.34,2.34,0,1,1,2,.65l-.37,0a2.29,2.29,0,0,1-1.65-.68m25.06,0a2.34,2.34,0,1,1,3.3,0,2.28,2.28,0,0,1-1.28.65,2.33,2.33,0,0,1-2-.65m10,2.5-1.49-.75a1.13,1.13,0,0,1-.62-1.24l.28-1.63a2.22,2.22,0,0,1,1.24-1.52l3-1.52a2,2,0,0,0-.06.23l-.28,1.64a2.14,2.14,0,0,0,1.17,2.3l1.48.75.25.1-3,1.53a2.47,2.47,0,0,1-.78.26c-.12,0-.24,0-.36,0a1.79,1.79,0,0,1-.81-.18m-43.74-.1-3-1.54.22-.09,1.49-.74a2.28,2.28,0,0,0,1-1,2.19,2.19,0,0,0,.19-1.35l-.27-1.64a1.14,1.14,0,0,0-.06-.25l3,1.55A2.22,2.22,0,0,1,58,72.74l.27,1.64a1.13,1.13,0,0,1-.64,1.23l-1.49.74a1.73,1.73,0,0,1-.47.15l-.32,0a2.62,2.62,0,0,1-1.16-.29M75.87,72.5a1.73,1.73,0,0,1,1.21-2.94l.28,0a1.75,1.75,0,0,1,.94.49,1.66,1.66,0,0,1,.5,1.21A1.71,1.71,0,0,1,77.35,73a1.12,1.12,0,0,1-.27,0h0a1.67,1.67,0,0,1-1.21-.51m27.28,1.19-1.48-.75a1.13,1.13,0,0,1-.63-1.23l.28-1.64a2.23,2.23,0,0,1,1.08-1.42l.16-.08a2.24,2.24,0,0,1,2-.11l1.48.75a1.19,1.19,0,0,1,.53.51,1.16,1.16,0,0,1,.09.72l-.28,1.64a2.24,2.24,0,0,1-1.23,1.51,3,3,0,0,1-.78.25,2.31,2.31,0,0,1-.37,0,1.82,1.82,0,0,1-.81-.18m-53.94,0L49,73.57a2.23,2.23,0,0,1-1.23-1.52l-.26-1.63a1.12,1.12,0,0,1,.1-.73,1.1,1.1,0,0,1,.52-.5l1.49-.74a2.43,2.43,0,0,1,3.18,1.64l.27,1.63A1.13,1.13,0,0,1,52.47,73L51,73.7a1.56,1.56,0,0,1-.48.14,1.63,1.63,0,0,1-.31,0,2.57,2.57,0,0,1-1-.22M67,70a2.34,2.34,0,1,1,3.15,1,2.61,2.61,0,0,1-.7.23l-.36,0A2.33,2.33,0,0,1,67,70m17.11,1a2.32,2.32,0,1,1,1.43.23l-.37,0A2.36,2.36,0,0,1,84.06,71M63.65,67.59a2.94,2.94,0,0,0-.38-1.87,3,3,0,0,0,1.64.93l1.62.27a3.22,3.22,0,0,0-.67,2.34,3.25,3.25,0,0,0-2.45-.08Zm24-.68,1.59-.26a3,3,0,0,0,1.66-.94,3,3,0,0,0-.38,1.84l.24,1.63a3.25,3.25,0,0,0-2.43.08,3.21,3.21,0,0,0-.68-2.35M72,67.57a2.34,2.34,0,1,1,2.67,1.94,2.22,2.22,0,0,1-.37,0,2.34,2.34,0,0,1-2.3-2m7.49,1.94a2.34,2.34,0,1,1,.72,0,2.18,2.18,0,0,1-.72,0m39.65-1.34,0-.12,0-.06s0-.08,0-.13a5,5,0,0,1,3.13-3.07c3.4-1.1,4.84,2.41,5.2,3.51a6,6,0,0,1,.18,3.67,3.36,3.36,0,0,1-2.31,2.23,5.11,5.11,0,0,1-.75.18A5,5,0,0,1,121,73.5a0,0,0,0,0,0,0l-.17-.13a7.07,7.07,0,0,0-4.92-1.26,7,7,0,0,0,3.25-3.92m-90.4,6c-3.41-1.1-2.51-4.79-2.15-5.89a6.13,6.13,0,0,1,2-3.07,3.39,3.39,0,0,1,3.19-.45A5,5,0,0,1,35,68v0l.07.21a7,7,0,0,0,3.23,3.9,7,7,0,0,0-4.93,1.28l-.1.07,0,0-.12.08a5.14,5.14,0,0,1-2.05.83,6.47,6.47,0,0,1-.76.05,5,5,0,0,1-1.52-.24M58,69.58l-2.39-2.4h.24l1.65-.25h0a2.06,2.06,0,0,0,1.2-.6,2.16,2.16,0,0,0,.61-1.21l.25-1.65a2.11,2.11,0,0,0,0-.26L62,65.61a2.23,2.23,0,0,1,.71,1.83l-.25,1.64a1.12,1.12,0,0,1-1,1l-1.64.25h-.22a2.3,2.3,0,0,1-1.6-.73m36.39.7L92.7,70a1.12,1.12,0,0,1-1-1l-.24-1.65a2.2,2.2,0,0,1,.71-1.81l2.4-2.39a1.94,1.94,0,0,0,0,.24l.24,1.64a2.17,2.17,0,0,0,.6,1.23,2.11,2.11,0,0,0,1.22.6l1.64.26.26,0-2.41,2.39a2.42,2.42,0,0,1-1.31.7l-.28,0a.9.9,0,0,1-.23,0m-24.75-6a3,3,0,0,0,.22-1.9,2.93,2.93,0,0,0,1.27,1.39l1.45.76a3.21,3.21,0,0,0-1.36,2,3.22,3.22,0,0,0-2.31-.83Zm12,.24L83,63.78a3,3,0,0,0,1.29-1.4,3,3,0,0,0,.21,1.87l.74,1.47a3.17,3.17,0,0,0-2.29.83,3.23,3.23,0,0,0-1.38-2m15.28,5.77,4.13-4.1a3.25,3.25,0,0,0,1-2.68l-.18-1.21a6.64,6.64,0,0,0,5.87.16A6.57,6.57,0,0,0,106,68.09L105,67.56a3.25,3.25,0,0,0-2.86.1l-.15.09-5,2.55-.11.06.07-.07m-44.55-8-.18,1.18a3.24,3.24,0,0,0,1,2.68l.14.12,4,4,.1.08-.09,0-5.17-2.66a3.22,3.22,0,0,0-2.86-.13l-1.1.54a6.58,6.58,0,0,0-1.66-5.62,7,7,0,0,0,2.83.61,6.33,6.33,0,0,0,3-.77m22.81,1.81L76.27,63a3,3,0,0,0,.8-1.74,2.89,2.89,0,0,0,.78,1.71L79,64.12a3.19,3.19,0,0,0-1.92,1.49,3.21,3.21,0,0,0-1.94-1.5m-36.09,7.2a6,6,0,0,1-3-3.43s0,0,0,0h0L36,67.66h0a4.76,4.76,0,0,1,.73-3.5,4.82,4.82,0,0,1,2.47-2.69l.17-.05a5.91,5.91,0,0,1,4.54.41,5.58,5.58,0,0,1,2.73,7.38,5.18,5.18,0,0,1-3.86,2.71,5.62,5.62,0,0,1-.92.08,6.14,6.14,0,0,1-2.79-.68m68.48-2.13a5.57,5.57,0,0,1,2.74-7.36,6,6,0,0,1,4.53-.42h0l.2.07h0a4.78,4.78,0,0,1,2.41,2.65,4.78,4.78,0,0,1,.72,3.58.84.84,0,0,0,0,.17,6.1,6.1,0,0,1-5.78,4.1,5.29,5.29,0,0,1-4.8-2.8m-9.06-3-1.64-.25a1.14,1.14,0,0,1-1-1l-.23-1.65a2.15,2.15,0,0,1,.58-1.68l.13-.13a2.26,2.26,0,0,1,1.83-.7L99.8,61a1.18,1.18,0,0,1,.65.32,1.15,1.15,0,0,1,.32.66l.24,1.64a2.19,2.19,0,0,1-.71,1.81,2.41,2.41,0,0,1-1.31.71l-.28,0a1,1,0,0,1-.24,0M54,65.59l-.13-.13a2.26,2.26,0,0,1-.71-1.83L53.41,62a1.2,1.2,0,0,1,.31-.66,1.24,1.24,0,0,1,.66-.32L56,60.77a2.42,2.42,0,0,1,2.52,2.54L58.29,65a1.13,1.13,0,0,1-1,1h0l-1.65.24-.22,0a2.26,2.26,0,0,1-1.45-.6m10.67-3.85a2.13,2.13,0,0,0,1.55-1.17L67,59.08a1.73,1.73,0,0,0,.1-.24l1.54,3a2.24,2.24,0,0,1,.1,2L68,65.31a1.1,1.1,0,0,1-1.23.62l-1.64-.27a2.23,2.23,0,0,1-1.51-1.25L62,61.4l.23.05,1.64.28a2.85,2.85,0,0,0,.4,0,2.07,2.07,0,0,0,.35,0m21.51,3.55-.73-1.49a2.25,2.25,0,0,1,.11-1.95l1.55-3,.09.22.73,1.49a2.22,2.22,0,0,0,1,1,2.15,2.15,0,0,0,1.34.2l1.64-.27a1.83,1.83,0,0,0,.25-.06l-1.54,3a2.28,2.28,0,0,1-1.52,1.23l-1.65.27h0l-.2,0a1.13,1.13,0,0,1-1-.65M73,59a2.13,2.13,0,0,0,1.2-.63l1.17-1.18.18-.2.52,3.36a2.24,2.24,0,0,1-.51,1.89l-1.17,1.18a1.12,1.12,0,0,1-.64.34,1.09,1.09,0,0,1-.72-.13l-1.48-.77a2.23,2.23,0,0,1-1-1.65L70,57.89a2.12,2.12,0,0,0,.2.12l1.47.78a2.31,2.31,0,0,0,1,.26A1.66,1.66,0,0,0,73,59m6.73,4.41-1.16-1.19a2.25,2.25,0,0,1-.5-1.9L78.61,57a1.37,1.37,0,0,0,.16.18l1.16,1.19a2.12,2.12,0,0,0,2.55.41L84,58l.22-.14-.54,3.35a2.25,2.25,0,0,1-1.07,1.65l-1.47.76a1.56,1.56,0,0,1-.38.13h-.17a1.12,1.12,0,0,1-.82-.36m9.1-3.33-.74-1.49a2.21,2.21,0,0,1,0-1.78l.08-.16a2.23,2.23,0,0,1,1.52-1.23l1.64-.27a1.15,1.15,0,0,1,.72.1,1.19,1.19,0,0,1,.51.53l.73,1.48a2.43,2.43,0,0,1-1.63,3.19l-1.64.27h-.21a1.1,1.1,0,0,1-1-.65m-24.75.64-1.64-.28A2.16,2.16,0,0,1,61,59.39l-.09-.17a2.25,2.25,0,0,1-.1-1.95l.75-1.49a1.15,1.15,0,0,1,.5-.52,1.16,1.16,0,0,1,.72-.1l1.64.28a2.42,2.42,0,0,1,1.61,3.19l-.75,1.48a1.07,1.07,0,0,1-.83.63l-.18,0-.22,0m-9.25-6.66a6.6,6.6,0,0,0,5.64,1.67l-.54,1.07a3.26,3.26,0,0,0,.1,2.85l.09.16,2.55,5,.06.1-.06-.07-4.1-4.12a3.25,3.25,0,0,0-2.68-1L54.67,60a6.61,6.61,0,0,0,.16-5.87m41,1.7a6.86,6.86,0,0,0,3.49-1.7A6.6,6.6,0,0,0,99.49,60l-1.18-.18a3.26,3.26,0,0,0-2.69,1l-.12.13-4,4-.08.1,0-.09,2.66-5.17a3.27,3.27,0,0,0,.12-2.87l-.54-1.09a6.3,6.3,0,0,0,1.15.1,6.55,6.55,0,0,0,1-.07m-15.18,1.9-1.16-1.19a2.21,2.21,0,0,1-.52-1.7l0-.19A2.17,2.17,0,0,1,80.07,53l1.47-.76a1.17,1.17,0,0,1,.72-.13,1.14,1.14,0,0,1,.64.35l1.16,1.19a2.2,2.2,0,0,1,.5,1.88,2.25,2.25,0,0,1-1.07,1.65L82,57.9a1.51,1.51,0,0,1-.38.12l-.17,0a1.16,1.16,0,0,1-.82-.36m-8.53.22-1.47-.77a2.18,2.18,0,0,1-1-1.47l0-.18a2.22,2.22,0,0,1,.5-1.89l1.17-1.18a1.12,1.12,0,0,1,.64-.34,1.1,1.1,0,0,1,.72.13l1.47.77a2.22,2.22,0,0,1,1,1.64,2.19,2.19,0,0,1-.5,1.89l-1.17,1.18a1.2,1.2,0,0,1-.64.35h-.17a1.29,1.29,0,0,1-.56-.14M112,56a.53.53,0,0,1,0-.13v-.19a4.9,4.9,0,0,1,2-3.88c2.89-2.11,5.34.79,6,1.72a6.15,6.15,0,0,1,1.31,3.43,3.41,3.41,0,0,1-1.51,2.84,5,5,0,0,1-4.44.7h0l-.21-.07a7,7,0,0,0-5.05.33A7,7,0,0,0,112,56M34.35,59.77c-2.9-2.1-.9-5.33-.22-6.27A6,6,0,0,1,37,51.2a3.37,3.37,0,0,1,3.18.56,4.93,4.93,0,0,1,2,4V56a7,7,0,0,0,1.87,4.71A7,7,0,0,0,39,60.4l-.11,0,0,0-.14,0a5.28,5.28,0,0,1-.66.16,5.12,5.12,0,0,1-.78.06,5,5,0,0,1-2.88-.94m10.7.44A5.94,5.94,0,0,1,43.26,56v-.24s0,0,0,0c0-1.14.71-2,1.77-3.1a4.79,4.79,0,0,1,3.18-1.79h.18a5.93,5.93,0,0,1,4.19,1.79,5.59,5.59,0,0,1,.32,7.86A5.09,5.09,0,0,1,49.28,62a6,6,0,0,1-4.23-1.79m56.19.32a5.58,5.58,0,0,1,.33-7.85,5.92,5.92,0,0,1,4.19-1.79H106a4.75,4.75,0,0,1,3.1,1.78c1.08,1.08,1.76,2,1.79,3.17a.34.34,0,0,1,0,.1V56a6,6,0,0,1-1.79,4.19,6.13,6.13,0,0,1-3.34,1.72,5.34,5.34,0,0,1-.89.07,5.14,5.14,0,0,1-3.64-1.47m-31.75.89-2.62-5.19a3.28,3.28,0,0,0-2.24-1.79l-1.21-.2a6.61,6.61,0,0,0,2-5.53A6.58,6.58,0,0,0,70.23,52l-.84.85a3.26,3.26,0,0,0-.79,2.75c0,.06,0,.12,0,.18l.87,5.57a.59.59,0,0,0,0,.13.36.36,0,0,0,0-.09m15.14,0,.93-5.75a3.26,3.26,0,0,0-.77-2.75L83.94,52l.18,0a6.63,6.63,0,0,0,4.65-3.29,6.64,6.64,0,0,0,2,5.54l-1.18.19a3.27,3.27,0,0,0-2.25,1.76s0,.11-.07.17l-2.58,5s0,.08,0,.13,0-.07,0-.1m-7.57-1.2-.89-5.75a3.28,3.28,0,0,0-1.58-2.38l-1.09-.57a6.62,6.62,0,0,0,3.58-4.65,6.6,6.6,0,0,0,3.58,4.66l-1.06.54A3.29,3.29,0,0,0,78,54.43c0,.06,0,.12,0,.19l-.9,5.57a.49.49,0,0,1,0,.12s0-.06,0-.1M54.19,51.52A6,6,0,0,1,53.77,47l0,0,.07-.21h0c.39-1.08,1.3-1.72,2.65-2.4s2.42-1.06,3.57-.72l.17,0a6,6,0,0,1,3.43,3,5.59,5.59,0,0,1-2.13,7.58,5,5,0,0,1-2.25.53,5.84,5.84,0,0,1-5.11-3.27m39.94-7.91h0a4.79,4.79,0,0,1,3.51.73,4.73,4.73,0,0,1,2.68,2.47l0,.08h0l0,.08a6,6,0,0,1-.41,4.54,5.34,5.34,0,1,1-9.49-4.84,5.92,5.92,0,0,1,3.42-3h0Zm7.25,3a.56.56,0,0,0,0-.12v0s0-.08,0-.13A4.89,4.89,0,0,1,102,42c2.1-2.9,5.32-.9,6.26-.22a6.07,6.07,0,0,1,2.31,2.85,3.36,3.36,0,0,1-.57,3.17,4.94,4.94,0,0,1-4,2h-.24a7,7,0,0,0-4.71,1.88,7.06,7.06,0,0,0,.31-5.09M48,49.81a4.9,4.9,0,0,1-3.88-2c-2.11-2.88.79-5.34,1.73-6a6,6,0,0,1,3.42-1.3A3.36,3.36,0,0,1,52.14,42a5,5,0,0,1,.7,4.44v0l-.06.21a6.94,6.94,0,0,0,.32,5.06,7,7,0,0,0-4.74-1.88H48m17.53-3.74a6,6,0,0,1,1-4.45h0l.13-.18h0A4.68,4.68,0,0,1,70,40c1.51-.24,2.64-.26,3.63.41l.14.11a5.94,5.94,0,0,1,2.34,3.91A5.59,5.59,0,0,1,71.72,51,5,5,0,0,1,71,51a5.68,5.68,0,0,1-5.4-4.94m15-5.72h0A4.77,4.77,0,0,1,84.16,40a4.77,4.77,0,0,1,3.31,1.52l.11.14a5.94,5.94,0,0,1,1,4.45A5.34,5.34,0,1,1,78.07,44.4a5.9,5.9,0,0,1,2.33-3.91l0,0h0Zm7.83.61a.61.61,0,0,1-.07-.1l0,0-.07-.11a4.91,4.91,0,0,1-.65-4.34c1.1-3.4,4.79-2.5,5.89-2.14a6.06,6.06,0,0,1,3.08,2A3.36,3.36,0,0,1,97,39.41a4.91,4.91,0,0,1-3.17,3.17h0l-.21.06a7.07,7.07,0,0,0-3.9,3.24A7,7,0,0,0,88.42,41M60.54,42.65l-.12,0-.05,0-.13-.05a4.86,4.86,0,0,1-3.07-3.13c-1.11-3.39,2.4-4.83,3.51-5.19A6,6,0,0,1,64.34,34a3.38,3.38,0,0,1,2.23,2.32,5,5,0,0,1-.7,4.43l0,0-.13.17a7,7,0,0,0-1.25,4.91,7,7,0,0,0-3.93-3.24m13.8-3.06-.09-.07,0,0-.11-.09a4.88,4.88,0,0,1-2-3.92c0-3.58,3.78-3.86,4.94-3.86a6.1,6.1,0,0,1,3.54.95A3.38,3.38,0,0,1,82,35.47a5,5,0,0,1-2,4h0l-.18.13a7,7,0,0,0-2.71,4.29,7,7,0,0,0-2.74-4.31m2.74-9a10.85,10.85,0,0,0-1.44.1l-.09,0c-2.8.46-4.49,2.22-4.48,4.81a6,6,0,0,0,1,3.28,9.57,9.57,0,0,0-2.22.15,9.41,9.41,0,0,0-2.15.54A6,6,0,0,0,67.59,36a4.41,4.41,0,0,0-2.93-3,7.11,7.11,0,0,0-4.32.19c-3.53,1.15-5.13,3.66-4.19,6.55a6,6,0,0,0,1.94,2.82,11.74,11.74,0,0,0-3.94,2A6,6,0,0,0,53,41.33a4.42,4.42,0,0,0-3.71-1.95,7.05,7.05,0,0,0-4,1.51c-3,2.19-3.76,5.07-2,7.52A5.89,5.89,0,0,0,46,50.49a10.05,10.05,0,0,0-1.72,1.43,9.52,9.52,0,0,0-1.41,1.71,6,6,0,0,0-2.09-2.74,4.44,4.44,0,0,0-4.13-.71,7.09,7.09,0,0,0-3.39,2.69c-2.17,3-2,6,.46,7.77A6,6,0,0,0,37,61.77a9.49,9.49,0,0,0-1.19,1.89,9.84,9.84,0,0,0-.82,2.06,5.94,5.94,0,0,0-2.83-2,4.44,4.44,0,0,0-4.15.6A7.12,7.12,0,0,0,25.57,68c-1.14,3.53-.06,6.31,2.84,7.24a5.87,5.87,0,0,0,3.42.08,9.74,9.74,0,0,0-.55,2.17,10,10,0,0,0-.15,2.21,6,6,0,0,0-3.29-1,4.44,4.44,0,0,0-3.76,1.86,7.09,7.09,0,0,0-1.16,4.17c0,3.71,1.9,6,4.93,6a6,6,0,0,0,3.28-1A10.24,10.24,0,0,0,31.28,92a9.37,9.37,0,0,0,.55,2.14,6.11,6.11,0,0,0-3.44.08,4.45,4.45,0,0,0-3,2.93,7.19,7.19,0,0,0,.19,4.32c1.15,3.53,3.66,5.14,6.55,4.19a6,6,0,0,0,2.82-1.94,9.43,9.43,0,0,0,.83,2.07A8.63,8.63,0,0,0,37,107.63a6,6,0,0,0-3.25,1.15,4.44,4.44,0,0,0-2,3.71,7.12,7.12,0,0,0,1.51,4.05c2.19,3,5.07,3.75,7.53,2a6,6,0,0,0,2.08-2.72,9.61,9.61,0,0,0,1.43,1.72,9.49,9.49,0,0,0,1.7,1.42A6,6,0,0,0,43.26,121a4.43,4.43,0,0,0-.7,4.14,7.06,7.06,0,0,0,2.69,3.38c3,2.18,6,2,7.76-.46a5.9,5.9,0,0,0,1.13-3.23A9.54,9.54,0,0,0,56,126a9.11,9.11,0,0,0,2.06.81,6,6,0,0,0-2,2.84,4.37,4.37,0,0,0,.6,4.14,7.07,7.07,0,0,0,3.6,2.39c3.54,1.15,6.31.06,7.24-2.83a6,6,0,0,0,.09-3.43,12.26,12.26,0,0,0,4.37.7,6.06,6.06,0,0,0-1,3.3,4.47,4.47,0,0,0,1.86,3.76,7.18,7.18,0,0,0,4.17,1.15c3.71,0,6-1.89,6-4.93a6,6,0,0,0-1-3.28,9.66,9.66,0,0,0,2.23-.15,9.33,9.33,0,0,0,2.14-.54,6,6,0,0,0,.09,3.44,4.41,4.41,0,0,0,2.93,3,7.11,7.11,0,0,0,4.32-.19c3.52-1.15,5.13-3.66,4.18-6.55a5.94,5.94,0,0,0-1.94-2.82,9.49,9.49,0,0,0,2.08-.82,9.77,9.77,0,0,0,1.87-1.18,6,6,0,0,0,1.14,3.24,4.46,4.46,0,0,0,3.71,2,7.14,7.14,0,0,0,4-1.52c3-2.19,3.76-5.07,2-7.52a5.87,5.87,0,0,0-2.71-2.08,10,10,0,0,0,1.71-1.43,9.85,9.85,0,0,0,1.42-1.7,6,6,0,0,0,2.09,2.73,4.41,4.41,0,0,0,4.13.71,7.12,7.12,0,0,0,3.38-2.69c2.18-3,2-6-.45-7.76a6,6,0,0,0-3.23-1.14,10,10,0,0,0,1.19-1.89,9.63,9.63,0,0,0,.82-2.06,5.94,5.94,0,0,0,2.83,2,4.45,4.45,0,0,0,4.15-.6,7.12,7.12,0,0,0,2.39-3.61c1.14-3.53.06-6.31-2.84-7.24a6,6,0,0,0-3.42-.08,9.6,9.6,0,0,0,.55-2.17,9.45,9.45,0,0,0,.14-2.21,6,6,0,0,0,3.3,1,4.44,4.44,0,0,0,3.76-1.86,7.07,7.07,0,0,0,1.16-4.17,9.55,9.55,0,0,0-.11-1.44v-.08c-.46-2.81-2.22-4.49-4.81-4.48a6,6,0,0,0-3.29,1,10.25,10.25,0,0,0-.14-2.23,10.06,10.06,0,0,0-.55-2.14,6,6,0,0,0,3.44-.08,4.49,4.49,0,0,0,3-2.93,7.19,7.19,0,0,0-.19-4.32c-1.15-3.53-3.67-5.13-6.56-4.19a6.05,6.05,0,0,0-2.81,1.94,10,10,0,0,0-.83-2.07,9.3,9.3,0,0,0-1.18-1.87,6.11,6.11,0,0,0,3.25-1.14,4.47,4.47,0,0,0,2-3.72,7.14,7.14,0,0,0-1.52-4.05c-2.18-3-5.07-3.75-7.52-2a5.91,5.91,0,0,0-2.08,2.72,9.61,9.61,0,0,0-1.43-1.72,9.37,9.37,0,0,0-1.7-1.41,6,6,0,0,0,2.73-2.09,4.43,4.43,0,0,0,.71-4.14,7.12,7.12,0,0,0-2.69-3.38c-3-2.18-6-2-7.76.46A6,6,0,0,0,100,44.58a9.49,9.49,0,0,0-1.89-1.19,9.27,9.27,0,0,0-2.05-.83,5.94,5.94,0,0,0,2-2.83,4.4,4.4,0,0,0-.6-4.14,7.07,7.07,0,0,0-3.6-2.39c-3.54-1.14-6.31-.06-7.24,2.83a6,6,0,0,0-.09,3.42,9.57,9.57,0,0,0-2.17-.54,8.89,8.89,0,0,0-2.2-.15,6,6,0,0,0,1-3.3,4.44,4.44,0,0,0-1.85-3.76,7.17,7.17,0,0,0-4.16-1.15Z"/></svg>