<?xml version="1.0" encoding="utf-8"?>
<!-- Generator: Adobe Illustrator 23.0.1, SVG Export Plug-In . SVG Version: 6.00 Build 0)  -->
<svg version="1.1" id="Layer_1" xmlns="http://www.w3.org/2000/svg" xmlns:xlink="http://www.w3.org/1999/xlink" x="0px" y="0px"
	 viewBox="0 0 600 600" style="enable-background:new 0 0 600 600;" xml:space="preserve">
<style type="text/css">
	.st0{clip-path:url(#SVGID_2_);fill:#343538;}
</style>
<g>
	<defs>
		<rect id="SVGID_1_" width="600" height="600"/>
	</defs>
	<use xlink:href="#SVGID_1_"  style="overflow:visible;fill:#292A2E;"/>
	<clipPath id="SVGID_2_">
		<use xlink:href="#SVGID_1_"  style="overflow:visible;"/>
	</clipPath>
	<path class="st0" d="M962.1,162.3l55.6-55.6l0.4-1.7l-11.1-33.3l-0.4-0.7L977.5,42l38.6,9.7l1.6-2.8L962.1-6.7l-1.2-0.5h-29.3
		l52.7-52.7l0.4-1.7L973.6-95l-0.4-0.7l-29.1-29.1l38.6,9.7l1.6-2.8l-52.7-52.7h29.3l1.2-0.5l55.6-55.6l0.4-1.7l-11.1-33.3l-0.4-0.7
		l-29.1-29.1l38.6,9.7l1.6-2.8l-55.6-55.6l-1.2-0.5h-33.3l-0.5,0.1l-33.3,11.1l-0.8,0.6l-32.2,42.9l-54.2-54.2l-1.2-0.5H772
		l-0.5,0.1l-33.3,11.1l-0.8,0.6l-32.2,42.9L651-340.1l-1.2-0.5h-33.3l-0.5,0.1l-33.3,11.1l-0.8,0.6l-32.2,42.9l-54.2-54.2l-1.2-0.5
		h-33.3l-0.5,0.1l-33.3,11.1l-0.8,0.6l-32.2,42.9l-54.2-54.2l-1.2-0.5h-33.3l-0.5,0.1l-33.3,11.1l-0.8,0.6l-32.2,42.9l-54.2-54.2
		l-1.2-0.5h-33.3l-0.5,0.1l-33.3,11.1l-0.8,0.6L83-285.9l-54.2-54.2l-1.2-0.5H-5.7l-0.5,0.1l-33.3,11.1l-0.8,0.6l-32.2,42.9
		l-54.2-54.2l-1.2-0.5h-33.3l-0.5,0.1l-33.3,11.1l-0.8,0.6l-32.2,42.9l-54.2-54.2l-1.2-0.5h-33.3l-0.5,0.1l-33.3,11.1l-0.8,0.6
		l-33.3,44.4l0.2,2.2l22.2,22.2l0.6,0.4l85.6,32.1l-73.4,42l-32.5-43.3l-2.7,2l33.3,44.4l0.8,0.6l23.6,7.9h-23.1l-0.5,0.1
		l-33.3,11.1l-0.8,0.6l-33.3,44.4l0.2,2.2l22.2,22.2l0.6,0.4l85.6,32.1l-73.4,42l-32.5-43.3l-2.7,2l33.3,44.4l0.8,0.6L-350.7-4
		l0.5,0.1h23.1L-350.7,4l-0.8,0.6L-384.9,49l0.2,2.2l22.2,22.2l0.6,0.4l85.6,32.1l-73.4,42l-32.5-43.3l-2.7,2l33.3,44.4l0.8,0.6
		l23.6,7.9h-23.1l-0.5,0.1l-33.3,11.1l-0.8,0.6l-33.3,44.4l0.2,2.2l22.2,22.2l0.6,0.4l85.6,32.1l-73.4,42l-32.5-43.3l-2.7,2
		l33.3,44.4l0.8,0.6l33.3,11.1l0.5,0.1h23.1l-23.6,7.9l-0.8,0.6l-33.3,44.4l0.2,2.2l22.2,22.2l0.6,0.4l85.6,32.1l-73.4,42
		l-32.5-43.3l-2.7,2l33.3,44.4l0.8,0.6l23.6,7.9h-23.1l-0.5,0.1l-33.3,11.1l-0.8,0.6l-33.3,44.4l0.2,2.2l22.2,22.2l0.6,0.4
		l85.6,32.1l-73.4,42l-32.5-43.3l-2.7,2l33.3,44.4l0.8,0.6l33.3,11.1l0.5,0.1h23.1l-23.6,7.9l-0.8,0.6l-33.3,44.4l0.2,2.2l22.2,22.2
		l0.6,0.4l85.6,32.1l-73.4,42l-32.5-43.3l-2.7,2l33.3,44.4l0.8,0.6l23.6,7.9h-23.1l-0.5,0.1l-33.3,11.1l-0.8,0.6l-33.3,44.4l0.2,2.2
		l22.2,22.2l0.6,0.4l85.6,32.1l-73.4,42l-32.5-43.3l-2.7,2l33.3,44.4l0.8,0.6l33.3,11.1l0.5,0.1h33.3l1.2-0.5l54.2-54.2l32.2,42.9
		l0.8,0.6l33.3,11.1l0.5,0.1h33.3l1.2-0.5l54.2-54.2l32.2,42.9l0.8,0.6l33.3,11.1l0.5,0.1h33.3l1.2-0.5l54.2-54.2l32.2,42.9l0.8,0.6
		l33.3,11.1l0.5,0.1h33.3l1.2-0.5l54.2-54.2l32.2,42.9l0.8,0.6l33.3,11.1l0.5,0.1h33.3l1.2-0.5l54.2-54.2l32.2,42.9l0.8,0.6
		l33.3,11.1l0.5,0.1h33.3l1.2-0.5l54.2-54.2l32.2,42.9l0.8,0.6l33.3,11.1l0.5,0.1h33.3l1.2-0.5l54.2-54.2l32.2,42.9l0.8,0.6
		l33.3,11.1l0.5,0.1H772l1.2-0.5l54.2-54.2l32.2,42.9l0.8,0.6l33.3,11.1l0.5,0.1h33.3l1.2-0.5l55.6-55.6l0.4-1.7L973.6,905l-0.4-0.7
		l-29.1-29.1l38.6,9.7l1.6-2.8l-52.7-52.7h29.3l1.2-0.5l55.6-55.6l0.4-1.7l-11.1-33.3l-0.4-0.7l-29.1-29.1l38.6,9.7l1.6-2.8
		l-55.6-55.6l-1.2-0.5h-29.3l52.7-52.7l0.4-1.7l-11.1-33.3l-0.4-0.7L944.1,542l38.6,9.7l1.6-2.8l-52.7-52.7h29.3l1.2-0.5l55.6-55.6
		l0.4-1.7l-11.1-33.3l-0.4-0.7l-29.1-29.1l38.6,9.7l1.6-2.8l-55.6-55.6l-1.2-0.5h-29.3l52.7-52.7l0.4-1.7l-11.1-33.3l-0.4-0.7
		l-29.1-29.1l38.6,9.7l1.6-2.8l-52.7-52.7h29.3L962.1,162.3z M969.6,369.4l-70.7-30.3l28.9-9.6h31.8L969.6,369.4z M969.6,702.7
		l-70.7-30.3l28.9-9.6h31.8L969.6,702.7z M850.2,903.6l-20.4-20.4l31.7-42.2l72.8,31.2L850.2,903.6z M827.4,880.8l-51.4-51.4h29.3
		l1.2-0.5l54.2-54.2l32.2,42.9l0.8,0.6l23.6,7.9h-23.1l-0.5,0.1l-33.3,11.1l-0.8,0.6L827.4,880.8z M770.7,992.8h-28.5l38-47.5
		L770.7,992.8z M784.5,940.6h39.1l-48.8,48.8L784.5,940.6z M783.4,937.2L699,905.6l83.7-31.4l32.3,32.3l10.3,30.8H783.4z
		 M671.9,880.8l-51.4-51.4h29.3l1.2-0.5l54.2-54.2l32.2,42.9l0.8,0.6l23.6,7.9h-23.1l-0.5,0.1l-33.3,11.1l-0.8,0.6L671.9,880.8z
		 M615.1,992.8h-28.5l38-47.5L615.1,992.8z M629,940.6H668l-48.8,48.8L629,940.6z M627.9,937.2l-84.4-31.7l83.7-31.4l32.3,32.3
		l10.3,30.8H627.9z M516.3,880.8l-51.4-51.4h29.3l1.2-0.5l54.2-54.2l32.2,42.9l0.8,0.6l23.6,7.9h-23.1l-0.5,0.1l-33.3,11.1l-0.8,0.6
		L516.3,880.8z M459.6,992.8h-28.5l38-47.5L459.6,992.8z M473.4,940.6h39.1l-48.8,48.8L473.4,940.6z M472.3,937.2l-84.4-31.7
		l83.7-31.4l32.3,32.3l10.3,30.8H472.3z M360.7,880.8l-51.4-51.4h29.3l1.2-0.5l54.2-54.2l32.2,42.9l0.8,0.6l23.6,7.9h-23.1l-0.5,0.1
		l-33.3,11.1l-0.8,0.6L360.7,880.8z M304,992.8h-28.5l38-47.5L304,992.8z M317.8,940.6h39.1l-48.8,48.8L317.8,940.6z M316.8,937.2
		l-84.4-31.7l83.7-31.4l32.3,32.3l10.3,30.8H316.8z M205.2,880.8l-51.4-51.4h29.3l1.2-0.5l54.2-54.2l32.2,42.9l0.8,0.6l23.6,7.9H272
		l-0.5,0.1l-33.3,11.1l-0.8,0.6L205.2,880.8z M148.4,992.8h-28.5l38-47.5L148.4,992.8z M162.3,940.6h39.1l-48.8,48.8L162.3,940.6z
		 M161.2,937.2l-84.4-31.7l83.7-31.4l32.3,32.3l10.3,30.8H161.2z M49.6,880.8l-51.4-51.4h29.3l1.2-0.5L83,774.8l32.2,42.9l0.8,0.6
		l23.6,7.9h-23.1l-0.5,0.1l-33.3,11.1l-0.8,0.6L49.6,880.8z M-7.1,992.8h-28.5l38-47.5L-7.1,992.8z M6.7,940.6h39.1L-3,989.4
		L6.7,940.6z M5.7,937.2l-84.4-31.7l83.7-31.4l32.3,32.3l10.3,30.8H5.7z M-105.9,880.8l-51.4-51.4h29.3l1.2-0.5l54.2-54.2l32.2,42.9
		l0.8,0.6l23.6,7.9h-23.1l-0.5,0.1l-33.3,11.1l-0.8,0.6L-105.9,880.8z M-162.7,992.8h-28.5l38-47.5L-162.7,992.8z M-148.8,940.6
		h39.1l-48.8,48.8L-148.8,940.6z M-149.9,937.2l-84.4-31.7l83.7-31.4l32.3,32.3l10.3,30.8H-149.9z M-261.5,880.8l-51.4-51.4h29.3
		l1.2-0.5l54.2-54.2l32.2,42.9l0.8,0.6l23.6,7.9h-23.1l-0.5,0.1l-33.3,11.1l-0.8,0.6L-261.5,880.8z M-304.4,870.8l-9.4-37.6l47,47
		L-304.4,870.8z M-304.4,537.5l-9.4-37.6l47,47L-304.4,537.5z M-304.4,204.2l-9.4-37.6l47,47L-304.4,204.2z M-304.4-129.2l-9.4-37.6
		l47,47L-304.4-129.2z M-228.8-281.8l21.9,21.9l0.6,0.4l85.6,32.1l-73.4,42l-32.3-43.1l-11-33.1l-0.4-0.7l-29.1-29.1L-228.8-281.8z
		 M-85-260.2l10.3,30.8h-41.8l-84.4-31.7l83.7-31.4L-85-260.2z M-73.3-281.8l21.9,21.9l0.6,0.4l85.6,32.1l-73.4,42l-32.3-43.1
		l-11-33.1l-0.4-0.7l-29.1-29.1L-73.3-281.8z M70.6-260.2l10.3,30.8H39l-84.4-31.7l83.7-31.4L70.6-260.2z M82.3-281.8l21.9,21.9
		l0.6,0.4l85.6,32.1l-73.4,42l-32.3-43.1l-11-33.1l-0.4-0.7l-29.1-29.1L82.3-281.8z M226.1-260.2l10.3,30.8h-41.8l-84.4-31.7
		l83.7-31.4L226.1-260.2z M237.8-281.8l21.9,21.9l0.6,0.4l85.6,32.1l-73.4,42l-32.3-43.1l-11-33.1l-0.4-0.7l-29.1-29.1L237.8-281.8z
		 M381.7-260.2l10.3,30.8h-41.8l-84.4-31.7l83.7-31.4L381.7-260.2z M393.4-281.8l21.9,21.9l0.6,0.4l85.6,32.1l-73.4,42l-32.3-43.1
		l-11-33.1l-0.4-0.7l-29.1-29.1L393.4-281.8z M537.2-260.2l10.3,30.8h-41.8l-84.4-31.7l83.7-31.4L537.2-260.2z M549-281.8l21.9,21.9
		l0.6,0.4l85.6,32.1l-73.4,42l-32.3-43.1l-11-33.1l-0.4-0.7l-29.1-29.1L549-281.8z M692.8-260.2l10.3,30.8h-41.8l-84.4-31.7
		l83.7-31.4L692.8-260.2z M704.5-281.8l21.9,21.9l0.6,0.4l85.6,32.1l-73.4,42l-32.3-43.1l-11-33.1l-0.4-0.7l-29.1-29.1L704.5-281.8z
		 M848.4-260.2l10.3,30.8h-41.8l-84.4-31.7l83.7-31.4L848.4-260.2z M860.1-281.8l21.9,21.9l0.6,0.4l85.6,32.1l-73.4,42l-32.3-43.1
		l-11-33.1l-0.4-0.7l-29.1-29.1L860.1-281.8z M969.6,36L898.9,5.8l28.9-9.6h31.8L969.6,36z M973.4,107.2h39.1L963.6,156L973.4,107.2
		z M860.4,170.6l-0.8,0.6l-32.2,42.9l-51.4-51.4h29.3l1.2-0.5l54.2-54.2l32.2,42.9l0.8,0.6l23.6,7.9h-23.1l-0.5,0.1L860.4,170.6z
		 M893.7,329.4l0.5,0.1h23.1l-23.6,7.9l-0.8,0.6l-32.2,42.9l-54.2-54.2l-1.2-0.5h-29.3l51.4-51.4l32.2,42.9l0.8,0.6L893.7,329.4z
		 M897.7,326.1l38-47.5l-9.5,47.5H897.7z M860.4,504l-0.8,0.6l-32.2,42.9l-51.4-51.4h29.3l1.2-0.5l54.2-54.2l32.2,42.9l0.8,0.6
		l23.6,7.9h-23.1l-0.5,0.1L860.4,504z M893.7,662.7l0.5,0.1h23.1l-23.6,7.9l-0.8,0.6l-32.2,42.9l-54.2-54.2l-1.2-0.5h-29.3
		l51.4-51.4l32.2,42.9l0.8,0.6L893.7,662.7z M897.7,659.4l38-47.5l-9.5,47.5H897.7z M-228.1,714.1l-54.2-54.2l-1.2-0.5h-29.3
		l51.4-51.4l32.2,42.9l0.8,0.6l33.3,11.1l0.5,0.1h23.1l-23.6,7.9l-0.8,0.6L-228.1,714.1z M-261.5,547.5l-51.4-51.4h29.3l1.2-0.5
		l54.2-54.2l32.2,42.9l0.8,0.6l23.6,7.9h-23.1l-0.5,0.1l-33.3,11.1l-0.8,0.6L-261.5,547.5z M-228.1,380.8l-54.2-54.2l-1.2-0.5h-29.3
		l51.4-51.4l32.2,42.9l0.8,0.6l33.3,11.1l0.5,0.1h23.1l-23.6,7.9l-0.8,0.6L-228.1,380.8z M-261.5,214.1l-51.4-51.4h29.3l1.2-0.5
		l54.2-54.2L-196,151l0.8,0.6l23.6,7.9h-23.1l-0.5,0.1l-33.3,11.1l-0.8,0.6L-261.5,214.1z M-228.1,47.5l-54.2-54.2l-1.2-0.5h-29.3
		l51.4-51.4l32.2,42.9l0.8,0.6L-195.2-4l0.5,0.1h23.1L-195.2,4l-0.8,0.6L-228.1,47.5z M-261.5-119.2l-51.4-51.4h29.3l1.2-0.5
		l54.2-54.2l32.2,42.9l0.8,0.6l23.6,7.9h-23.1l-0.5,0.1l-33.3,11.1l-0.8,0.6L-261.5-119.2z M860.4-162.7l-0.8,0.6l-32.2,42.9
		l-51.4-51.4h29.3l1.2-0.5l54.2-54.2l32.2,42.9l0.8,0.6l23.6,7.9h-23.1l-0.5,0.1L860.4-162.7z M893.7-4l0.5,0.1h23.1L893.7,4
		l-0.8,0.6l-32.2,42.9L806.5-6.7l-1.2-0.5h-29.3l51.4-51.4l32.2,42.9l0.8,0.6L893.7-4z M897.7-7.2l38-47.5l-9.5,47.5H897.7z
		 M804.1,329.4l10,39.9l-70.7-30.3l28.9-9.6H804.1z M804.1,662.8l10,39.9l-70.7-30.3l28.9-9.6H804.1z M728,737l-20.4-20.4l31.7-42.2
		l72.8,31.2L728,737z M705.2,714.1L651,659.9l-1.2-0.5h-29.3l51.4-51.4L704,651l0.8,0.6l33.3,11.1l0.5,0.1h23.1l-23.6,7.9l-0.8,0.6
		L705.2,714.1z M661.2,770.6l-84.4-31.7l83.7-31.4l32.3,32.3l10.3,30.8H661.2z M549.6,714.1l-54.2-54.2l-1.2-0.5h-29.3l51.4-51.4
		l32.2,42.9l0.8,0.6l33.3,11.1l0.5,0.1h23.1l-23.6,7.9l-0.8,0.6L549.6,714.1z M505.7,770.6l-84.4-31.7l83.7-31.4l32.3,32.3
		l10.3,30.8H505.7z M394.1,714.1l-54.2-54.2l-1.2-0.5h-29.3l51.4-51.4l32.2,42.9l0.8,0.6l33.3,11.1l0.5,0.1h23.1l-23.6,7.9l-0.8,0.6
		L394.1,714.1z M350.1,770.6l-84.4-31.7l83.7-31.4l32.3,32.3l10.3,30.8H350.1z M238.5,714.1l-54.2-54.2l-1.2-0.5h-29.3l51.4-51.4
		l32.2,42.9l0.8,0.6l33.3,11.1l0.5,0.1h23.1l-23.6,7.9l-0.8,0.6L238.5,714.1z M194.6,770.6l-84.4-31.7l83.7-31.4l32.3,32.3
		l10.3,30.8H194.6z M83,714.1l-54.2-54.2l-1.2-0.5H-1.7l51.4-51.4L81.8,651l0.8,0.6l33.3,11.1l0.5,0.1h23.1l-23.6,7.9l-0.8,0.6
		L83,714.1z M39,770.6l-84.4-31.7l83.7-31.4l32.3,32.3l10.3,30.8H39z M-72.6,714.1l-54.2-54.2l-1.2-0.5h-29.3l51.4-51.4l32.2,42.9
		l0.8,0.6l33.3,11.1l0.5,0.1H-16l-23.6,7.9l-0.8,0.6L-72.6,714.1z M-129.3-173.9h-28.5l38-47.5L-129.3-173.9z M-152.6-130.6
		l-70.7-30.3l28.9-9.6h31.8L-152.6-130.6z M-148.8-129.2l-9.4-37.6l47,47L-148.8-129.2z M-106.6-115.2l21.9,21.9l0.6,0.4L1.5-60.8
		l-73.4,42l-32.3-43.1l-11-33.1l-0.4-0.7l-29.1-29.1L-106.6-115.2z M26.2-173.9H-2.3l38-47.5L26.2-173.9z M49-115.2l21.9,21.9
		l0.6,0.4L157-60.8l-73.4,42L51.3-61.9L40.3-95l-0.4-0.7l-29.1-29.1L49-115.2z M181.8-173.9h-28.5l38-47.5L181.8-173.9z
		 M204.5-115.2l21.9,21.9l0.6,0.4l85.6,32.1l-73.4,42l-32.3-43.1l-11-33.1l-0.4-0.7l-29.1-29.1L204.5-115.2z M337.3-173.9h-28.5
		l38-47.5L337.3-173.9z M360.1-115.2L382-93.3l0.6,0.4l85.6,32.1l-73.4,42l-32.3-43.1l-11-33.1l-0.4-0.7l-29.1-29.1L360.1-115.2z
		 M492.9-173.9h-28.5l38-47.5L492.9-173.9z M515.6-115.2l21.9,21.9l0.6,0.4l85.6,32.1l-73.4,42L518-61.9l-11-33.1l-0.4-0.7
		l-29.1-29.1L515.6-115.2z M648.4-173.9h-28.5l38-47.5L648.4-173.9z M671.2-115.2l21.9,21.9l0.6,0.4l85.6,32.1l-73.4,42l-32.3-43.1
		l-11-33.1l-0.4-0.7L633-124.7L671.2-115.2z M804-173.9h-28.5l38-47.5L804-173.9z M780.7-130.6L710-160.9l28.9-9.6h31.8L780.7-130.6
		z M705.9-159.1l72.8,31.2l-84,31.5l-20.4-20.4L705.9-159.1z M804.1-3.9L814,36L743.4,5.8l28.9-9.6H804.1z M704.8,170.6l-0.8,0.6
		l-32.2,42.9l-51.4-51.4h29.3l1.2-0.5l54.2-54.2l32.2,42.9l0.8,0.6l23.6,7.9h-23.1l-0.5,0.1L704.8,170.6z M770.7,326.1h-28.5
		l38-47.5L770.7,326.1z M738.2,329.4l0.5,0.1h23.1l-23.6,7.9l-0.8,0.6l-32.2,42.9L651,326.6l-1.2-0.5h-29.3l51.4-51.4l32.2,42.9
		l0.8,0.6L738.2,329.4z M704.8,504l-0.8,0.6l-32.2,42.9l-51.4-51.4h29.3l1.2-0.5l54.2-54.2l32.2,42.9l0.8,0.6l23.6,7.9h-23.1
		l-0.5,0.1L704.8,504z M648.5,662.8l10,39.9l-70.7-30.3l28.9-9.6H648.5z M493,662.8l10,39.9l-70.7-30.3l28.9-9.6H493z M337.4,662.8
		l10,39.9l-70.7-30.3l28.9-9.6H337.4z M181.8,662.8l10,39.9l-70.7-30.3l28.9-9.6H181.8z M26.3,662.8l10,39.9l-70.7-30.3l28.9-9.6
		H26.3z M-105.9,547.5l-51.4-51.4h29.3l1.2-0.5l54.2-54.2l32.2,42.9l0.8,0.6l23.6,7.9h-23.1l-0.5,0.1L-72.9,504l-0.8,0.6
		L-105.9,547.5z M-72.6,380.8l-54.2-54.2l-1.2-0.5h-29.3l51.4-51.4l32.2,42.9l0.8,0.6l33.3,11.1l0.5,0.1H-16l-23.6,7.9l-0.8,0.6
		L-72.6,380.8z M-105.9,214.1l-51.4-51.4h29.3l1.2-0.5l54.2-54.2l32.2,42.9l0.8,0.6l23.6,7.9h-23.1l-0.5,0.1l-33.3,11.1l-0.8,0.6
		L-105.9,214.1z M-72.6,47.5l-54.2-54.2l-1.2-0.5h-29.3l51.4-51.4l32.2,42.9l0.8,0.6L-39.6-4l0.5,0.1H-16L-39.6,4l-0.8,0.6
		L-72.6,47.5z M37.2-93.5l10.3,30.8H5.7l-84.4-31.7l83.7-31.4L37.2-93.5z M192.8-93.5l10.3,30.8h-41.8L76.8-94.4l83.7-31.4
		L192.8-93.5z M348.4-93.5l10.3,30.8h-41.8l-84.4-31.7l83.7-31.4L348.4-93.5z M503.9-93.5l10.3,30.8h-41.8l-84.4-31.7l83.7-31.4
		L503.9-93.5z M659.5-93.5l10.3,30.8h-41.8l-84.4-31.7l83.7-31.4L659.5-93.5z M770.7-7.2h-28.5l38-47.5L770.7-7.2z M738.2-4l0.5,0.1
		h23.1L738.2,4l-0.8,0.6l-32.2,42.9L651-6.7l-1.2-0.5h-29.3l51.4-51.4L704-15.7l0.8,0.6L738.2-4z M648.5,329.4l10,39.9l-70.7-30.3
		l28.9-9.6H648.5z M539.1,570.3l-20.4-20.4l31.7-42.2l72.8,31.2L539.1,570.3z M516.3,547.5l-51.4-51.4h29.3l1.2-0.5l54.2-54.2
		l32.2,42.9l0.8,0.6l23.6,7.9h-23.1l-0.5,0.1L549.3,504l-0.8,0.6L516.3,547.5z M472.3,603.9l-84.4-31.7l83.7-31.4l32.3,32.3
		l10.3,30.8H472.3z M360.7,547.5l-51.4-51.4h29.3l1.2-0.5l54.2-54.2l32.2,42.9l0.8,0.6l23.6,7.9h-23.1l-0.5,0.1L393.7,504l-0.8,0.6
		L360.7,547.5z M316.8,603.9l-84.4-31.7l83.7-31.4l32.3,32.3l10.3,30.8H316.8z M205.2,547.5l-51.4-51.4h29.3l1.2-0.5l54.2-54.2
		l32.2,42.9l0.8,0.6l23.6,7.9H272l-0.5,0.1L238.2,504l-0.8,0.6L205.2,547.5z M161.2,603.9l-84.4-31.7l83.7-31.4l32.3,32.3l10.3,30.8
		H161.2z M49.6,547.5l-51.4-51.4h29.3l1.2-0.5L83,441.4l32.2,42.9l0.8,0.6l23.6,7.9h-23.1l-0.5,0.1L82.6,504l-0.8,0.6L49.6,547.5z
		 M6.7-59.4h39.1L-3-10.6L6.7-59.4z M-7.1-7.2h-28.5l38-47.5L-7.1-7.2z M-5.5-3.9h31.8l10,39.9L-34.4,5.8L-5.5-3.9z M40.1,37.5
		L30.7-0.1l47,47L40.1,37.5z M82.3,51.5l21.9,21.9l0.6,0.4l85.6,32.1l-73.4,42l-32.3-43.1l-11-33.1L73.2,71L44.1,42L82.3,51.5z
		 M162.3-59.4h39.1l-48.8,48.8L162.3-59.4z M148.4-7.2h-28.5l38-47.5L148.4-7.2z M150.1-3.9h31.8l10,39.9L121.2,5.8L150.1-3.9z
		 M237.8,51.5l21.9,21.9l0.6,0.4l85.6,32.1l-73.4,42l-32.3-43.1l-11-33.1l-0.4-0.7L199.7,42L237.8,51.5z M317.8-59.4h39.1
		l-48.8,48.8L317.8-59.4z M304-7.2h-28.5l38-47.5L304-7.2z M305.6-3.9h31.8l10,39.9L276.7,5.8L305.6-3.9z M393.4,51.5l21.9,21.9
		l0.6,0.4l85.6,32.1l-73.4,42l-32.3-43.1l-11-33.1l-0.4-0.7L355.2,42L393.4,51.5z M473.4-59.4h39.1l-48.8,48.8L473.4-59.4z
		 M459.6-7.2h-28.5l38-47.5L459.6-7.2z M461.2-3.9H493l10,39.9L432.3,5.8L461.2-3.9z M549,51.5l21.9,21.9l0.6,0.4l85.6,32.1
		l-73.4,42l-32.3-43.1l-11-33.1l-0.4-0.7L510.8,42L549,51.5z M629-59.4H668l-48.8,48.8L629-59.4z M615.1-7.2h-28.5l38-47.5
		L615.1-7.2z M616.7-3.9h31.8l10,39.9L587.8,5.8L616.7-3.9z M583.7,7.6l72.8,31.2l-84,31.5L552,49.8L583.7,7.6z M549.3,170.6
		l-0.8,0.6l-32.2,42.9l-51.4-51.4h29.3l1.2-0.5l54.2-54.2l32.2,42.9l0.8,0.6l23.6,7.9h-23.1l-0.5,0.1L549.3,170.6z M615.1,326.1
		h-28.5l38-47.5L615.1,326.1z M582.6,329.4l0.5,0.1h23.1l-23.6,7.9l-0.8,0.6l-32.2,42.9l-54.2-54.2l-1.2-0.5h-29.3l51.4-51.4
		l32.2,42.9l0.8,0.6L582.6,329.4z M83,380.8l-54.2-54.2l-1.2-0.5H-1.7l51.4-51.4l32.2,42.9l0.8,0.6l33.3,11.1l0.5,0.1h23.1
		l-23.6,7.9l-0.8,0.6L83,380.8z M49.6,214.1l-51.4-51.4h29.3l1.2-0.5L83,108.1l32.2,42.9l0.8,0.6l23.6,7.9h-23.1l-0.5,0.1
		l-33.3,11.1l-0.8,0.6L49.6,214.1z M226.1,73.1l10.3,30.8h-41.8l-84.4-31.7l83.7-31.4L226.1,73.1z M381.7,73.1l10.3,30.8h-41.8
		l-84.4-31.7l83.7-31.4L381.7,73.1z M537.2,73.1l10.3,30.8h-41.8l-84.4-31.7l83.7-31.4L537.2,73.1z M493,329.4l10,39.9l-70.7-30.3
		l28.9-9.6H493z M416.9,403.6l-20.4-20.4l31.7-42.2l72.8,31.2L416.9,403.6z M394.1,380.8l-54.2-54.2l-1.2-0.5h-29.3l51.4-51.4
		l32.2,42.9l0.8,0.6l33.3,11.1l0.5,0.1h23.1l-23.6,7.9l-0.8,0.6L394.1,380.8z M350.1,437.2l-84.4-31.7l83.7-31.4l32.3,32.3
		l10.3,30.8H350.1z M238.5,380.8l-54.2-54.2l-1.2-0.5h-29.3l51.4-51.4l32.2,42.9l0.8,0.6l33.3,11.1l0.5,0.1h23.1l-23.6,7.9l-0.8,0.6
		L238.5,380.8z M195.6,107.2h39.1L185.9,156L195.6,107.2z M181.8,159.4h-28.5l38-47.5L181.8,159.4z M158.5,202.7l-70.7-30.3
		l28.9-9.6h31.8L158.5,202.7z M162.3,204.2l-9.4-37.6l47,47L162.3,204.2z M204.5,218.2l21.9,21.9l0.6,0.4l85.6,32.1l-73.4,42
		l-32.3-43.1l-11-33.1l-0.4-0.7l-29.1-29.1L204.5,218.2z M351.2,107.2h39.1L341.4,156L351.2,107.2z M337.3,159.4h-28.5l38-47.5
		L337.3,159.4z M337.4,329.4l10,39.9l-70.7-30.3l28.9-9.6H337.4z M271.5,325.8l-28.7-9.6l67-38.3L271.5,325.8z M313.5,278.6
		l-9.5,47.5h-28.5L313.5,278.6z M317.8,273.9h39.1l-48.8,48.8L317.8,273.9z M316.8,270.6l-84.4-31.7l83.7-31.4l32.3,32.3l10.3,30.8
		H316.8z M317.8,204.2l-9.4-37.6l47,47L317.8,204.2z M314,202.7l-70.7-30.3l28.9-9.6h31.8L314,202.7z M239.2,174.3l72.8,31.2
		L228,237l-20.4-20.4L239.2,174.3z M162.3,273.9h39.1l-48.8,48.8L162.3,273.9z M148.4,326.1h-28.5l38-47.5L148.4,326.1z
		 M150.1,329.4h31.8l10,39.9l-70.7-30.3L150.1,329.4z M195.6,370.8l-9.4-37.6l47,47L195.6,370.8z M272.6,340.9l72.8,31.2l-84,31.5
		l-20.4-20.4L272.6,340.9z M351.2,370.8l-9.4-37.6l47,47L351.2,370.8z M459.6,326.1h-28.5l38-47.5L459.6,326.1z M473.4,273.9h39.1
		l-48.8,48.8L473.4,273.9z M427,325.8l-28.7-9.6l67-38.3L427,325.8z M394.7,314.5l-32.3-43.1l-11-33.1l-0.4-0.7l-29.1-29.1l38.2,9.5
		l21.9,21.9l0.6,0.4l85.6,32.1L394.7,314.5z M383.6,237l-20.4-20.4l31.7-42.2l72.8,31.2L383.6,237z M398.9,172.4l28.9-9.6h31.8
		l10,39.9L398.9,172.4z M492.9,159.4h-28.5l38-47.5L492.9,159.4z M506.7,107.2h39.1L497,156L506.7,107.2z M460.3,159.2l-28.7-9.6
		l67-38.3L460.3,159.2z M450.6,159.4h-23.1l-0.5,0.1l-33.3,11.1l-0.8,0.6l-32.2,42.9l-51.4-51.4h29.3l1.2-0.5l54.2-54.2l32.2,42.9
		l0.8,0.6L450.6,159.4z M304.8,159.2l-28.7-9.6l67-38.3L304.8,159.2z M295.1,159.4H272l-0.5,0.1l-33.3,11.1l-0.8,0.6l-32.2,42.9
		l-51.4-51.4h29.3l1.2-0.5l54.2-54.2l32.2,42.9l0.8,0.6L295.1,159.4z M149.2,159.2l-28.7-9.6l67-38.3L149.2,159.2z M83.7,174.3
		l72.8,31.2l-84,31.5L52,216.5L83.7,174.3z M160.5,207.5l32.3,32.3l10.3,30.8h-41.8l-84.4-31.7L160.5,207.5z M115.9,325.8l-28.7-9.6
		l67-38.3L115.9,325.8z M117,340.9l72.8,31.2l-84,31.5l-20.4-20.4L117,340.9z M193.8,374.2l32.3,32.3l10.3,30.8h-41.8l-84.4-31.7
		L193.8,374.2z M149.2,492.5l-28.7-9.6l67-38.3L149.2,492.5z M158.5,536l-70.7-30.3l28.9-9.6h31.8L158.5,536z M191.3,445.3
		l-9.5,47.5h-28.5L191.3,445.3z M195.6,440.6h39.1l-48.8,48.8L195.6,440.6z M240.2,438.1l-11-33.1l-0.4-0.7l-29.1-29.1l38.2,9.5
		l21.9,21.9l0.6,0.4l85.6,32.1l-73.4,42L240.2,438.1z M343,444.7l-38.3,47.8l-28.7-9.6L343,444.7z M314,536l-70.7-30.3l28.9-9.6
		h31.8L314,536z M346.8,445.3l-9.5,47.5h-28.5L346.8,445.3z M351.2,440.6h39.1l-48.8,48.8L351.2,440.6z M395.7,438.1l-11-33.1
		l-0.4-0.7l-29.1-29.1l38.2,9.5l21.9,21.9l0.6,0.4l85.6,32.1l-73.4,42L395.7,438.1z M498.6,444.7l-38.3,47.8l-28.7-9.6L498.6,444.7z
		 M469.6,536l-70.7-30.3l28.9-9.6h31.8L469.6,536z M502.4,445.3l-9.5,47.5h-28.5L502.4,445.3z M506.7,440.6h39.1L497,489.4
		L506.7,440.6z M505.7,437.2l-84.4-31.7l83.7-31.4l32.3,32.3l10.3,30.8H505.7z M506.7,370.8l-9.4-37.6l47,47L506.7,370.8z
		 M472.3,270.6l-84.4-31.7l83.7-31.4l32.3,32.3l10.3,30.8H472.3z M473.4,204.2l-9.4-37.6l47,47L473.4,204.2z M615.9,159.2l-28.7-9.6
		l67-38.3L615.9,159.2z M506.7,37.5l-9.4-37.6l47,47L506.7,37.5z M428.1,7.6l72.8,31.2l-84,31.5l-20.4-20.4L428.1,7.6z M351.2,37.5
		l-9.4-37.6l47,47L351.2,37.5z M272.6,7.6l72.8,31.2l-84,31.5l-20.4-20.4L272.6,7.6z M195.6,37.5l-9.4-37.6l47,47L195.6,37.5z
		 M117,7.6l72.8,31.2l-84,31.5L85.3,49.8L117,7.6z M30.3,156l9.8-48.8h39.1L30.3,156z M26.2,159.4H-2.3l38-47.5L26.2,159.4z
		 M2.9,202.7l-70.7-30.3l28.9-9.6H-7L2.9,202.7z M6.7,204.2l-9.4-37.6l47,47L6.7,204.2z M49,218.2l21.9,21.9l0.6,0.4l85.6,32.1
		l-73.4,42l-32.3-43.1l-11-33.1l-0.4-0.7l-29.1-29.1L49,218.2z M-3,322.7l9.8-48.8h39.1L-3,322.7z M-7.1,326.1h-28.5l38-47.5
		L-7.1,326.1z M-5.5,329.4h31.8l10,39.9l-70.7-30.3L-5.5,329.4z M40.1,370.8l-9.4-37.6l47,47L40.1,370.8z M82.3,384.8l21.9,21.9
		l0.6,0.4l85.6,32.1l-73.4,42l-32.3-43.1l-11-33.1l-0.4-0.7l-29.1-29.1L82.3,384.8z M40.1,440.6h39.1l-48.8,48.8L40.1,440.6z
		 M26.2,492.8H-2.3l38-47.5L26.2,492.8z M2.9,536l-70.7-30.3l28.9-9.6H-7L2.9,536z M6.7,537.5l-9.4-37.6l47,47L6.7,537.5z
		 M83.7,507.6l72.8,31.2l-84,31.5L52,549.8L83.7,507.6z M162.3,537.5l-9.4-37.6l47,47L162.3,537.5z M239.2,507.6l72.8,31.2l-84,31.5
		l-20.4-20.4L239.2,507.6z M317.8,537.5l-9.4-37.6l47,47L317.8,537.5z M394.8,507.6l72.8,31.2l-84,31.5l-20.4-20.4L394.8,507.6z
		 M473.4,537.5l-9.4-37.6l47,47L473.4,537.5z M554.5,505.8l28.9-9.6h31.8l10,39.9L554.5,505.8z M648.4,492.8h-28.5l38-47.5
		L648.4,492.8z M662.3,440.6h39.1l-48.8,48.8L662.3,440.6z M615.9,492.5l-28.7-9.6l67-38.3L615.9,492.5z M583.6,481.2l-32.3-43.1
		l-11-33.1l-0.4-0.7l-29.1-29.1l38.2,9.5l21.9,21.9l0.6,0.4l85.6,32.1L583.6,481.2z M572.5,403.6L552,383.2l31.7-42.2l72.8,31.2
		L572.5,403.6z M629,273.9H668l-48.8,48.8L629,273.9z M582.6,325.8l-28.7-9.6l67-38.3L582.6,325.8z M550.3,314.5L518,271.4l-11-33.1
		l-0.4-0.7l-29.1-29.1l38.2,9.5l21.9,21.9l0.6,0.4l85.6,32.1L550.3,314.5z M539.1,237l-20.4-20.4l31.7-42.2l72.8,31.2L539.1,237z
		 M554.5,172.4l28.9-9.6h31.8l10,39.9L554.5,172.4z M657.9,111.9l-9.5,47.5h-28.5L657.9,111.9z M662.3,107.2h39.1L652.5,156
		L662.3,107.2z M661.2,103.9l-84.4-31.7l83.7-31.4l32.3,32.3l10.3,30.8H661.2z M662.3,37.5l-9.4-37.6l47,47L662.3,37.5z M582.6-7.5
		l-28.7-9.6l67-38.3L582.6-7.5z M582.6-4l0.5,0.1h23.1L582.6,4l-0.8,0.6l-32.2,42.9L495.4-6.7l-1.2-0.5h-29.3l51.4-51.4l32.2,42.9
		l0.8,0.6L582.6-4z M427-7.5l-28.7-9.6l67-38.3L427-7.5z M427.1-4l0.5,0.1h23.1L427.1,4l-0.8,0.6l-32.2,42.9L339.9-6.7l-1.2-0.5
		h-29.3l51.4-51.4l32.2,42.9l0.8,0.6L427.1-4z M271.5-7.5l-28.7-9.6l67-38.3L271.5-7.5z M271.5-4l0.5,0.1h23.1L271.5,4l-0.8,0.6
		l-32.2,42.9L184.3-6.7l-1.2-0.5h-29.3l51.4-51.4l32.2,42.9l0.8,0.6L271.5-4z M115.9-7.5l-28.7-9.6l67-38.3L115.9-7.5z M115.9-4
		l0.5,0.1h23.1L115.9,4l-0.8,0.6L83,47.5L28.8-6.7l-1.2-0.5H-1.7l51.4-51.4l32.2,42.9l0.8,0.6L115.9-4z M-39.7-7.5l-28.7-9.6
		l67-38.3L-39.7-7.5z M-38.5,7.6l72.8,31.2l-84,31.5l-20.4-20.4L-38.5,7.6z M38.3,40.8l32.3,32.3l10.3,30.8H39l-84.4-31.7L38.3,40.8
		z M-6.3,159.2l-28.7-9.6l67-38.3L-6.3,159.2z M-71.9,174.3l72.8,31.2l-84,31.5l-20.4-20.4L-71.9,174.3z M4.9,207.5l32.3,32.3
		l10.3,30.8H5.7l-84.4-31.7L4.9,207.5z M-39.7,325.8l-28.7-9.6l67-38.3L-39.7,325.8z M-38.5,340.9l72.8,31.2l-84,31.5l-20.4-20.4
		L-38.5,340.9z M38.3,374.2l32.3,32.3l10.3,30.8H39l-84.4-31.7L38.3,374.2z M-6.3,492.5l-28.7-9.6l67-38.3L-6.3,492.5z M-71.9,507.6
		l72.8,31.2l-84,31.5l-20.4-20.4L-71.9,507.6z M4.9,540.8l32.3,32.3l10.3,30.8H5.7l-84.4-31.7L4.9,540.8z M-39.7,659.2l-28.7-9.6
		l67-38.3L-39.7,659.2z M2.4,611.9l-9.5,47.5h-28.5L2.4,611.9z M6.7,607.2h39.1L-3,656L6.7,607.2z M51.3,604.8l-11-33.1l-0.4-0.7
		L10.8,542l38.2,9.5l21.9,21.9l0.6,0.4l85.6,32.1l-73.4,42L51.3,604.8z M154.2,611.3l-38.3,47.8l-28.7-9.6L154.2,611.3z
		 M157.9,611.9l-9.5,47.5h-28.5L157.9,611.9z M162.3,607.2h39.1L152.5,656L162.3,607.2z M206.9,604.8l-11-33.1l-0.4-0.7L166.4,542
		l38.2,9.5l21.9,21.9l0.6,0.4l85.6,32.1l-73.4,42L206.9,604.8z M309.7,611.3l-38.3,47.8l-28.7-9.6L309.7,611.3z M313.5,611.9
		l-9.5,47.5h-28.5L313.5,611.9z M317.8,607.2h39.1L308.1,656L317.8,607.2z M362.4,604.8l-11-33.1L351,571L321.9,542l38.2,9.5
		l21.9,21.9l0.6,0.4l85.6,32.1l-73.4,42L362.4,604.8z M465.3,611.3L427,659.2l-28.7-9.6L465.3,611.3z M469.1,611.9l-9.5,47.5h-28.5
		L469.1,611.9z M473.4,607.2h39.1L463.6,656L473.4,607.2z M518,604.8l-11-33.1l-0.4-0.7L477.5,542l38.2,9.5l21.9,21.9l0.6,0.4
		l85.6,32.1l-73.4,42L518,604.8z M620.8,611.3l-38.3,47.8l-28.7-9.6L620.8,611.3z M624.6,611.9l-9.5,47.5h-28.5L624.6,611.9z
		 M629,607.2H668L619.2,656L629,607.2z M627.9,603.9l-84.4-31.7l83.7-31.4l32.3,32.3l10.3,30.8H627.9z M629,537.5l-9.4-37.6l47,47
		L629,537.5z M661.2,437.2l-84.4-31.7l83.7-31.4l32.3,32.3l10.3,30.8H661.2z M662.3,370.8l-9.4-37.6l47,47L662.3,370.8z
		 M627.9,270.6l-84.4-31.7l83.7-31.4l32.3,32.3l10.3,30.8H627.9z M629,204.2l-9.4-37.6l47,47L629,204.2z M771.5,159.2l-28.7-9.6
		l67-38.3L771.5,159.2z M739.1,147.8l-32.3-43.1l-11-33.1l-0.4-0.7L666.4,42l38.2,9.5l21.9,21.9l0.6,0.4l85.6,32.1L739.1,147.8z
		 M728,70.3l-20.4-20.4l31.7-42.2L812,38.8L728,70.3z M784.5-59.4h39.1l-48.8,48.8L784.5-59.4z M738.1-7.5l-28.7-9.6l67-38.3
		L738.1-7.5z M629-129.2l-9.4-37.6l47,47L629-129.2z M625.2-130.6l-70.7-30.3l28.9-9.6h31.8L625.2-130.6z M550.4-159.1l72.8,31.2
		l-84,31.5l-20.4-20.4L550.4-159.1z M473.4-129.2l-9.4-37.6l47,47L473.4-129.2z M469.6-130.6l-70.7-30.3l28.9-9.6h31.8L469.6-130.6z
		 M394.8-159.1l72.8,31.2l-84,31.5l-20.4-20.4L394.8-159.1z M317.8-129.2l-9.4-37.6l47,47L317.8-129.2z M314-130.6l-70.7-30.3
		l28.9-9.6h31.8L314-130.6z M239.2-159.1l72.8,31.2l-84,31.5l-20.4-20.4L239.2-159.1z M162.3-129.2l-9.4-37.6l47,47L162.3-129.2z
		 M158.5-130.6l-70.7-30.3l28.9-9.6h31.8L158.5-130.6z M83.7-159.1l72.8,31.2l-84,31.5L52-116.8L83.7-159.1z M6.7-129.2l-9.4-37.6
		l47,47L6.7-129.2z M2.9-130.6l-70.7-30.3l28.9-9.6H-7L2.9-130.6z M-71.9-159.1l72.8,31.2l-84,31.5l-20.4-20.4L-71.9-159.1z
		 M-158.6-10.6l9.8-48.8h39.1L-158.6-10.6z M-162.7-7.2h-28.5l38-47.5L-162.7-7.2z M-161-3.9h31.8l10,39.9L-190,5.8L-161-3.9z
		 M-115.5,37.5l-9.4-37.6l47,47L-115.5,37.5z M-73.3,51.5l21.9,21.9l0.6,0.4l85.6,32.1l-73.4,42l-32.3-43.1l-11-33.1l-0.4-0.7
		L-111.4,42L-73.3,51.5z M-125.3,156l9.8-48.8h39.1L-125.3,156z M-129.3,159.4h-28.5l38-47.5L-129.3,159.4z M-152.6,202.7
		l-70.7-30.3l28.9-9.6h31.8L-152.6,202.7z M-148.8,204.2l-9.4-37.6l47,47L-148.8,204.2z M-106.6,218.2l21.9,21.9l0.6,0.4l85.6,32.1
		l-73.4,42l-32.3-43.1l-11-33.1l-0.4-0.7l-29.1-29.1L-106.6,218.2z M-158.6,322.7l9.8-48.8h39.1L-158.6,322.7z M-162.7,326.1h-28.5
		l38-47.5L-162.7,326.1z M-161,329.4h31.8l10,39.9l-70.7-30.3L-161,329.4z M-115.5,370.8l-9.4-37.6l47,47L-115.5,370.8z
		 M-73.3,384.8l21.9,21.9l0.6,0.4l85.6,32.1l-73.4,42l-32.3-43.1l-11-33.1l-0.4-0.7l-29.1-29.1L-73.3,384.8z M-125.3,489.4l9.8-48.8
		h39.1L-125.3,489.4z M-129.3,492.8h-28.5l38-47.5L-129.3,492.8z M-152.6,536l-70.7-30.3l28.9-9.6h31.8L-152.6,536z M-148.8,537.5
		l-9.4-37.6l47,47L-148.8,537.5z M-106.6,551.5l21.9,21.9l0.6,0.4l85.6,32.1l-73.4,42l-32.3-43.1l-11-33.1l-0.4-0.7l-29.1-29.1
		L-106.6,551.5z M-148.8,607.2h39.1l-48.8,48.8L-148.8,607.2z M-162.7,659.4h-28.5l38-47.5L-162.7,659.4z M-161,662.8h31.8l10,39.9
		l-70.7-30.3L-161,662.8z M-115.5,704.2l-9.4-37.6l47,47L-115.5,704.2z M-38.5,674.3l72.8,31.2l-84,31.5l-20.4-20.4L-38.5,674.3z
		 M40.1,704.2l-9.4-37.6l47,47L40.1,704.2z M117,674.3l72.8,31.2l-84,31.5l-20.4-20.4L117,674.3z M195.6,704.2l-9.4-37.6l47,47
		L195.6,704.2z M272.6,674.3l72.8,31.2l-84,31.5l-20.4-20.4L272.6,674.3z M351.2,704.2l-9.4-37.6l47,47L351.2,704.2z M428.1,674.3
		l72.8,31.2l-84,31.5l-20.4-20.4L428.1,674.3z M506.7,704.2l-9.4-37.6l47,47L506.7,704.2z M583.7,674.3l72.8,31.2l-84,31.5
		L552,716.5L583.7,674.3z M662.3,704.2l-9.4-37.6l47,47L662.3,704.2z M770.7,659.4h-28.5l38-47.5L770.7,659.4z M784.5,607.2h39.1
		L774.7,656L784.5,607.2z M738.1,659.2l-28.7-9.6l67-38.3L738.1,659.2z M705.8,647.8l-32.3-43.1l-11-33.1l-0.4-0.7L633,542l38.2,9.5
		l21.9,21.9l0.6,0.4l85.6,32.1L705.8,647.8z M694.7,570.3l-20.4-20.4l31.7-42.2l72.8,31.2L694.7,570.3z M710,505.8l28.9-9.6h31.8
		l10,39.9L710,505.8z M804,492.8h-28.5l38-47.5L804,492.8z M817.8,440.6h39.1l-48.8,48.8L817.8,440.6z M771.5,492.5l-28.7-9.6
		l67-38.3L771.5,492.5z M739.1,481.2l-32.3-43.1l-11-33.1l-0.4-0.7l-29.1-29.1l38.2,9.5l21.9,21.9l0.6,0.4l85.6,32.1L739.1,481.2z
		 M728,403.6l-20.4-20.4l31.7-42.2l72.8,31.2L728,403.6z M784.5,273.9h39.1l-48.8,48.8L784.5,273.9z M738.1,325.8l-28.7-9.6l67-38.3
		L738.1,325.8z M705.8,314.5l-32.3-43.1l-11-33.1l-0.4-0.7L633,208.6l38.2,9.5l21.9,21.9l0.6,0.4l85.6,32.1L705.8,314.5z M694.7,237
		l-20.4-20.4l31.7-42.2l72.8,31.2L694.7,237z M710,172.4l28.9-9.6h31.8l10,39.9L710,172.4z M813.5,111.9l-9.5,47.5h-28.5
		L813.5,111.9z M817.8,107.2h39.1L808.1,156L817.8,107.2z M816.8,103.9l-84.4-31.7l83.7-31.4l32.3,32.3l10.3,30.8H816.8z
		 M817.8,37.5l-9.4-37.6l47,47L817.8,37.5z M783.4-62.8L699-94.4l83.7-31.4L815-93.5l10.3,30.8H783.4z M784.5-129.2l-9.4-37.6l47,47
		L784.5-129.2z M808.1-177.3l9.8-48.8h39.1L808.1-177.3z M771.5-174.2l-28.7-9.6l67-38.3L771.5-174.2z M761.8-173.9h-23.1l-0.5,0.1
		l-33.3,11.1l-0.8,0.6l-32.2,42.9l-51.4-51.4h29.3l1.2-0.5l54.2-54.2l32.2,42.9l0.8,0.6L761.8-173.9z M652.5-177.3l9.8-48.8h39.1
		L652.5-177.3z M615.9-174.2l-28.7-9.6l67-38.3L615.9-174.2z M606.2-173.9h-23.1l-0.5,0.1l-33.3,11.1l-0.8,0.6l-32.2,42.9
		l-51.4-51.4h29.3l1.2-0.5l54.2-54.2l32.2,42.9l0.8,0.6L606.2-173.9z M497-177.3l9.8-48.8h39.1L497-177.3z M460.3-174.2l-28.7-9.6
		l67-38.3L460.3-174.2z M450.6-173.9h-23.1l-0.5,0.1l-33.3,11.1l-0.8,0.6l-32.2,42.9l-51.4-51.4h29.3l1.2-0.5l54.2-54.2l32.2,42.9
		l0.8,0.6L450.6-173.9z M341.4-177.3l9.8-48.8h39.1L341.4-177.3z M304.8-174.2l-28.7-9.6l67-38.3L304.8-174.2z M295.1-173.9H272
		l-0.5,0.1l-33.3,11.1l-0.8,0.6l-32.2,42.9l-51.4-51.4h29.3l1.2-0.5l54.2-54.2l32.2,42.9l0.8,0.6L295.1-173.9z M185.9-177.3
		l9.8-48.8h39.1L185.9-177.3z M149.2-174.2l-28.7-9.6l67-38.3L149.2-174.2z M139.5-173.9h-23.1l-0.5,0.1l-33.3,11.1l-0.8,0.6
		l-32.2,42.9l-51.4-51.4h29.3l1.2-0.5L83-225.2l32.2,42.9l0.8,0.6L139.5-173.9z M30.3-177.3l9.8-48.8h39.1L30.3-177.3z M-6.3-174.2
		l-28.7-9.6l67-38.3L-6.3-174.2z M-16-173.9h-23.1l-0.5,0.1l-33.3,11.1l-0.8,0.6l-32.2,42.9l-51.4-51.4h29.3l1.2-0.5l54.2-54.2
		l32.2,42.9l0.8,0.6L-16-173.9z M-125.3-177.3l9.8-48.8h39.1L-125.3-177.3z M-161.9-174.2l-28.7-9.6l67-38.3L-161.9-174.2z
		 M-227.4-159.1l72.8,31.2l-84,31.5l-20.4-20.4L-227.4-159.1z M-150.6-125.8l32.3,32.3l10.3,30.8h-41.8l-84.4-31.7L-150.6-125.8z
		 M-195.2-7.5l-28.7-9.6l67-38.3L-195.2-7.5z M-194.1,7.6l72.8,31.2l-84,31.5l-20.4-20.4L-194.1,7.6z M-117.3,40.8L-85,73.1
		l10.3,30.8h-41.8L-201,72.2L-117.3,40.8z M-161.9,159.2l-28.7-9.6l67-38.3L-161.9,159.2z M-227.4,174.3l72.8,31.2l-84,31.5
		l-20.4-20.4L-227.4,174.3z M-150.6,207.5l32.3,32.3l10.3,30.8h-41.8l-84.4-31.7L-150.6,207.5z M-195.2,325.8l-28.7-9.6l67-38.3
		L-195.2,325.8z M-194.1,340.9l72.8,31.2l-84,31.5l-20.4-20.4L-194.1,340.9z M-117.3,374.2l32.3,32.3l10.3,30.8h-41.8l-84.4-31.7
		L-117.3,374.2z M-161.9,492.5l-28.7-9.6l67-38.3L-161.9,492.5z M-227.4,507.6l72.8,31.2l-84,31.5l-20.4-20.4L-227.4,507.6z
		 M-150.6,540.8l32.3,32.3l10.3,30.8h-41.8l-84.4-31.7L-150.6,540.8z M-195.2,659.2l-28.7-9.6l67-38.3L-195.2,659.2z M-194.1,674.3
		l72.8,31.2l-84,31.5l-20.4-20.4L-194.1,674.3z M-117.3,707.5l32.3,32.3l10.3,30.8h-41.8l-84.4-31.7L-117.3,707.5z M-161.9,825.8
		l-28.7-9.6l67-38.3L-161.9,825.8z M-152.6,869.4l-70.7-30.3l28.9-9.6h31.8L-152.6,869.4z M-119.8,778.6l-9.5,47.5h-28.5
		L-119.8,778.6z M-115.5,773.9h39.1l-48.8,48.8L-115.5,773.9z M-70.9,771.4l-11-33.1l-0.4-0.7l-29.1-29.1l38.2,9.5l21.9,21.9
		l0.6,0.4l85.6,32.1l-73.4,42L-70.9,771.4z M31.9,778l-38.3,47.8l-28.7-9.6L31.9,778z M2.9,869.4l-70.7-30.3l28.9-9.6H-7L2.9,869.4z
		 M35.7,778.6l-9.5,47.5H-2.3L35.7,778.6z M40.1,773.9h39.1l-48.8,48.8L40.1,773.9z M84.6,771.4l-11-33.1l-0.4-0.7l-29.1-29.1
		l38.2,9.5l21.9,21.9l0.6,0.4l85.6,32.1l-73.4,42L84.6,771.4z M187.5,778l-38.3,47.8l-28.7-9.6L187.5,778z M158.5,869.4l-70.7-30.3
		l28.9-9.6h31.8L158.5,869.4z M191.3,778.6l-9.5,47.5h-28.5L191.3,778.6z M195.6,773.9h39.1l-48.8,48.8L195.6,773.9z M240.2,771.4
		l-11-33.1l-0.4-0.7l-29.1-29.1l38.2,9.5l21.9,21.9l0.6,0.4l85.6,32.1l-73.4,42L240.2,771.4z M343,778l-38.3,47.8l-28.7-9.6L343,778
		z M314,869.4l-70.7-30.3l28.9-9.6h31.8L314,869.4z M346.8,778.6l-9.5,47.5h-28.5L346.8,778.6z M351.2,773.9h39.1l-48.8,48.8
		L351.2,773.9z M395.7,771.4l-11-33.1l-0.4-0.7l-29.1-29.1l38.2,9.5l21.9,21.9l0.6,0.4l85.6,32.1l-73.4,42L395.7,771.4z M498.6,778
		l-38.3,47.8l-28.7-9.6L498.6,778z M469.6,869.4l-70.7-30.3l28.9-9.6h31.8L469.6,869.4z M502.4,778.6l-9.5,47.5h-28.5L502.4,778.6z
		 M506.7,773.9h39.1L497,822.7L506.7,773.9z M551.3,771.4l-11-33.1l-0.4-0.7l-29.1-29.1l38.2,9.5l21.9,21.9l0.6,0.4l85.6,32.1
		l-73.4,42L551.3,771.4z M654.2,778l-38.3,47.8l-28.7-9.6L654.2,778z M625.2,869.4l-70.7-30.3l28.9-9.6h31.8L625.2,869.4z
		 M657.9,778.6l-9.5,47.5h-28.5L657.9,778.6z M662.3,773.9h39.1l-48.8,48.8L662.3,773.9z M706.9,771.4l-11-33.1l-0.4-0.7l-29.1-29.1
		l38.2,9.5l21.9,21.9l0.6,0.4l85.6,32.1l-73.4,42L706.9,771.4z M809.7,778l-38.3,47.8l-28.7-9.6L809.7,778z M780.7,869.4L710,839.1
		l28.9-9.6h31.8L780.7,869.4z M813.5,778.6l-9.5,47.5h-28.5L813.5,778.6z M817.8,773.9h39.1l-48.8,48.8L817.8,773.9z M816.8,770.6
		l-84.4-31.7l83.7-31.4l32.3,32.3l10.3,30.8H816.8z M817.8,704.2l-9.4-37.6l47,47L817.8,704.2z M783.4,603.9L699,572.2l83.7-31.4
		l32.3,32.3l10.3,30.8H783.4z M784.5,537.5l-9.4-37.6l47,47L784.5,537.5z M816.8,437.2l-84.4-31.7l83.7-31.4l32.3,32.3l10.3,30.8
		H816.8z M817.8,370.8l-9.4-37.6l47,47L817.8,370.8z M783.4,270.6L699,238.9l83.7-31.4l32.3,32.3l10.3,30.8H783.4z M784.5,204.2
		l-9.4-37.6l47,47L784.5,204.2z M898.3,149.6l67-38.3L927,159.2L898.3,149.6z M894.7,147.8l-32.3-43.1l-11-33.1L851,71L821.9,42
		l38.2,9.5L882,73.4l0.6,0.4l85.6,32.1L894.7,147.8z M883.6,70.3l-20.4-20.4l31.7-42.2l72.8,31.2L883.6,70.3z M940.1-59.4h39.1
		l-48.8,48.8L940.1-59.4z M893.7-7.5L865-17.1l67-38.3L893.7-7.5z M861.4-18.8l-32.3-43.1l-11-33.1l-0.4-0.7l-29.1-29.1l38.2,9.5
		l21.9,21.9l0.6,0.4l85.6,32.1L861.4-18.8z M850.2-96.4l-20.4-20.4l31.7-42.2l72.8,31.2L850.2-96.4z M865.6-160.9l28.9-9.6h31.8
		l10,39.9L865.6-160.9z M959.6-173.9h-28.5l38-47.5L959.6-173.9z M973.4-226.1h39.1l-48.8,48.8L973.4-226.1z M927-174.2l-28.7-9.6
		l67-38.3L927-174.2z M-280.8-177.3l9.8-48.8h39.1L-280.8-177.3z M-284.9-173.9h-28.5l38-47.5L-284.9-173.9z M-262.2-115.2
		l21.9,21.9l0.6,0.4l85.6,32.1l-73.4,42l-32.3-43.1l-11-33.1l-0.4-0.7l-29.1-29.1L-262.2-115.2z M-314.1-10.6l9.8-48.8h39.1
		L-314.1-10.6z M-318.2-7.2h-28.5l38-47.5L-318.2-7.2z M-284.8-3.9l10,39.9l-70.7-30.3l28.9-9.6H-284.8z M-271,37.5l-9.4-37.6l47,47
		L-271,37.5z M-228.8,51.5l21.9,21.9l0.6,0.4l85.6,32.1l-73.4,42l-32.3-43.1l-11-33.1l-0.4-0.7L-267,42L-228.8,51.5z M-280.8,156
		l9.8-48.8h39.1L-280.8,156z M-284.9,159.4h-28.5l38-47.5L-284.9,159.4z M-262.2,218.2l21.9,21.9l0.6,0.4l85.6,32.1l-73.4,42
		l-32.3-43.1l-11-33.1l-0.4-0.7l-29.1-29.1L-262.2,218.2z M-314.1,322.7l9.8-48.8h39.1L-314.1,322.7z M-318.2,326.1h-28.5l38-47.5
		L-318.2,326.1z M-284.8,329.4l10,39.9l-70.7-30.3l28.9-9.6H-284.8z M-271,370.8l-9.4-37.6l47,47L-271,370.8z M-228.8,384.8
		l21.9,21.9l0.6,0.4l85.6,32.1l-73.4,42l-32.3-43.1l-11-33.1l-0.4-0.7l-29.1-29.1L-228.8,384.8z M-280.8,489.4l9.8-48.8h39.1
		L-280.8,489.4z M-284.9,492.8h-28.5l38-47.5L-284.9,492.8z M-262.2,551.5l21.9,21.9l0.6,0.4l85.6,32.1l-73.4,42l-32.3-43.1
		l-11-33.1l-0.4-0.7l-29.1-29.1L-262.2,551.5z M-314.1,656l9.8-48.8h39.1L-314.1,656z M-318.2,659.4h-28.5l38-47.5L-318.2,659.4z
		 M-284.8,662.8l10,39.9l-70.7-30.3l28.9-9.6H-284.8z M-271,704.2l-9.4-37.6l47,47L-271,704.2z M-228.8,718.2l21.9,21.9l0.6,0.4
		l85.6,32.1l-73.4,42l-32.3-43.1l-11-33.1l-0.4-0.7l-29.1-29.1L-228.8,718.2z M-271,773.9h39.1l-48.8,48.8L-271,773.9z
		 M-284.9,826.1h-28.5l38-47.5L-284.9,826.1z M-227.4,840.9l72.8,31.2l-84,31.5l-20.4-20.4L-227.4,840.9z M-148.8,870.8l-9.4-37.6
		l47,47L-148.8,870.8z M-71.9,840.9l72.8,31.2l-84,31.5l-20.4-20.4L-71.9,840.9z M6.7,870.8l-9.4-37.6l47,47L6.7,870.8z M83.7,840.9
		l72.8,31.2l-84,31.5L52,883.2L83.7,840.9z M162.3,870.8l-9.4-37.6l47,47L162.3,870.8z M239.2,840.9l72.8,31.2l-84,31.5l-20.4-20.4
		L239.2,840.9z M317.8,870.8l-9.4-37.6l47,47L317.8,870.8z M394.8,840.9l72.8,31.2l-84,31.5l-20.4-20.4L394.8,840.9z M473.4,870.8
		l-9.4-37.6l47,47L473.4,870.8z M550.4,840.9l72.8,31.2l-84,31.5l-20.4-20.4L550.4,840.9z M629,870.8l-9.4-37.6l47,47L629,870.8z
		 M705.9,840.9l72.8,31.2l-84,31.5l-20.4-20.4L705.9,840.9z M784.5,870.8l-9.4-37.6l47,47L784.5,870.8z M865.6,839.1l28.9-9.6h31.8
		l10,39.9L865.6,839.1z M959.6,826.1h-28.5l38-47.5L959.6,826.1z M973.4,773.9h39.1l-48.8,48.8L973.4,773.9z M927,825.8l-28.7-9.6
		l67-38.3L927,825.8z M894.7,814.5l-32.3-43.1l-11-33.1l-0.4-0.7l-29.1-29.1l38.2,9.5l21.9,21.9l0.6,0.4l85.6,32.1L894.7,814.5z
		 M883.6,737l-20.4-20.4l31.7-42.2l72.8,31.2L883.6,737z M940.1,607.2h39.1L930.3,656L940.1,607.2z M893.7,659.2l-28.7-9.6l67-38.3
		L893.7,659.2z M861.4,647.8l-32.3-43.1l-11-33.1l-0.4-0.7L788.6,542l38.2,9.5l21.9,21.9l0.6,0.4l85.6,32.1L861.4,647.8z
		 M850.2,570.3l-20.4-20.4l31.7-42.2l72.8,31.2L850.2,570.3z M865.6,505.8l28.9-9.6h31.8l10,39.9L865.6,505.8z M959.6,492.8h-28.5
		l38-47.5L959.6,492.8z M973.4,440.6h39.1l-48.8,48.8L973.4,440.6z M927,492.5l-28.7-9.6l67-38.3L927,492.5z M894.7,481.2
		l-32.3-43.1l-11-33.1l-0.4-0.7l-29.1-29.1l38.2,9.5l21.9,21.9l0.6,0.4l85.6,32.1L894.7,481.2z M883.6,403.6l-20.4-20.4l31.7-42.2
		l72.8,31.2L883.6,403.6z M940.1,273.9h39.1l-48.8,48.8L940.1,273.9z M893.7,325.8l-28.7-9.6l67-38.3L893.7,325.8z M861.4,314.5
		l-32.3-43.1l-11-33.1l-0.4-0.7l-29.1-29.1l38.2,9.5l21.9,21.9l0.6,0.4l85.6,32.1L861.4,314.5z M850.2,237l-20.4-20.4l31.7-42.2
		l72.8,31.2L850.2,237z M865.6,172.4l28.9-9.6h31.8l10,39.9L865.6,172.4z M969.1,111.9l-9.5,47.5h-28.5L969.1,111.9z M1003.9,73.1
		l10.3,30.8h-41.8l-84.4-31.7l83.7-31.4L1003.9,73.1z M973.4,37.5L964-0.1l47,47L973.4,37.5z M970.6-93.5l10.3,30.8H939l-84.4-31.7
		l83.7-31.4L970.6-93.5z M940.1-129.2l-9.4-37.6l47,47L940.1-129.2z M1003.9-260.2l10.3,30.8h-41.8l-84.4-31.7l83.7-31.4
		L1003.9-260.2z M973.4-295.8l-9.4-37.6l47,47L973.4-295.8z M927.9-337.2h31.8l10,39.9l-70.7-30.3L927.9-337.2z M894.8-325.7
		l72.8,31.2l-84,31.5l-20.4-20.4L894.8-325.7z M817.8-295.8l-9.4-37.6l47,47L817.8-295.8z M772.3-337.2h31.8l10,39.9l-70.7-30.3
		L772.3-337.2z M739.2-325.7l72.8,31.2L728-263l-20.4-20.4L739.2-325.7z M662.3-295.8l-9.4-37.6l47,47L662.3-295.8z M616.7-337.2
		h31.8l10,39.9l-70.7-30.3L616.7-337.2z M583.7-325.7l72.8,31.2l-84,31.5L552-283.5L583.7-325.7z M506.7-295.8l-9.4-37.6l47,47
		L506.7-295.8z M461.2-337.2H493l10,39.9l-70.7-30.3L461.2-337.2z M428.1-325.7l72.8,31.2l-84,31.5l-20.4-20.4L428.1-325.7z
		 M351.2-295.8l-9.4-37.6l47,47L351.2-295.8z M305.6-337.2h31.8l10,39.9l-70.7-30.3L305.6-337.2z M272.6-325.7l72.8,31.2l-84,31.5
		l-20.4-20.4L272.6-325.7z M195.6-295.8l-9.4-37.6l47,47L195.6-295.8z M150.1-337.2h31.8l10,39.9l-70.7-30.3L150.1-337.2z
		 M117-325.7l72.8,31.2l-84,31.5l-20.4-20.4L117-325.7z M40.1-295.8l-9.4-37.6l47,47L40.1-295.8z M-5.5-337.2h31.8l10,39.9
		l-70.7-30.3L-5.5-337.2z M-38.5-325.7l72.8,31.2l-84,31.5l-20.4-20.4L-38.5-325.7z M-115.5-295.8l-9.4-37.6l47,47L-115.5-295.8z
		 M-161-337.2h31.8l10,39.9l-70.7-30.3L-161-337.2z M-194.1-325.7l72.8,31.2l-84,31.5l-20.4-20.4L-194.1-325.7z M-271-295.8
		l-9.4-37.6l47,47L-271-295.8z M-316.6-337.2h31.8l10,39.9l-70.7-30.3L-316.6-337.2z M-381.3-283.5l31.7-42.2l72.8,31.2l-84,31.5
		L-381.3-283.5z M-356.6-261.1l83.7-31.4l32.3,32.3l10.3,30.8h-41.8L-356.6-261.1z M-279.2-222l-38.3,47.8l-28.7-9.6L-279.2-222z
		 M-349.9-170.6h31.8l10,39.9l-70.7-30.3L-349.9-170.6z M-414.7-116.8l31.7-42.2l72.8,31.2l-84,31.5L-414.7-116.8z M-389.9-94.4
		l83.7-31.4l32.3,32.3l10.3,30.8h-41.8L-389.9-94.4z M-312.5-55.3l-38.3,47.8l-28.7-9.6L-312.5-55.3z M-381.3,49.8l31.7-42.2
		l72.8,31.2l-84,31.5L-381.3,49.8z M-356.6,72.2l83.7-31.4l32.3,32.3l10.3,30.8h-41.8L-356.6,72.2z M-279.2,111.3l-38.3,47.8
		l-28.7-9.6L-279.2,111.3z M-349.9,162.8h31.8l10,39.9l-70.7-30.3L-349.9,162.8z M-414.7,216.5l31.7-42.2l72.8,31.2l-84,31.5
		L-414.7,216.5z M-389.9,238.9l83.7-31.4l32.3,32.3l10.3,30.8h-41.8L-389.9,238.9z M-312.5,278l-38.3,47.8l-28.7-9.6L-312.5,278z
		 M-381.3,383.2l31.7-42.2l72.8,31.2l-84,31.5L-381.3,383.2z M-356.6,405.6l83.7-31.4l32.3,32.3l10.3,30.8h-41.8L-356.6,405.6z
		 M-279.2,444.7l-38.3,47.8l-28.7-9.6L-279.2,444.7z M-349.9,496.1h31.8l10,39.9l-70.7-30.3L-349.9,496.1z M-414.7,549.8l31.7-42.2
		l72.8,31.2l-84,31.5L-414.7,549.8z M-389.9,572.2l83.7-31.4l32.3,32.3l10.3,30.8h-41.8L-389.9,572.2z M-312.5,611.3l-38.3,47.8
		l-28.7-9.6L-312.5,611.3z M-381.3,716.5l31.7-42.2l72.8,31.2l-84,31.5L-381.3,716.5z M-356.6,738.9l83.7-31.4l32.3,32.3l10.3,30.8
		h-41.8L-356.6,738.9z M-279.2,778l-38.3,47.8l-28.7-9.6L-279.2,778z M-349.9,829.4h31.8l10,39.9l-70.7-30.3L-349.9,829.4z
		 M-414.7,883.2l31.7-42.2l72.8,31.2l-84,31.5L-414.7,883.2z M-389.9,905.6l83.7-31.4l32.3,32.3l10.3,30.8h-41.8L-389.9,905.6z
		 M-318.2,992.8h-28.5l38-47.5L-318.2,992.8z M-304.4,940.6h39.1l-48.8,48.8L-304.4,940.6z M-312.5,944.7l-38.3,47.8l-28.7-9.6
		L-312.5,944.7z M-259.8,938.1l-11-33.1l-0.4-0.7l-29.1-29.1l38.2,9.5l21.9,21.9l0.6,0.4l85.6,32.1l-73.4,42L-259.8,938.1z
		 M-157,944.7l-38.3,47.8l-28.7-9.6L-157,944.7z M-104.3,938.1l-11-33.1l-0.4-0.7l-29.1-29.1l38.2,9.5l21.9,21.9l0.6,0.4l85.6,32.1
		l-73.4,42L-104.3,938.1z M-1.4,944.7l-38.3,47.8l-28.7-9.6L-1.4,944.7z M51.3,938.1l-11-33.1l-0.4-0.7l-29.1-29.1l38.2,9.5
		l21.9,21.9l0.6,0.4l85.6,32.1l-73.4,42L51.3,938.1z M154.2,944.7l-38.3,47.8l-28.7-9.6L154.2,944.7z M206.9,938.1l-11-33.1
		l-0.4-0.7l-29.1-29.1l38.2,9.5l21.9,21.9l0.6,0.4l85.6,32.1l-73.4,42L206.9,938.1z M309.7,944.7l-38.3,47.8l-28.7-9.6L309.7,944.7z
		 M362.4,938.1l-11-33.1l-0.4-0.7l-29.1-29.1l38.2,9.5l21.9,21.9l0.6,0.4l85.6,32.1l-73.4,42L362.4,938.1z M465.3,944.7L427,992.5
		l-28.7-9.6L465.3,944.7z M518,938.1l-11-33.1l-0.4-0.7l-29.1-29.1l38.2,9.5l21.9,21.9l0.6,0.4l85.6,32.1l-73.4,42L518,938.1z
		 M620.8,944.7l-38.3,47.8l-28.7-9.6L620.8,944.7z M673.5,938.1l-11-33.1l-0.4-0.7L633,875.3l38.2,9.5l21.9,21.9l0.6,0.4l85.6,32.1
		l-73.4,42L673.5,938.1z M776.4,944.7l-38.3,47.8l-28.7-9.6L776.4,944.7z M829.1,938.1l-11-33.1l-0.4-0.7l-29.1-29.1l38.2,9.5
		l21.9,21.9l0.6,0.4l85.6,32.1l-73.4,42L829.1,938.1z M926.2,992.8h-28.5l38-47.5L926.2,992.8z M940.1,940.6h39.1l-48.8,48.8
		L940.1,940.6z M931.9,944.7l-38.3,47.8l-28.7-9.6L931.9,944.7z M970.6,906.5l10.3,30.8H939l-84.4-31.7l83.7-31.4L970.6,906.5z
		 M940.1,870.8l-9.4-37.6l47,47L940.1,870.8z M1003.9,739.8l10.3,30.8h-41.8l-84.4-31.7l83.7-31.4L1003.9,739.8z M973.4,704.2
		l-9.4-37.6l47,47L973.4,704.2z M970.6,573.1l10.3,30.8H939l-84.4-31.7l83.7-31.4L970.6,573.1z M940.1,537.5l-9.4-37.6l47,47
		L940.1,537.5z M1003.9,406.5l10.3,30.8h-41.8l-84.4-31.7l83.7-31.4L1003.9,406.5z M973.4,370.8l-9.4-37.6l47,47L973.4,370.8z
		 M970.6,239.8l10.3,30.8H939l-84.4-31.7l83.7-31.4L970.6,239.8z M940.1,204.2l-9.4-37.6l47,47L940.1,204.2z"/>
</g>
</svg>
