<?xml version="1.0" encoding="UTF-8"?>
<svg width="735px" height="909px" viewBox="0 0 735 909" version="1.1" xmlns="http://www.w3.org/2000/svg" xmlns:xlink="http://www.w3.org/1999/xlink">
    <!-- Generator: Sketch 54.1 (76490) - https://sketchapp.com -->
    <title>Fill 1</title>
    <desc>Created with Sketch.</desc>
    <g id="Page-1" stroke="none" stroke-width="1" fill="none" fill-rule="evenodd">
        <g id="Our-vision" transform="translate(-705.000000, -383.000000)" fill="#F5F5FA">
            <path d="M1069.19294,383 L1064.26847,388.557214 L1093.00823,503.50964 L798.161939,532.992775 L794.10855,537.470948 L794.10855,865.983597 L705,984.788171 L705.41804,990.670398 L764.363696,1049.61167 L794.154554,1258.1357 L797.185845,1261.76784 L887.194481,1291.76899 L888.617618,1292 L978.626254,1292 L981.808559,1290.68095 L1128.1536,1144.34531 L1215.04794,1260.19878 L1220.8815,1261.40582 L1429.86455,1141.99422 L1548.68195,1141.99422 L1553.18238,1137.49405 L1553.18238,988.148301 L1643,688.769773 L1642.958,686.053669 L1613.54617,597.818271 L1642.71497,539.484025 L1641.87189,534.288825 L1491.8575,384.283049 L1487.93512,383.026001 L1308.56591,412.920152 L1069.19294,383 Z M1324.54844,419.380401 L1485.31687,392.587369 L1512.11144,499.759496 L1324.54844,419.380401 Z M1081.09209,393.557407 L1300.40413,420.969462 L1218.16224,530.619684 L1081.09209,393.557407 Z M1522.39043,503.75865 L1496.98199,402.135737 L1624.01818,529.164628 L1522.39043,503.75865 Z M1102.34913,503.75865 L1076.94169,402.135737 L1203.97788,529.164628 L1102.34913,503.75865 Z M1224.59185,537.047931 L1310.13606,422.99554 L1506.60391,507.191782 L1279.78815,592.242057 L1224.59185,537.047931 Z M861.107978,593.602109 L808.505931,541.004084 L1096.96361,512.159973 L1184.71303,599.904352 L1212.40568,682.97655 L1099.45385,682.97655 L861.107978,593.602109 Z M1291.47327,597.473258 L1517.54496,512.700994 L1604.75333,599.904352 L1632.44499,682.97655 L1519.49315,682.97655 L1291.47327,597.473258 Z M1533.34948,515.776112 L1632.15496,540.476063 L1607.45359,589.876966 L1533.34948,515.776112 Z M1222.51465,684.839622 L1192.91481,596.050203 L1191.82871,594.291136 L1113.31018,515.776112 L1216.34906,541.535104 L1275.47174,600.655381 L1277.07489,601.68642 L1511.28636,689.511802 L1398.02049,831.086253 L1222.51465,684.839622 Z M803.109413,548.335366 L853.685266,598.908313 L803.109413,826.487076 L803.109413,548.335366 Z M861.885053,603.50549 L1089.14786,688.724772 L886.55242,833.427343 L804.726569,860.701393 L861.885053,603.50549 Z M1520.84128,691.976897 L1627.82454,691.976897 L1486.81101,832.982326 L1408.03045,832.982326 L1520.84128,691.976897 Z M1102.32712,691.976897 L1207.78424,691.976897 L1075.96359,823.790972 L1102.32712,691.976897 Z M1077.76377,834.719393 L1218.92531,693.564958 L1388.24556,834.657391 L1218.72329,862.909478 L1077.76377,834.719393 Z M1409.5316,841.982673 L1488.67519,841.982673 L1491.8575,840.663622 L1629.24968,703.280332 L1546.53574,978.978947 L1409.5316,841.982673 Z M1090.597,704.730388 L1064.94554,832.982326 L987.990153,832.982326 L1090.597,704.730388 Z M1074.86549,709.98659 L976.463047,832.982326 L902.661965,832.982326 L1074.86549,709.98659 Z M989.491297,841.982673 L1068.18985,841.982673 L1210.76453,870.49577 L1128.1536,980.637011 L989.491297,841.982673 Z M1010.07127,953.208955 L811.261196,868.009675 L889.347688,841.982673 L976.762075,841.982673 L1113.96924,979.181955 L1010.07127,953.208955 Z M1234.54081,869.397728 L1395.30823,842.604697 L1422.10281,949.776823 L1234.54081,869.397728 Z M1432.38179,953.775977 L1406.97235,852.153064 L1534.01054,979.181955 L1432.38179,953.775977 Z M1134.58322,987.065259 L1220.12743,873.012867 L1416.59528,957.209109 L1189.77951,1042.25938 L1134.58322,987.065259 Z M714.542916,987.065259 L800.088124,873.012867 L996.554974,957.209109 L769.739212,1042.25938 L714.542916,987.065259 Z M1201.46464,1047.49059 L1427.53633,962.718321 L1514.74469,1049.92168 L1542.43635,1132.99388 L1429.48451,1132.99388 L1201.46464,1047.49059 Z M781.422333,1047.49059 L1007.49602,962.718321 L1094.70439,1049.92168 L1122.39705,1132.99388 L1009.44521,1132.99388 L781.422333,1047.49059 Z M1522.94748,1046.06753 L1521.86038,1044.30846 L1443.34084,965.79344 L1544.18152,991.00241 L1544.18152,1109.76298 L1522.94748,1046.06753 Z M1132.68004,1135.37797 L1102.90618,1046.06753 L1101.82007,1044.30846 L1023.30154,965.79344 L1126.34043,991.552432 L1184.404,1049.61267 L1211.71062,1240.74703 L1132.68004,1135.37797 Z M1194.17494,1054.36985 L1418.11442,1138.34208 L1222.16762,1250.30439 L1194.17494,1054.36985 Z M774.135633,1054.36985 L998.07412,1138.34208 L802.127319,1250.30439 L774.135633,1054.36985 Z M1012.31849,1141.99422 L1117.77561,1141.99422 L985.954957,1273.8083 L1012.31849,1141.99422 Z M809.582035,1256.41263 L1002.27652,1146.30639 L974.9369,1282.99965 L889.347688,1282.99965 L809.582035,1256.41263 Z" id="Fill-1"></path>
        </g>
    </g>
</svg>