<svg xmlns="http://www.w3.org/2000/svg" xmlns:xlink="http://www.w3.org/1999/xlink" width="290" height="220" viewBox="0 0 290 220">
    <defs>
        <path id="a" d="M0 0h290v220H0z"/>
    </defs>
    <g fill="none" fill-rule="evenodd">
        <mask id="b" fill="#fff">
            <use xlink:href="#a"/>
        </mask>
        <use fill="#208379" fill-rule="nonzero" xlink:href="#a"/>
        <path fill="#FFF" fill-opacity=".07" d="M1574.297-520l-.568.093-35.999 12.002-.871.629-34.753 46.352-58.531-58.549-1.272-.527h-35.998l-.568.093-35.998 12.002-.872.629-34.753 46.352-58.53-58.549-1.273-.527h-35.998l-.569.093-35.998 12.002-.872.629-34.752 46.352-58.53-58.549-1.273-.527h-35.998l-.569.093-35.998 12.002-.871.629-34.753 46.352-58.53-58.549-1.273-.527H902.33l-.569.093-35.998 12.002-.871.629-34.752 46.352-58.53-58.549-1.273-.527h-35.999l-.57.093-35.998 12.002-.87.629-34.752 46.352-58.53-58.549-1.273-.527h-35.999l-.569.093-35.998 12.002-.87.629-34.753 46.352-58.531-58.549-1.271-.527h-35.998l-.57.093-35.999 12.002-.87.629-34.753 46.352-58.53-58.549-1.273-.527h-35.998l-.57.093-35.998 12.002-.872.629-34.75 46.352-58.531-58.549-1.273-.527H62.37l-.57.093-35.997 12.002-.871.629-34.753 46.352-58.53-58.549-1.272-.527h-35.998l-.57.093-35.998 12.002-.871.629-34.753 46.352-58.53-58.549-1.273-.527h-35.998l-.569.093-35.998 12.002-.872.629-34.752 46.352-58.53-58.549-1.273-.527h-35.998l-.569.093-35.998 12.002-.871.629-34.752 46.352-58.532-58.549-1.271-.527h-35.999l-.569.093-35.998 12.002-.87.629-34.753 46.352-58.53-58.549-1.273-.527h-35.999l-.569.093-35.998 12.002-.872.629-34.751 46.352-58.53-58.549-1.273-.527h-35.999l-.568.093-35.999 12.002-.87.629-34.753 46.352-58.531-58.549-1.272-.527h-35.998l-.57.093-35.998 12.002-.87.629-34.753 46.352-58.53-58.549-1.273-.527h-35.998l-.57.093-35.998 12.002-.871.629-35.999 48.013.17 2.353 23.998 24.007.641.412 92.406 34.664-79.29 45.322-35.044-46.742-2.88 2.161 35.998 48.013.871.629 25.478 8.494h-24.909l-.569.093-35.998 12.002-.872.628-35.997 48.013v.014l.168 2.34 23.999 24.007.64.412 92.406 34.664-79.289 45.322-35.044-46.742-2.88 2.16v.002l35.997 48.012.872.628 35.998 12.003.57.093h24.908l-25.478 8.494-.871.628-35.999 48.014.17 2.353 23.998 24.006.641.413 92.406 34.664-79.29 45.322-35.044-46.742-2.88 2.16 35.998 48.014.871.628 25.477 8.495h-24.908l-.569.093-35.998 12.002-.872.628L-1391 80.885v.014l.168 2.34 23.999 24.007.64.413 92.406 34.663-79.289 45.323-35.044-46.742-2.88 2.16v.002l35.997 48.012.872.628 35.998 12.002.57.093h24.907l-25.477 8.495-.871.628-35.999 48.013.17 2.353 23.998 24.007.641.413 92.406 34.663-79.29 45.323-35.044-46.742-2.88 2.16 35.998 48.013.871.629 25.477 8.494h-24.908l-.569.092-35.998 12.004-.872.628-35.997 48.012V441l.168 2.34 23.999 24.007.64.413 92.406 34.663-79.289 45.323-35.044-46.742-2.88 2.16v.001l35.997 48.012.872.629 35.998 12.002.57.093h24.907l-25.477 8.495-.871.628-35.999 48.013.17 2.354 23.998 24.005.641.413 92.406 34.664-79.29 45.323-35.044-46.742-2.88 2.16 35.998 48.013.871.629 25.477 8.494h-24.908l-.569.092-35.998 12.003-.872.629-35.997 48.012v.014l.168 2.34 23.999 24.006.64.413 92.406 34.664-79.289 45.323-35.044-46.742-2.88 2.16v.001l35.997 48.011.872.63 35.998 12.002.57.093h35.998l1.273-.527 58.53-58.55 34.752 46.352.871.63 35.998 12.002.57.093h35.998l1.272-.527 58.53-58.55 34.753 46.352.871.63 35.998 12.002.57.093h35.997l1.273-.527 58.53-58.55 34.752 46.352.872.63 35.998 12.002.57.093h35.997l1.273-.527 58.53-58.55 34.753 46.352.87.63 35.999 12.002.569.093h35.998l1.272-.527 58.531-58.55 34.753 46.352.87.63 35.999 12.002.569.093h35.998l1.273-.527 58.53-58.55 34.752 46.352.872.63 35.998 12.002.569.093h35.998l1.273-.527 58.53-58.55 34.752 46.352.871.63 35.999 12.002.57.093h35.998l1.27-.527 58.532-58.55 34.752 46.352.871.63 35.999 12.002.569.093H62.37l1.273-.527 58.53-58.55 34.751 46.352.872.63 35.998 12.002.57.093h35.998l1.273-.527 58.53-58.55 34.752 46.352.871.63 35.998 12.002.57.093h35.999l1.27-.527 58.532-58.55 34.752 46.352.87.63 36 12.002.568.093h35.998l1.273-.527 58.53-58.55 34.752 46.352.87.63 36 12.002.569.093h35.998l1.273-.527 58.53-58.55 34.753 46.352.87.63 35.999 12.002.569.093h35.998l1.272-.527 58.53-58.55 34.754 46.352.87.63 35.999 12.002.569.093h35.998l1.272-.527 58.531-58.55 34.752 46.352.871.63 35.999 12.002.569.093h35.998l1.273-.527 58.53-58.55 34.752 46.352.872.63 35.999 12.002.568.093h35.998l1.272-.527 58.531-58.55 34.752 46.352.872.63 35.998 12.002.568.093h35.999l1.272-.527 59.998-60.018.435-1.841-12-36.01-.436-.704-31.401-31.414 41.693 10.427 1.709-3.02-56.924-56.943h31.652l1.272-.527 59.998-60.018.435-1.841-12-36.01-.435-.704-31.402-31.413 41.693 10.426 1.709-3.019-59.998-60.018-1.272-.527h-31.652l56.924-56.944.435-1.841-12-36.01-.436-.704-31.401-31.414 41.693 10.427 1.709-3.019-56.924-56.944h31.652l1.272-.527 59.998-60.017.435-1.842-12-36.01-.435-.704-31.402-31.414 41.693 10.427 1.709-3.019-59.998-60.017-1.272-.527h-31.652l56.924-56.944.435-1.842-12-36.01-.436-.704-31.401-31.414 41.693 10.427 1.709-3.019-56.924-56.943h31.652l1.272-.528 59.998-60.017.435-1.842-12-36.01-.435-.704-31.402-31.413 41.693 10.426 1.709-3.02-59.998-60.016-1.272-.527h-31.652l56.924-56.943.435-1.843-12-36.01-.436-.704-31.401-31.412 41.693 10.425 1.709-3.02-56.924-56.942h31.652l1.272-.527 59.998-60.017.435-1.842-12-36.01-.435-.705-31.402-31.412 41.693 10.426 1.709-3.02-59.998-60.017-1.272-.527h-35.998zm-30.938 14.014l31.23-10.413h34.301l10.779 43.128-76.31-32.715zm-167.993 0l31.232-10.413h34.3l10.779 43.128-76.31-32.715zm-167.99 0l31.23-10.413h34.3l10.779 43.128-76.31-32.715zm-167.991 0l31.228-10.413h34.301l10.779 43.128-76.308-32.715zm-167.993 0l31.23-10.413h34.3l10.779 43.128-76.31-32.715zm-167.991 0l31.228-10.413h34.3l10.78 43.128-76.308-32.715zm-167.992 0l31.228-10.413h34.302l10.778 43.128-76.308-32.715zm-167.993 0l31.23-10.413h34.3l10.78 43.128-76.31-32.715zm-167.99 0l31.228-10.413h34.3l10.78 43.128-76.309-32.715zm-167.993 0L62.662-516.4h34.301l10.779 43.128-76.309-32.715zm-167.993 0l31.23-10.413h34.301l10.779 43.128-76.31-32.715zm-167.99 0l31.228-10.413h34.3l10.78 43.128-76.308-32.715zm-167.992 0l31.228-10.413h34.301l10.779 43.128-76.308-32.715zm-167.993 0l31.23-10.413h34.3l10.78 43.128-76.31-32.715zm-167.991 0l31.228-10.413h34.302l10.778 43.128-76.308-32.715zm-167.992 0l31.228-10.413h34.302l10.78 43.128-76.31-32.715zm-167.992 0l31.229-10.413h34.3l10.78 43.128-76.309-32.715zm-167.992 0l31.229-10.413h34.301l10.78 43.128-76.31-32.715zm2936.281 34.315l-10.161-40.66 50.806 50.825-40.645-10.165zm-167.993 0l-10.16-40.66 50.806 50.825-40.646-10.165zm-167.99 0l-10.163-40.66 50.808 50.825-40.645-10.165zm-167.992 0l-10.162-40.66 50.807 50.825-40.645-10.165zm-167.993 0l-10.16-40.66 50.806 50.825-40.646-10.165zm-167.991 0l-10.163-40.66 50.808 50.825-40.645-10.165zm-167.992 0l-10.161-40.66 50.806 50.825-40.645-10.165zm-167.993 0l-10.16-40.66 50.806 50.825-40.646-10.165zm-167.99 0l-10.163-40.66 50.807 50.825-40.645-10.165zm-167.993 0l-10.161-40.66 50.806 50.825-40.645-10.165zm-167.992 0l-10.161-40.66 50.807 50.825-40.646-10.165zm-167.991 0l-10.163-40.66 50.808 50.825-40.645-10.165zm-167.992 0l-10.162-40.66 50.807 50.825-40.645-10.165zm-167.993 0l-10.16-40.66 50.806 50.825-40.646-10.165zm-167.991 0l-10.163-40.66 50.808 50.825-40.645-10.165zm-167.992 0l-10.161-40.66 50.806 50.825-40.645-10.165zm-167.993 0l-10.16-40.66 50.806 50.825-40.646-10.165zm-167.99 0l-10.163-40.66 50.807 50.825-40.645-10.165zm2736.76 13.32l34.212-45.633 78.576 33.687-90.714 34.028-22.075-22.083zm-167.993 0l34.214-45.633 78.575 33.687-90.713 34.028-22.076-22.083zm-167.992 0l34.214-45.633 78.575 33.687-90.714 34.028-22.075-22.083zm-167.992 0l34.214-45.633 78.575 33.687-90.713 34.028-22.076-22.083zm-167.991 0l34.213-45.633 78.575 33.687-90.713 34.028-22.075-22.083zm-167.992 0l34.213-45.633 78.575 33.687-90.712 34.028-22.076-22.083zm-167.992 0l34.213-45.633 78.575 33.687-90.712 34.028-22.076-22.083zm-167.992 0l34.213-45.633 78.575 33.687-90.712 34.028-22.076-22.083zm-167.992 0l34.213-45.633 78.577 33.687-90.714 34.028-22.076-22.083zm-167.992 0l34.213-45.633 78.576 33.687-90.713 34.028-22.076-22.083zm-167.992 0l34.214-45.633 78.575 33.687-90.713 34.028-22.076-22.083zm-167.992 0l34.214-45.633 78.576 33.687-90.714 34.028-22.076-22.083zm-167.992 0l34.214-45.633 78.575 33.687-90.713 34.028-22.076-22.083zm-167.991 0l34.213-45.633 78.575 33.687-90.711 34.028-22.077-22.083zm-167.992 0l34.213-45.633 78.575 33.687-90.712 34.028-22.076-22.083zm-167.992 0l34.213-45.633 78.575 33.687-90.712 34.028-22.076-22.083zm-167.992 0l34.213-45.633 78.576 33.687-90.712 34.028-22.077-22.083zm-167.992 0l34.213-45.633 78.576 33.687-90.713 34.028-22.076-22.083zm2882.61 24.175l90.416-33.918 34.879 34.891 11.075 33.237h-45.174l-91.195-34.21zm-167.991 0l90.416-33.918 34.878 34.891 11.075 33.237h-45.174l-91.195-34.21zm-167.992 0l90.416-33.918 34.878 34.891 11.075 33.237h-45.172l-91.197-34.21zm-167.992 0l90.416-33.918 34.878 34.891 11.076 33.237h-45.174l-91.196-34.21zm-167.992 0l90.416-33.918 34.878 34.891 11.076 33.237h-45.174l-91.196-34.21zm-167.992 0l90.416-33.918 34.878 34.891 11.076 33.237h-45.173l-91.197-34.21zm-167.992 0l90.416-33.918 34.878 34.891 11.076 33.237H614.67l-91.196-34.21zm-167.991 0l90.415-33.918 34.879 34.891 11.075 33.237h-45.174l-91.195-34.21zm-167.992 0l90.415-33.918 34.879 34.891 11.075 33.237h-45.173l-91.196-34.21zm-167.991 0l90.414-33.918 34.879 34.891 11.075 33.237h-45.174L19.5-434.176zm-167.993 0l90.416-33.918 34.878 34.891 11.075 33.237h-45.173l-91.196-34.21zm-167.992 0l90.416-33.918 34.878 34.891 11.075 33.237h-45.172l-91.197-34.21zm-167.99 0l90.414-33.918 34.878 34.891 11.076 33.237h-45.174l-91.195-34.21zm-167.994 0l90.416-33.918 34.878 34.891 11.076 33.237h-45.174l-91.196-34.21zm-167.992 0l90.416-33.918 34.878 34.891 11.076 33.237h-45.173l-91.197-34.21zm-167.99 0l90.414-33.918 34.878 34.891 11.076 33.237h-45.174l-91.194-34.21zm-167.993 0l90.415-33.918 34.879 34.891 11.075 33.237h-45.174l-91.195-34.21zm-167.992 0l90.415-33.918 34.879 34.891 11.075 33.237h-45.173l-91.196-34.21zm2828.351 35.163l-11.906-35.732-.435-.705-31.404-31.412 41.21 10.306 23.647 23.653.64.412 92.407 34.664-79.289 45.322-34.87-46.508zm-167.992 0l-11.906-35.732-.436-.705-31.403-31.412 41.21 10.306 23.646 23.653.641.412 92.406 34.664-79.287 45.322-34.87-46.508zm-167.993 0l-11.905-35.732-.436-.705-31.402-31.412 41.21 10.306 23.646 23.653.64.412 92.406 34.664-79.288 45.322-34.87-46.508zm-167.99 0l-11.907-35.732-.435-.705-31.403-31.412 41.21 10.306 23.646 23.653.64.412 92.407 34.664-79.288 45.322-34.87-46.508zm-167.993 0l-11.906-35.732-.436-.705-31.402-31.412 41.21 10.306 23.646 23.653.64.412 92.406 34.664-79.287 45.322-34.871-46.508zm-167.992 0l-11.906-35.732-.436-.705-31.401-31.412 41.209 10.306 23.647 23.653.64.412 92.405 34.664-79.288 45.322-34.87-46.508zm-167.991 0l-11.907-35.732-.435-.705-31.403-31.412 41.21 10.306 23.647 23.653.64.412 92.406 34.664-79.288 45.322-34.87-46.508zm-167.993 0l-11.905-35.732-.435-.705-31.404-31.412 41.21 10.306 23.646 23.653.64.412 92.406 34.664-79.287 45.322-34.871-46.508zm-167.99 0l-11.907-35.732-.436-.705-31.402-31.412 41.21 10.306 23.646 23.653.641.412 92.405 34.664-79.289 45.322-34.869-46.508zm-167.993 0l-11.906-35.732-.435-.705-31.404-31.412 41.21 10.306L13.1-432.903l.641.412 92.406 34.664-79.289 45.322-34.87-46.508zm-167.993 0l-11.905-35.732-.435-.705-31.404-31.412 41.21 10.306 23.646 23.653.641.412 92.406 34.664-79.287 45.322-34.872-46.508zm-167.99 0l-11.907-35.732-.436-.705-31.401-31.412 41.209 10.306 23.646 23.653.641.412 92.405 34.664-79.288 45.322-34.87-46.508zm-167.992 0l-11.907-35.732-.435-.705-31.403-31.412 41.21 10.306 23.647 23.653.64.412 92.406 34.664-79.288 45.322-34.87-46.508zm-167.993 0l-11.906-35.732-.436-.705-31.402-31.412 41.21 10.306 23.647 23.653.64.412 92.405 34.664-79.287 45.322-34.871-46.508zm-167.991 0l-11.907-35.732-.436-.705-31.401-31.412 41.21 10.306 23.646 23.653.64.412 92.405 34.664-79.288 45.322-34.87-46.508zm-167.992 0l-11.907-35.732-.435-.705-31.403-31.412 41.21 10.306 23.647 23.653.64.412 92.406 34.664-79.288 45.322-34.87-46.508zm-167.993 0l-11.905-35.732-.435-.705-31.404-31.412 41.21 10.306 23.646 23.653.64.412 92.406 34.664-79.287 45.322-34.871-46.508zm2807.726 2.647h42.176l-52.721 52.738 10.545-52.738zm-167.993 0h42.178l-52.721 52.738 10.543-52.738zm-167.99 0h42.177l-52.722 52.738 10.545-52.738zm-167.992 0h42.176l-52.722 52.738 10.546-52.738zm-167.993 0h42.178l-52.722 52.738 10.544-52.738zm-167.991 0h42.177l-52.722 52.738 10.545-52.738zm-167.992 0h42.176l-52.72 52.738 10.544-52.738zm-167.993 0h42.178l-52.721 52.738 10.543-52.738zm-167.99 0h42.176l-52.721 52.738 10.544-52.738zm-167.993 0h42.176l-52.72 52.738 10.544-52.738zm-167.992 0h42.177l-52.721 52.738 10.544-52.738zm-167.991 0h42.176l-52.72 52.738 10.544-52.738zm-167.992 0h42.176l-52.72 52.738 10.544-52.738zm-167.993 0h42.178l-52.722 52.738 10.544-52.738zm-167.991 0h42.177l-52.722 52.738 10.545-52.738zm-167.992 0h42.176l-52.72 52.738 10.544-52.738zm-167.993 0h42.178l-52.721 52.738 10.543-52.738zm-167.99 0h42.176l-52.721 52.738 10.544-52.738zm2642.742 60.017h31.652l1.272-.527 58.531-58.55 34.753 46.353.871.629 25.475 8.494h-24.907l-.568.093-35.998 12.002-.872.628-34.752 46.353-55.457-55.475zm-167.993 0h31.653l1.273-.527 58.53-58.55 34.753 46.353.872.629 25.474 8.494h-24.906l-.568.093-35.999 12.002-.872.628-34.752 46.353-55.458-55.475zm-167.991 0h31.652l1.272-.527 58.531-58.55 34.752 46.353.872.629 25.476 8.494h-24.907l-.57.093-35.998 12.002-.871.628-34.752 46.353-55.457-55.475zm-167.992 0h31.652l1.272-.527 58.53-58.55 34.754 46.353.87.629 25.478 8.494h-24.908l-.57.093-35.997 12.002-.871.628-34.754 46.353-55.456-55.475zm-167.993 0h31.654l1.273-.527 58.53-58.55 34.752 46.353.871.629 25.477 8.494H866.33l-.569.093-35.998 12.002-.871.628-34.753 46.353-55.458-55.475zm-167.99 0h31.652l1.273-.527 58.53-58.55 34.751 46.353.871.629 25.478 8.494h-24.908l-.57.093-35.998 12.002-.871.628-34.751 46.353-55.458-55.475zm-167.993 0h31.654l1.27-.527 58.532-58.55 34.752 46.353.871.629 25.477 8.494h-24.908l-.569.093-35.998 12.002-.871.628-34.752 46.353-55.458-55.475zm-167.993 0h31.654l1.273-.527 58.53-58.55 34.752 46.353.871.629 25.477 8.494h-24.907l-.57.093-35.998 12.002-.87.628-34.753 46.353-55.459-55.475zm-167.99 0h31.652l1.273-.527 58.53-58.55 34.751 46.353.872.629 25.478 8.494h-24.909l-.569.093-35.998 12.002-.872.628-34.751 46.353-55.457-55.475zm-167.992 0h31.653l1.271-.527 58.531-58.55 34.753 46.353.87.629 25.477 8.494H26.372l-.57.093-35.998 12.002-.87.628-34.753 46.353-55.457-55.475zm-167.993 0h31.653l1.273-.527 58.53-58.55 34.753 46.353.87.629 25.477 8.494h-24.906l-.57.093-35.999 12.002-.87.628-34.753 46.353-55.458-55.475zm-167.991 0h31.652l1.273-.527 58.53-58.55 34.752 46.353.872.629 25.478 8.494h-24.91l-.568.093-35.998 12.002-.872.628-34.752 46.353-55.457-55.475zm-167.992 0h31.653l1.271-.527 58.532-58.55 34.752 46.353.87.629 25.478 8.494h-24.908l-.57.093-35.997 12.002-.871.628-34.753 46.353-55.457-55.475zm-167.993 0h31.654l1.273-.527 58.53-58.55 34.752 46.353.871.629 25.477 8.494h-24.908l-.569.093-35.998 12.002-.871.628-34.753 46.353-55.458-55.475zm-167.99 0h31.652l1.273-.527 58.53-58.55 34.751 46.353.872.629 25.478 8.494h-24.909l-.569.093-35.998 12.002-.872.628-34.751 46.353-55.458-55.475zm-167.993 0h31.653l1.272-.527 58.531-58.55 34.752 46.353.871.629 25.477 8.494h-24.908l-.569.093-35.998 12.002-.871.628-34.752 46.353-55.458-55.475zm-167.992 0h31.653l1.273-.527 58.53-58.55 34.752 46.353.871.629 25.477 8.494h-24.908l-.569.093-35.998 12.002-.87.628-34.753 46.353-55.458-55.475zm2819.906-14.238l72.307-41.332-41.317 51.665-30.99-10.333zm-167.99 0L1447-391.92l-41.317 51.665-30.989-10.333zm-167.993 0l72.306-41.332-41.317 51.665-30.989-10.333zm-167.991 0l72.305-41.332-41.317 51.665-30.988-10.333zm-167.992 0l72.305-41.332-41.317 51.665-30.988-10.333zm-167.992 0l72.305-41.332-41.317 51.665-30.988-10.333zm-167.992 0l72.305-41.332-41.317 51.665-30.988-10.333zm-167.992 0l72.307-41.332-41.318 51.665-30.989-10.333zm-167.992 0l72.306-41.332-41.317 51.665-30.989-10.333zm-167.992 0l72.306-41.332-41.317 51.665-30.989-10.333zm-167.992 0l72.307-41.332-41.318 51.665-30.989-10.333zm-167.991 0l72.305-41.332-41.317 51.665-30.988-10.333zm-167.992 0l72.306-41.332-41.318 51.665-30.988-10.333zm-167.992 0l72.306-41.332-41.318 51.665-30.988-10.333zm-167.992 0l72.305-41.332-41.317 51.665-30.988-10.333zm-167.992 0l72.307-41.332-41.318 51.665-30.989-10.333zm-167.992 0l72.307-41.332-41.318 51.665-30.989-10.333zm-167.992 0l72.306-41.332-41.317 51.665-30.989-10.333zm2932.254-40.677l-10.259 51.314h-30.778l41.037-51.314zm-167.991 0l-10.26 51.314h-30.778l41.038-51.314zm-167.993 0l-10.26 51.314h-30.777l41.037-51.314zm-167.992 0l-10.259 51.314h-30.778l41.037-51.314zm-167.992 0l-10.258 51.314h-30.779l41.037-51.314zm-167.992 0l-10.26 51.314h-30.777l41.037-51.314zm-167.992 0L600.87-339.95H570.09l41.037-51.314zm-167.99 0l-10.26 51.314h-30.779l41.038-51.314zm-167.994 0l-10.259 51.314h-30.778l41.037-51.314zm-167.991 0L96.893-339.95H66.115l41.037-51.314zm-167.991 0L-71.1-339.95h-30.778l41.038-51.314zm-167.993 0l-10.26 51.314h-30.777l41.037-51.314zm-167.992 0l-10.259 51.314h-30.778l41.037-51.314zm-167.99 0l-10.26 51.314h-30.778l41.037-51.314zm-167.994 0l-10.26 51.314h-30.777l41.037-51.314zm-167.992 0l-10.258 51.314h-30.779l41.037-51.314zm-167.99 0l-10.26 51.314h-30.778l41.037-51.314zm-167.993 0l-10.26 51.314h-30.777l41.037-51.314zm2744.144 65.328l31.23-10.413h34.3l10.78 43.128-76.31-32.715zm-167.993 0l31.232-10.413h34.3l10.778 43.128-76.31-32.715zm-167.99 0l31.23-10.413h34.299l10.78 43.128-76.309-32.715zm-167.992 0l31.229-10.413h34.301l10.779 43.128-76.309-32.715zm-167.993 0l31.23-10.413h34.301l10.779 43.128-76.31-32.715zm-167.99 0l31.228-10.413h34.3l10.78 43.128-76.308-32.715zm-167.992 0l31.228-10.413h34.301l10.779 43.128-76.308-32.715zm-167.993 0l31.23-10.413h34.3l10.78 43.128-76.31-32.715zm-167.991 0l31.228-10.413h34.3l10.78 43.128-76.308-32.715zm-167.992 0l31.229-10.413h34.3l10.78 43.128-76.309-32.715zm-167.993 0l31.23-10.413h34.301l10.778 43.128-76.309-32.715zm-167.99 0l31.228-10.413h34.3l10.78 43.128-76.309-32.715zm-167.993 0l31.229-10.413h34.301l10.779 43.128-76.309-32.715zm-167.993 0l31.23-10.413h34.301l10.779 43.128-76.31-32.715zm-167.99 0l31.228-10.413h34.301l10.779 43.128-76.308-32.715zm-167.992 0l31.228-10.413h34.302l10.779 43.128-76.31-32.715zm-167.992 0l31.228-10.413h34.302l10.778 43.128-76.308-32.715zm-167.992 0l31.228-10.413h34.302l10.78 43.128-76.31-32.715zm2936.281 34.315l-10.161-40.66 50.806 50.825-40.645-10.165zm-167.993 0l-10.16-40.66 50.806 50.825-40.646-10.165zm-167.99 0l-10.163-40.66 50.807 50.825-40.645-10.165zm-167.993 0l-10.161-40.66 50.806 50.825-40.645-10.165zm-167.992 0l-10.161-40.66 50.807 50.825-40.646-10.165zm-167.991 0l-10.163-40.66 50.808 50.825-40.645-10.165zm-167.992 0l-10.162-40.66 50.807 50.825-40.645-10.165zm-167.993 0l-10.16-40.66 50.806 50.825-40.646-10.165zm-167.991 0l-10.163-40.66 50.808 50.825-40.645-10.165zm-167.992 0l-10.161-40.66 50.806 50.825-40.645-10.165zm-167.993 0l-10.16-40.66 50.806 50.825-40.646-10.165zm-167.99 0l-10.163-40.66 50.807 50.825-40.645-10.165zm-167.993 0l-10.161-40.66 50.807 50.825-40.646-10.165zm-167.992 0l-10.16-40.66 50.806 50.825-40.646-10.165zm-167.991 0l-10.163-40.66 50.808 50.825-40.645-10.165zm-167.992 0l-10.162-40.66 50.807 50.825-40.645-10.165zm-167.993 0l-10.16-40.66 50.806 50.825-40.646-10.165zm-167.99 0l-10.163-40.66 50.807 50.825-40.645-10.165zm2736.759 13.319l34.213-45.632 78.575 33.687-90.713 34.028-22.075-22.083zm-167.992 0l34.213-45.632 78.575 33.687-90.712 34.028-22.076-22.083zm-167.992 0l34.213-45.632 78.576 33.687-90.713 34.028-22.076-22.083zm-167.992 0l34.214-45.632 78.575 33.687-90.713 34.028-22.076-22.083zm-167.992 0l34.214-45.632 78.575 33.687-90.713 34.028-22.076-22.083zm-167.992 0l34.214-45.632 78.575 33.687-90.713 34.028-22.076-22.083zm-167.991 0l34.213-45.632 78.575 33.687-90.713 34.028-22.075-22.083zm-167.992 0l34.213-45.632 78.575 33.687-90.712 34.028-22.076-22.083zm-167.992 0l34.213-45.632 78.576 33.687-90.713 34.028-22.076-22.083zm-167.992 0l34.213-45.632 78.575 33.687-90.712 34.028-22.076-22.083zm-167.992 0l34.213-45.632 78.576 33.687-90.713 34.028-22.076-22.083zm-167.992 0l34.213-45.632 78.577 33.687-90.714 34.028-22.076-22.083zm-167.992 0l34.214-45.632 78.575 33.687-90.713 34.028-22.076-22.083zm-167.992 0l34.214-45.632 78.575 33.687-90.712 34.028-22.077-22.083zm-167.992 0l34.214-45.632 78.575 33.687-90.713 34.028-22.076-22.083zm-167.991 0l34.213-45.632 78.575 33.687-90.712 34.028-22.076-22.083zm-167.992 0l34.213-45.632 78.575 33.687-90.711 34.028-22.077-22.083zm-167.992 0l34.213-45.632 78.575 33.687-90.712 34.028-22.076-22.083zm2882.61 24.176l90.416-33.918 34.878 34.89 11.076 33.238h-45.174l-91.195-34.21zm-167.991 0l90.415-33.918 34.879 34.89 11.075 33.238h-45.174l-91.195-34.21zm-167.992 0l90.415-33.918 34.879 34.89 11.075 33.238h-45.173l-91.196-34.21zm-167.992 0l90.416-33.918 34.878 34.89 11.075 33.238h-45.174l-91.195-34.21zm-167.992 0l90.416-33.918 34.878 34.89 11.075 33.238h-45.173l-91.196-34.21zm-167.992 0l90.416-33.918 34.878 34.89 11.076 33.238h-45.173l-91.197-34.21zm-167.992 0l90.416-33.918 34.878 34.89 11.076 33.238h-45.174l-91.196-34.21zm-167.992 0l90.416-33.918 34.878 34.89 11.076 33.238H410.68l-91.196-34.21zm-167.992 0l90.416-33.918 34.878 34.89 11.076 33.238h-45.173l-91.197-34.21zm-167.99 0l90.414-33.918 34.879 34.89 11.075 33.238H74.696l-91.194-34.21zm-167.993 0l90.415-33.918 34.879 34.89 11.075 33.238h-45.174l-91.195-34.21zm-167.992 0l90.415-33.918 34.879 34.89 11.075 33.238h-45.173l-91.196-34.21zm-167.992 0l90.416-33.918 34.878 34.89 11.075 33.238h-45.173l-91.196-34.21zm-167.992 0l90.416-33.918 34.878 34.89 11.075 33.238h-45.173l-91.196-34.21zm-167.992 0l90.416-33.918 34.878 34.89 11.076 33.238h-45.173l-91.197-34.21zm-167.99 0l90.414-33.918 34.878 34.89 11.076 33.238h-45.174l-91.195-34.21zm-167.994 0l90.416-33.918 34.878 34.89 11.076 33.238h-45.174l-91.196-34.21zm-167.991 0l90.415-33.918 34.878 34.89 11.076 33.238h-45.173l-91.196-34.21zm2828.35 35.162l-11.906-35.732-.435-.704-31.403-31.412 41.21 10.305 23.647 23.654.64.412 92.406 34.664-79.288 45.322-34.87-46.509zm-167.991 0l-11.906-35.732-.436-.704-31.403-31.412 41.21 10.305 23.646 23.654.64.412 92.406 34.664-79.287 45.322-34.87-46.509zm-167.993 0l-11.905-35.732-.436-.704-31.402-31.412 41.21 10.305 23.646 23.654.64.412 92.406 34.664-79.289 45.322-34.87-46.509zm-167.99 0l-11.907-35.732-.435-.704-31.404-31.412 41.21 10.305 23.647 23.654.64.412 92.407 34.664-79.288 45.322-34.87-46.509zm-167.994 0l-11.905-35.732-.436-.704-31.403-31.412 41.21 10.305 23.646 23.654.641.412 92.406 34.664-79.287 45.322-34.872-46.509zm-167.992 0l-11.905-35.732-.436-.704-31.401-31.412 41.209 10.305 23.646 23.654.641.412 92.405 34.664-79.288 45.322-34.87-46.509zm-167.99 0l-11.907-35.732-.435-.704-31.403-31.412 41.21 10.305 23.647 23.654.64.412 92.406 34.664-79.288 45.322-34.87-46.509zm-167.993 0l-11.906-35.732-.435-.704-31.403-31.412 41.21 10.305 23.646 23.654.64.412 92.406 34.664-79.287 45.322-34.871-46.509zm-167.991 0l-11.907-35.732-.436-.704-31.401-31.412 41.209 10.305 23.647 23.654.64.412 92.405 34.664-79.288 45.322-34.87-46.509zm-167.992 0l-11.907-35.732-.434-.704-31.404-31.412 41.21 10.305 23.647 23.654.64.412 92.406 34.664-79.288 45.322-34.87-46.509zm-167.993 0l-11.905-35.732-.435-.704-31.404-31.412 41.21 10.305 23.646 23.654.641.412 92.406 34.664-79.288 45.322-34.871-46.509zm-167.99 0l-11.907-35.732-.436-.704-31.402-31.412 41.21 10.305 23.646 23.654.641.412 92.405 34.664-79.289 45.322-34.869-46.509zm-167.993 0l-11.906-35.732-.435-.704-31.404-31.412 41.21 10.305 23.647 23.654.64.412 92.407 34.664-79.288 45.322-34.87-46.509zm-167.993 0l-11.905-35.732-.436-.704-31.403-31.412 41.21 10.305 23.647 23.654.64.412 92.406 34.664-79.287 45.322-34.872-46.509zm-167.99 0l-11.907-35.732-.436-.704-31.401-31.412 41.21 10.305 23.645 23.654.641.412 92.405 34.664-79.288 45.322-34.87-46.509zm-167.992 0l-11.907-35.732-.435-.704-31.403-31.412 41.21 10.305 23.647 23.654.64.412 92.406 34.664-79.288 45.322-34.87-46.509zm-167.993 0l-11.906-35.732-.435-.704-31.403-31.412 41.21 10.305 23.646 23.654.64.412 92.406 34.664-79.287 45.322-34.871-46.509zm2807.726 2.648h42.176l-52.721 52.738 10.545-52.738zm-167.993 0h42.178l-52.721 52.738 10.543-52.738zm-167.99 0h42.176l-52.721 52.738 10.544-52.738zm-167.993 0h42.176l-52.721 52.738 10.545-52.738zm-167.992 0h42.178l-52.722 52.738 10.544-52.738zm-167.991 0h42.177l-52.722 52.738 10.545-52.738zm-167.992 0h42.176l-52.72 52.738 10.544-52.738zm-167.993 0h42.178l-52.722 52.738 10.544-52.738zm-167.991 0h42.177l-52.721 52.738 10.544-52.738zm-167.992 0h42.176l-52.72 52.738 10.544-52.738zm-167.993 0h42.178l-52.721 52.738 10.543-52.738zm-167.99 0h42.175l-52.72 52.738 10.544-52.738zm-167.993 0h42.176l-52.72 52.738 10.544-52.738zm-167.992 0h42.178l-52.722 52.738 10.544-52.738zm-167.991 0h42.177l-52.722 52.738 10.545-52.738zm-167.992 0h42.176l-52.72 52.738 10.544-52.738zm-167.993 0h42.178l-52.722 52.738 10.544-52.738zm-167.99 0h42.176l-52.721 52.738 10.544-52.738zm2734.197.94l34.752 46.353.872.628 35.998 12.003.568.093h24.907l-25.475 8.494-.871.628-34.753 46.353-58.531-58.55-1.272-.526h-31.652l55.457-55.476zm-167.992 0l34.752 46.353.872.628 35.999 12.003.568.093h24.906l-25.474 8.494-.872.628-34.753 46.353-58.53-58.55-1.273-.526h-31.653l55.458-55.476zm-167.992 0l34.752 46.353.871.628 35.999 12.003.569.093h24.907l-25.476 8.494-.872.628-34.752 46.353-58.53-58.55-1.273-.526h-31.652l55.457-55.476zm-167.993 0l34.754 46.353.87.628 35.999 12.003.569.093h24.908l-25.477 8.494-.871.628-34.753 46.353-58.53-58.55-1.273-.526h-31.652l55.456-55.476zm-167.99 0l34.752 46.353.87.628 35.999 12.003.569.093h24.908l-25.477 8.494-.871.628-34.752 46.353-58.53-58.55-1.273-.526h-31.654l55.458-55.476zm-167.992 0l34.75 46.353.872.628 35.998 12.003.57.093h24.908l-25.478 8.494-.87.628-34.752 46.353-58.53-58.55-1.273-.526H570.69l55.458-55.476zm-167.992 0l34.752 46.353.87.628 36 12.003.568.093h24.908l-25.477 8.494-.87.628-34.753 46.353-58.531-58.55-1.271-.526h-31.654l55.458-55.476zm-167.992 0l34.752 46.353.871.628 35.998 12.003.57.093h24.907l-25.477 8.494-.87.628-34.753 46.353-58.53-58.55-1.273-.526h-31.654l55.459-55.476zm-167.992 0l34.751 46.353.872.628 35.998 12.003.57.093h24.908l-25.478 8.494-.872.628-34.75 46.353-58.531-58.55-1.273-.526H66.716l55.457-55.476zm-167.992 0l34.752 46.353.871.628 35.999 12.003.569.093h24.907l-25.476 8.494-.871.628-34.753 46.353-58.53-58.55-1.272-.526h-31.653l55.457-55.476zm-167.992 0l34.752 46.353.871.628 35.999 12.003.57.093h24.906l-25.476 8.494-.871.628-34.753 46.353-58.53-58.55-1.273-.526h-31.653l55.458-55.476zm-167.992 0l34.752 46.353.872.628 35.998 12.003.569.093h24.909l-25.478 8.494-.872.628-34.752 46.353-58.53-58.55-1.273-.526h-31.652l55.457-55.476zm-167.992 0l34.753 46.353.87.628 35.999 12.003.569.093h24.908l-25.477 8.494-.871.628-34.752 46.353-58.532-58.55-1.271-.526h-31.653l55.457-55.476zm-167.992 0l34.753 46.353.87.628 35.999 12.003.569.093h24.908l-25.477 8.494-.87.628-34.753 46.353-58.53-58.55-1.273-.526h-31.654l55.458-55.476zm-167.991 0l34.75 46.353.873.628 35.998 12.003.57.093h24.908l-25.478 8.494-.872.628-34.751 46.353-58.53-58.55-1.273-.526h-31.653l55.458-55.476zm-167.992 0l34.752 46.353.871.628 35.998 12.003.57.093h24.907l-25.477 8.494-.87.628-34.753 46.353-58.531-58.55-1.272-.526h-31.653l55.458-55.476zm-167.992 0l34.752 46.353.871.628 35.998 12.003.57.093h24.907l-25.477 8.494-.87.628-34.753 46.353-58.53-58.55-1.273-.526h-31.653l55.458-55.476zm2728.45 44.839l72.306-41.332-41.317 51.665-30.989-10.333zm-167.99 0l72.305-41.332-41.317 51.665-30.989-10.333zm-167.993 0l72.306-41.332-41.317 51.665-30.989-10.333zm-167.992 0l72.306-41.332-41.317 51.665-30.989-10.333zm-167.992 0l72.306-41.332-41.317 51.665-30.989-10.333zm-167.991 0l72.305-41.332-41.317 51.665-30.988-10.333zm-167.992 0l72.305-41.332-41.317 51.665-30.988-10.333zm-167.992 0l72.306-41.332-41.318 51.665-30.988-10.333zm-167.992 0l72.305-41.332-41.317 51.665-30.988-10.333zm-167.992 0l72.306-41.332-41.317 51.665-30.989-10.333zm-167.992 0l72.307-41.332-41.318 51.665-30.989-10.333zm-167.992 0l72.306-41.332-41.317 51.665-30.989-10.333zm-167.992 0l72.307-41.332-41.318 51.665-30.989-10.333zm-167.991 0l72.306-41.332-41.318 51.665-30.988-10.333zm-167.992 0l72.305-41.332-41.317 51.665-30.988-10.333zm-167.992 0l72.306-41.332-41.318 51.665-30.988-10.333zm-167.992 0l72.306-41.332-41.318 51.665-30.988-10.333zm-167.992 0l72.305-41.332-41.317 51.665-30.988-10.333zm2932.253-40.677l-10.258 51.314h-30.779l41.037-51.314zm-167.99 0l-10.26 51.314h-30.779l41.038-51.314zm-167.993 0l-10.26 51.314h-30.777l41.037-51.314zm-167.992 0l-10.259 51.314h-30.778l41.037-51.314zm-167.992 0L900.854-159.9h-30.778l41.037-51.314zm-167.992 0L732.86-159.9h-30.777l41.037-51.314zm-167.992 0L564.87-159.9h-30.778l41.037-51.314zm-167.99 0l-10.26 51.314H366.1l41.038-51.314zm-167.994 0l-10.26 51.314h-30.777l41.037-51.314zm-167.992 0L60.895-159.9H30.116l41.037-51.314zm-167.99 0l-10.26 51.314h-30.779l41.038-51.314zm-167.993 0l-10.26 51.314h-30.777l41.037-51.314zm-167.992 0l-10.259 51.314h-30.778l41.037-51.314zm-167.991 0l-10.26 51.314h-30.777l41.037-51.314zm-167.993 0l-10.26 51.314h-30.777l41.037-51.314zm-167.992 0l-10.258 51.314h-30.779l41.037-51.314zm-167.99 0l-10.26 51.314h-30.778l41.037-51.314zm-167.994 0l-10.26 51.314h-30.777l41.037-51.314zm2816.141 65.328l31.23-10.413h34.301l10.779 43.128-76.31-32.715zm-167.993 0l31.232-10.413h34.3l10.779 43.128-76.31-32.715zm-167.99 0l31.23-10.413h34.3l10.779 43.128-76.31-32.715zm-167.991 0l31.228-10.413h34.301l10.779 43.128-76.308-32.715zm-167.993 0l31.23-10.413h34.3l10.779 43.128-76.31-32.715zm-167.991 0l31.228-10.413h34.3l10.78 43.128-76.308-32.715zm-167.992 0l31.228-10.413h34.302l10.778 43.128-76.308-32.715zm-167.993 0l31.23-10.413h34.3l10.78 43.128-76.31-32.715zm-167.99 0l31.228-10.413h34.3l10.78 43.128-76.309-32.715zm-167.993 0L62.662-156.3h34.301l10.779 43.128-76.309-32.715zm-167.993 0l31.23-10.413h34.301l10.779 43.128-76.31-32.715zm-167.99 0l31.228-10.413h34.3l10.78 43.128-76.308-32.715zm-167.992 0l31.228-10.413h34.301l10.779 43.128-76.308-32.715zm-167.993 0l31.23-10.413h34.3l10.78 43.128-76.31-32.715zm-167.991 0l31.228-10.413h34.302l10.778 43.128-76.308-32.715zm-167.992 0l31.228-10.413h34.302l10.78 43.128-76.31-32.715zm-167.992 0l31.229-10.413h34.3l10.78 43.128-76.309-32.715zm-167.992 0l31.229-10.413h34.301l10.78 43.128-76.31-32.715zm2936.281 34.315l-10.161-40.66 50.806 50.825-40.645-10.165zm-167.993 0l-10.16-40.66 50.806 50.825-40.646-10.165zm-167.99 0l-10.163-40.66 50.808 50.825-40.645-10.165zm-167.992 0l-10.162-40.66 50.807 50.825-40.645-10.165zm-167.993 0l-10.16-40.66 50.806 50.825-40.646-10.165zm-167.991 0l-10.163-40.66 50.808 50.825-40.645-10.165zm-167.992 0l-10.161-40.66 50.806 50.825-40.645-10.165zm-167.993 0l-10.16-40.66 50.806 50.825-40.646-10.165zm-167.99 0l-10.163-40.66 50.807 50.825-40.645-10.165zm-167.993 0l-10.161-40.66 50.806 50.825-40.645-10.165zm-167.992 0l-10.161-40.66 50.807 50.825-40.646-10.165zm-167.991 0l-10.163-40.66 50.808 50.825-40.645-10.165zm-167.992 0l-10.162-40.66 50.807 50.825-40.645-10.165zm-167.993 0l-10.16-40.66 50.806 50.825-40.646-10.165zm-167.991 0l-10.163-40.66 50.808 50.825-40.645-10.165zm-167.992 0l-10.161-40.66 50.806 50.825-40.645-10.165zm-167.993 0l-10.16-40.66 50.806 50.825-40.646-10.165zm-167.99 0l-10.163-40.66 50.807 50.825-40.645-10.165zm2736.76 13.319l34.212-45.632 78.576 33.687-90.714 34.028-22.075-22.083zm-167.993 0l34.214-45.632 78.575 33.687-90.713 34.028-22.076-22.083zm-167.992 0l34.214-45.632 78.575 33.687-90.714 34.028-22.075-22.083zm-167.992 0l34.214-45.632 78.575 33.687-90.713 34.028-22.076-22.083zm-167.991 0l34.213-45.632 78.575 33.687-90.713 34.028-22.075-22.083zm-167.992 0l34.213-45.632 78.575 33.687-90.712 34.028-22.076-22.083zm-167.992 0l34.213-45.632 78.575 33.687-90.712 34.028-22.076-22.083zm-167.992 0l34.213-45.632 78.575 33.687L350.81-76.17l-22.076-22.083zm-167.992 0l34.213-45.632 78.577 33.687-90.714 34.028-22.076-22.083zm-167.992 0l34.213-45.632 78.576 33.687L14.826-76.17-7.25-98.252zm-167.992 0l34.214-45.632 78.575 33.687-90.713 34.028-22.076-22.083zm-167.992 0l34.214-45.632 78.576 33.687-90.714 34.028-22.076-22.083zm-167.992 0l34.214-45.632 78.575 33.687-90.713 34.028-22.076-22.083zm-167.991 0l34.213-45.632 78.575 33.687-90.711 34.028-22.077-22.083zm-167.992 0l34.213-45.632 78.575 33.687-90.712 34.028-22.076-22.083zm-167.992 0l34.213-45.632 78.575 33.687-90.712 34.028-22.076-22.083zm-167.992 0l34.213-45.632 78.576 33.687-90.712 34.028-22.077-22.083zm-167.992 0l34.213-45.632 78.576 33.687-90.713 34.028-22.076-22.083zm2882.61 24.176l90.416-33.918 34.879 34.89 11.075 33.238h-45.174l-91.195-34.21zm-167.991 0l90.416-33.918 34.878 34.89 11.075 33.238h-45.174l-91.195-34.21zm-167.992 0l90.416-33.918 34.878 34.89 11.075 33.238h-45.172l-91.197-34.21zm-167.992 0l90.416-33.918 34.878 34.89 11.076 33.238h-45.174l-91.196-34.21zm-167.992 0l90.416-33.918 34.878 34.89 11.076 33.238h-45.174l-91.196-34.21zm-167.992 0l90.416-33.918 34.878 34.89 11.076 33.238h-45.173l-91.197-34.21zm-167.992 0l90.416-33.918 34.878 34.89 11.076 33.238H614.67l-91.196-34.21zm-167.991 0l90.415-33.918 34.879 34.89 11.075 33.238h-45.174l-91.195-34.21zm-167.992 0l90.415-33.918 34.879 34.89 11.075 33.238h-45.173l-91.196-34.21zm-167.991 0l90.414-33.918 34.879 34.89 11.075 33.238h-45.174L19.5-74.076zm-167.993 0l90.416-33.918 34.878 34.89 11.075 33.238h-45.173l-91.196-34.21zm-167.992 0l90.416-33.918 34.878 34.89 11.075 33.238h-45.172l-91.197-34.21zm-167.99 0l90.414-33.918 34.878 34.89 11.076 33.238h-45.174l-91.195-34.21zm-167.994 0l90.416-33.918 34.878 34.89 11.076 33.238h-45.174l-91.196-34.21zm-167.992 0l90.416-33.918 34.878 34.89 11.076 33.238h-45.173l-91.197-34.21zm-167.99 0l90.414-33.918 34.878 34.89 11.076 33.238h-45.174l-91.194-34.21zm-167.993 0l90.415-33.918 34.879 34.89 11.075 33.238h-45.174l-91.195-34.21zm-167.992 0l90.415-33.918 34.879 34.89 11.075 33.238h-45.173l-91.196-34.21zm2828.351 35.162l-11.906-35.732-.435-.704-31.404-31.413 41.21 10.306 23.647 23.653.64.413 92.407 34.664-79.289 45.322-34.87-46.509zm-167.992 0l-11.906-35.732-.436-.704-31.403-31.413 41.21 10.306 23.646 23.653.641.413 92.406 34.664-79.287 45.322-34.87-46.509zm-167.99 0l-11.908-35.732-.436-.704-31.402-31.413 41.21 10.306 23.646 23.653.64.413 92.406 34.664L1202.8 7.595l-34.869-46.509zm-167.994 0l-11.906-35.732-.435-.704-31.403-31.413 41.21 10.306 23.646 23.653.64.413 92.407 34.664-79.288 45.322-34.87-46.509zm-167.991 0L820.04-74.646l-.436-.704-31.402-31.413 41.21 10.306 23.646 23.653.64.413 92.406 34.664-79.287 45.322-34.87-46.509zm-167.991 0l-11.908-35.732-.436-.704-31.401-31.413 41.209 10.306 23.647 23.653.64.413 92.405 34.664-79.288 45.322-34.868-46.509zm-167.993 0l-11.907-35.732-.435-.704-31.403-31.413 41.21 10.306 23.647 23.653.64.413 92.406 34.664-79.288 45.322-34.87-46.509zm-167.992 0l-11.906-35.732-.435-.704-31.404-31.413 41.21 10.306 23.646 23.653.64.413 92.406 34.664-79.287 45.322-34.87-46.509zm-167.99 0l-11.908-35.732-.436-.704-31.402-31.413 41.21 10.306 23.646 23.653.641.413 92.405 34.664-79.289 45.322-34.868-46.509zm-167.994 0l-11.906-35.732-.435-.704-31.404-31.413 41.21 10.306L13.1-72.804l.641.413 92.406 34.664L26.858 7.595l-34.87-46.509zm-167.992 0l-11.906-35.732-.435-.704-31.404-31.413 41.21 10.306 23.646 23.653.641.413 92.406 34.664-79.287 45.322-34.87-46.509zm-167.99 0l-11.908-35.732-.436-.704-31.401-31.413 41.209 10.306 23.646 23.653.641.413 92.405 34.664-79.288 45.322-34.869-46.509zm-167.993 0l-11.907-35.732-.435-.704-31.403-31.413 41.21 10.306 23.647 23.653.64.413 92.406 34.664-79.288 45.322-34.87-46.509zm-167.992 0l-11.907-35.732-.436-.704-31.402-31.413 41.21 10.306 23.647 23.653.64.413 92.405 34.664-79.287 45.322-34.87-46.509zm-167.991 0l-11.908-35.732-.436-.704-31.401-31.413 41.21 10.306 23.646 23.653.64.413 92.405 34.664-79.288 45.322-34.868-46.509zm-167.993 0l-11.907-35.732-.435-.704-31.403-31.413 41.21 10.306 23.647 23.653.64.413 92.406 34.664-79.288 45.322-34.87-46.509zm-167.992 0l-11.906-35.732-.435-.704-31.404-31.413 41.21 10.306 23.646 23.653.64.413 92.406 34.664-79.287 45.322-34.87-46.509zm2807.725 2.648h42.176l-52.721 52.738 10.545-52.738zm-167.993 0h42.178l-52.721 52.738 10.543-52.738zm-167.99 0h42.177l-52.722 52.738 10.545-52.738zm-167.992 0h42.177l-52.723 52.738 10.546-52.738zm-167.993 0h42.179l-52.723 52.738 10.544-52.738zm-167.991 0h42.177l-52.722 52.738 10.545-52.738zm-167.992 0h42.177l-52.721 52.738 10.544-52.738zm-167.993 0h42.18l-52.723 52.738 10.543-52.738zm-167.99 0h42.176l-52.721 52.738 10.544-52.738zm-167.993 0h42.177L101.3 16.472l10.544-52.738zm-167.992 0h42.178l-52.722 52.738 10.544-52.738zm-167.991 0h42.177l-52.722 52.738 10.545-52.738zm-167.992 0h42.177l-52.722 52.738 10.545-52.738zm-167.993 0h42.179l-52.723 52.738 10.544-52.738zm-167.991 0h42.177l-52.722 52.738 10.545-52.738zm-167.992 0h42.177l-52.721 52.738 10.544-52.738zm-167.993 0h42.18l-52.723 52.738 10.543-52.738zm-167.99 0h42.176l-52.721 52.738 10.544-52.738zM1410.65 23.751h31.652l1.272-.528 58.531-58.549 34.753 46.353.871.628 25.475 8.495h-24.907l-.568.093-35.998 12.002-.872.628-34.752 46.353-55.457-55.475zm-167.993 0h31.653l1.273-.528 58.53-58.549 34.753 46.353.872.628 25.474 8.495h-24.906l-.568.093-35.999 12.002-.872.628-34.752 46.353-55.458-55.475zm-167.991 0h31.652l1.272-.528 58.531-58.549 34.752 46.353.872.628 25.476 8.495h-24.907l-.57.093-35.998 12.002-.871.628-34.752 46.353-55.457-55.475zm-167.992 0h31.652l1.272-.528 58.53-58.549 34.754 46.353.87.628 25.477 8.495h-24.907l-.57.093-35.997 12.002-.871.628-34.754 46.353-55.456-55.475zm-167.993 0h31.654l1.273-.528 58.53-58.549 34.752 46.353.871.628 25.476 8.495H866.33l-.569.093-35.998 12.002-.871.628-34.753 46.353-55.458-55.475zm-167.99 0h31.652l1.273-.528 58.53-58.549 34.751 46.353.871.628 25.478 8.495h-24.908l-.57.093-35.998 12.002-.871.628-34.751 46.353-55.458-55.475zm-167.993 0h31.654l1.27-.528 58.532-58.549 34.752 46.353.871.628 25.476 8.495h-24.907l-.569.093-35.998 12.002-.871.628-34.752 46.353-55.458-55.475zm-167.993 0h31.654l1.273-.528 58.53-58.549 34.752 46.353.871.628 25.476 8.495h-24.906l-.57.093-35.998 12.002-.87.628-34.753 46.353-55.459-55.475zm-167.99 0h31.652l1.273-.528 58.53-58.549 34.751 46.353.872.628 25.477 8.495h-24.908l-.569.093-35.998 12.002-.872.628-34.751 46.353-55.457-55.475zm-167.992 0h31.653l1.271-.528L-9.82-35.326l34.753 46.353.87.628 25.476 8.495H26.372l-.57.093-35.998 12.002-.87.628-34.753 46.353-55.457-55.475zm-167.993 0h31.653l1.273-.528 58.53-58.549 34.753 46.353.87.628 25.476 8.495h-24.905l-.57.093-35.999 12.002-.87.628-34.753 46.353-55.458-55.475zm-167.991 0h31.652l1.273-.528 58.53-58.549 34.752 46.353.872.628 25.477 8.495h-24.908l-.57.093-35.997 12.002-.872.628-34.752 46.353-55.457-55.475zm-167.992 0h31.653l1.271-.528 58.532-58.549 34.752 46.353.87.628 25.477 8.495h-24.907l-.57.093-35.997 12.002-.871.628-34.753 46.353-55.457-55.475zm-167.993 0h31.654l1.273-.528 58.53-58.549 34.752 46.353.871.628 25.476 8.495h-24.907l-.569.093-35.998 12.002-.871.628-34.753 46.353-55.458-55.475zm-167.99 0h31.652l1.273-.528 58.53-58.549 34.751 46.353.872.628 25.477 8.495h-24.908l-.569.093-35.998 12.002-.872.628-34.751 46.353-55.458-55.475zm-167.993 0h31.653l1.272-.528 58.531-58.549 34.752 46.353.871.628 25.476 8.495h-24.907l-.569.093-35.998 12.002-.871.628-34.752 46.353-55.458-55.475zm-167.992 0h31.653l1.273-.528 58.53-58.549 34.752 46.353.871.628 25.476 8.495h-24.907l-.569.093-35.998 12.002-.87.628-34.753 46.353-55.458-55.475zM1542.686 9.513l72.309-41.333-41.32 51.666-30.989-10.333zm-167.99 0l72.306-41.333-41.318 51.666-30.989-10.333zm-167.993 0l72.307-41.333-41.318 51.666-30.989-10.333zm-167.991 0l72.305-41.333-41.317 51.666-30.988-10.333zm-167.992 0l72.305-41.333-41.317 51.666L870.72 9.513zm-167.992 0l72.305-41.333-41.317 51.666-30.988-10.333zm-167.992 0l72.305-41.333-41.317 51.666-30.988-10.333zm-167.992 0l72.307-41.333-41.318 51.666-30.989-10.333zm-167.992 0l72.306-41.333-41.317 51.666-30.989-10.333zm-167.992 0l72.306-41.333-41.317 51.666L30.76 9.513zm-167.992 0l72.307-41.333-41.318 51.666-30.989-10.333zm-167.991 0l72.305-41.333-41.317 51.666-30.988-10.333zm-167.992 0l72.306-41.333-41.318 51.666-30.988-10.333zm-167.992 0l72.306-41.333-41.318 51.666-30.988-10.333zm-167.992 0l72.305-41.333-41.317 51.666-30.988-10.333zm-167.992 0l72.307-41.333-41.318 51.666-30.989-10.333zm-167.992 0l72.307-41.333-41.318 51.666-30.989-10.333zm-167.992 0l72.306-41.333-41.317 51.666-30.989-10.333zM1619.08-31.165L1608.82 20.15h-30.778l41.037-51.315zm-167.991 0l-10.26 51.315h-30.778l41.038-51.315zm-167.993 0l-10.26 51.315h-30.777l41.037-51.315zm-167.992 0l-10.259 51.315h-30.778l41.037-51.315zm-167.992 0L936.853 20.15h-30.779l41.037-51.315zm-167.992 0L768.86 20.15h-30.777l41.037-51.315zm-167.992 0L600.87 20.15H570.09l41.037-51.315zm-167.99 0l-10.26 51.315h-30.779l41.038-51.315zm-167.994 0L264.884 20.15h-30.778l41.037-51.315zm-167.991 0L96.893 20.15H66.115l41.037-51.315zm-167.991 0L-71.1 20.15h-30.778l41.038-51.315zm-167.993 0l-10.26 51.315h-30.777l41.037-51.315zm-167.992 0l-10.259 51.315h-30.778l41.037-51.315zm-167.99 0l-10.26 51.315h-30.778l41.037-51.315zm-167.994 0l-10.26 51.315h-30.777l41.037-51.315zm-167.992 0l-10.258 51.315h-30.779l41.037-51.315zm-167.99 0l-10.26 51.315h-30.778l41.037-51.315zm-167.993 0l-10.26 51.315h-30.777l41.037-51.315zM1507.36 34.164l31.23-10.413h34.3l10.78 43.128-76.31-32.715zm-167.993 0L1370.6 23.75h34.3l10.778 43.128-76.31-32.715zm-167.99 0l31.23-10.413h34.299l10.78 43.128-76.309-32.715zm-167.992 0l31.229-10.413h34.301l10.779 43.128-76.309-32.715zm-167.993 0l31.23-10.413h34.301l10.779 43.128-76.31-32.715zm-167.99 0L698.63 23.75h34.3l10.78 43.128-76.308-32.715zm-167.992 0l31.228-10.413h34.301l10.779 43.128-76.308-32.715zm-167.993 0l31.23-10.413h34.3l10.78 43.128-76.31-32.715zm-167.991 0l31.228-10.413h34.3l10.78 43.128-76.308-32.715zm-167.992 0L26.664 23.75h34.3l10.78 43.128-76.309-32.715zm-167.993 0l31.23-10.413h34.301l10.778 43.128-76.309-32.715zm-167.99 0l31.228-10.413h34.3l10.78 43.128-76.309-32.715zm-167.993 0l31.229-10.413h34.301l10.779 43.128-76.309-32.715zm-167.993 0l31.23-10.413h34.301l10.779 43.128-76.31-32.715zm-167.99 0l31.228-10.413h34.301l10.779 43.128-76.308-32.715zm-167.992 0l31.228-10.413h34.302l10.779 43.128-76.31-32.715zm-167.992 0l31.228-10.413h34.302l10.778 43.128-76.308-32.715zm-167.992 0l31.228-10.413h34.302l10.78 43.128-76.31-32.715zM1587.78 68.479l-10.161-40.66 50.806 50.824-40.645-10.164zm-167.993 0l-10.16-40.66 50.806 50.824-40.646-10.164zm-167.99 0l-10.163-40.66 50.807 50.824-40.645-10.164zm-167.993 0l-10.161-40.66 50.806 50.824-40.645-10.164zm-167.992 0l-10.161-40.66 50.807 50.824-40.646-10.164zm-167.991 0l-10.163-40.66 50.808 50.824-40.645-10.164zm-167.992 0l-10.162-40.66 50.807 50.824-40.645-10.164zm-167.993 0l-10.16-40.66 50.806 50.824-40.646-10.164zm-167.991 0l-10.163-40.66 50.808 50.824-40.645-10.164zm-167.992 0l-10.161-40.66 50.806 50.824-40.645-10.164zm-167.993 0l-10.16-40.66 50.806 50.824-40.646-10.164zm-167.99 0l-10.163-40.66 50.807 50.824-40.645-10.164zm-167.993 0l-10.161-40.66 50.807 50.824-40.646-10.164zm-167.992 0l-10.16-40.66 50.806 50.824-40.646-10.164zm-167.991 0l-10.163-40.66 50.808 50.824-40.645-10.164zm-167.992 0l-10.162-40.66 50.807 50.824-40.645-10.164zm-167.993 0l-10.16-40.66 50.806 50.824-40.646-10.164zm-167.99 0l-10.163-40.66 50.807 50.824-40.645-10.164zm2736.759 13.319l34.213-45.632 78.575 33.686-90.713 34.029-22.075-22.083zm-167.992 0l34.213-45.632 78.575 33.686-90.712 34.029-22.076-22.083zm-167.992 0l34.213-45.632 78.576 33.686-90.713 34.029-22.076-22.083zm-167.992 0l34.214-45.632 78.575 33.686-90.713 34.029-22.076-22.083zm-167.992 0l34.214-45.632L909.5 69.852l-90.713 34.029-22.076-22.083zm-167.992 0l34.214-45.632 78.575 33.686-90.713 34.029-22.076-22.083zm-167.991 0l34.213-45.632 78.575 33.686-90.713 34.029-22.075-22.083zm-167.992 0l34.213-45.632 78.575 33.686-90.712 34.029-22.076-22.083zm-167.992 0l34.213-45.632 78.576 33.686-90.713 34.029-22.076-22.083zm-167.992 0l34.213-45.632L69.54 69.852l-90.712 34.029-22.076-22.083zm-167.992 0l34.213-45.632 78.576 33.686-90.713 34.029-22.076-22.083zm-167.992 0l34.213-45.632 78.577 33.686-90.714 34.029-22.076-22.083zm-167.992 0l34.214-45.632 78.575 33.686-90.713 34.029-22.076-22.083zm-167.992 0l34.214-45.632 78.575 33.686-90.712 34.029-22.077-22.083zm-167.992 0l34.214-45.632 78.575 33.686-90.713 34.029-22.076-22.083zm-167.991 0l34.213-45.632 78.575 33.686-90.712 34.029-22.076-22.083zm-167.992 0l34.213-45.632 78.575 33.686-90.711 34.029-22.077-22.083zm-167.992 0l34.213-45.632 78.575 33.686-90.712 34.029-22.076-22.083zm2882.61 24.175l90.416-33.917 34.878 34.89 11.076 33.238h-45.174l-91.195-34.21zm-167.991 0l90.415-33.917 34.879 34.89 11.075 33.238h-45.174l-91.195-34.21zm-167.992 0l90.415-33.917 34.879 34.89 11.075 33.238h-45.173l-91.196-34.21zm-167.992 0l90.417-33.917 34.877 34.89 11.075 33.238h-45.174l-91.195-34.21zm-167.992 0l90.417-33.917 34.877 34.89 11.075 33.238h-45.173l-91.196-34.21zm-167.992 0l90.417-33.917 34.877 34.89 11.076 33.238h-45.173l-91.197-34.21zm-167.992 0l90.417-33.917 34.877 34.89 11.076 33.238h-45.174l-91.196-34.21zm-167.992 0l90.417-33.917 34.877 34.89 11.076 33.238H410.68l-91.196-34.21zm-167.992 0l90.417-33.917 34.877 34.89 11.076 33.238h-45.173l-91.197-34.21zm-167.99 0l90.415-33.917 34.878 34.89 11.075 33.238H74.696l-91.194-34.21zm-167.993 0l90.416-33.917 34.878 34.89 11.075 33.238h-45.174l-91.195-34.21zm-167.992 0l90.416-33.917 34.878 34.89 11.075 33.238h-45.173l-91.196-34.21zm-167.992 0l90.417-33.917 34.877 34.89 11.075 33.238h-45.173l-91.196-34.21zm-167.992 0l90.417-33.917 34.877 34.89 11.075 33.238h-45.173l-91.196-34.21zm-167.992 0l90.417-33.917 34.877 34.89 11.076 33.238h-45.173l-91.197-34.21zm-167.99 0l90.415-33.917 34.877 34.89 11.076 33.238h-45.174l-91.195-34.21zm-167.994 0l90.418-33.917 34.876 34.89 11.076 33.238h-45.174l-91.196-34.21zm-167.991 0l90.416-33.917 34.877 34.89 11.076 33.238h-45.173l-91.196-34.21zm2828.35 35.163l-11.906-35.732-.435-.704-31.403-31.414 41.21 10.307 23.647 23.653.64.413 92.406 34.663-79.288 45.323-34.87-46.509zm-167.991 0l-11.906-35.732-.436-.704-31.403-31.414 41.21 10.307 23.646 23.653.64.413 92.406 34.663-79.287 45.323-34.87-46.509zm-167.99 0l-11.908-35.732-.436-.704-31.402-31.414 41.21 10.307 23.646 23.653.64.413 92.406 34.663-79.289 45.323-34.868-46.509zm-167.994 0l-11.906-35.732-.435-.704-31.404-31.414 41.211 10.307 23.646 23.653.64.413 92.407 34.663-79.288 45.323-34.87-46.509zm-167.992 0l-11.906-35.732-.436-.704-31.403-31.414 41.211 10.307 23.645 23.653.641.413 92.406 34.663-79.287 45.323-34.87-46.509zm-167.99 0l-11.908-35.732-.436-.704-31.401-31.414 41.21 10.307 23.645 23.653.641.413 92.405 34.663-79.288 45.323-34.869-46.509zm-167.993 0l-11.907-35.732-.435-.704-31.403-31.414 41.21 10.307 23.647 23.653.64.413 92.406 34.663-79.288 45.323-34.87-46.509zm-167.992 0l-11.907-35.732-.435-.704-31.403-31.414 41.212 10.307 23.644 23.653.64.413 92.406 34.663-79.287 45.323-34.87-46.509zm-167.991 0l-11.908-35.732-.436-.704-31.401-31.414 41.21 10.307 23.646 23.653.64.413 92.405 34.663-79.288 45.323-34.868-46.509zm-167.993 0l-11.907-35.732-.434-.704-31.404-31.414 41.211 10.307 23.646 23.653.64.413 92.406 34.663-79.288 45.323-34.87-46.509zm-167.992 0l-11.906-35.732-.435-.704-31.404-31.414 41.212 10.307 23.644 23.653.641.413 92.406 34.663-79.288 45.323-34.87-46.509zm-167.99 0l-11.908-35.732-.436-.704-31.402-31.414 41.21 10.307 23.646 23.653.641.413 92.405 34.663-79.289 45.323-34.868-46.509zm-167.994 0l-11.906-35.732-.435-.704-31.404-31.414 41.211 10.307 23.646 23.653.64.413 92.407 34.663-79.288 45.323-34.87-46.509zm-167.992 0l-11.906-35.732-.436-.704-31.403-31.414 41.213 10.307 23.644 23.653.64.413 92.406 34.663-79.287 45.323-34.87-46.509zm-167.99 0l-11.908-35.732-.436-.704-31.401-31.414 41.21 10.307 23.645 23.653.641.413 92.405 34.663-79.288 45.323-34.868-46.509zm-167.993 0l-11.907-35.732-.435-.704-31.403-31.414 41.21 10.307 23.647 23.653.64.413 92.406 34.663-79.288 45.323-34.87-46.509zm-167.992 0l-11.907-35.732-.435-.704-31.403-31.414 41.212 10.307 23.644 23.653.64.413 92.406 34.663-79.287 45.323-34.87-46.509zm2807.725 2.648h42.176l-52.721 52.737 10.545-52.737zm-167.993 0h42.178l-52.721 52.737 10.543-52.737zm-167.99 0h42.176l-52.721 52.737 10.544-52.737zm-167.993 0h42.177l-52.722 52.737 10.545-52.737zm-167.992 0h42.178L905.26 196.52l10.544-52.737zm-167.991 0h42.177l-52.722 52.737 10.545-52.737zm-167.992 0h42.177l-52.722 52.737 10.545-52.737zm-167.993 0h42.179l-52.723 52.737 10.544-52.737zm-167.991 0h42.177l-52.721 52.737 10.544-52.737zm-167.992 0h42.177L65.301 196.52l10.544-52.737zm-167.993 0h42.18l-52.723 52.737 10.543-52.737zm-167.99 0h42.176l-52.721 52.737 10.544-52.737zm-167.993 0h42.177l-52.721 52.737 10.544-52.737zm-167.992 0h42.179l-52.723 52.737 10.544-52.737zm-167.991 0h42.177l-52.722 52.737 10.545-52.737zm-167.992 0h42.177l-52.722 52.737 10.545-52.737zm-167.993 0h42.179l-52.723 52.737 10.544-52.737zm-167.99 0h42.176l-52.721 52.737 10.544-52.737zm2734.197.94l34.752 46.353.872.628 35.998 12.002.568.093h24.907l-25.475 8.495-.871.628-34.753 46.353-58.531-58.55-1.272-.526h-31.652l55.457-55.476zm-167.992 0l34.752 46.353.872.628 35.999 12.002.568.093h24.906l-25.474 8.495-.872.628-34.753 46.353-58.53-58.55-1.273-.526h-31.653l55.458-55.476zm-167.992 0l34.752 46.353.871.628 35.999 12.002.569.093h24.907l-25.476 8.495-.872.628-34.752 46.353-58.53-58.55-1.273-.526h-31.652l55.457-55.476zm-167.993 0l34.754 46.353.87.628 35.999 12.002.569.093h24.907l-25.476 8.495-.871.628-34.753 46.353-58.53-58.55-1.273-.526h-31.652l55.456-55.476zm-167.99 0l34.752 46.353.87.628 35.999 12.002.569.093h24.907l-25.476 8.495-.871.628-34.752 46.353-58.53-58.55-1.273-.526h-31.654l55.458-55.476zm-167.992 0l34.75 46.353.872.628 35.998 12.002.57.093h24.908l-25.478 8.495-.87.628-34.752 46.353-58.53-58.55-1.273-.526H570.69l55.458-55.476zm-167.992 0l34.752 46.353.87.628 36 12.002.568.093h24.907l-25.476 8.495-.87.628-34.753 46.353-58.531-58.55-1.271-.526h-31.654l55.458-55.476zm-167.992 0l34.752 46.353.871.628 35.998 12.002.57.093h24.906l-25.476 8.495-.87.628-34.753 46.353-58.53-58.55-1.273-.526h-31.654l55.459-55.476zm-167.992 0l34.751 46.353.872.628 35.998 12.002.57.093h24.907l-25.477 8.495-.872.628-34.75 46.353-58.531-58.55-1.273-.526H66.716l55.457-55.476zm-167.992 0l34.752 46.353.871.628 35.999 12.002.569.093h24.906l-25.475 8.495-.871.628-34.753 46.353-58.53-58.55-1.272-.526h-31.653l55.457-55.476zm-167.992 0l34.752 46.353.871.628 35.999 12.002.57.093h24.905l-25.475 8.495-.871.628-34.753 46.353-58.53-58.55-1.273-.526h-31.653l55.458-55.476zm-167.992 0l34.752 46.353.872.628 35.998 12.002.569.093h24.908l-25.477 8.495-.872.628-34.752 46.353-58.53-58.55-1.273-.526h-31.652l55.457-55.476zm-167.992 0l34.753 46.353.87.628 35.999 12.002.569.093h24.907l-25.476 8.495-.871.628-34.752 46.353-58.532-58.55-1.271-.526h-31.653l55.457-55.476zm-167.992 0l34.753 46.353.87.628 35.999 12.002.569.093h24.907l-25.476 8.495-.87.628-34.753 46.353-58.53-58.55-1.273-.526h-31.654l55.458-55.476zm-167.991 0l34.75 46.353.873.628 35.998 12.002.57.093h24.907l-25.477 8.495-.872.628-34.751 46.353-58.53-58.55-1.273-.526h-31.653l55.458-55.476zm-167.992 0l34.752 46.353.871.628 35.998 12.002.57.093h24.906l-25.476 8.495-.87.628-34.753 46.353-58.531-58.55-1.272-.526h-31.653l55.458-55.476zm-167.992 0l34.752 46.353.871.628 35.998 12.002.57.093h24.906l-25.476 8.495-.87.628-34.753 46.353-58.53-58.55-1.273-.526h-31.653l55.458-55.476zm2728.45 44.839l72.308-41.333-41.319 51.665-30.989-10.332zm-167.99 0l72.306-41.333-41.318 51.665-30.989-10.332zm-167.993 0l72.307-41.333-41.318 51.665-30.989-10.332zm-167.992 0l72.306-41.333-41.317 51.665-30.989-10.332zm-167.992 0l72.306-41.333-41.317 51.665-30.989-10.332zm-167.991 0l72.305-41.333-41.317 51.665-30.988-10.332zm-167.992 0l72.305-41.333-41.317 51.665-30.988-10.332zm-167.992 0l72.306-41.333-41.318 51.665-30.988-10.332zm-167.992 0l72.305-41.333-41.317 51.665-30.988-10.332zm-167.992 0l72.306-41.333-41.317 51.665-30.989-10.332zm-167.992 0l72.307-41.333-41.318 51.665-30.989-10.332zm-167.992 0l72.306-41.333-41.317 51.665-30.989-10.332zm-167.992 0l72.307-41.333-41.318 51.665-30.989-10.332zm-167.991 0l72.306-41.333-41.318 51.665-30.988-10.332zm-167.992 0l72.305-41.333-41.317 51.665-30.988-10.332zm-167.992 0l72.306-41.333-41.318 51.665-30.988-10.332zm-167.992 0l72.306-41.333-41.318 51.665-30.988-10.332zm-167.992 0l72.305-41.333-41.317 51.665-30.988-10.332zm2932.253-40.678l-10.258 51.315h-30.779l41.037-51.315zm-167.99 0l-10.26 51.315h-30.779l41.038-51.315zm-167.993 0l-10.26 51.315h-30.777l41.037-51.315zm-167.992 0l-10.259 51.315h-30.778l41.037-51.315zm-167.992 0L900.854 200.2h-30.778l41.037-51.315zm-167.992 0L732.86 200.2h-30.777l41.037-51.315zm-167.992 0L564.87 200.2h-30.778l41.037-51.315zm-167.99 0l-10.26 51.315H366.1l41.038-51.315zm-167.994 0l-10.26 51.315h-30.777l41.037-51.315zm-167.992 0L60.895 200.2H30.116l41.037-51.315zm-167.99 0l-10.26 51.315h-30.779l41.038-51.315zm-167.993 0l-10.26 51.315h-30.777l41.037-51.315zm-167.992 0l-10.259 51.315h-30.778l41.037-51.315zm-167.991 0l-10.26 51.315h-30.777l41.037-51.315zm-167.993 0l-10.26 51.315h-30.777l41.037-51.315zm-167.992 0l-10.258 51.315h-30.779l41.037-51.315zm-167.99 0l-10.26 51.315h-30.778l41.037-51.315zm-167.994 0l-10.26 51.315h-30.777l41.037-51.315zm2816.141 65.328l31.23-10.413h34.301l10.779 43.128-76.31-32.715zm-167.993 0l31.232-10.413h34.3l10.779 43.128-76.31-32.715zm-167.99 0l31.23-10.413h34.3l10.779 43.128-76.31-32.715zm-167.991 0l31.228-10.413h34.301l10.779 43.128-76.308-32.715zm-167.993 0l31.23-10.413h34.3l10.779 43.128-76.31-32.715zm-167.991 0l31.228-10.413h34.3l10.78 43.128-76.308-32.715zm-167.992 0l31.228-10.413h34.302l10.778 43.128-76.308-32.715zm-167.993 0l31.23-10.413h34.3l10.78 43.128-76.31-32.715zm-167.99 0l31.228-10.413h34.3l10.78 43.128-76.309-32.715zm-167.993 0L62.662 203.8h34.301l10.779 43.128-76.309-32.715zm-167.993 0l31.23-10.413h34.301l10.779 43.128-76.31-32.715zm-167.99 0l31.228-10.413h34.3l10.78 43.128-76.308-32.715zm-167.992 0l31.228-10.413h34.301l10.779 43.128-76.308-32.715zm-167.993 0l31.23-10.413h34.3l10.78 43.128-76.31-32.715zm-167.991 0l31.228-10.413h34.302l10.778 43.128-76.308-32.715zm-167.992 0l31.228-10.413h34.302l10.78 43.128-76.31-32.715zm-167.992 0l31.229-10.413h34.3l10.78 43.128-76.309-32.715zm-167.992 0l31.229-10.413h34.301l10.78 43.128-76.31-32.715zM1623.78 248.53l-10.161-40.66 50.806 50.824-40.645-10.164zm-167.993 0l-10.16-40.66 50.806 50.824-40.646-10.164zm-167.99 0l-10.163-40.66 50.808 50.824-40.645-10.164zm-167.992 0l-10.162-40.66 50.807 50.824-40.645-10.164zm-167.993 0l-10.16-40.66 50.806 50.824-40.646-10.164zm-167.991 0l-10.163-40.66 50.808 50.824-40.645-10.164zm-167.992 0l-10.161-40.66 50.806 50.824-40.645-10.164zm-167.993 0l-10.16-40.66 50.806 50.824-40.646-10.164zm-167.99 0l-10.163-40.66 50.807 50.824-40.645-10.164zm-167.993 0l-10.161-40.66 50.806 50.824-40.645-10.164zm-167.992 0l-10.161-40.66 50.807 50.824-40.646-10.164zm-167.991 0l-10.163-40.66 50.808 50.824-40.645-10.164zm-167.992 0l-10.162-40.66 50.807 50.824-40.645-10.164zm-167.993 0l-10.16-40.66 50.806 50.824-40.646-10.164zm-167.991 0l-10.163-40.66 50.808 50.824-40.645-10.164zm-167.992 0l-10.161-40.66 50.806 50.824-40.645-10.164zm-167.993 0l-10.16-40.66 50.806 50.824-40.646-10.164zm-167.99 0l-10.163-40.66 50.807 50.824-40.645-10.164zm2736.76 13.319l34.212-45.632 78.576 33.686-90.714 34.029-22.075-22.083zm-167.993 0l34.214-45.632 78.575 33.686-90.713 34.029-22.076-22.083zm-167.992 0l34.214-45.632 78.575 33.686-90.714 34.029-22.075-22.083zm-167.992 0l34.214-45.632 78.575 33.686-90.713 34.029-22.076-22.083zm-167.991 0l34.213-45.632 78.575 33.686-90.713 34.029-22.075-22.083zm-167.992 0l34.213-45.632 78.575 33.686-90.712 34.029-22.076-22.083zm-167.992 0l34.213-45.632 78.575 33.686-90.712 34.029-22.076-22.083zm-167.992 0l34.213-45.632 78.575 33.686-90.712 34.029-22.076-22.083zm-167.992 0l34.213-45.632 78.577 33.686-90.714 34.029-22.076-22.083zm-167.992 0l34.213-45.632 78.576 33.686-90.713 34.029-22.076-22.083zm-167.992 0l34.214-45.632 78.575 33.686-90.713 34.029-22.076-22.083zm-167.992 0l34.214-45.632 78.576 33.686-90.714 34.029-22.076-22.083zm-167.992 0l34.214-45.632 78.575 33.686-90.713 34.029-22.076-22.083zm-167.991 0l34.213-45.632 78.575 33.686-90.711 34.029-22.077-22.083zm-167.992 0l34.213-45.632 78.575 33.686-90.712 34.029-22.076-22.083zm-167.992 0l34.213-45.632 78.575 33.686-90.712 34.029-22.076-22.083zm-167.992 0l34.213-45.632 78.576 33.686-90.712 34.029-22.077-22.083zm-167.992 0l34.213-45.632 78.576 33.686-90.713 34.029-22.076-22.083zm2882.61 24.175l90.416-33.917 34.879 34.89 11.075 33.238h-45.174l-91.195-34.21zm-167.991 0l90.416-33.917 34.878 34.89 11.075 33.238h-45.174l-91.195-34.21zm-167.992 0l90.416-33.917 34.878 34.89 11.075 33.238h-45.172l-91.197-34.21zm-167.992 0l90.417-33.917 34.877 34.89 11.076 33.238h-45.174l-91.196-34.21zm-167.992 0l90.417-33.917 34.877 34.89 11.076 33.238h-45.174l-91.196-34.21zm-167.992 0l90.417-33.917 34.877 34.89 11.076 33.238h-45.173l-91.197-34.21zm-167.992 0l90.417-33.917 34.877 34.89 11.076 33.238H614.67l-91.196-34.21zm-167.991 0l90.416-33.917 34.878 34.89 11.075 33.238h-45.174l-91.195-34.21zm-167.992 0l90.416-33.917 34.878 34.89 11.075 33.238h-45.173l-91.196-34.21zm-167.991 0l90.415-33.917 34.878 34.89 11.075 33.238h-45.174L19.5 286.024zm-167.993 0l90.417-33.917 34.877 34.89 11.075 33.238h-45.173l-91.196-34.21zm-167.992 0l90.417-33.917 34.877 34.89 11.075 33.238h-45.172l-91.197-34.21zm-167.99 0l90.415-33.917 34.877 34.89 11.076 33.238h-45.174l-91.195-34.21zm-167.994 0l90.418-33.917 34.876 34.89 11.076 33.238h-45.174l-91.196-34.21zm-167.992 0l90.417-33.917 34.877 34.89 11.076 33.238h-45.173l-91.197-34.21zm-167.99 0l90.415-33.917 34.877 34.89 11.076 33.238h-45.174l-91.194-34.21zm-167.993 0l90.417-33.917 34.877 34.89 11.075 33.238h-45.174l-91.195-34.21zm-167.992 0l90.416-33.917 34.878 34.89 11.075 33.238h-45.173l-91.196-34.21zm2828.351 35.163l-11.906-35.732-.435-.704-31.404-31.414 41.21 10.307 23.647 23.653.64.413 92.407 34.663-79.289 45.323-34.87-46.509zm-167.992 0l-11.906-35.732-.436-.704-31.403-31.414 41.21 10.307 23.646 23.653.641.413 92.406 34.663-79.287 45.323-34.87-46.509zm-167.99 0l-11.908-35.732-.436-.704-31.402-31.414 41.21 10.307 23.646 23.653.64.413 92.406 34.663-79.288 45.323-34.869-46.509zm-167.994 0l-11.906-35.732-.435-.704-31.403-31.414 41.21 10.307 23.646 23.653.64.413 92.407 34.663-79.288 45.323-34.87-46.509zm-167.991 0l-11.907-35.732-.436-.704-31.402-31.414 41.21 10.307 23.646 23.653.64.413 92.406 34.663-79.287 45.323-34.87-46.509zm-167.991 0l-11.908-35.732-.436-.704-31.401-31.414 41.21 10.307 23.646 23.653.64.413 92.405 34.663-79.288 45.323-34.868-46.509zm-167.993 0l-11.907-35.732-.435-.704-31.403-31.414 41.21 10.307 23.647 23.653.64.413 92.406 34.663-79.288 45.323-34.87-46.509zm-167.992 0l-11.906-35.732-.435-.704-31.404-31.414 41.212 10.307 23.644 23.653.64.413 92.406 34.663-79.287 45.323-34.87-46.509zm-167.99 0l-11.908-35.732-.436-.704-31.402-31.414 41.21 10.307 23.646 23.653.641.413 92.405 34.663-79.289 45.323-34.868-46.509zm-167.994 0l-11.906-35.732-.435-.704-31.404-31.414 41.211 10.307L13.1 287.296l.641.413 92.406 34.663-79.289 45.323-34.87-46.509zm-167.992 0l-11.906-35.732-.435-.704-31.404-31.414 41.212 10.307 23.644 23.653.641.413 92.406 34.663-79.287 45.323-34.87-46.509zm-167.99 0l-11.908-35.732-.436-.704-31.401-31.414 41.21 10.307 23.645 23.653.641.413 92.405 34.663-79.288 45.323-34.869-46.509zm-167.993 0l-11.907-35.732-.435-.704-31.403-31.414 41.21 10.307 23.647 23.653.64.413 92.406 34.663-79.288 45.323-34.87-46.509zm-167.992 0l-11.907-35.732-.436-.704-31.402-31.414 41.212 10.307 23.645 23.653.64.413 92.405 34.663-79.287 45.323-34.87-46.509zm-167.991 0l-11.908-35.732-.436-.704-31.401-31.414 41.21 10.307 23.646 23.653.64.413 92.405 34.663-79.288 45.323-34.868-46.509zm-167.993 0l-11.907-35.732-.435-.704-31.403-31.414 41.211 10.307 23.646 23.653.64.413 92.406 34.663-79.288 45.323-34.87-46.509zm-167.992 0l-11.906-35.732-.435-.704-31.404-31.414 41.212 10.307 23.644 23.653.64.413 92.406 34.663-79.287 45.323-34.87-46.509zm2807.725 2.648h42.176l-52.721 52.737 10.545-52.737zm-167.993 0h42.178l-52.721 52.737 10.543-52.737zm-167.99 0h42.177l-52.722 52.737 10.545-52.737zm-167.992 0h42.177l-52.723 52.737 10.546-52.737zm-167.993 0h42.179l-52.723 52.737 10.544-52.737zm-167.991 0h42.177l-52.722 52.737 10.545-52.737zm-167.992 0h42.177l-52.721 52.737 10.544-52.737zm-167.993 0h42.18l-52.723 52.737 10.543-52.737zm-167.99 0h42.176l-52.721 52.737 10.544-52.737zm-167.993 0h42.177L101.3 376.57l10.544-52.737zm-167.992 0h42.178l-52.722 52.737 10.544-52.737zm-167.991 0h42.177l-52.722 52.737 10.545-52.737zm-167.992 0h42.177l-52.722 52.737 10.545-52.737zm-167.993 0h42.179l-52.723 52.737 10.544-52.737zm-167.991 0h42.177l-52.722 52.737 10.545-52.737zm-167.992 0h42.177l-52.721 52.737 10.544-52.737zm-167.993 0h42.18l-52.723 52.737 10.543-52.737zm-167.99 0h42.176l-52.721 52.737 10.544-52.737zM1410.65 383.85h31.652l1.272-.527 58.531-58.549 34.753 46.352.871.629 25.475 8.494h-24.907l-.568.092-35.998 12.004-.872.628-34.752 46.353-55.457-55.476zm-167.993 0h31.653l1.273-.527 58.53-58.549 34.753 46.352.872.629 25.474 8.494h-24.906l-.568.092-35.999 12.004-.872.628-34.752 46.353-55.458-55.476zm-167.991 0h31.652l1.272-.527 58.531-58.549 34.752 46.352.872.629 25.476 8.494h-24.907l-.57.092-35.998 12.004-.871.628-34.752 46.353-55.457-55.476zm-167.992 0h31.652l1.272-.527 58.53-58.549 34.754 46.352.87.629 25.477 8.494h-24.907l-.57.092-35.997 12.004-.871.628-34.754 46.353-55.456-55.476zm-167.993 0h31.654l1.273-.527 58.53-58.549 34.752 46.352.871.629 25.476 8.494H866.33l-.569.092-35.998 12.004-.871.628-34.753 46.353-55.458-55.476zm-167.99 0h31.652l1.273-.527 58.53-58.549 34.751 46.352.871.629 25.478 8.494h-24.908l-.57.092-35.998 12.004-.871.628-34.751 46.353-55.458-55.476zm-167.993 0h31.654l1.27-.527 58.532-58.549 34.752 46.352.871.629 25.476 8.494h-24.907l-.569.092-35.998 12.004-.871.628-34.752 46.353-55.458-55.476zm-167.993 0h31.654l1.273-.527 58.53-58.549 34.752 46.352.871.629 25.476 8.494h-24.906l-.57.092-35.998 12.004-.87.628-34.753 46.353-55.459-55.476zm-167.99 0h31.652l1.273-.527 58.53-58.549 34.751 46.352.872.629 25.477 8.494h-24.908l-.569.092-35.998 12.004-.872.628-34.751 46.353-55.457-55.476zm-167.992 0h31.653l1.271-.527 58.531-58.549 34.753 46.352.87.629 25.476 8.494H26.372l-.57.092-35.998 12.004-.87.628-34.753 46.353-55.457-55.476zm-167.993 0h31.653l1.273-.527 58.53-58.549 34.753 46.352.87.629 25.476 8.494h-24.905l-.57.092-35.999 12.004-.87.628-34.753 46.353-55.458-55.476zm-167.991 0h31.652l1.273-.527 58.53-58.549 34.752 46.352.872.629 25.477 8.494h-24.908l-.57.092-35.997 12.004-.872.628-34.752 46.353-55.457-55.476zm-167.992 0h31.653l1.271-.527 58.532-58.549 34.752 46.352.87.629 25.477 8.494h-24.907l-.57.092-35.997 12.004-.871.628-34.753 46.353-55.457-55.476zm-167.993 0h31.654l1.273-.527 58.53-58.549 34.752 46.352.871.629 25.476 8.494h-24.907l-.569.092-35.998 12.004-.871.628-34.753 46.353-55.458-55.476zm-167.99 0h31.652l1.273-.527 58.53-58.549 34.751 46.352.872.629 25.477 8.494h-24.908l-.569.092-35.998 12.004-.872.628-34.751 46.353-55.458-55.476zm-167.993 0h31.653l1.272-.527 58.531-58.549 34.752 46.352.871.629 25.476 8.494h-24.907l-.569.092-35.998 12.004-.871.628-34.752 46.353-55.458-55.476zm-167.992 0h31.653l1.273-.527 58.53-58.549 34.752 46.352.871.629 25.476 8.494h-24.907l-.569.092-35.998 12.004-.87.628-34.753 46.353-55.458-55.476zm2819.906-14.238l72.309-41.332-41.32 51.665-30.989-10.333zm-167.99 0l72.306-41.332-41.318 51.665-30.989-10.333zm-167.993 0l72.307-41.332-41.318 51.665-30.989-10.333zm-167.991 0l72.305-41.332-41.317 51.665-30.988-10.333zm-167.992 0l72.305-41.332-41.317 51.665-30.988-10.333zm-167.992 0l72.305-41.332-41.317 51.665-30.988-10.333zm-167.992 0l72.305-41.332-41.317 51.665-30.988-10.333zm-167.992 0l72.307-41.332-41.318 51.665-30.989-10.333zm-167.992 0l72.306-41.332-41.317 51.665-30.989-10.333zm-167.992 0l72.306-41.332-41.317 51.665-30.989-10.333zm-167.992 0l72.307-41.332-41.318 51.665-30.989-10.333zm-167.991 0l72.305-41.332-41.317 51.665-30.988-10.333zm-167.992 0l72.306-41.332-41.318 51.665-30.988-10.333zm-167.992 0l72.306-41.332-41.318 51.665-30.988-10.333zm-167.992 0l72.305-41.332-41.317 51.665-30.988-10.333zm-167.992 0l72.307-41.332-41.318 51.665-30.989-10.333zm-167.992 0l72.307-41.332-41.318 51.665-30.989-10.333zm-167.992 0l72.306-41.332-41.317 51.665-30.989-10.333zm2932.254-40.677l-10.259 51.314h-30.778l41.037-51.314zm-167.991 0l-10.26 51.314h-30.778l41.038-51.314zm-167.993 0l-10.26 51.314h-30.777l41.037-51.314zm-167.992 0l-10.259 51.314h-30.778l41.037-51.314zm-167.992 0l-10.258 51.314h-30.779l41.037-51.314zm-167.992 0l-10.26 51.314h-30.777l41.037-51.314zm-167.992 0L600.87 380.25H570.09l41.037-51.314zm-167.99 0l-10.26 51.314h-30.779l41.038-51.314zm-167.994 0l-10.259 51.314h-30.778l41.037-51.314zm-167.991 0L96.893 380.25H66.115l41.037-51.314zm-167.991 0L-71.1 380.25h-30.778l41.038-51.314zm-167.993 0l-10.26 51.314h-30.777l41.037-51.314zm-167.992 0l-10.259 51.314h-30.778l41.037-51.314zm-167.99 0l-10.26 51.314h-30.778l41.037-51.314zm-167.994 0l-10.26 51.314h-30.777l41.037-51.314zm-167.992 0l-10.258 51.314h-30.779l41.037-51.314zm-167.99 0l-10.26 51.314h-30.778l41.037-51.314zm-167.993 0l-10.26 51.314h-30.777l41.037-51.314zm2744.144 65.328l31.23-10.413h34.3l10.78 43.128-76.31-32.715zm-167.993 0l31.232-10.413h34.3l10.778 43.128-76.31-32.715zm-167.99 0l31.23-10.413h34.299l10.78 43.128-76.309-32.715zm-167.992 0l31.229-10.413h34.301l10.779 43.128-76.309-32.715zm-167.993 0l31.23-10.413h34.301l10.779 43.128-76.31-32.715zm-167.99 0l31.228-10.413h34.3l10.78 43.128-76.308-32.715zm-167.992 0l31.228-10.413h34.301l10.779 43.128-76.308-32.715zm-167.993 0l31.23-10.413h34.3l10.78 43.128-76.31-32.715zm-167.991 0l31.228-10.413h34.3l10.78 43.128-76.308-32.715zm-167.992 0l31.229-10.413h34.3l10.78 43.128-76.309-32.715zm-167.993 0l31.23-10.413h34.301l10.778 43.128-76.309-32.715zm-167.99 0l31.228-10.413h34.3l10.78 43.128-76.309-32.715zm-167.993 0l31.229-10.413h34.301l10.779 43.128-76.309-32.715zm-167.993 0l31.23-10.413h34.301l10.779 43.128-76.31-32.715zm-167.99 0l31.228-10.413h34.301l10.779 43.128-76.308-32.715zm-167.992 0l31.228-10.413h34.302l10.779 43.128-76.31-32.715zm-167.992 0l31.228-10.413h34.302l10.778 43.128-76.308-32.715zm-167.992 0l31.228-10.413h34.302l10.78 43.128-76.31-32.715zM1587.78 428.58l-10.161-40.66 50.806 50.824-40.645-10.164zm-167.993 0l-10.16-40.66 50.806 50.824-40.646-10.164zm-167.99 0l-10.163-40.66 50.807 50.824-40.645-10.164zm-167.993 0l-10.161-40.66 50.806 50.824-40.645-10.164zm-167.992 0l-10.161-40.66 50.807 50.824-40.646-10.164zm-167.991 0l-10.163-40.66 50.808 50.824-40.645-10.164zm-167.992 0l-10.162-40.66 50.807 50.824-40.645-10.164zm-167.993 0l-10.16-40.66 50.806 50.824-40.646-10.164zm-167.991 0l-10.163-40.66 50.808 50.824-40.645-10.164zm-167.992 0l-10.161-40.66 50.806 50.824-40.645-10.164zm-167.993 0l-10.16-40.66 50.806 50.824-40.646-10.164zm-167.99 0l-10.163-40.66 50.807 50.824-40.645-10.164zm-167.993 0l-10.161-40.66 50.807 50.824-40.646-10.164zm-167.992 0l-10.16-40.66 50.806 50.824-40.646-10.164zm-167.991 0l-10.163-40.66 50.808 50.824-40.645-10.164zm-167.992 0l-10.162-40.66 50.807 50.824-40.645-10.164zm-167.993 0l-10.16-40.66 50.806 50.824-40.646-10.164zm-167.99 0l-10.163-40.66 50.807 50.824-40.645-10.164zm2736.759 13.318l34.213-45.631 78.575 33.686-90.713 34.028-22.075-22.083zm-167.992 0l34.213-45.631 78.575 33.686-90.712 34.028-22.076-22.083zm-167.992 0l34.213-45.631 78.576 33.686-90.713 34.028-22.076-22.083zm-167.992 0l34.214-45.631 78.575 33.686-90.713 34.028-22.076-22.083zm-167.992 0l34.214-45.631 78.575 33.686-90.713 34.028-22.076-22.083zm-167.992 0l34.214-45.631 78.575 33.686-90.713 34.028-22.076-22.083zm-167.991 0l34.213-45.631 78.575 33.686-90.713 34.028-22.075-22.083zm-167.992 0l34.213-45.631 78.575 33.686-90.712 34.028-22.076-22.083zm-167.992 0l34.213-45.631 78.576 33.686-90.713 34.028-22.076-22.083zm-167.992 0l34.213-45.631 78.575 33.686-90.712 34.028-22.076-22.083zm-167.992 0l34.213-45.631 78.576 33.686-90.713 34.028-22.076-22.083zm-167.992 0l34.213-45.631 78.577 33.686-90.714 34.028-22.076-22.083zm-167.992 0l34.214-45.631 78.575 33.686-90.713 34.028-22.076-22.083zm-167.992 0l34.214-45.631 78.575 33.686-90.712 34.028-22.077-22.083zm-167.992 0l34.214-45.631 78.575 33.686-90.713 34.028-22.076-22.083zm-167.991 0l34.213-45.631 78.575 33.686-90.712 34.028-22.076-22.083zm-167.992 0l34.213-45.631 78.575 33.686-90.711 34.028-22.077-22.083zm-167.992 0l34.213-45.631 78.575 33.686-90.712 34.028-22.076-22.083zm2882.61 24.176l90.416-33.917 34.878 34.89 11.076 33.237h-45.174l-91.195-34.21zm-167.991 0l90.415-33.917 34.879 34.89 11.075 33.237h-45.174l-91.195-34.21zm-167.992 0l90.415-33.917 34.879 34.89 11.075 33.237h-45.173l-91.196-34.21zm-167.992 0l90.417-33.917 34.877 34.89 11.075 33.237h-45.174l-91.195-34.21zm-167.992 0l90.417-33.917 34.877 34.89 11.075 33.237h-45.173l-91.196-34.21zm-167.992 0l90.417-33.917 34.877 34.89 11.076 33.237h-45.173l-91.197-34.21zm-167.992 0l90.417-33.917 34.877 34.89 11.076 33.237h-45.174l-91.196-34.21zm-167.992 0l90.417-33.917 34.877 34.89 11.076 33.237H410.68l-91.196-34.21zm-167.992 0l90.417-33.917 34.877 34.89 11.076 33.237h-45.173l-91.197-34.21zm-167.99 0l90.415-33.917 34.878 34.89 11.075 33.237H74.696l-91.194-34.21zm-167.993 0l90.416-33.917 34.878 34.89 11.075 33.237h-45.174l-91.195-34.21zm-167.992 0l90.416-33.917 34.878 34.89 11.075 33.237h-45.173l-91.196-34.21zm-167.992 0l90.417-33.917 34.877 34.89 11.075 33.237h-45.173l-91.196-34.21zm-167.992 0l90.417-33.917 34.877 34.89 11.075 33.237h-45.173l-91.196-34.21zm-167.992 0l90.417-33.917 34.877 34.89 11.076 33.237h-45.173l-91.197-34.21zm-167.99 0l90.415-33.917 34.877 34.89 11.076 33.237h-45.174l-91.195-34.21zm-167.994 0l90.418-33.917 34.876 34.89 11.076 33.237h-45.174l-91.196-34.21zm-167.991 0l90.416-33.917 34.877 34.89 11.076 33.237h-45.173l-91.196-34.21zm2828.35 35.163l-11.906-35.732-.435-.704-31.403-31.414 41.21 10.307 23.647 23.653.64.413 92.406 34.663-79.288 45.323-34.87-46.51zm-167.991 0l-11.906-35.732-.436-.704-31.403-31.414 41.21 10.307 23.646 23.653.64.413 92.406 34.663-79.287 45.323-34.87-46.51zm-167.99 0l-11.908-35.732-.436-.704-31.402-31.414 41.21 10.307 23.646 23.653.64.413 92.406 34.663-79.289 45.323-34.868-46.51zm-167.994 0l-11.906-35.732-.435-.704-31.404-31.414 41.211 10.307 23.646 23.653.64.413 92.407 34.663-79.288 45.323-34.87-46.51zm-167.992 0l-11.906-35.732-.436-.704-31.403-31.414 41.211 10.307 23.645 23.653.641.413 92.406 34.663-79.287 45.323-34.87-46.51zm-167.99 0l-11.908-35.732-.436-.704-31.401-31.414 41.21 10.307 23.645 23.653.641.413 92.405 34.663-79.288 45.323-34.869-46.51zm-167.993 0l-11.907-35.732-.435-.704-31.403-31.414 41.21 10.307 23.647 23.653.64.413 92.406 34.663-79.288 45.323-34.87-46.51zm-167.992 0l-11.907-35.732-.435-.704-31.403-31.414 41.212 10.307 23.644 23.653.64.413 92.406 34.663-79.287 45.323-34.87-46.51zm-167.991 0l-11.908-35.732-.436-.704-31.401-31.414 41.21 10.307 23.646 23.653.64.413 92.405 34.663-79.288 45.323-34.868-46.51zm-167.993 0l-11.907-35.732-.434-.704-31.404-31.414 41.211 10.307 23.646 23.653.64.413 92.406 34.663-79.288 45.323-34.87-46.51zm-167.992 0l-11.906-35.732-.435-.704-31.404-31.414 41.212 10.307 23.644 23.653.641.413 92.406 34.663-79.288 45.323-34.87-46.51zm-167.99 0l-11.908-35.732-.436-.704-31.402-31.414 41.21 10.307 23.646 23.653.641.413 92.405 34.663-79.289 45.323-34.868-46.51zm-167.994 0l-11.906-35.732-.435-.704-31.404-31.414 41.211 10.307 23.646 23.653.64.413 92.407 34.663-79.288 45.323-34.87-46.51zm-167.992 0l-11.906-35.732-.436-.704-31.403-31.414 41.213 10.307 23.644 23.653.64.413 92.406 34.663-79.287 45.323-34.87-46.51zm-167.99 0l-11.908-35.732-.436-.704-31.401-31.414 41.21 10.307 23.645 23.653.641.413 92.405 34.663-79.288 45.323-34.868-46.51zm-167.993 0l-11.907-35.732-.435-.704-31.403-31.414 41.21 10.307 23.647 23.653.64.413 92.406 34.663-79.288 45.323-34.87-46.51zm-167.992 0l-11.907-35.732-.435-.704-31.403-31.414 41.212 10.307 23.644 23.653.64.413 92.406 34.663-79.287 45.323-34.87-46.51zm2807.725 2.648h42.176l-52.721 52.737 10.545-52.737zm-167.993 0h42.178l-52.721 52.737 10.543-52.737zm-167.99 0h42.176l-52.721 52.737 10.544-52.737zm-167.993 0h42.177l-52.722 52.737 10.545-52.737zm-167.992 0h42.178L905.26 556.62l10.544-52.737zm-167.991 0h42.177l-52.722 52.737 10.545-52.737zm-167.992 0h42.177l-52.722 52.737 10.545-52.737zm-167.993 0h42.179l-52.723 52.737 10.544-52.737zm-167.991 0h42.177l-52.721 52.737 10.544-52.737zm-167.992 0h42.177L65.301 556.62l10.544-52.737zm-167.993 0h42.18l-52.723 52.737 10.543-52.737zm-167.99 0h42.176l-52.721 52.737 10.544-52.737zm-167.993 0h42.177l-52.721 52.737 10.544-52.737zm-167.992 0h42.179l-52.723 52.737 10.544-52.737zm-167.991 0h42.177l-52.722 52.737 10.545-52.737zm-167.992 0h42.177l-52.722 52.737 10.545-52.737zm-167.993 0h42.179l-52.723 52.737 10.544-52.737zm-167.99 0h42.176l-52.721 52.737 10.544-52.737zm2734.197.94l34.752 46.352.872.629 35.998 12.002.568.093h24.907l-25.475 8.495-.871.628-34.753 46.353-58.531-58.55-1.272-.527h-31.652l55.457-55.475zm-167.992 0l34.752 46.352.872.629 35.999 12.002.568.093h24.906l-25.474 8.495-.872.628-34.753 46.353-58.53-58.55-1.273-.527h-31.653l55.458-55.475zm-167.992 0l34.752 46.352.871.629 35.999 12.002.569.093h24.907l-25.476 8.495-.872.628-34.752 46.353-58.53-58.55-1.273-.527h-31.652l55.457-55.475zm-167.993 0l34.754 46.352.87.629 35.999 12.002.569.093h24.907l-25.476 8.495-.871.628-34.753 46.353-58.53-58.55-1.273-.527h-31.652l55.456-55.475zm-167.99 0l34.752 46.352.87.629 35.999 12.002.569.093h24.907l-25.476 8.495-.871.628-34.752 46.353-58.53-58.55-1.273-.527h-31.654l55.458-55.475zm-167.992 0l34.75 46.352.872.629 35.998 12.002.57.093h24.908l-25.478 8.495-.87.628-34.752 46.353-58.53-58.55-1.273-.527H570.69l55.458-55.475zm-167.992 0l34.752 46.352.87.629 36 12.002.568.093h24.907l-25.476 8.495-.87.628-34.753 46.353-58.531-58.55-1.271-.527h-31.654l55.458-55.475zm-167.992 0l34.752 46.352.871.629 35.998 12.002.57.093h24.906l-25.476 8.495-.87.628-34.753 46.353-58.53-58.55-1.273-.527h-31.654l55.459-55.475zm-167.992 0l34.751 46.352.872.629 35.998 12.002.57.093h24.907l-25.477 8.495-.872.628-34.75 46.353-58.531-58.55-1.273-.527H66.716l55.457-55.475zm-167.992 0l34.752 46.352.871.629 35.999 12.002.569.093h24.906l-25.475 8.495-.871.628-34.753 46.353-58.53-58.55-1.272-.527h-31.653l55.457-55.475zm-167.992 0l34.752 46.352.871.629 35.999 12.002.57.093h24.905l-25.475 8.495-.871.628-34.753 46.353-58.53-58.55-1.273-.527h-31.653l55.458-55.475zm-167.992 0l34.752 46.352.872.629 35.998 12.002.569.093h24.908l-25.477 8.495-.872.628-34.752 46.353-58.53-58.55-1.273-.527h-31.652l55.457-55.475zm-167.992 0l34.753 46.352.87.629 35.999 12.002.569.093h24.907l-25.476 8.495-.871.628-34.752 46.353-58.532-58.55-1.271-.527h-31.653l55.457-55.475zm-167.992 0l34.753 46.352.87.629 35.999 12.002.569.093h24.907l-25.476 8.495-.87.628-34.753 46.353-58.53-58.55-1.273-.527h-31.654l55.458-55.475zm-167.991 0l34.75 46.352.873.629 35.998 12.002.57.093h24.907l-25.477 8.495-.872.628-34.751 46.353-58.53-58.55-1.273-.527h-31.653l55.458-55.475zm-167.992 0l34.752 46.352.871.629 35.998 12.002.57.093h24.906l-25.476 8.495-.87.628-34.753 46.353-58.531-58.55-1.272-.527h-31.653l55.458-55.475zm-167.992 0l34.752 46.352.871.629 35.998 12.002.57.093h24.906l-25.476 8.495-.87.628-34.753 46.353-58.53-58.55-1.273-.527h-31.653l55.458-55.475zm2728.45 44.838l72.308-41.332-41.319 51.665-30.989-10.333zm-167.99 0l72.306-41.332-41.318 51.665-30.989-10.333zm-167.993 0l72.307-41.332-41.318 51.665-30.989-10.333zm-167.992 0l72.306-41.332-41.317 51.665-30.989-10.333zm-167.992 0l72.306-41.332-41.317 51.665-30.989-10.333zm-167.991 0l72.305-41.332-41.317 51.665-30.988-10.333zm-167.992 0l72.305-41.332-41.317 51.665-30.988-10.333zm-167.992 0l72.306-41.332-41.318 51.665-30.988-10.333zm-167.992 0l72.305-41.332-41.317 51.665-30.988-10.333zm-167.992 0l72.306-41.332-41.317 51.665-30.989-10.333zm-167.992 0l72.307-41.332-41.318 51.665-30.989-10.333zm-167.992 0l72.306-41.332-41.317 51.665-30.989-10.333zm-167.992 0l72.307-41.332-41.318 51.665-30.989-10.333zm-167.991 0l72.306-41.332-41.318 51.665-30.988-10.333zm-167.992 0l72.305-41.332-41.317 51.665-30.988-10.333zm-167.992 0l72.306-41.332-41.318 51.665-30.988-10.333zm-167.992 0l72.306-41.332-41.318 51.665-30.988-10.333zm-167.992 0l72.305-41.332-41.317 51.665-30.988-10.333zm2932.253-40.677l-10.258 51.314h-30.779l41.037-51.314zm-167.99 0l-10.26 51.314h-30.779l41.038-51.314zm-167.993 0l-10.26 51.314h-30.777l41.037-51.314zm-167.992 0l-10.259 51.314h-30.778l41.037-51.314zm-167.992 0l-10.259 51.314h-30.778l41.037-51.314zm-167.992 0l-10.26 51.314h-30.777l41.037-51.314zm-167.992 0l-10.259 51.314h-30.778l41.037-51.314zm-167.99 0l-10.26 51.314H366.1l41.038-51.314zm-167.994 0l-10.26 51.314h-30.777l41.037-51.314zm-167.992 0l-10.258 51.314H30.116l41.037-51.314zm-167.99 0l-10.26 51.314h-30.779l41.038-51.314zm-167.993 0l-10.26 51.314h-30.777l41.037-51.314zm-167.992 0l-10.259 51.314h-30.778l41.037-51.314zm-167.991 0l-10.26 51.314h-30.777l41.037-51.314zm-167.993 0l-10.26 51.314h-30.777l41.037-51.314zm-167.992 0l-10.258 51.314h-30.779l41.037-51.314zm-167.99 0l-10.26 51.314h-30.778l41.037-51.314zm-167.994 0l-10.26 51.314h-30.777l41.037-51.314zm2816.141 65.328l31.23-10.413h34.301l10.779 43.128-76.31-32.715zm-167.993 0l31.232-10.413h34.3l10.779 43.128-76.31-32.715zm-167.99 0l31.23-10.413h34.3l10.779 43.128-76.31-32.715zm-167.991 0l31.228-10.413h34.301l10.779 43.128-76.308-32.715zm-167.993 0l31.23-10.413h34.3l10.779 43.128-76.31-32.715zm-167.991 0l31.228-10.413h34.3l10.78 43.128-76.308-32.715zm-167.992 0l31.228-10.413h34.302l10.778 43.128-76.308-32.715zm-167.993 0l31.23-10.413h34.3l10.78 43.128-76.31-32.715zm-167.99 0l31.228-10.413h34.3l10.78 43.128-76.309-32.715zm-167.993 0L62.662 563.9h34.301l10.779 43.128-76.309-32.715zm-167.993 0l31.23-10.413h34.301l10.779 43.128-76.31-32.715zm-167.99 0l31.228-10.413h34.3l10.78 43.128-76.308-32.715zm-167.992 0l31.228-10.413h34.301l10.779 43.128-76.308-32.715zm-167.993 0l31.23-10.413h34.3l10.78 43.128-76.31-32.715zm-167.991 0l31.228-10.413h34.302l10.778 43.128-76.308-32.715zm-167.992 0l31.228-10.413h34.302l10.78 43.128-76.31-32.715zm-167.992 0l31.229-10.413h34.3l10.78 43.128-76.309-32.715zm-167.992 0l31.229-10.413h34.301l10.78 43.128-76.31-32.715zM1623.78 608.63l-10.161-40.66 50.806 50.824-40.645-10.164zm-167.993 0l-10.16-40.66 50.806 50.824-40.646-10.164zm-167.99 0l-10.163-40.66 50.808 50.824-40.645-10.164zm-167.992 0l-10.162-40.66 50.807 50.824-40.645-10.164zm-167.993 0l-10.16-40.66 50.806 50.824-40.646-10.164zm-167.991 0l-10.163-40.66 50.808 50.824-40.645-10.164zm-167.992 0l-10.161-40.66 50.806 50.824-40.645-10.164zm-167.993 0l-10.16-40.66 50.806 50.824-40.646-10.164zm-167.99 0l-10.163-40.66 50.807 50.824-40.645-10.164zm-167.993 0l-10.161-40.66 50.806 50.824-40.645-10.164zm-167.992 0l-10.161-40.66 50.807 50.824-40.646-10.164zm-167.991 0l-10.163-40.66 50.808 50.824-40.645-10.164zm-167.992 0l-10.162-40.66 50.807 50.824-40.645-10.164zm-167.993 0l-10.16-40.66 50.806 50.824-40.646-10.164zm-167.991 0l-10.163-40.66 50.808 50.824-40.645-10.164zm-167.992 0l-10.161-40.66 50.806 50.824-40.645-10.164zm-167.993 0l-10.16-40.66 50.806 50.824-40.646-10.164zm-167.99 0l-10.163-40.66 50.807 50.824-40.645-10.164zm2736.76 13.318l34.212-45.631 78.576 33.686-90.714 34.027-22.075-22.082zm-167.993 0l34.214-45.631 78.575 33.686-90.713 34.027-22.076-22.082zm-167.992 0l34.214-45.631 78.575 33.686-90.714 34.027-22.075-22.082zm-167.992 0l34.214-45.631 78.575 33.686-90.713 34.027-22.076-22.082zm-167.991 0l34.213-45.631 78.575 33.686-90.713 34.027-22.075-22.082zm-167.992 0l34.213-45.631 78.575 33.686-90.712 34.027-22.076-22.082zm-167.992 0l34.213-45.631 78.575 33.686-90.712 34.027-22.076-22.082zm-167.992 0l34.213-45.631 78.575 33.686-90.712 34.027-22.076-22.082zm-167.992 0l34.213-45.631 78.577 33.686-90.714 34.027-22.076-22.082zm-167.992 0l34.213-45.631 78.576 33.686-90.713 34.027-22.076-22.082zm-167.992 0l34.214-45.631 78.575 33.686-90.713 34.027-22.076-22.082zm-167.992 0l34.214-45.631 78.576 33.686-90.714 34.027-22.076-22.082zm-167.992 0l34.214-45.631 78.575 33.686-90.713 34.027-22.076-22.082zm-167.991 0l34.213-45.631 78.575 33.686-90.711 34.027-22.077-22.082zm-167.992 0l34.213-45.631 78.575 33.686-90.712 34.027-22.076-22.082zm-167.992 0l34.213-45.631 78.575 33.686-90.712 34.027-22.076-22.082zm-167.992 0l34.213-45.631 78.576 33.686-90.712 34.027-22.077-22.082zm-167.992 0l34.213-45.631 78.576 33.686-90.713 34.027-22.076-22.082zm2882.61 24.176l90.416-33.917 34.879 34.89 11.075 33.237h-45.174l-91.195-34.21zm-167.991 0l90.416-33.917 34.878 34.89 11.075 33.237h-45.174l-91.195-34.21zm-167.992 0l90.416-33.917 34.878 34.89 11.075 33.237h-45.172l-91.197-34.21zm-167.992 0l90.417-33.917 34.877 34.89 11.076 33.237h-45.174l-91.196-34.21zm-167.992 0l90.417-33.917 34.877 34.89 11.076 33.237h-45.174l-91.196-34.21zm-167.992 0l90.417-33.917 34.877 34.89 11.076 33.237h-45.173l-91.197-34.21zm-167.992 0l90.417-33.917 34.877 34.89 11.076 33.237H614.67l-91.196-34.21zm-167.991 0l90.416-33.917 34.878 34.89 11.075 33.237h-45.174l-91.195-34.21zm-167.992 0l90.416-33.917 34.878 34.89 11.075 33.237h-45.173l-91.196-34.21zm-167.991 0l90.415-33.917 34.878 34.89 11.075 33.237h-45.174L19.5 646.123zm-167.993 0l90.417-33.917 34.877 34.89 11.075 33.237h-45.173l-91.196-34.21zm-167.992 0l90.417-33.917 34.877 34.89 11.075 33.237h-45.172l-91.197-34.21zm-167.99 0l90.415-33.917 34.877 34.89 11.076 33.237h-45.174l-91.195-34.21zm-167.994 0l90.418-33.917 34.876 34.89 11.076 33.237h-45.174l-91.196-34.21zm-167.992 0l90.417-33.917 34.877 34.89 11.076 33.237h-45.173l-91.197-34.21zm-167.99 0l90.415-33.917 34.877 34.89 11.076 33.237h-45.174l-91.194-34.21zm-167.993 0l90.417-33.917 34.877 34.89 11.075 33.237h-45.174l-91.195-34.21zm-167.992 0l90.416-33.917 34.878 34.89 11.075 33.237h-45.173l-91.196-34.21zm2828.351 35.163l-11.906-35.732-.435-.704-31.404-31.413 41.21 10.306 23.647 23.652.64.413 92.407 34.664-79.289 45.323-34.87-46.51zm-167.992 0l-11.906-35.732-.436-.704-31.403-31.413 41.21 10.306 23.646 23.652.641.413 92.406 34.664-79.287 45.323-34.87-46.51zm-167.99 0l-11.908-35.732-.436-.704-31.402-31.413 41.21 10.306 23.646 23.652.64.413 92.406 34.664-79.288 45.323-34.869-46.51zm-167.994 0l-11.906-35.732-.435-.704-31.403-31.413 41.21 10.306 23.646 23.652.64.413 92.407 34.664-79.288 45.323-34.87-46.51zm-167.991 0l-11.907-35.732-.436-.704-31.402-31.413 41.21 10.306 23.646 23.652.64.413 92.406 34.664-79.287 45.323-34.87-46.51zm-167.991 0l-11.908-35.732-.436-.704-31.401-31.413 41.21 10.306 23.646 23.652.64.413 92.405 34.664-79.288 45.323-34.868-46.51zm-167.993 0l-11.907-35.732-.435-.704-31.403-31.413 41.21 10.306 23.647 23.652.64.413 92.406 34.664-79.288 45.323-34.87-46.51zm-167.992 0l-11.906-35.732-.435-.704-31.404-31.413 41.212 10.306 23.644 23.652.64.413 92.406 34.664-79.287 45.323-34.87-46.51zm-167.99 0l-11.908-35.732-.436-.704-31.402-31.413 41.21 10.306 23.646 23.652.641.413 92.405 34.664-79.289 45.323-34.868-46.51zm-167.994 0l-11.906-35.732-.435-.704-31.404-31.413 41.211 10.306L13.1 647.395l.641.413 92.406 34.664-79.289 45.323-34.87-46.51zm-167.992 0l-11.906-35.732-.435-.704-31.404-31.413 41.212 10.306 23.644 23.652.641.413 92.406 34.664-79.287 45.323-34.87-46.51zm-167.99 0l-11.908-35.732-.436-.704-31.401-31.413 41.21 10.306 23.645 23.652.641.413 92.405 34.664-79.288 45.323-34.869-46.51zm-167.993 0l-11.907-35.732-.435-.704-31.403-31.413 41.21 10.306 23.647 23.652.64.413 92.406 34.664-79.288 45.323-34.87-46.51zm-167.992 0l-11.907-35.732-.436-.704-31.402-31.413 41.212 10.306 23.645 23.652.64.413 92.405 34.664-79.287 45.323-34.87-46.51zm-167.991 0l-11.908-35.732-.436-.704-31.401-31.413 41.21 10.306 23.646 23.652.64.413 92.405 34.664-79.288 45.323-34.868-46.51zm-167.993 0l-11.907-35.732-.435-.704-31.403-31.413 41.211 10.306 23.646 23.652.64.413 92.406 34.664-79.288 45.323-34.87-46.51zm-167.992 0l-11.906-35.732-.435-.704-31.404-31.413 41.212 10.306 23.644 23.652.64.413 92.406 34.664-79.287 45.323-34.87-46.51zm2807.725 2.648h42.176l-52.721 52.737 10.545-52.738zm-167.993 0h42.178l-52.721 52.737 10.543-52.738zm-167.99 0h42.177l-52.722 52.737 10.545-52.738zm-167.992 0h42.177l-52.723 52.737 10.546-52.738zm-167.993 0h42.179l-52.723 52.737 10.544-52.738zm-167.991 0h42.177l-52.722 52.737 10.545-52.738zm-167.992 0h42.177l-52.721 52.737 10.544-52.738zm-167.993 0h42.18l-52.723 52.737 10.543-52.738zm-167.99 0h42.176l-52.721 52.737 10.544-52.738zm-167.993 0h42.177L101.3 736.67l10.544-52.738zm-167.992 0h42.178l-52.722 52.737 10.544-52.738zm-167.991 0h42.177l-52.722 52.737 10.545-52.738zm-167.992 0h42.177l-52.722 52.737 10.545-52.738zm-167.993 0h42.179l-52.723 52.737 10.544-52.738zm-167.991 0h42.177l-52.722 52.737 10.545-52.738zm-167.992 0h42.177l-52.721 52.737 10.544-52.738zm-167.993 0h42.18l-52.723 52.737 10.543-52.738zm-167.99 0h42.176l-52.721 52.737 10.544-52.738zM1410.65 743.95h31.652l1.272-.527 58.531-58.55 34.753 46.353.871.629 25.475 8.494h-24.907l-.568.092-35.998 12.003-.872.629-34.752 46.352-55.457-55.475zm-167.993 0h31.653l1.273-.527 58.53-58.55 34.753 46.353.872.629 25.474 8.494h-24.906l-.568.092-35.999 12.003-.872.629-34.752 46.352-55.458-55.475zm-167.991 0h31.652l1.272-.527 58.531-58.55 34.752 46.353.872.629 25.476 8.494h-24.907l-.57.092-35.998 12.003-.871.629-34.752 46.352-55.457-55.475zm-167.992 0h31.652l1.272-.527 58.53-58.55 34.754 46.353.87.629 25.477 8.494h-24.907l-.57.092-35.997 12.003-.871.629-34.754 46.352-55.456-55.475zm-167.993 0h31.654l1.273-.527 58.53-58.55 34.752 46.353.871.629 25.476 8.494H866.33l-.569.092-35.998 12.003-.871.629-34.753 46.352-55.458-55.475zm-167.99 0h31.652l1.273-.527 58.53-58.55 34.751 46.353.871.629 25.478 8.494h-24.908l-.57.092-35.998 12.003-.871.629-34.751 46.352-55.458-55.475zm-167.993 0h31.654l1.27-.527 58.532-58.55 34.752 46.353.871.629 25.476 8.494h-24.907l-.569.092-35.998 12.003-.871.629-34.752 46.352-55.458-55.475zm-167.993 0h31.654l1.273-.527 58.53-58.55 34.752 46.353.871.629 25.476 8.494h-24.906l-.57.092-35.998 12.003-.87.629-34.753 46.352-55.459-55.475zm-167.99 0h31.652l1.273-.527 58.53-58.55 34.751 46.353.872.629 25.477 8.494h-24.908l-.569.092-35.998 12.003-.872.629-34.751 46.352-55.457-55.475zm-167.992 0h31.653l1.271-.527 58.531-58.55 34.753 46.353.87.629 25.476 8.494H26.372l-.57.092-35.998 12.003-.87.629-34.753 46.352-55.457-55.475zm-167.993 0h31.653l1.273-.527 58.53-58.55 34.753 46.353.87.629 25.476 8.494h-24.905l-.57.092-35.999 12.003-.87.629-34.753 46.352-55.458-55.475zm-167.991 0h31.652l1.273-.527 58.53-58.55 34.752 46.353.872.629 25.477 8.494h-24.908l-.57.092-35.997 12.003-.872.629-34.752 46.352-55.457-55.475zm-167.992 0h31.653l1.271-.527 58.532-58.55 34.752 46.353.87.629 25.477 8.494h-24.907l-.57.092-35.997 12.003-.871.629-34.753 46.352-55.457-55.475zm-167.993 0h31.654l1.273-.527 58.53-58.55 34.752 46.353.871.629 25.476 8.494h-24.907l-.569.092-35.998 12.003-.871.629-34.753 46.352-55.458-55.475zm-167.99 0h31.652l1.273-.527 58.53-58.55 34.751 46.353.872.629 25.477 8.494h-24.908l-.569.092-35.998 12.003-.872.629-34.751 46.352-55.458-55.475zm-167.993 0h31.653l1.272-.527 58.531-58.55 34.752 46.353.871.629 25.476 8.494h-24.907l-.569.092-35.998 12.003-.871.629-34.752 46.352-55.458-55.475zm-167.992 0h31.653l1.273-.527 58.53-58.55 34.752 46.353.871.629 25.476 8.494h-24.907l-.569.092-35.998 12.003-.87.629-34.753 46.352-55.458-55.475zm2819.906-14.238l72.309-41.332-41.32 51.665-30.989-10.333zm-167.99 0l72.306-41.332-41.318 51.665-30.989-10.333zm-167.993 0l72.307-41.332-41.318 51.665-30.989-10.333zm-167.991 0l72.305-41.332-41.317 51.665-30.988-10.333zm-167.992 0l72.305-41.332-41.317 51.665-30.988-10.333zm-167.992 0l72.305-41.332-41.317 51.665-30.988-10.333zm-167.992 0l72.305-41.332-41.317 51.665-30.988-10.333zm-167.992 0l72.307-41.332-41.318 51.665-30.989-10.333zm-167.992 0l72.306-41.332-41.317 51.665-30.989-10.333zm-167.992 0l72.306-41.332-41.317 51.665-30.989-10.333zm-167.992 0l72.307-41.332-41.318 51.665-30.989-10.333zm-167.991 0l72.305-41.332-41.317 51.665-30.988-10.333zm-167.992 0l72.306-41.332-41.318 51.665-30.988-10.333zm-167.992 0l72.306-41.332-41.318 51.665-30.988-10.333zm-167.992 0l72.305-41.332-41.317 51.665-30.988-10.333zm-167.992 0l72.307-41.332-41.318 51.665-30.989-10.333zm-167.992 0l72.307-41.332-41.318 51.665-30.989-10.333zm-167.992 0l72.306-41.332-41.317 51.665-30.989-10.333zm2932.254-40.677l-10.259 51.314h-30.778l41.037-51.314zm-167.991 0l-10.26 51.314h-30.778l41.038-51.314zm-167.993 0l-10.26 51.314h-30.777l41.037-51.314zm-167.992 0l-10.259 51.314h-30.778l41.037-51.314zm-167.992 0l-10.258 51.314h-30.779l41.037-51.314zm-167.992 0l-10.26 51.314h-30.777l41.037-51.314zm-167.992 0l-10.258 51.314H570.09l41.037-51.314zm-167.99 0l-10.26 51.314h-30.779l41.038-51.314zm-167.994 0l-10.259 51.314h-30.778l41.037-51.314zm-167.991 0l-10.259 51.314H66.115l41.037-51.314zm-167.991 0l-10.26 51.314h-30.778l41.038-51.314zm-167.993 0l-10.26 51.314h-30.777l41.037-51.314zm-167.992 0l-10.259 51.314h-30.778l41.037-51.314zm-167.99 0l-10.26 51.314h-30.778l41.037-51.314zm-167.994 0l-10.26 51.314h-30.777l41.037-51.314zm-167.992 0l-10.258 51.314h-30.779l41.037-51.314zm-167.99 0l-10.26 51.314h-30.778l41.037-51.314zm-167.993 0l-10.26 51.314h-30.777l41.037-51.314zm2744.144 65.328l31.23-10.413h34.3l10.78 43.128-76.31-32.715zm-167.993 0l31.232-10.413h34.3l10.778 43.128-76.31-32.715zm-167.99 0l31.23-10.413h34.299l10.78 43.128-76.309-32.715zm-167.992 0l31.229-10.413h34.301l10.779 43.128-76.309-32.715zm-167.993 0l31.23-10.413h34.301l10.779 43.128-76.31-32.715zm-167.99 0l31.228-10.413h34.3l10.78 43.128-76.308-32.715zm-167.992 0l31.228-10.413h34.301l10.779 43.128-76.308-32.715zm-167.993 0l31.23-10.413h34.3l10.78 43.128-76.31-32.715zm-167.991 0l31.228-10.413h34.3l10.78 43.128-76.308-32.715zm-167.992 0l31.229-10.413h34.3l10.78 43.128-76.309-32.715zm-167.993 0l31.23-10.413h34.301l10.778 43.128-76.309-32.715zm-167.99 0l31.228-10.413h34.3l10.78 43.128-76.309-32.715zm-167.993 0l31.229-10.413h34.301l10.779 43.128-76.309-32.715zm-167.993 0l31.23-10.413h34.301l10.779 43.128-76.31-32.715zm-167.99 0l31.228-10.413h34.301l10.779 43.128-76.308-32.715zm-167.992 0l31.228-10.413h34.302l10.779 43.128-76.31-32.715zm-167.992 0l31.228-10.413h34.302l10.778 43.128-76.308-32.715zm-167.992 0l31.228-10.413h34.302l10.78 43.128-76.31-32.715zm2936.281 34.316l-10.161-40.66 50.806 50.824-40.645-10.164zm-167.993 0l-10.16-40.66 50.806 50.824-40.646-10.164zm-167.99 0l-10.163-40.66 50.807 50.824-40.645-10.164zm-167.993 0l-10.161-40.66 50.806 50.824-40.645-10.164zm-167.992 0l-10.161-40.66 50.807 50.824-40.646-10.164zm-167.991 0l-10.163-40.66 50.808 50.824-40.645-10.164zm-167.992 0l-10.162-40.66 50.807 50.824-40.645-10.164zm-167.993 0l-10.16-40.66 50.806 50.824-40.646-10.164zm-167.991 0l-10.163-40.66 50.808 50.824-40.645-10.164zm-167.992 0l-10.161-40.66 50.806 50.824-40.645-10.164zm-167.993 0l-10.16-40.66 50.806 50.824-40.646-10.164zm-167.99 0l-10.163-40.66 50.807 50.824-40.645-10.164zm-167.993 0l-10.161-40.66 50.807 50.824-40.646-10.164zm-167.992 0l-10.16-40.66 50.806 50.824-40.646-10.164zm-167.991 0l-10.163-40.66 50.808 50.824-40.645-10.164zm-167.992 0l-10.162-40.66 50.807 50.824-40.645-10.164zm-167.993 0l-10.16-40.66 50.806 50.824-40.646-10.164zm-167.99 0l-10.163-40.66 50.807 50.824-40.645-10.164zm2736.759 13.318l34.213-45.631 78.575 33.686-90.713 34.027-22.075-22.082zm-167.992 0l34.213-45.631 78.575 33.686-90.712 34.027-22.076-22.082zm-167.992 0l34.213-45.631 78.576 33.686-90.713 34.027-22.076-22.082zm-167.992 0l34.214-45.631 78.575 33.686-90.713 34.027-22.076-22.082zm-167.992 0l34.214-45.631 78.575 33.686-90.713 34.027-22.076-22.082zm-167.992 0l34.214-45.631 78.575 33.686-90.713 34.027-22.076-22.082zm-167.991 0l34.213-45.631 78.575 33.686-90.713 34.027-22.075-22.082zm-167.992 0l34.213-45.631 78.575 33.686-90.712 34.027-22.076-22.082zm-167.992 0l34.213-45.631 78.576 33.686-90.713 34.027-22.076-22.082zm-167.992 0l34.213-45.631 78.575 33.686-90.712 34.027-22.076-22.082zm-167.992 0l34.213-45.631 78.576 33.686-90.713 34.027-22.076-22.082zm-167.992 0l34.213-45.631 78.577 33.686-90.714 34.027-22.076-22.082zm-167.992 0l34.214-45.631 78.575 33.686-90.713 34.027-22.076-22.082zm-167.992 0l34.214-45.631 78.575 33.686-90.712 34.027-22.077-22.082zm-167.992 0l34.214-45.631 78.575 33.686-90.713 34.027-22.076-22.082zm-167.991 0l34.213-45.631 78.575 33.686-90.712 34.027-22.076-22.082zm-167.992 0l34.213-45.631 78.575 33.686-90.711 34.027-22.077-22.082zm-167.992 0l34.213-45.631 78.575 33.686-90.712 34.027-22.076-22.082zm2882.61 24.176l90.416-33.917 34.878 34.89 11.076 33.236h-45.174l-91.195-34.21zm-167.991 0l90.415-33.917 34.879 34.89 11.075 33.236h-45.174l-91.195-34.21zm-167.992 0l90.415-33.917 34.879 34.89 11.075 33.236h-45.173l-91.196-34.21zm-167.992 0l90.417-33.917 34.877 34.89 11.075 33.236h-45.174l-91.195-34.21zm-167.992 0l90.417-33.917 34.877 34.89 11.075 33.236h-45.173l-91.196-34.21zm-167.992 0l90.417-33.917 34.877 34.89 11.076 33.236h-45.173l-91.197-34.21zm-167.992 0l90.417-33.917 34.877 34.89 11.076 33.236h-45.174l-91.196-34.21zm-167.992 0l90.417-33.917 34.877 34.89 11.076 33.236H410.68l-91.196-34.21zm-167.992 0l90.417-33.917 34.877 34.89 11.076 33.236h-45.173l-91.197-34.21zm-167.99 0l90.415-33.917 34.878 34.89 11.075 33.236H74.696l-91.194-34.21zm-167.993 0l90.416-33.917 34.878 34.89 11.075 33.236h-45.174l-91.195-34.21zm-167.992 0l90.416-33.917 34.878 34.89 11.075 33.236h-45.173l-91.196-34.21zm-167.992 0l90.417-33.917 34.877 34.89 11.075 33.236h-45.173l-91.196-34.21zm-167.992 0l90.417-33.917 34.877 34.89 11.075 33.236h-45.173l-91.196-34.21zm-167.992 0l90.417-33.917 34.877 34.89 11.076 33.236h-45.173l-91.197-34.21zm-167.99 0l90.415-33.917 34.877 34.89 11.076 33.236h-45.174l-91.195-34.21zm-167.994 0l90.418-33.917 34.876 34.89 11.076 33.236h-45.174l-91.196-34.21zm-167.991 0l90.416-33.917 34.877 34.89 11.076 33.236h-45.173l-91.196-34.21zm2828.35 35.163l-11.906-35.732-.435-.704-31.403-31.414 41.21 10.307 23.647 23.652.64.413 92.406 34.664-79.288 45.323-34.87-46.51zm-167.991 0l-11.906-35.732-.436-.704-31.403-31.414 41.21 10.307 23.646 23.652.64.413 92.406 34.664-79.287 45.323-34.87-46.51zm-167.99 0l-11.908-35.732-.436-.704-31.402-31.414 41.21 10.307 23.646 23.652.64.413 92.406 34.664-79.289 45.323-34.868-46.51zm-167.994 0l-11.906-35.732-.435-.704-31.404-31.414 41.211 10.307 23.646 23.652.64.413 92.407 34.664-79.288 45.323-34.87-46.51zm-167.992 0l-11.906-35.732-.436-.704-31.403-31.414 41.211 10.307 23.645 23.652.641.413 92.406 34.664-79.287 45.323-34.87-46.51zm-167.99 0l-11.908-35.732-.436-.704-31.401-31.414 41.21 10.307 23.645 23.652.641.413 92.405 34.664-79.288 45.323-34.869-46.51zm-167.993 0l-11.907-35.732-.435-.704-31.403-31.414 41.21 10.307 23.647 23.652.64.413 92.406 34.664-79.288 45.323-34.87-46.51zm-167.992 0l-11.907-35.732-.435-.704-31.403-31.414 41.212 10.307 23.644 23.652.64.413 92.406 34.664-79.287 45.323-34.87-46.51zm-167.991 0l-11.908-35.732-.436-.704-31.401-31.414 41.21 10.307 23.646 23.652.64.413 92.405 34.664-79.288 45.323-34.868-46.51zm-167.993 0l-11.907-35.732-.434-.704-31.404-31.414 41.211 10.307 23.646 23.652.64.413 92.406 34.664-79.288 45.323-34.87-46.51zm-167.992 0l-11.906-35.732-.435-.704-31.404-31.414 41.212 10.307 23.644 23.652.641.413 92.406 34.664-79.288 45.323-34.87-46.51zm-167.99 0l-11.908-35.732-.436-.704-31.402-31.414 41.21 10.307 23.646 23.652.641.413 92.405 34.664-79.289 45.323-34.868-46.51zm-167.994 0l-11.906-35.732-.435-.704-31.404-31.414 41.211 10.307 23.646 23.652.64.413 92.407 34.664-79.288 45.323-34.87-46.51zm-167.992 0l-11.906-35.732-.436-.704-31.403-31.414 41.213 10.307 23.644 23.652.64.413 92.406 34.664-79.287 45.323-34.87-46.51zm-167.99 0l-11.908-35.732-.436-.704-31.401-31.414 41.21 10.307 23.645 23.652.641.413 92.405 34.664-79.288 45.323-34.868-46.51zm-167.993 0l-11.907-35.732-.435-.704-31.403-31.414 41.21 10.307 23.647 23.652.64.413 92.406 34.664-79.288 45.323-34.87-46.51zm-167.992 0l-11.907-35.732-.435-.704-31.403-31.414 41.212 10.307 23.644 23.652.64.413 92.406 34.664-79.287 45.323-34.87-46.51zm2807.725 2.647h42.176l-52.721 52.738 10.545-52.738zm-167.993 0h42.178l-52.721 52.738 10.543-52.738zm-167.99 0h42.176l-52.721 52.738 10.544-52.738zm-167.993 0h42.177l-52.722 52.738 10.545-52.738zm-167.992 0h42.178l-52.722 52.738 10.544-52.738zm-167.991 0h42.177l-52.722 52.738 10.545-52.738zm-167.992 0h42.177l-52.722 52.738 10.545-52.738zm-167.993 0h42.179l-52.723 52.738 10.544-52.738zm-167.991 0h42.177l-52.721 52.738 10.544-52.738zm-167.992 0h42.177l-52.721 52.738 10.544-52.738zm-167.993 0h42.18l-52.723 52.738 10.543-52.738zm-167.99 0h42.176l-52.721 52.738 10.544-52.738zm-167.993 0h42.177l-52.721 52.738 10.544-52.738zm-167.992 0h42.179l-52.723 52.738 10.544-52.738zm-167.991 0h42.177l-52.722 52.738 10.545-52.738zm-167.992 0h42.177l-52.722 52.738 10.545-52.738zm-167.993 0h42.179l-52.723 52.738 10.544-52.738zm-167.99 0h42.176l-52.721 52.738 10.544-52.738zm2774.777 45.78l72.308-41.333-41.319 51.665-30.989-10.333zm-167.99 0l72.306-41.333-41.318 51.665-30.989-10.333zm-167.993 0l72.307-41.333-41.318 51.665-30.989-10.333zm-167.992 0l72.306-41.333-41.317 51.665-30.989-10.333zm-167.992 0l72.306-41.333-41.317 51.665-30.989-10.333zm-167.991 0l72.305-41.333-41.317 51.665-30.988-10.333zm-167.992 0l72.305-41.333-41.317 51.665-30.988-10.333zm-167.992 0l72.306-41.333-41.318 51.665-30.988-10.333zm-167.992 0l72.305-41.333-41.317 51.665-30.988-10.333zm-167.992 0l72.306-41.333-41.317 51.665-30.989-10.333zm-167.992 0l72.307-41.333-41.318 51.665-30.989-10.333zm-167.992 0l72.306-41.333-41.317 51.665-30.989-10.333zm-167.992 0l72.307-41.333-41.318 51.665-30.989-10.333zm-167.991 0l72.306-41.333-41.318 51.665-30.988-10.333zm-167.992 0l72.305-41.333-41.317 51.665-30.988-10.333zm-167.992 0l72.306-41.333-41.318 51.665-30.988-10.333zm-167.992 0l72.306-41.333-41.318 51.665-30.988-10.333zm-167.992 0l72.305-41.333-41.317 51.665-30.988-10.333zm2932.253-40.678l-10.258 51.314h-30.779l41.037-51.314zm-167.99 0l-10.26 51.314h-30.779l41.038-51.314zm-167.993 0l-10.26 51.314h-30.777l41.037-51.314zm-167.992 0l-10.259 51.314h-30.778l41.037-51.314zm-167.992 0l-10.259 51.314h-30.778l41.037-51.314zm-167.992 0l-10.26 51.314h-30.777l41.037-51.314zm-167.992 0l-10.259 51.314h-30.778l41.037-51.314zm-167.99 0l-10.26 51.314H366.1l41.038-51.314zm-167.994 0l-10.26 51.314h-30.777l41.037-51.314zm-167.992 0l-10.258 51.314H30.116l41.037-51.314zm-167.99 0l-10.26 51.314h-30.779l41.038-51.314zm-167.993 0l-10.26 51.314h-30.777l41.037-51.314zm-167.992 0l-10.259 51.314h-30.778l41.037-51.314zm-167.991 0l-10.26 51.314h-30.777l41.037-51.314zm-167.993 0l-10.26 51.314h-30.777l41.037-51.314zm-167.992 0l-10.258 51.314h-30.779l41.037-51.314zm-167.99 0l-10.26 51.314h-30.778l41.037-51.314zm-167.994 0l-10.26 51.314h-30.777l41.037-51.314z" mask="url(#b)"/>
    </g>
</svg>
