<svg xmlns="http://www.w3.org/2000/svg" xmlns:xlink="http://www.w3.org/1999/xlink" width="2000" height="620" viewBox="0 0 2000 620">
    <defs>
        <path id="a" d="M0 0h2000v620H0z"/>
    </defs>
    <g fill="none" fill-rule="evenodd">
        <mask id="b" fill="#fff">
            <use xlink:href="#a"/>
        </mask>
        <use fill="#292A2E" fill-rule="nonzero" xlink:href="#a"/>
        <path fill="#FFF" fill-opacity=".05" d="M3341.408-412l-.741.121-47.01 15.674-1.14.82-45.383 60.533-76.436-76.46-1.661-.688h-47.01l-.742.121-47.01 15.674-1.14.82-45.383 60.533-76.435-76.46-1.662-.688h-47.01l-.744.121-47.01 15.674-1.14.82-45.381 60.533-76.437-76.46-1.66-.688h-47.011l-.743.121-47.01 15.674-1.138.82-45.385 60.533-76.435-76.46-1.66-.688h-47.011l-.743.121-47.01 15.674-1.138.82-45.383 60.533-76.436-76.46-1.662-.688h-47.01l-.745.121-47.01 15.674-1.138.82-45.382 60.533-76.435-76.46-1.662-.688h-47.01l-.744.121-47.01 15.674-1.137.82-45.384 60.533-76.436-76.46-1.66-.688h-47.01l-.745.121-47.01 15.674-1.138.82-45.383 60.533-76.435-76.46-1.662-.688h-47.01l-.744.121-47.01 15.674-1.139.82-45.382 60.533-76.435-76.46-1.663-.688h-47.01l-.743.121-47.01 15.674-1.138.82-45.383 60.533-76.437-76.46-1.66-.688h-47.01l-.744.121-47.01 15.674-1.138.82-45.383 60.533-76.435-76.46-1.663-.688h-47.01l-.743.121-47.01 15.674-1.14.82-45.382 60.533-76.435-76.46-1.662-.688h-47.01l-.743.121-47.01 15.674-1.138.82-45.384 60.533-76.436-76.46-1.661-.688h-47.01l-.744.121-47.01 15.674-1.137.82-45.384 60.533-76.435-76.46-1.662-.688h-47.01l-.744.121-47.01 15.674-1.139.82-45.382 60.533-76.435-76.46-1.662-.688h-47.01l-.744.121-47.01 15.674-1.138.82-45.383 60.533-76.437-76.46-1.66-.688h-47.011l-.743.121-47.01 15.674-1.138.82-45.383 60.533-76.435-76.46-1.663-.688h-47.01l-.743.121-47.01 15.674-1.14.82-47.01 62.702.22 3.073 31.341 31.35.837.54 120.673 45.267-103.544 59.187-45.765-61.041-3.762 2.822 47.01 62.7 1.14.82 33.271 11.094h-32.529l-.743.121-47.01 15.674-1.139.82-47.009 62.7v.019l.22 3.056 31.34 31.35.837.539 120.673 45.267-103.544 59.188-45.765-61.041-3.761 2.82v.003l47.01 62.7 1.138.82 47.01 15.674.743.121h32.529l-33.272 11.093-1.138.82-47.01 62.701.22 3.074 31.34 31.35.837.539 120.673 45.267-103.544 59.187-45.765-61.04-3.762 2.821 47.01 62.701 1.14.82 33.27 11.093H-435.1l-.743.122-47.01 15.674-1.139.82-47.009 62.7v.018l.22 3.056 31.34 31.35.837.54 120.673 45.267-103.544 59.187-45.765-61.04-3.761 2.82v.002l47.01 62.7 1.138.82 47.01 15.674.743.122h32.528l-33.27 11.093-1.14.82-47.01 62.701.22 3.072 31.341 31.35.837.54 120.673 45.268-103.544 59.187-45.765-61.04-3.762 2.82 47.01 62.7 1.14.822 33.27 11.093H-435.1l-.743.12-47.01 15.675-1.139.82-47.009 62.7v.019l.22 3.056 31.34 31.35.837.54 120.673 45.267-103.544 59.187-45.765-61.041-3.761 2.82v.003l47.01 62.698 1.138.822 47.01 15.674.743.121h32.528l-33.27 11.093-1.14.82-47.01 62.702.22 3.073 31.341 31.35.837.539 120.673 45.267-103.544 59.188-45.765-61.041-3.762 2.821 47.01 62.7 1.14.822 33.27 11.093H-435.1l-.743.12-47.01 15.675-1.139.82-47.009 62.7v.018l.22 3.057 31.34 31.35.837.539 120.673 45.267-103.544 59.187-45.765-61.04-3.761 2.82v.002l47.01 62.699 1.138.822 47.01 15.673.743.122h47.01l1.663-.688 76.435-76.46 45.384 60.53 1.137.823 47.01 15.673.743.122h47.011l1.661-.688 76.436-76.46 45.384 60.53 1.137.823 47.01 15.673.744.122h47.01l1.662-.688 76.436-76.46 45.382 60.53 1.138.823 47.01 15.673.744.122h47.01l1.663-.688 76.435-76.46 45.383 60.53 1.137.823 47.01 15.673.744.122h47.01l1.661-.688 76.437-76.46 45.383 60.53 1.138.823 47.01 15.673.743.122h47.01l1.663-.688 76.435-76.46 45.382 60.53 1.139.823 47.01 15.673.743.122h47.01l1.663-.688 76.435-76.46 45.384 60.53 1.137.823 47.01 15.673.745.122h47.01l1.66-.688 76.436-76.46 45.384 60.53 1.137.823 47.01 15.673.744.122h47.01l1.662-.688 76.435-76.46 45.383 60.53 1.138.823 47.01 15.673.744.122h47.01l1.663-.688 76.435-76.46 45.383 60.53 1.137.823 47.01 15.673.745.122h47.01l1.66-.688 76.437-76.46 45.383 60.53 1.138.823 47.01 15.673.743.122h47.01l1.663-.688 76.435-76.46 45.382 60.53 1.137.823 47.01 15.673.745.122h47.01l1.663-.688 76.435-76.46 45.383 60.53 1.138.823 47.01 15.673.743.122h47.01l1.662-.688 76.435-76.46 45.385 60.53 1.137.823 47.01 15.673.743.122h47.01l1.662-.688 76.436-76.46 45.382 60.53 1.14.823 47.01 15.673.743.122h47.01l1.662-.688 76.436-76.46 45.383 60.53 1.139.823 47.01 15.673.742.122h47.01l1.661-.688 76.437-76.46 45.383 60.53 1.139.823 47.01 15.673.742.122h47.01l1.661-.688 78.352-78.378.569-2.405-15.67-47.026-.57-.92-41.007-41.023 54.447 13.617 2.231-3.944-74.337-74.362h41.335l1.66-.688 78.353-78.378.568-2.405-15.67-47.025-.57-.92-41.007-41.022 54.447 13.615 2.232-3.942-78.352-78.378-1.661-.688h-41.335l74.338-74.364.568-2.404-15.67-47.026-.57-.92-41.007-41.023 54.447 13.616 2.231-3.942-74.337-74.363h41.335l1.66-.689 78.353-78.377.568-2.405-15.67-47.026-.57-.92-41.007-41.023 54.447 13.616 2.232-3.942-78.352-78.377-1.661-.689h-41.335l74.338-74.363.568-2.405-15.67-47.026-.57-.92-41.007-41.023 54.447 13.617 2.231-3.943-74.337-74.363h41.335l1.66-.688 78.353-78.378.568-2.405-15.67-47.026-.57-.92-41.007-41.021 54.447 13.615 2.232-3.944-78.352-78.376-1.661-.688h-41.335l74.338-74.363.568-2.406-15.67-47.025-.57-.92-41.007-41.022 54.447 13.615 2.231-3.944-74.337-74.362h41.335l1.66-.688 78.353-78.376.568-2.406-15.67-47.026-.57-.92-41.007-41.022 54.447 13.615 2.232-3.943-78.352-78.377-1.661-.688h-47.01zm-40.401 18.3l40.784-13.597h44.793l14.076 56.32-99.653-42.722zm-219.384 0l40.786-13.597h44.793l14.076 56.32-99.655-42.722zm-219.38 0l40.784-13.597h44.792l14.077 56.32-99.653-42.722zm-219.381 0l40.781-13.597h44.795l14.075 56.32-99.651-42.722zm-219.384 0l40.783-13.597h44.795l14.075 56.32-99.653-42.722zm-219.38 0l40.78-13.597h44.794l14.077 56.32-99.652-42.722zm-219.383 0l40.782-13.597h44.794l14.076 56.32-99.652-42.722zm-219.383 0l40.783-13.597h44.794l14.076 56.32-99.653-42.722zm-219.381 0l40.781-13.597h44.794l14.077 56.32-99.652-42.722zm-219.382 0l40.781-13.597h44.795l14.075 56.32-99.651-42.722zm-219.384 0l40.783-13.597h44.795l14.075 56.32-99.653-42.722zm-219.38 0l40.781-13.597h44.793l14.077 56.32-99.652-42.722zm-219.383 0l40.782-13.597h44.794l14.076 56.32-99.652-42.722zm-219.383 0l40.783-13.597h44.794l14.076 56.32-99.653-42.722zm-219.381 0l40.782-13.597h44.794l14.076 56.32-99.652-42.722zm-219.382 0l40.781-13.597h44.795l14.077 56.32-99.653-42.722zm-219.382 0l40.781-13.597h44.795l14.075 56.32-99.651-42.722zm-219.382 0l40.781-13.597h44.795l14.077 56.32-99.653-42.722zm3834.516 44.814l-13.27-53.099 66.349 66.373-53.079-13.274zm-219.383 0l-13.269-53.099 66.349 66.373-53.08-13.274zm-219.381 0l-13.271-53.099 66.35 66.373-53.08-13.274zm-219.382 0l-13.27-53.099 66.348 66.373-53.078-13.274zm-219.384 0l-13.268-53.099 66.348 66.373-53.08-13.274zm-219.38 0l-13.272-53.099 66.35 66.373-53.079-13.274zm-219.383 0l-13.27-53.099 66.349 66.373-53.079-13.274zm-219.383 0l-13.269-53.099 66.349 66.373-53.08-13.274zm-219.381 0l-13.271-53.099 66.35 66.373-53.079-13.274zm-219.382 0l-13.27-53.099 66.349 66.373-53.08-13.274zm-219.384 0l-13.268-53.099 66.348 66.373-53.08-13.274zm-219.38 0l-13.272-53.099 66.35 66.373-53.078-13.274zm-219.383 0l-13.27-53.099 66.35 66.373-53.08-13.274zm-219.383 0l-13.269-53.099 66.349 66.373-53.08-13.274zm-219.38 0l-13.272-53.099 66.35 66.373-53.079-13.274zm-219.383 0l-13.27-53.099 66.349 66.373-53.08-13.274zm-219.384 0l-13.268-53.099 66.348 66.373-53.08-13.274zm-219.38 0l-13.272-53.099 66.35 66.373-53.078-13.274zm3573.96 17.393l44.679-59.591 102.612 43.991-118.464 44.438-28.828-28.838zm-219.383 0l44.68-59.591 102.612 43.991-118.463 44.438-28.829-28.838zm-219.382 0l44.68-59.591 102.612 43.991-118.464 44.438-28.828-28.838zm-219.382 0l44.68-59.591 102.612 43.991-118.463 44.438-28.829-28.838zm-219.382 0l44.68-59.591 102.611 43.991-118.462 44.438-28.83-28.838zm-219.382 0l44.68-59.591 102.611 43.991-118.462 44.438-28.83-28.838zm-219.382 0l44.68-59.591 102.611 43.991-118.462 44.438-28.83-28.838zm-219.383 0l44.68-59.591 102.612 43.991-118.462 44.438-28.83-28.838zm-219.382 0l44.68-59.591 102.613 43.991-118.464 44.438-28.829-28.838zm-219.382 0l44.68-59.591 102.612 43.991-118.463 44.438-28.829-28.838zm-219.382 0l44.68-59.591 102.612 43.991-118.463 44.438-28.83-28.838zm-219.382 0l44.68-59.591 102.613 43.991-118.464 44.438-28.83-28.838zm-219.382 0l44.68-59.591 102.611 43.991-118.462 44.438-28.83-28.838zm-219.383 0l44.68-59.591 102.612 43.991-118.461 44.438-28.83-28.838zm-219.382 0l44.68-59.591 102.612 43.991-118.463 44.438-28.829-28.838zm-219.382 0l44.68-59.591 102.612 43.991-118.463 44.438-28.829-28.838zm-219.382 0l44.68-59.591 102.612 43.991-118.462 44.438-28.83-28.838zm-219.382 0l44.68-59.591 102.611 43.991-118.462 44.438-28.83-28.838zm3764.428 31.571l118.074-44.293 45.548 45.564 14.464 43.405h-58.993l-119.093-44.676zm-219.382 0l118.074-44.293 45.548 45.564 14.464 43.405h-58.993l-119.093-44.676zm-219.382 0l118.074-44.293 45.548 45.564 14.464 43.405h-58.992l-119.094-44.676zm-219.383 0l118.075-44.293 45.548 45.564 14.463 43.405h-58.992l-119.094-44.676zm-219.382 0l118.075-44.293 45.548 45.564 14.463 43.405h-58.993l-119.093-44.676zm-219.382 0l118.075-44.293 45.548 45.564 14.463 43.405h-58.991l-119.095-44.676zm-219.382 0l118.075-44.293 45.547 45.564 14.464 43.405h-58.993l-119.093-44.676zm-219.382 0l118.074-44.293 45.548 45.564 14.464 43.405h-58.993l-119.093-44.676zm-219.382 0l118.074-44.293 45.548 45.564 14.464 43.405h-58.992l-119.094-44.676zm-219.381 0l118.073-44.293 45.548 45.564 14.464 43.405h-58.993l-119.092-44.676zm-219.384 0l118.075-44.293 45.548 45.564 14.463 43.405h-58.993l-119.093-44.676zm-219.382 0l118.075-44.293 45.548 45.564 14.463 43.405h-58.991l-119.095-44.676zm-219.38 0l118.073-44.293 45.548 45.564 14.463 43.405H771.93l-119.092-44.676zm-219.384 0l118.074-44.293 45.548 45.564 14.464 43.405h-58.993l-119.093-44.676zm-219.382 0l118.074-44.293 45.548 45.564 14.464 43.405h-58.992l-119.094-44.676zm-219.381 0l118.073-44.293 45.548 45.564 14.464 43.405h-58.993L-5.308-299.922zm-219.384 0l118.075-44.293 45.548 45.564 14.463 43.405h-58.992l-119.094-44.676zm-219.382 0l118.075-44.293 45.548 45.564 14.463 43.405h-58.991l-119.095-44.676zm3693.57 45.92l-15.548-46.663-.568-.92-41.01-41.022 53.816 13.459 30.88 30.889.836.538 120.675 45.268-103.543 59.187-45.538-60.737zm-219.382 0l-15.548-46.663-.57-.92-41.009-41.022 53.817 13.459 30.88 30.889.836.538 120.674 45.268-103.542 59.187-45.538-60.737zm-219.383 0l-15.548-46.663-.569-.92-41.007-41.022 53.815 13.459 30.88 30.889.836.538 120.673 45.268-103.543 59.187-45.537-60.737zm-219.381 0l-15.549-46.663-.568-.92-41.01-41.022 53.817 13.459 30.88 30.889.836.538 120.675 45.268-103.544 59.187-45.537-60.737zm-219.384 0l-15.547-46.663-.57-.92-41.008-41.022 53.816 13.459 30.88 30.889.837.538 120.673 45.268-103.542 59.187-45.539-60.737zm-219.382 0l-15.547-46.663-.57-.92-41.007-41.022 53.815 13.459 30.881 30.889.837.538 120.672 45.268-103.543 59.187-45.538-60.737zm-219.38 0l-15.55-46.663-.567-.92-41.01-41.022 53.816 13.459 30.88 30.889.838.538 120.673 45.268-103.543 59.187-45.538-60.737zm-219.384 0l-15.547-46.663-.568-.92-41.01-41.022 53.816 13.459 30.88 30.889.836.538 120.674 45.268-103.542 59.187-45.539-60.737zm-219.38 0l-15.55-46.663-.569-.92-41.007-41.022 53.815 13.459 30.88 30.889.838.538 120.671 45.268-103.543 59.187-45.536-60.737zm-219.383 0l-15.549-46.663-.568-.92-41.01-41.022 53.817 13.459 30.88 30.889.837.538 120.674 45.268-103.543 59.187-45.538-60.737zm-219.383 0l-15.548-46.663-.568-.92-41.01-41.022 53.817 13.459 30.879 30.889.837.538 120.673 45.268-103.542 59.187-45.538-60.737zm-219.381 0l-15.549-46.663-.57-.92-41.007-41.022 53.815 13.459 30.881 30.889.837.538 120.672 45.268-103.543 59.187-45.536-60.737zm-219.382 0l-15.55-46.663-.567-.92-41.01-41.022 53.816 13.459 30.88 30.889.837.538 120.674 45.268-103.543 59.187-45.537-60.737zm-219.384 0l-15.547-46.663-.57-.92-41.008-41.022 53.816 13.459 30.88 30.889.837.538 120.673 45.268-103.542 59.187-45.539-60.737zm-219.38 0l-15.55-46.663-.569-.92-41.007-41.022 53.816 13.459 30.88 30.889.837.538 120.672 45.268-103.544 59.187-45.536-60.737zm-219.383 0l-15.549-46.663-.568-.92-41.01-41.022 53.817 13.459 30.88 30.889.836.538 120.675 45.268L4.302-193.266l-45.538-60.737zm-219.383 0l-15.548-46.663-.568-.92-41.01-41.022 53.817 13.459 30.879 30.889.837.538 120.673 45.268-103.542 59.187-45.538-60.737zm3666.635 3.457h55.078l-68.849 68.87 13.771-68.87zm-219.383 0h55.08l-68.849 68.87 13.769-68.87zm-219.38 0h55.078l-68.849 68.87 13.77-68.87zm-219.383 0h55.078l-68.85 68.87 13.772-68.87zm-219.383 0h55.08l-68.85 68.87 13.77-68.87zm-219.381 0h55.079l-68.85 68.87 13.77-68.87zm-219.382 0h55.077l-68.848 68.87 13.77-68.87zm-219.384 0h55.08l-68.849 68.87 13.77-68.87zm-219.38 0h55.079l-68.85 68.87 13.77-68.87zm-219.383 0h55.078l-68.848 68.87 13.77-68.87zm-219.383 0h55.08l-68.85 68.87 13.77-68.87zm-219.381 0h55.078l-68.848 68.87 13.77-68.87zm-219.382 0h55.078l-68.849 68.87 13.77-68.87zm-219.384 0h55.08l-68.849 68.87 13.77-68.87zm-219.38 0h55.079l-68.85 68.87 13.77-68.87zm-219.383 0h55.078l-68.848 68.87 13.77-68.87zm-219.383 0h55.08l-68.85 68.87 13.77-68.87zm-219.381 0h55.08l-68.85 68.87 13.77-68.87zM3127.7-172.169h41.336l1.66-.688 76.437-76.46 45.384 60.533 1.138.82 33.268 11.093h-32.526l-.742.121-47.01 15.674-1.139.82-45.383 60.533-72.423-72.446zm-219.383 0h41.337l1.662-.688 76.435-76.46 45.383 60.533 1.139.82 33.268 11.093h-32.526l-.742.121-47.01 15.674-1.14.82-45.382 60.533-72.424-72.446zm-219.38 0h41.334l1.661-.688 76.437-76.46 45.382 60.533 1.139.82 33.27 11.093h-32.527l-.743.121-47.01 15.674-1.14.82-45.382 60.533-72.422-72.446zm-219.383 0h41.335l1.661-.688 76.435-76.46 45.385 60.533 1.137.82 33.27 11.093h-32.527l-.743.121-47.01 15.674-1.137.82-45.385 60.533-72.421-72.446zm-219.383 0h41.336l1.662-.688 76.436-76.46 45.383 60.533 1.137.82 33.27 11.093h-32.527l-.743.121-47.01 15.674-1.138.82-45.383 60.533-72.423-72.446zm-219.381 0h41.335l1.662-.688 76.435-76.46 45.382 60.533 1.138.82 33.271 11.093h-32.527l-.744.121-47.01 15.674-1.138.82-45.382 60.533-72.422-72.446zm-219.382 0h41.336l1.66-.688 76.436-76.46 45.384 60.533 1.137.82 33.27 11.093h-32.527l-.743.121-47.01 15.674-1.138.82-45.383 60.533-72.422-72.446zm-219.384 0h41.337l1.662-.688 76.435-76.46 45.383 60.533 1.138.82 33.27 11.093h-32.526l-.744.121-47.01 15.674-1.138.82-45.383 60.533-72.424-72.446zm-219.38 0h41.334l1.663-.688 76.435-76.46 45.382 60.533 1.139.82 33.271 11.093h-32.528l-.743.121-47.01 15.674-1.14.82-45.382 60.533-72.422-72.446zm-219.383 0h41.337l1.66-.688 76.436-76.46 45.383 60.533 1.138.82 33.27 11.093h-32.527l-.743.121-47.01 15.674-1.138.82-45.384 60.533-72.422-72.446zm-219.383 0h41.336l1.663-.688 76.435-76.46 45.383 60.533 1.137.82 33.27 11.093h-32.525l-.745.121-47.01 15.674-1.137.82-45.384 60.533-72.423-72.446zm-219.381 0h41.335l1.662-.688 76.435-76.46 45.383 60.533 1.138.82 33.272 11.093h-32.529l-.743.121-47.01 15.674-1.139.82-45.382 60.533-72.422-72.446zm-219.382 0h41.335l1.66-.688 76.437-76.46 45.384 60.533 1.137.82 33.27 11.093h-32.527l-.743.121-47.01 15.674-1.138.82-45.383 60.533-72.422-72.446zm-219.384 0h41.337l1.662-.688 76.435-76.46 45.384 60.533 1.137.82 33.27 11.093H442.43l-.743.121-47.01 15.674-1.138.82-45.383 60.533-72.424-72.446zm-219.38 0h41.335l1.662-.688 76.435-76.46 45.382 60.533 1.139.82 33.271 11.093h-32.528l-.743.121-47.01 15.674-1.14.82-45.381 60.533-72.423-72.446zm-219.383 0h41.335l1.661-.688 76.437-76.46 45.383 60.533 1.138.82 33.27 11.093H3.666l-.743.121-47.01 15.674-1.138.82-45.384 60.533-72.422-72.446zm-219.383 0h41.336l1.663-.688 76.435-76.46 45.383 60.533 1.137.82 33.27 11.093h-32.527l-.743.121-47.01 15.674-1.137.82-45.384 60.533-72.423-72.446zm3682.542-18.593l94.426-53.975-53.957 67.469-40.469-13.494zm-219.38 0l94.424-53.975-53.957 67.469-40.468-13.494zm-219.383 0l94.424-53.975-53.956 67.469-40.468-13.494zm-219.382 0l94.424-53.975-53.956 67.469-40.468-13.494zm-219.382 0l94.424-53.975-53.956 67.469-40.468-13.494zm-219.382 0l94.424-53.975-53.956 67.469-40.468-13.494zm-219.383 0l94.425-53.975-53.956 67.469-40.469-13.494zm-219.382 0l94.426-53.975-53.958 67.469-40.468-13.494zm-219.382 0l94.425-53.975-53.957 67.469-40.468-13.494zm-219.382 0l94.424-53.975-53.956 67.469-40.468-13.494zm-219.382 0l94.426-53.975-53.958 67.469-40.468-13.494zm-219.382 0l94.424-53.975-53.956 67.469-40.468-13.494zm-219.383 0l94.426-53.975-53.957 67.469-40.469-13.494zm-219.382 0l94.426-53.975-53.958 67.469-40.468-13.494zm-219.382 0l94.425-53.975-53.957 67.469-40.468-13.494zm-219.382 0l94.426-53.975-53.958 67.469-40.468-13.494zm-219.382 0l94.426-53.975-53.958 67.469-40.468-13.494zm-219.382 0l94.424-53.975-53.956 67.469-40.468-13.494zm3829.256-53.12l-13.396 67.01h-40.194l53.59-67.01zm-219.38 0l-13.398 67.01h-40.194l53.592-67.01zm-219.384 0l-13.398 67.01h-40.193l53.591-67.01zm-219.382 0l-13.397 67.01h-40.194l53.59-67.01zm-219.382 0l-13.397 67.01h-40.194l53.59-67.01zm-219.382 0l-13.398 67.01h-40.193l53.59-67.01zm-219.383 0l-13.396 67.01h-40.194l53.59-67.01zm-219.38 0l-13.398 67.01h-40.194l53.592-67.01zm-219.384 0l-13.398 67.01h-40.192l53.59-67.01zm-219.382 0l-13.397 67.01h-40.194l53.591-67.01zm-219.38 0l-13.399 67.01h-40.194l53.592-67.01zm-219.384 0l-13.398 67.01h-40.193l53.59-67.01zm-219.382 0l-13.397 67.01h-40.194l53.59-67.01zm-219.381 0l-13.398 67.01h-40.193l53.59-67.01zm-219.384 0l-13.398 67.01H274.95l53.59-67.01zm-219.382 0l-13.397 67.01H55.566l53.591-67.01zm-219.38 0l-13.399 67.01h-40.192l53.59-67.01zm-219.384 0l-13.398 67.01h-40.193l53.59-67.01zm3583.603 85.312l40.785-13.599h44.793l14.075 56.322-99.653-42.723zm-219.383 0l40.785-13.599h44.794l14.075 56.322-99.654-42.723zm-219.38 0l40.783-13.599h44.792l14.077 56.322-99.652-42.723zm-219.382 0l40.782-13.599h44.794l14.076 56.322-99.652-42.723zm-219.383 0l40.783-13.599h44.794l14.076 56.322-99.653-42.723zm-219.381 0l40.781-13.599h44.794l14.077 56.322-99.652-42.723zm-219.382 0l40.781-13.599h44.795l14.075 56.322-99.651-42.723zm-219.384 0l40.783-13.599h44.795l14.075 56.322-99.653-42.723zm-219.38 0l40.781-13.599h44.793l14.077 56.322-99.652-42.723zm-219.383 0l40.782-13.599h44.794l14.076 56.322-99.652-42.723zm-219.383 0l40.783-13.599h44.794l14.076 56.322-99.653-42.723zm-219.381 0l40.782-13.599h44.793l14.077 56.322-99.652-42.723zm-219.382 0l40.781-13.599h44.795l14.076 56.322-99.652-42.723zm-219.384 0l40.783-13.599h44.795l14.075 56.322-99.653-42.723zm-219.38 0l40.781-13.599h44.795l14.075 56.322-99.651-42.723zm-219.383 0L4.047-172.17h44.794l14.077 56.322-99.653-42.723zm-219.382 0l40.782-13.599h44.794l14.076 56.322-99.652-42.723zm-219.382 0l40.782-13.599h44.794l14.077 56.322-99.653-42.723zm3834.517 44.813l-13.27-53.099 66.348 66.373-53.078-13.274zm-219.384 0l-13.268-53.099 66.348 66.373-53.08-13.274zm-219.38 0l-13.272-53.099 66.35 66.373-53.079-13.274zm-219.383 0l-13.27-53.099 66.349 66.373-53.079-13.274zm-219.383 0l-13.269-53.099 66.349 66.373-53.08-13.274zm-219.381 0l-13.271-53.099 66.35 66.373-53.079-13.274zm-219.382 0l-13.27-53.099 66.349 66.373-53.08-13.274zm-219.384 0l-13.268-53.099 66.348 66.373-53.08-13.274zm-219.38 0l-13.272-53.099 66.35 66.373-53.079-13.274zm-219.383 0l-13.27-53.099 66.35 66.373-53.08-13.274zm-219.383 0l-13.269-53.099 66.349 66.373-53.08-13.274zm-219.381 0l-13.271-53.099 66.35 66.373-53.079-13.274zm-219.382 0l-13.27-53.099 66.349 66.373-53.08-13.274zm-219.384 0l-13.268-53.099 66.348 66.373-53.08-13.274zm-219.38 0l-13.272-53.099 66.35 66.373-53.078-13.274zm-219.383 0l-13.27-53.099 66.35 66.373-53.08-13.274zm-219.383 0l-13.269-53.099 66.349 66.373-53.08-13.274zm-219.38 0l-13.272-53.099 66.35 66.373-53.079-13.274zM3203.48-96.364l44.68-59.591 102.612 43.991-118.464 44.438-28.828-28.838zm-219.382 0l44.68-59.591 102.611 43.991-118.462 44.438-28.83-28.838zm-219.382 0l44.68-59.591 102.611 43.991-118.462 44.438-28.83-28.838zm-219.382 0l44.68-59.591 102.611 43.991-118.462 44.438-28.83-28.838zm-219.383 0l44.68-59.591 102.612 43.991-118.462 44.438-28.83-28.838zm-219.382 0l44.68-59.591 102.612 43.991-118.463 44.438-28.829-28.838zm-219.382 0l44.68-59.591 102.612 43.991-118.463 44.438-28.829-28.838zm-219.382 0l44.68-59.591 102.612 43.991-118.463 44.438-28.83-28.838zm-219.382 0l44.68-59.591 102.613 43.991-118.464 44.438-28.83-28.838zm-219.382 0l44.68-59.591 102.611 43.991-118.462 44.438-28.83-28.838zm-219.383 0l44.68-59.591 102.612 43.991-118.462 44.438-28.83-28.838zm-219.382 0l44.68-59.591 102.613 43.991-118.464 44.438-28.829-28.838zm-219.382 0l44.68-59.591 102.612 43.991-118.463 44.438-28.829-28.838zm-219.382 0l44.68-59.591 102.612 43.991-118.462 44.438-28.83-28.838zm-219.382 0l44.68-59.591 102.611 43.991L160.96-67.526l-28.83-28.838zm-219.382 0l44.68-59.591L60.04-111.964-58.422-67.526l-28.83-28.838zm-219.382 0l44.68-59.591 102.611 43.991-118.461 44.438-28.83-28.838zm-219.383 0l44.68-59.591 102.612 43.991-118.462 44.438-28.83-28.838zm3764.428 31.57l118.075-44.292 45.548 45.563 14.463 43.406h-58.992l-119.094-44.676zm-219.382 0l118.075-44.292 45.548 45.563 14.463 43.406h-58.993L3019.03-64.793zm-219.382 0l118.075-44.292 45.548 45.563 14.463 43.406h-58.991l-119.095-44.676zm-219.382 0l118.075-44.292 45.547 45.563 14.464 43.406h-58.993l-119.093-44.676zm-219.382 0l118.074-44.292 45.548 45.563 14.464 43.406h-58.993l-119.093-44.676zm-219.382 0l118.074-44.292 45.548 45.563 14.464 43.406h-58.992l-119.094-44.676zm-219.383 0l118.075-44.292 45.548 45.563 14.464 43.406h-58.993l-119.094-44.676zm-219.382 0l118.075-44.292 45.548 45.563 14.463 43.406h-58.993l-119.093-44.676zm-219.382 0l118.075-44.292 45.548 45.563 14.463 43.406h-58.991l-119.095-44.676zm-219.38 0l118.073-44.292 45.548 45.563 14.463 43.406h-58.993l-119.092-44.676zm-219.384 0l118.074-44.292 45.548 45.563 14.464 43.406h-58.993l-119.093-44.676zm-219.382 0l118.074-44.292 45.548 45.563 14.464 43.406h-58.992L825.21-64.793zm-219.382 0L723.9-109.085l45.548 45.563 14.464 43.406H724.92L605.827-64.793zm-219.383 0l118.075-44.292 45.548 45.563 14.463 43.406h-58.992L386.444-64.793zm-219.382 0l118.075-44.292 45.548 45.563 14.463 43.406h-58.991L167.062-64.793zm-219.38 0l118.073-44.292 45.548 45.563 14.463 43.406H66.773L-52.319-64.793zm-219.384 0l118.075-44.292 45.547 45.563 14.464 43.406h-58.993l-119.093-44.676zm-219.382 0l118.074-44.292 45.548 45.563 14.464 43.406h-58.992l-119.094-44.676zm3693.57 45.92l-15.549-46.662-.568-.92-41.01-41.022 53.817 13.458 30.88 30.89.836.538 120.675 45.267-103.544 59.188-45.537-60.737zm-219.382 0l-15.549-46.662-.57-.92-41.008-41.022 53.816 13.458 30.88 30.89.837.538 120.673 45.267-103.542 59.188-45.537-60.737zm-219.384 0l-15.547-46.662-.57-.92-41.007-41.022 53.815 13.458 30.881 30.89.836.538L2912.8-17.325l-103.543 59.188-45.538-60.737zm-219.38 0l-15.55-46.662-.567-.92-41.01-41.022 53.816 13.458 30.88 30.89.837.538 120.674 45.267-103.543 59.188-45.538-60.737zm-219.384 0l-15.547-46.662-.57-.92-41.009-41.022 53.817 13.458 30.88 30.89.836.538 120.674 45.267-103.542 59.188-45.539-60.737zm-219.382 0l-15.548-46.662-.569-.92-41.007-41.022 53.815 13.458 30.88 30.89.838.538 120.671 45.267-103.543 59.188-45.537-60.737zm-219.381 0l-15.549-46.662-.568-.92-41.01-41.022 53.817 13.458 30.88 30.89.837.538 120.674 45.267-103.543 59.188-45.538-60.737zm-219.383 0l-15.548-46.662-.568-.92-41.01-41.022 53.817 13.458 30.879 30.89.837.538 120.673 45.267-103.542 59.188-45.538-60.737zm-219.381 0l-15.549-46.662-.57-.92-41.007-41.022 53.815 13.458L1475-63.13l.837.538 120.672 45.267-103.543 59.188-45.536-60.737zm-219.382 0l-15.55-46.662-.567-.92-41.01-41.022 53.816 13.458 30.88 30.89.838.538 120.673 45.267-103.543 59.188-45.537-60.737zm-219.384 0l-15.547-46.662-.568-.92-41.01-41.022 53.816 13.458 30.88 30.89.836.538 120.674 45.267-103.542 59.188-45.539-60.737zm-219.38 0l-15.55-46.662-.569-.92-41.007-41.022 53.816 13.458 30.88 30.89.837.538 120.672 45.267-103.544 59.188-45.536-60.737zm-219.383 0l-15.549-46.662-.568-.92-41.01-41.022L566.59-94.02l30.88 30.89.836.538 120.675 45.267-103.543 59.188L569.9-18.874zm-219.383 0l-15.548-46.662-.57-.92-41.008-41.022 53.817 13.458 30.88 30.89.836.538 120.673 45.267-103.542 59.188-45.538-60.737zm-219.381 0l-15.549-46.662-.57-.92-41.007-41.022 53.817 13.458 30.88 30.89.836.538 120.672 45.267-103.543 59.188-45.536-60.737zm-219.382 0l-15.549-46.662-.568-.92-41.01-41.022 53.816 13.458 30.881 30.89.836.538L60.834-17.325-42.709 41.863l-45.537-60.737zm-219.384 0l-15.547-46.662-.568-.92-41.01-41.022 53.816 13.458 30.88 30.89.837.538 120.673 45.267-103.542 59.188-45.539-60.737zm3666.636 3.458h55.078l-68.85 68.87 13.772-68.87zm-219.383 0h55.08l-68.85 68.87 13.77-68.87zm-219.381 0h55.079l-68.85 68.87 13.77-68.87zm-219.382 0h55.077l-68.849 68.87 13.772-68.87zm-219.384 0h55.08l-68.849 68.87 13.77-68.87zm-219.38 0h55.078l-68.849 68.87 13.77-68.87zm-219.383 0h55.078l-68.848 68.87 13.77-68.87zm-219.383 0h55.08l-68.85 68.87 13.77-68.87zm-219.381 0h55.079l-68.85 68.87 13.77-68.87zm-219.382 0h55.078l-68.849 68.87 13.77-68.87zm-219.384 0h55.08l-68.849 68.87 13.77-68.87zm-219.38 0h55.077l-68.848 68.87 13.77-68.87zm-219.383 0h55.078l-68.848 68.87 13.77-68.87zm-219.383 0h55.08l-68.85 68.87 13.77-68.87zm-219.381 0h55.08l-68.85 68.87 13.77-68.87zm-219.382 0h55.078l-68.848 68.87 13.77-68.87zm-219.384 0h55.08l-68.849 68.87 13.77-68.87zm-219.38 0h55.079l-68.85 68.87 13.77-68.87zm3570.614 1.228l45.383 60.532 1.139.82 47.01 15.675.742.121h32.526l-33.268 11.093-1.138.82-45.384 60.533-76.436-76.46-1.661-.688H3127.7l72.423-72.446zm-219.382 0l45.383 60.532 1.139.82 47.01 15.675.742.121h32.526l-33.268 11.093-1.139.82-45.383 60.533-76.435-76.46-1.662-.688h-41.337l72.424-72.446zm-219.383 0l45.382 60.532 1.14.82 47.01 15.675.743.121h32.527l-33.27 11.093-1.14.82-45.381 60.533-76.437-76.46-1.66-.688h-41.336l72.422-72.446zm-219.383 0l45.385 60.532 1.137.82 47.01 15.675.743.121h32.528l-33.27 11.093-1.138.82-45.385 60.533-76.435-76.46-1.66-.688h-41.336l72.42-72.446zm-219.38 0l45.382 60.532 1.138.82 47.01 15.675.743.121h32.528l-33.27 11.093-1.138.82-45.383 60.533-76.436-76.46-1.662-.688h-41.336l72.423-72.446zm-219.383 0l45.382 60.532 1.137.82 47.01 15.675.745.121h32.527l-33.271 11.093-1.138.82-45.382 60.533-76.435-76.46-1.662-.688h-41.335l72.422-72.446zm-219.382 0l45.383 60.532 1.138.82 47.01 15.675.743.121h32.527l-33.27 11.093-1.137.82-45.384 60.533-76.436-76.46-1.66-.688h-41.336l72.422-72.446zm-219.382 0l45.383 60.532 1.137.82 47.01 15.675.745.121h32.526l-33.27 11.093-1.138.82-45.383 60.533-76.435-76.46-1.662-.688h-41.337l72.424-72.446zm-219.383 0l45.383 60.532 1.138.82 47.01 15.675.744.121h32.528l-33.271 11.093-1.139.82-45.382 60.533-76.435-76.46-1.663-.688h-41.335l72.422-72.446zm-219.382 0l45.384 60.532 1.137.82 47.01 15.675.744.121h32.527l-33.27 11.093-1.138.82-45.383 60.533-76.437-76.46-1.66-.688h-41.336l72.422-72.446zm-219.382 0l45.384 60.532 1.137.82 47.01 15.675.745.121h32.526l-33.27 11.093-1.138.82-45.383 60.533-76.435-76.46-1.663-.688H933.88l72.423-72.446zm-219.382 0l45.382 60.532 1.139.82 47.01 15.675.743.121h32.529L880.45 74.053l-1.138.82-45.383 60.533-76.435-76.46-1.662-.688h-41.335l72.422-72.446zm-219.382 0l45.383 60.532 1.138.82 47.01 15.675.743.121h32.527l-33.27 11.093-1.137.82-45.384 60.533-76.436-76.46-1.661-.688h-41.335l72.422-72.446zm-219.382 0l45.383 60.532 1.137.82 47.01 15.675.744.121h32.527l-33.27 11.093-1.137.82-45.384 60.533-76.435-76.46-1.662-.688h-41.337l72.424-72.446zm-219.382 0l45.382 60.532 1.138.82 47.01 15.675.744.121h32.528l-33.271 11.093-1.139.82-45.382 60.533-76.435-76.46-1.662-.688H56.35l72.423-72.446zm-219.383 0l45.384 60.532 1.137.82L2.922 62.84l.744.121h32.527L2.923 74.053l-1.138.82-45.383 60.533-76.437-76.46-1.66-.688h-41.336l72.422-72.446zm-219.382 0l45.384 60.532 1.137.82 47.01 15.675.743.121h32.528l-33.27 11.093-1.138.82-45.383 60.533-76.435-76.46-1.663-.688h-41.336l72.423-72.446zm3563.109 58.555l94.425-53.975-53.956 67.468-40.47-13.493zm-219.381 0l94.424-53.975-53.956 67.468-40.468-13.493zm-219.382 0l94.424-53.975-53.956 67.468-40.468-13.493zm-219.383 0l94.425-53.975-53.956 67.468-40.469-13.493zm-219.382 0l94.425-53.975-53.957 67.468-40.468-13.493zm-219.382 0l94.424-53.975-53.956 67.468-40.468-13.493zm-219.382 0l94.424-53.975-53.956 67.468-40.468-13.493zm-219.382 0l94.425-53.975-53.957 67.468-40.468-13.493zm-219.382 0l94.424-53.975-53.956 67.468-40.468-13.493zm-219.383 0l94.425-53.975-53.956 67.468-40.469-13.493zm-219.382 0l94.426-53.975-53.958 67.468-40.468-13.493zm-219.382 0L934.34-9.608 880.383 57.86l-40.468-13.493zm-219.382 0l94.426-53.975L661 57.86l-40.468-13.493zm-219.382 0l94.426-53.975-53.958 67.468-40.468-13.493zm-219.382 0l94.424-53.975-53.956 67.468-40.468-13.493zm-219.382 0L56.812-9.608 2.855 57.86l-40.468-13.493zm-219.383 0l94.426-53.975-53.957 67.468-40.469-13.493zm-219.382 0l94.425-53.975-53.957 67.468-40.468-13.493zM3352.88-8.754l-13.397 67.012h-40.194l53.59-67.012zm-219.38 0L3120.1 58.258h-40.194l53.592-67.012zm-219.384 0l-13.398 67.012h-40.193l53.59-67.012zm-219.383 0l-13.396 67.012h-40.194l53.59-67.012zm-219.382 0l-13.396 67.012h-40.194l53.59-67.012zm-219.382 0l-13.398 67.012h-40.192l53.59-67.012zm-219.382 0l-13.397 67.012h-40.194l53.591-67.012zm-219.38 0l-13.399 67.012h-40.194l53.592-67.012zm-219.384 0l-13.398 67.012h-40.193l53.59-67.012zm-219.382 0l-13.397 67.012h-40.194l53.59-67.012zm-219.381 0l-13.398 67.012h-40.194l53.592-67.012zm-219.384 0l-13.398 67.012h-40.192l53.59-67.012zm-219.382 0l-13.397 67.012h-40.194l53.591-67.012zm-219.38 0l-13.399 67.012h-40.192l53.59-67.012zm-219.384 0L268.13 58.258h-40.193l53.59-67.012zm-219.382 0L48.75 58.258H8.556l53.59-67.012zm-219.381 0l-13.398 67.012h-40.193l53.59-67.012zm-219.384 0l-13.398 67.012h-40.192l53.59-67.012zm3677.625 85.312l40.784-13.598h44.793l14.076 56.321-99.653-42.723zm-219.384 0l40.786-13.598h44.793l14.076 56.321-99.655-42.723zm-219.38 0l40.784-13.598h44.792l14.077 56.321-99.653-42.723zm-219.381 0l40.781-13.598h44.795l14.075 56.321-99.651-42.723zm-219.384 0l40.783-13.598h44.795l14.075 56.321-99.653-42.723zm-219.38 0l40.78-13.598h44.794l14.077 56.321-99.652-42.723zm-219.383 0l40.782-13.598h44.794l14.076 56.321-99.652-42.723zm-219.383 0l40.783-13.598h44.794l14.076 56.321-99.653-42.723zm-219.381 0l40.781-13.598h44.794l14.077 56.321-99.652-42.723zm-219.382 0l40.781-13.598h44.795l14.075 56.321-99.651-42.723zm-219.384 0l40.783-13.598h44.795l14.075 56.321-99.653-42.723zm-219.38 0l40.781-13.598h44.793l14.077 56.321-99.652-42.723zm-219.383 0l40.782-13.598h44.794l14.076 56.321-99.652-42.723zm-219.383 0l40.783-13.598h44.794l14.076 56.321-99.653-42.723zm-219.381 0L270.44 62.96h44.794l14.076 56.321-99.652-42.723zm-219.382 0L51.057 62.96h44.795l14.077 56.321-99.653-42.723zm-219.382 0l40.781-13.598h44.795l14.075 56.321-99.651-42.723zm-219.382 0l40.781-13.598h44.795l14.077 56.321-99.653-42.723zm3834.516 44.813l-13.27-53.098 66.349 66.373-53.079-13.275zm-219.383 0l-13.269-53.098 66.349 66.373-53.08-13.275zm-219.381 0l-13.271-53.098 66.35 66.373-53.08-13.275zm-219.382 0l-13.27-53.098 66.348 66.373-53.078-13.275zm-219.384 0l-13.268-53.098 66.348 66.373-53.08-13.275zm-219.38 0l-13.272-53.098 66.35 66.373-53.079-13.275zm-219.383 0l-13.27-53.098 66.349 66.373-53.079-13.275zm-219.383 0l-13.269-53.098 66.349 66.373-53.08-13.275zm-219.381 0L1637.7 68.273l66.35 66.373-53.079-13.275zm-219.382 0l-13.27-53.098 66.349 66.373-53.08-13.275zm-219.384 0l-13.268-53.098 66.348 66.373-53.08-13.275zm-219.38 0l-13.272-53.098 66.35 66.373-53.078-13.275zm-219.383 0l-13.27-53.098 66.35 66.373-53.08-13.275zm-219.383 0L540.79 68.273l66.349 66.373-53.08-13.275zm-219.38 0l-13.272-53.098 66.35 66.373-53.079-13.275zm-219.383 0l-13.27-53.098 66.349 66.373-53.08-13.275zm-219.384 0l-13.268-53.098 66.348 66.373-53.08-13.275zm-219.38 0l-13.272-53.098 66.35 66.373-53.078-13.275zm3573.96 17.393l44.679-59.59 102.612 43.99-118.464 44.439-28.828-28.839zm-219.383 0l44.68-59.59 102.612 43.99-118.463 44.439-28.829-28.839zm-219.382 0l44.68-59.59 102.612 43.99-118.464 44.439-28.828-28.839zm-219.382 0l44.68-59.59 102.612 43.99-118.463 44.439-28.829-28.839zm-219.382 0l44.68-59.59 102.611 43.99-118.462 44.439-28.83-28.839zm-219.382 0l44.68-59.59 102.611 43.99-118.462 44.439-28.83-28.839zm-219.382 0l44.68-59.59 102.611 43.99-118.462 44.439-28.83-28.839zm-219.383 0l44.68-59.59 102.612 43.99-118.462 44.439-28.83-28.839zm-219.382 0l44.68-59.59 102.613 43.99-118.464 44.439-28.829-28.839zm-219.382 0l44.68-59.59 102.612 43.99-118.463 44.439-28.829-28.839zm-219.382 0l44.68-59.59 102.612 43.99-118.463 44.439-28.83-28.839zm-219.382 0l44.68-59.59 102.613 43.99-118.464 44.439-28.83-28.839zm-219.382 0l44.68-59.59 102.611 43.99-118.462 44.439-28.83-28.839zm-219.383 0l44.68-59.59 102.612 43.99-118.461 44.439-28.83-28.839zm-219.382 0l44.68-59.59 102.612 43.99-118.463 44.439-28.829-28.839zm-219.382 0l44.68-59.59 102.612 43.99-118.463 44.439-28.829-28.839zm-219.382 0l44.68-59.59 102.612 43.99-118.462 44.439-28.83-28.839zm-219.382 0l44.68-59.59 102.611 43.99-118.462 44.439-28.83-28.839zm3764.428 31.572l118.074-44.293 45.548 45.562 14.464 43.406h-58.993l-119.093-44.675zm-219.382 0l118.074-44.293 45.548 45.562 14.464 43.406h-58.993l-119.093-44.675zm-219.382 0l118.074-44.293 45.548 45.562 14.464 43.406h-58.992l-119.094-44.675zm-219.383 0l118.075-44.293 45.548 45.562 14.463 43.406h-58.992l-119.094-44.675zm-219.382 0l118.075-44.293 45.548 45.562 14.463 43.406h-58.993l-119.093-44.675zm-219.382 0l118.075-44.293 45.548 45.562 14.463 43.406h-58.991l-119.095-44.675zm-219.382 0l118.075-44.293 45.547 45.562 14.464 43.406h-58.993l-119.093-44.675zm-219.382 0l118.074-44.293 45.548 45.562 14.464 43.406h-58.993l-119.093-44.675zm-219.382 0l118.074-44.293 45.548 45.562 14.464 43.406h-58.992l-119.094-44.675zm-219.381 0l118.073-44.293 45.548 45.562 14.464 43.406h-58.993l-119.092-44.675zm-219.384 0l118.075-44.293 45.548 45.562 14.463 43.406h-58.993l-119.093-44.675zm-219.382 0l118.075-44.293 45.548 45.562 14.463 43.406h-58.991l-119.095-44.675zm-219.38 0l118.073-44.293 45.548 45.562 14.463 43.406H771.93l-119.092-44.675zm-219.384 0l118.074-44.293 45.548 45.562 14.464 43.406h-58.993l-119.093-44.675zm-219.382 0l118.074-44.293 45.548 45.562 14.464 43.406h-58.992l-119.094-44.675zm-219.381 0l118.073-44.293 45.548 45.562 14.464 43.406h-58.993L-5.308 170.336zm-219.384 0l118.075-44.293 45.548 45.562 14.463 43.406h-58.992l-119.094-44.675zm-219.382 0l118.075-44.293 45.548 45.562 14.463 43.406h-58.991l-119.095-44.675zm3693.57 45.919l-15.548-46.663-.568-.92-41.01-41.021 53.816 13.458 30.88 30.888.836.54 120.675 45.267-103.543 59.187-45.538-60.736zm-219.382 0l-15.548-46.663-.57-.92-41.009-41.021 53.817 13.458 30.88 30.888.836.54 120.674 45.267-103.542 59.187-45.538-60.736zm-219.38 0l-15.55-46.663-.57-.92-41.007-41.021 53.815 13.458 30.88 30.888.836.54 120.673 45.267-103.543 59.187-45.535-60.736zm-219.384 0l-15.549-46.663-.568-.92-41.01-41.021 53.817 13.458 30.88 30.888.836.54 120.675 45.267-103.544 59.187-45.537-60.736zm-219.382 0l-15.549-46.663-.57-.92-41.008-41.021 53.816 13.458 30.88 30.888.837.54 120.673 45.267-103.542 59.187-45.537-60.736zm-219.381 0l-15.55-46.663-.57-.92-41.007-41.021 53.815 13.458 30.881 30.888.837.54 120.672 45.267-103.543 59.187-45.535-60.736zm-219.384 0l-15.548-46.663-.568-.92-41.01-41.021 53.816 13.458 30.88 30.888.838.54 120.673 45.267-103.543 59.187-45.538-60.736zm-219.382 0l-15.548-46.663-.568-.92-41.01-41.021 53.816 13.458 30.88 30.888.836.54 120.674 45.267-103.542 59.187-45.538-60.736zm-219.38 0l-15.55-46.663-.57-.92-41.007-41.021 53.815 13.458 30.88 30.888.838.54 120.671 45.267-103.543 59.187-45.535-60.736zm-219.384 0l-15.549-46.663-.568-.92-41.01-41.021 53.817 13.458 30.88 30.888.837.54 120.674 45.267-103.543 59.187-45.538-60.736zm-219.382 0l-15.549-46.663-.568-.92-41.01-41.021 53.817 13.458 30.879 30.888.837.54 120.673 45.267-103.542 59.187-45.537-60.736zm-219.381 0l-15.55-46.663-.57-.92-41.007-41.021 53.815 13.458 30.881 30.888.837.54 120.672 45.267-103.543 59.187-45.535-60.736zm-219.383 0l-15.55-46.663-.567-.92-41.01-41.021 53.816 13.458 30.88 30.888.837.54 120.674 45.267-103.543 59.187-45.537-60.736zm-219.383 0l-15.548-46.663-.57-.92-41.008-41.021 53.816 13.458 30.88 30.888.837.54 120.673 45.267-103.542 59.187-45.538-60.736zm-219.38 0l-15.55-46.663-.57-.92-41.007-41.021 53.816 13.458 30.88 30.888.837.54 120.672 45.267-103.544 59.187-45.534-60.736zm-219.384 0l-15.549-46.663-.568-.92-41.01-41.021 53.817 13.458 30.88 30.888.836.54 120.675 45.267L4.302 276.991l-45.538-60.736zm-219.382 0l-15.549-46.663-.568-.92-41.01-41.021 53.817 13.458 30.879 30.888.837.54 120.673 45.267-103.542 59.187-45.537-60.736zm3666.634 3.458h55.078l-68.849 68.87 13.771-68.87zm-219.383 0h55.08l-68.849 68.87 13.769-68.87zm-219.38 0h55.078l-68.849 68.87 13.77-68.87zm-219.383 0h55.08l-68.851 68.87 13.771-68.87zm-219.383 0h55.081l-68.85 68.87 13.769-68.87zm-219.381 0h55.079l-68.85 68.87 13.77-68.87zm-219.382 0h55.079l-68.85 68.87 13.77-68.87zm-219.384 0h55.082l-68.85 68.87 13.768-68.87zm-219.38 0h55.079l-68.85 68.87 13.77-68.87zm-219.383 0h55.08l-68.85 68.87 13.77-68.87zm-219.383 0h55.082l-68.851 68.87 13.769-68.87zm-219.381 0h55.079l-68.85 68.87 13.77-68.87zm-219.382 0h55.079l-68.85 68.87 13.77-68.87zm-219.384 0h55.082l-68.85 68.87 13.768-68.87zm-219.38 0h55.079l-68.85 68.87 13.77-68.87zm-219.383 0h55.08l-68.85 68.87 13.77-68.87zm-219.383 0h55.082l-68.851 68.87 13.769-68.87zm-219.381 0h55.08l-68.85 68.87 13.77-68.87zM3127.7 298.089h41.336l1.66-.688 76.437-76.46 45.384 60.532 1.138.82 33.268 11.093h-32.526l-.742.122-47.01 15.674-1.139.82-45.383 60.533-72.423-72.446zm-219.383 0h41.337l1.662-.688 76.435-76.46 45.383 60.532 1.139.82 33.268 11.093h-32.526l-.742.122-47.01 15.674-1.14.82-45.382 60.533-72.424-72.446zm-219.38 0h41.334l1.661-.688 76.437-76.46 45.382 60.532 1.139.82 33.27 11.093h-32.527l-.743.122-47.01 15.674-1.14.82-45.382 60.533-72.422-72.446zm-219.383 0h41.335l1.661-.688 76.435-76.46 45.385 60.532 1.137.82 33.27 11.093h-32.527l-.743.122-47.01 15.674-1.137.82-45.385 60.533-72.421-72.446zm-219.383 0h41.336l1.662-.688 76.436-76.46 45.383 60.532 1.137.82 33.27 11.093h-32.527l-.743.122-47.01 15.674-1.138.82-45.383 60.533-72.423-72.446zm-219.381 0h41.335l1.662-.688 76.435-76.46 45.382 60.532 1.138.82 33.271 11.093h-32.527l-.744.122-47.01 15.674-1.138.82-45.382 60.533-72.422-72.446zm-219.382 0h41.336l1.66-.688 76.436-76.46 45.384 60.532 1.137.82 33.269 11.093h-32.526l-.743.122-47.01 15.674-1.138.82-45.383 60.533-72.422-72.446zm-219.384 0h41.337l1.662-.688 76.435-76.46 45.383 60.532 1.138.82 33.269 11.093h-32.525l-.744.122-47.01 15.674-1.138.82-45.383 60.533-72.424-72.446zm-219.38 0h41.334l1.663-.688 76.435-76.46 45.382 60.532 1.139.82 33.27 11.093h-32.527l-.743.122-47.01 15.674-1.14.82-45.382 60.533-72.422-72.446zm-219.383 0h41.337l1.66-.688 76.436-76.46 45.383 60.532 1.138.82 33.269 11.093h-32.526l-.743.122-47.01 15.674-1.138.82-45.384 60.533-72.422-72.446zm-219.383 0h41.336l1.663-.688 76.435-76.46 45.383 60.532 1.137.82 33.27 11.093h-32.525l-.745.122-47.01 15.674-1.137.82-45.384 60.533-72.423-72.446zm-219.381 0h41.335l1.662-.688 76.435-76.46 45.383 60.532 1.138.82 33.27 11.093h-32.527l-.743.122-47.01 15.674-1.139.82-45.382 60.533-72.422-72.446zm-219.382 0h41.335l1.66-.688 76.437-76.46 45.384 60.532 1.137.82 33.27 11.093h-32.527l-.743.122-47.01 15.674-1.138.82-45.383 60.533-72.422-72.446zm-219.384 0h41.337l1.662-.688 76.435-76.46 45.384 60.532 1.137.82 33.269 11.093H442.43l-.743.122-47.01 15.674-1.138.82-45.383 60.533-72.424-72.446zm-219.38 0h41.335l1.662-.688 76.435-76.46 45.382 60.532 1.139.82 33.27 11.093h-32.527l-.743.122-47.01 15.674-1.14.82-45.381 60.533-72.423-72.446zm-219.383 0h41.335l1.661-.688 76.437-76.46 45.383 60.532 1.138.82 33.269 11.093H3.666l-.743.122-47.01 15.674-1.138.82-45.384 60.533-72.422-72.446zm-219.383 0h41.336l1.663-.688 76.435-76.46 45.383 60.532 1.137.82 33.27 11.093h-32.527l-.743.122-47.01 15.674-1.137.82-45.384 60.533-72.423-72.446zm3682.542-18.594l94.428-53.976-53.959 67.47-40.469-13.493zm-219.38 0l94.425-53.976-53.958 67.47-40.468-13.493zm-219.383 0l94.426-53.976-53.958 67.47-40.468-13.493zm-219.382 0l94.424-53.976-53.956 67.47-40.468-13.493zm-219.382 0l94.424-53.976-53.956 67.47-40.468-13.493zm-219.382 0l94.424-53.976-53.956 67.47-40.468-13.493zm-219.383 0l94.425-53.976-53.956 67.47-40.469-13.493zm-219.382 0l94.426-53.976-53.958 67.47-40.468-13.493zm-219.382 0l94.425-53.976-53.957 67.47-40.468-13.493zm-219.382 0l94.424-53.976-53.956 67.47-40.468-13.493zm-219.382 0l94.426-53.976-53.958 67.47-40.468-13.493zm-219.382 0l94.424-53.976-53.956 67.47-40.468-13.493zm-219.383 0l94.426-53.976-53.957 67.47-40.469-13.493zm-219.382 0l94.426-53.976-53.958 67.47-40.468-13.493zm-219.382 0l94.425-53.976-53.957 67.47-40.468-13.493zm-219.382 0l94.426-53.976-53.958 67.47-40.468-13.493zm-219.382 0l94.426-53.976-53.958 67.47-40.468-13.493zm-219.382 0l94.424-53.976-53.956 67.47-40.468-13.493zm3829.256-53.12l-13.396 67.011h-40.194l53.59-67.011zm-219.38 0l-13.398 67.011h-40.194l53.592-67.011zm-219.384 0l-13.398 67.011h-40.193l53.591-67.011zm-219.382 0l-13.397 67.011h-40.194l53.59-67.011zm-219.382 0l-13.397 67.011h-40.194l53.59-67.011zm-219.382 0l-13.398 67.011h-40.193l53.59-67.011zm-219.383 0l-13.396 67.011h-40.194l53.59-67.011zm-219.38 0l-13.398 67.011h-40.194l53.592-67.011zm-219.384 0l-13.398 67.011h-40.192l53.59-67.011zm-219.382 0l-13.397 67.011h-40.194l53.591-67.011zm-219.38 0l-13.399 67.011h-40.194l53.592-67.011zm-219.384 0l-13.398 67.011h-40.193l53.59-67.011zm-219.382 0l-13.397 67.011h-40.194l53.59-67.011zm-219.381 0l-13.398 67.011h-40.193l53.59-67.011zm-219.384 0l-13.398 67.011H274.95l53.59-67.011zm-219.382 0L95.76 293.386H55.566l53.591-67.011zm-219.38 0l-13.399 67.011h-40.192l53.59-67.011zm-219.384 0l-13.398 67.011h-40.193l53.59-67.011zm3583.603 85.312l40.785-13.598h44.793l14.075 56.321-99.653-42.723zm-219.383 0l40.785-13.598h44.794l14.075 56.321-99.654-42.723zm-219.38 0l40.783-13.598h44.792l14.077 56.321-99.652-42.723zm-219.382 0l40.782-13.598h44.794l14.076 56.321-99.652-42.723zm-219.383 0l40.783-13.598h44.794l14.076 56.321-99.653-42.723zm-219.381 0l40.781-13.598h44.794l14.077 56.321-99.652-42.723zm-219.382 0l40.781-13.598h44.795l14.075 56.321-99.651-42.723zm-219.384 0l40.783-13.598h44.795l14.075 56.321-99.653-42.723zm-219.38 0l40.781-13.598h44.793l14.077 56.321-99.652-42.723zm-219.383 0l40.782-13.598h44.794l14.076 56.321-99.652-42.723zm-219.383 0l40.783-13.598h44.794l14.076 56.321-99.653-42.723zm-219.381 0l40.782-13.598h44.793l14.077 56.321-99.652-42.723zm-219.382 0l40.781-13.598h44.795l14.076 56.321-99.652-42.723zm-219.384 0l40.783-13.598h44.795l14.075 56.321-99.653-42.723zm-219.38 0l40.781-13.598h44.795l14.075 56.321-99.651-42.723zm-219.383 0L4.047 298.09h44.794l14.077 56.321-99.653-42.723zm-219.382 0l40.782-13.598h44.794l14.076 56.321-99.652-42.723zm-219.382 0l40.782-13.598h44.794l14.077 56.321-99.653-42.723zM3359.018 356.5l-13.27-53.097 66.348 66.37-53.078-13.273zm-219.384 0l-13.268-53.097 66.348 66.37-53.08-13.273zm-219.38 0l-13.272-53.097 66.35 66.37-53.079-13.273zm-219.383 0l-13.27-53.097 66.349 66.37-53.079-13.273zm-219.383 0l-13.269-53.097 66.349 66.37-53.08-13.273zm-219.381 0l-13.271-53.097 66.35 66.37-53.079-13.273zm-219.382 0l-13.27-53.097 66.349 66.37-53.08-13.273zm-219.384 0l-13.268-53.097 66.348 66.37-53.08-13.273zm-219.38 0l-13.272-53.097 66.35 66.37-53.079-13.273zm-219.383 0l-13.27-53.097 66.35 66.37-53.08-13.273zm-219.383 0l-13.269-53.097 66.349 66.37-53.08-13.273zm-219.381 0l-13.271-53.097 66.35 66.37-53.079-13.273zm-219.382 0l-13.27-53.097 66.349 66.37-53.08-13.273zm-219.384 0l-13.268-53.097 66.348 66.37-53.08-13.273zm-219.38 0l-13.272-53.097 66.35 66.37-53.078-13.273zm-219.383 0l-13.27-53.097 66.35 66.37-53.08-13.273zm-219.383 0l-13.269-53.097 66.349 66.37-53.08-13.273zm-219.38 0l-13.272-53.097 66.35 66.37-53.079-13.273zm3573.959 17.393l44.68-59.59 102.612 43.99-118.464 44.439-28.828-28.839zm-219.382 0l44.68-59.59 102.611 43.99-118.462 44.439-28.83-28.839zm-219.382 0l44.68-59.59 102.611 43.99-118.462 44.439-28.83-28.839zm-219.382 0l44.68-59.59 102.611 43.99-118.462 44.439-28.83-28.839zm-219.383 0l44.68-59.59 102.612 43.99-118.462 44.439-28.83-28.839zm-219.382 0l44.68-59.59 102.612 43.99-118.463 44.439-28.829-28.839zm-219.382 0l44.68-59.59 102.612 43.99-118.463 44.439-28.829-28.839zm-219.382 0l44.68-59.59 102.612 43.99-118.463 44.439-28.83-28.839zm-219.382 0l44.68-59.59 102.613 43.99-118.464 44.439-28.83-28.839zm-219.382 0l44.68-59.59 102.611 43.99-118.462 44.439-28.83-28.839zm-219.383 0l44.68-59.59 102.612 43.99-118.462 44.439-28.83-28.839zm-219.382 0l44.68-59.59 102.613 43.99-118.464 44.439-28.829-28.839zm-219.382 0l44.68-59.59 102.612 43.99-118.463 44.439-28.829-28.839zm-219.382 0l44.68-59.59 102.612 43.99-118.462 44.439-28.83-28.839zm-219.382 0l44.68-59.59 102.611 43.99-118.462 44.439-28.83-28.839zm-219.382 0l44.68-59.59 102.611 43.99-118.462 44.439-28.83-28.839zm-219.382 0l44.68-59.59 102.611 43.99-118.461 44.439-28.83-28.839zm-219.383 0l44.68-59.59 102.612 43.99-118.462 44.439-28.83-28.839zm3764.428 31.571l118.075-44.293 45.548 45.563 14.463 43.406h-58.992l-119.094-44.676zm-219.382 0l118.075-44.293 45.548 45.563 14.463 43.406h-58.993l-119.093-44.676zm-219.382 0l118.075-44.293 45.548 45.563 14.463 43.406h-58.991l-119.095-44.676zm-219.382 0l118.076-44.293 45.546 45.563 14.464 43.406h-58.993l-119.093-44.676zm-219.382 0l118.076-44.293 45.546 45.563 14.464 43.406h-58.993l-119.093-44.676zm-219.382 0l118.076-44.293 45.546 45.563 14.464 43.406h-58.992l-119.094-44.676zm-219.383 0l118.076-44.293 45.547 45.563 14.464 43.406h-58.993l-119.094-44.676zm-219.382 0l118.076-44.293 45.547 45.563 14.463 43.406h-58.993l-119.093-44.676zm-219.382 0l118.076-44.293 45.547 45.563 14.463 43.406h-58.991l-119.095-44.676zm-219.38 0l118.074-44.293 45.547 45.563 14.463 43.406h-58.993l-119.092-44.676zm-219.384 0l118.076-44.293 45.546 45.563 14.464 43.406h-58.993l-119.093-44.676zm-219.382 0l118.076-44.293 45.546 45.563 14.464 43.406h-58.992L825.21 405.464zm-219.382 0l118.075-44.293 45.547 45.563 14.464 43.406H724.92l-119.093-44.676zm-219.383 0l118.076-44.293 45.547 45.563 14.463 43.406h-58.992l-119.094-44.676zm-219.382 0l118.076-44.293 45.547 45.563 14.463 43.406h-58.991l-119.095-44.676zm-219.38 0l118.074-44.293 45.547 45.563 14.463 43.406H66.773l-119.092-44.676zm-219.384 0l118.077-44.293 45.545 45.563 14.464 43.406h-58.993l-119.093-44.676zm-219.382 0l118.076-44.293 45.546 45.563 14.464 43.406h-58.992l-119.094-44.676zm3693.57 45.92l-15.549-46.663-.568-.92-41.01-41.023 53.817 13.46 30.88 30.888.836.54 120.675 45.267-103.544 59.187-45.537-60.736zm-219.382 0l-15.549-46.663-.57-.92-41.008-41.023 53.816 13.46 30.88 30.888.837.54 120.673 45.267-103.542 59.187-45.537-60.736zm-219.381 0l-15.55-46.663-.57-.92-41.007-41.023 53.817 13.46 30.879 30.888.836.54 120.673 45.267-103.543 59.187-45.535-60.736zm-219.384 0l-15.548-46.663-.568-.92-41.01-41.023 53.817 13.46 30.88 30.888.836.54 120.674 45.267-103.543 59.187-45.538-60.736zm-219.382 0l-15.548-46.663-.57-.92-41.009-41.023 53.818 13.46 30.878 30.888.837.54 120.674 45.267-103.542 59.187-45.538-60.736zm-219.38 0l-15.55-46.663-.57-.92-41.007-41.023 53.816 13.46 30.88 30.888.837.54 120.671 45.267-103.543 59.187-45.535-60.736zm-219.384 0l-15.549-46.663-.568-.92-41.01-41.023 53.818 13.46 30.88 30.888.836.54 120.674 45.267-103.543 59.187-45.538-60.736zm-219.382 0l-15.549-46.663-.568-.92-41.01-41.023 53.82 13.46 30.876 30.888.837.54 120.673 45.267-103.542 59.187-45.537-60.736zm-219.381 0l-15.55-46.663-.57-.92-41.007-41.023 53.817 13.46 30.88 30.888.836.54 120.672 45.267-103.543 59.187-45.535-60.736zm-219.383 0l-15.55-46.663-.567-.92-41.01-41.023 53.818 13.46 30.879 30.888.837.54 120.673 45.267-103.543 59.187-45.537-60.736zm-219.383 0l-15.548-46.663-.568-.92-41.01-41.023 53.819 13.46 30.876 30.888.837.54 120.674 45.267-103.542 59.187-45.538-60.736zm-219.38 0l-15.55-46.663-.57-.92-41.007-41.023 53.816 13.46 30.88 30.888.837.54 120.672 45.267-103.544 59.187-45.534-60.736zm-219.384 0l-15.549-46.663-.568-.92-41.01-41.023 53.818 13.46 30.88 30.888.835.54 120.675 45.267-103.543 59.187-45.538-60.736zm-219.382 0l-15.549-46.663-.57-.92-41.008-41.023 53.82 13.46 30.877 30.888.836.54 120.673 45.267-103.542 59.187-45.537-60.736zm-219.38 0l-15.55-46.663-.57-.92-41.008-41.023 53.817 13.46 30.88 30.888.836.54 120.672 45.267-103.543 59.187-45.535-60.736zm-219.384 0l-15.549-46.663-.568-.92-41.01-41.023 53.818 13.46 30.879 30.888.836.54 120.674 45.267-103.543 59.187-45.537-60.736zm-219.382 0l-15.55-46.663-.567-.92-41.01-41.023 53.819 13.46 30.877 30.888.837.54 120.673 45.267-103.542 59.187-45.537-60.736zm3666.634 3.457h55.078l-68.85 68.871 13.772-68.87zm-219.383 0h55.08l-68.85 68.871 13.77-68.87zm-219.381 0h55.079l-68.85 68.871 13.77-68.87zm-219.382 0h55.079l-68.85 68.871 13.77-68.87zm-219.384 0h55.082l-68.85 68.871 13.768-68.87zm-219.38 0h55.078l-68.849 68.871 13.77-68.87zm-219.383 0h55.08l-68.85 68.871 13.77-68.87zm-219.383 0h55.081l-68.85 68.871 13.769-68.87zm-219.381 0h55.079l-68.85 68.871 13.77-68.87zm-219.382 0h55.079l-68.85 68.871 13.77-68.87zm-219.384 0h55.082l-68.85 68.871 13.768-68.87zm-219.38 0h55.079l-68.85 68.871 13.77-68.87zm-219.383 0h55.08l-68.85 68.871 13.77-68.87zm-219.383 0h55.082l-68.851 68.871 13.769-68.87zm-219.381 0h55.08l-68.85 68.871 13.77-68.87zm-219.382 0h55.079l-68.85 68.871 13.77-68.87zm-219.384 0h55.082l-68.85 68.871 13.768-68.87zm-219.38 0h55.079l-68.85 68.871 13.77-68.87zm3570.614 1.228l45.383 60.533 1.139.82 47.01 15.674.742.122h32.526l-33.268 11.093-1.138.82-45.384 60.533-76.436-76.46-1.661-.689H3127.7l72.423-72.446zm-219.382 0l45.383 60.533 1.139.82 47.01 15.674.742.122h32.526l-33.268 11.093-1.139.82-45.383 60.533-76.435-76.46-1.662-.689h-41.337l72.424-72.446zm-219.383 0l45.382 60.533 1.14.82 47.01 15.674.743.122h32.527l-33.27 11.093-1.14.82-45.381 60.533-76.437-76.46-1.66-.689h-41.336l72.422-72.446zm-219.383 0l45.385 60.533 1.137.82 47.01 15.674.743.122h32.526l-33.269 11.093-1.137.82-45.385 60.533-76.435-76.46-1.66-.689h-41.336l72.42-72.446zm-219.38 0l45.382 60.533 1.138.82 47.01 15.674.743.122h32.526l-33.269 11.093-1.137.82-45.383 60.533-76.436-76.46-1.662-.689h-41.336l72.423-72.446zm-219.383 0l45.382 60.533 1.137.82 47.01 15.674.745.122h32.527l-33.271 11.093-1.138.82-45.382 60.533-76.435-76.46-1.662-.689h-41.335l72.422-72.446zm-219.382 0l45.383 60.533 1.138.82 47.01 15.674.743.122h32.526l-33.269 11.093-1.137.82-45.384 60.533-76.436-76.46-1.66-.689h-41.336l72.422-72.446zm-219.382 0l45.383 60.533 1.137.82 47.01 15.674.745.122h32.525l-33.27 11.093-1.137.82-45.383 60.533-76.435-76.46-1.662-.689h-41.337l72.424-72.446zm-219.383 0l45.383 60.533 1.138.82 47.01 15.674.744.122h32.527l-33.27 11.093-1.139.82-45.382 60.533-76.435-76.46-1.663-.689h-41.335l72.422-72.446zm-219.382 0l45.384 60.533 1.137.82 47.01 15.674.744.122h32.526l-33.27 11.093-1.137.82-45.383 60.533-76.437-76.46-1.66-.689h-41.336l72.422-72.446zm-219.382 0l45.384 60.533 1.137.82 47.01 15.674.745.122h32.524l-33.269 11.093-1.137.82-45.383 60.533-76.435-76.46-1.663-.689H933.88l72.423-72.446zm-219.382 0l45.382 60.533 1.139.82 47.01 15.674.743.122h32.528l-33.27 11.093-1.14.82-45.382 60.533-76.435-76.46-1.662-.689h-41.335l72.422-72.446zm-219.382 0l45.383 60.533 1.138.82 47.01 15.674.743.122h32.526L661.07 544.31l-1.137.82-45.384 60.533-76.436-76.46-1.661-.689h-41.335l72.422-72.446zm-219.382 0l45.383 60.533 1.137.82 47.01 15.674.744.122h32.526l-33.27 11.093-1.136.82-45.384 60.533-76.435-76.46-1.662-.689h-41.337l72.424-72.446zm-219.382 0l45.382 60.533 1.138.82 47.01 15.674.744.122h32.527l-33.27 11.093-1.139.82-45.382 60.533-76.435-76.46-1.662-.689H56.35l72.423-72.446zm-219.383 0l45.384 60.533 1.137.82 47.01 15.674.744.122h32.526L2.922 544.31l-1.137.82-45.383 60.533-76.437-76.46-1.66-.689h-41.336l72.422-72.446zm-219.382 0l45.384 60.533 1.137.82 47.01 15.674.743.122h32.527l-33.27 11.093-1.137.82-45.383 60.533-76.435-76.46-1.663-.689h-41.336l72.423-72.446zm3563.109 58.555l94.428-53.976-53.959 67.47-40.47-13.494zm-219.381 0l94.425-53.976-53.957 67.47-40.468-13.494zm-219.382 0l94.425-53.976-53.957 67.47-40.468-13.494zm-219.383 0l94.425-53.976-53.956 67.47-40.469-13.494zm-219.382 0l94.425-53.976-53.957 67.47-40.468-13.494zm-219.382 0l94.424-53.976-53.956 67.47-40.468-13.494zm-219.382 0l94.424-53.976-53.956 67.47-40.468-13.494zm-219.382 0l94.425-53.976-53.957 67.47-40.468-13.494zm-219.382 0l94.424-53.976-53.956 67.47-40.468-13.494zm-219.383 0l94.425-53.976-53.956 67.47-40.469-13.494zm-219.382 0l94.426-53.976-53.958 67.47-40.468-13.494zm-219.382 0l94.425-53.976-53.957 67.47-40.468-13.494zm-219.382 0l94.426-53.976L661 528.118l-40.468-13.494zm-219.382 0l94.426-53.976-53.958 67.47-40.468-13.494zm-219.382 0l94.424-53.976-53.956 67.47-40.468-13.494zm-219.382 0l94.425-53.976-53.957 67.47-40.468-13.494zm-219.383 0l94.426-53.976-53.957 67.47-40.469-13.494zm-219.382 0l94.425-53.976-53.957 67.47-40.468-13.494zm3829.257-53.12l-13.397 67.011h-40.194l53.59-67.012zm-219.38 0l-13.399 67.011h-40.194l53.592-67.012zm-219.384 0l-13.398 67.011h-40.193l53.59-67.012zm-219.383 0l-13.396 67.011h-40.194l53.59-67.012zm-219.382 0l-13.396 67.011h-40.194l53.59-67.012zm-219.382 0l-13.398 67.011h-40.192l53.59-67.012zm-219.382 0l-13.397 67.011h-40.194l53.591-67.012zm-219.38 0l-13.399 67.011h-40.194l53.592-67.012zm-219.384 0l-13.398 67.011h-40.193l53.59-67.012zm-219.382 0l-13.397 67.011h-40.194l53.59-67.012zm-219.381 0l-13.398 67.011h-40.194l53.592-67.012zm-219.384 0l-13.398 67.011h-40.192l53.59-67.012zm-219.382 0l-13.397 67.011h-40.194l53.591-67.012zm-219.38 0l-13.399 67.011h-40.192l53.59-67.012zm-219.384 0l-13.398 67.011h-40.193l53.59-67.012zm-219.382 0L48.75 528.514H8.556l53.59-67.012zm-219.381 0l-13.398 67.011h-40.193l53.59-67.012zm-219.384 0l-13.398 67.011h-40.192l53.59-67.012zm3677.625 85.312l40.784-13.598h44.793l14.076 56.32-99.653-42.722zm-219.384 0l40.786-13.598h44.793l14.076 56.32-99.655-42.722zm-219.38 0l40.784-13.598h44.792l14.077 56.32-99.653-42.722zm-219.381 0l40.781-13.598h44.795l14.075 56.32-99.651-42.722zm-219.384 0l40.783-13.598h44.795l14.075 56.32-99.653-42.722zm-219.38 0l40.78-13.598h44.794l14.077 56.32-99.652-42.722zm-219.383 0l40.782-13.598h44.794l14.076 56.32-99.652-42.722zm-219.383 0l40.783-13.598h44.794l14.076 56.32-99.653-42.722zm-219.381 0l40.781-13.598h44.794l14.077 56.32-99.652-42.722zm-219.382 0l40.781-13.598h44.795l14.075 56.32-99.651-42.722zm-219.384 0l40.783-13.598h44.795l14.075 56.32-99.653-42.722zm-219.38 0l40.781-13.598h44.793l14.077 56.32-99.652-42.722zm-219.383 0l40.782-13.598h44.794l14.076 56.32-99.652-42.722zm-219.383 0l40.783-13.598h44.794l14.076 56.32-99.653-42.722zm-219.381 0l40.782-13.598h44.794l14.076 56.32-99.652-42.722zm-219.382 0l40.781-13.598h44.795l14.077 56.32-99.653-42.722zm-219.382 0l40.781-13.598h44.795l14.075 56.32-99.651-42.722zm-219.382 0l40.781-13.598h44.795l14.077 56.32-99.653-42.722zm3834.516 44.813l-13.27-53.097 66.349 66.37-53.079-13.273zm-219.383 0l-13.269-53.097 66.349 66.37-53.08-13.273zm-219.381 0l-13.271-53.097 66.35 66.37-53.08-13.273zm-219.382 0l-13.27-53.097 66.348 66.37-53.078-13.273zm-219.384 0l-13.268-53.097 66.348 66.37-53.08-13.273zm-219.38 0l-13.272-53.097 66.35 66.37-53.079-13.273zm-219.383 0l-13.27-53.097 66.349 66.37-53.079-13.273zm-219.383 0l-13.269-53.097 66.349 66.37-53.08-13.273zm-219.381 0l-13.271-53.097 66.35 66.37-53.079-13.273zm-219.382 0l-13.27-53.097 66.349 66.37-53.08-13.273zm-219.384 0l-13.268-53.097 66.348 66.37-53.08-13.273zm-219.38 0l-13.272-53.097 66.35 66.37-53.078-13.273zm-219.383 0l-13.27-53.097 66.35 66.37-53.08-13.273zm-219.383 0l-13.269-53.097 66.349 66.37-53.08-13.273zm-219.38 0l-13.272-53.097 66.35 66.37-53.079-13.273zm-219.383 0l-13.27-53.097 66.349 66.37-53.08-13.273zm-219.384 0l-13.268-53.097 66.348 66.37-53.08-13.273zm-219.38 0l-13.272-53.097 66.35 66.37-53.078-13.273zm3573.96 17.393l44.679-59.59 102.612 43.99-118.464 44.439-28.828-28.839zm-219.383 0l44.68-59.59 102.612 43.99-118.463 44.439-28.829-28.839zm-219.382 0l44.68-59.59 102.612 43.99-118.464 44.439-28.828-28.839zm-219.382 0l44.68-59.59 102.612 43.99-118.463 44.439-28.829-28.839zm-219.382 0l44.68-59.59 102.611 43.99-118.462 44.439-28.83-28.839zm-219.382 0l44.68-59.59 102.611 43.99-118.462 44.439-28.83-28.839zm-219.382 0l44.68-59.59 102.611 43.99-118.462 44.439-28.83-28.839zm-219.383 0l44.68-59.59 102.612 43.99-118.462 44.439-28.83-28.839zm-219.382 0l44.68-59.59 102.613 43.99-118.464 44.439-28.829-28.839zm-219.382 0l44.68-59.59 102.612 43.99-118.463 44.439-28.829-28.839zm-219.382 0l44.68-59.59 102.612 43.99-118.463 44.439-28.83-28.839zm-219.382 0l44.68-59.59 102.613 43.99-118.464 44.439-28.83-28.839zm-219.382 0l44.68-59.59 102.611 43.99-118.462 44.439-28.83-28.839zm-219.383 0l44.68-59.59 102.612 43.99-118.461 44.439-28.83-28.839zm-219.382 0l44.68-59.59 102.612 43.99-118.463 44.439-28.829-28.839zm-219.382 0l44.68-59.59 102.612 43.99-118.463 44.439-28.829-28.839zm-219.382 0l44.68-59.59 102.612 43.99-118.462 44.439-28.83-28.839zm-219.382 0l44.68-59.59 102.611 43.99-118.462 44.439-28.83-28.839zm3764.428 31.571l118.074-44.293 45.548 45.563 14.464 43.406h-58.993l-119.093-44.676zm-219.382 0l118.074-44.293 45.548 45.563 14.464 43.406h-58.993l-119.093-44.676zm-219.382 0l118.074-44.293 45.548 45.563 14.464 43.406h-58.992l-119.094-44.676zm-219.383 0l118.076-44.293 45.547 45.563 14.463 43.406h-58.992l-119.094-44.676zm-219.382 0L2525.97 596.3l45.547 45.563 14.463 43.406h-58.993l-119.093-44.676zm-219.382 0l118.076-44.293 45.547 45.563 14.463 43.406h-58.991l-119.095-44.676zm-219.382 0l118.076-44.293 45.546 45.563 14.464 43.406h-58.993l-119.093-44.676zm-219.382 0l118.076-44.293 45.546 45.563 14.464 43.406h-58.993l-119.093-44.676zm-219.382 0l118.076-44.293 45.546 45.563 14.464 43.406h-58.992l-119.094-44.676zm-219.381 0l118.074-44.293 45.547 45.563 14.464 43.406h-58.993l-119.092-44.676zm-219.384 0l118.076-44.293 45.547 45.563 14.463 43.406h-58.993l-119.093-44.676zm-219.382 0L990.295 596.3l45.547 45.563 14.463 43.406h-58.991l-119.095-44.676zm-219.38 0L770.912 596.3l45.547 45.563 14.463 43.406H771.93l-119.092-44.676zm-219.384 0L551.532 596.3l45.545 45.563 14.464 43.406h-58.993l-119.093-44.676zm-219.382 0L332.149 596.3l45.546 45.563 14.464 43.406h-58.992l-119.094-44.676zm-219.381 0L112.766 596.3l45.547 45.563 14.464 43.406h-58.993L-5.308 640.593zm-219.384 0l118.078-44.293 45.545 45.563 14.463 43.406h-58.992l-119.094-44.676zm-219.382 0l118.076-44.293 45.547 45.563 14.463 43.406h-58.991l-119.095-44.676zm3693.57 45.92l-15.548-46.663-.568-.92-41.01-41.023 53.816 13.46 30.88 30.888.836.54 120.675 45.267-103.543 59.187-45.538-60.736zm-219.382 0l-15.548-46.663-.57-.92-41.009-41.023 53.817 13.46 30.88 30.888.836.54 120.674 45.267-103.542 59.187-45.538-60.736zm-219.38 0l-15.55-46.663-.57-.92-41.007-41.023 53.816 13.46 30.88 30.888.835.54 120.673 45.267-103.543 59.187-45.535-60.736zm-219.384 0L2575.8 639.85l-.568-.92-41.01-41.023 53.818 13.46 30.88 30.888.835.54 120.675 45.267-103.544 59.187-45.537-60.736zm-219.382 0l-15.549-46.663-.57-.92-41.008-41.023 53.818 13.46 30.878 30.888.837.54 120.673 45.267-103.542 59.187-45.537-60.736zm-219.381 0l-15.55-46.663-.57-.92-41.007-41.023 53.817 13.46 30.879 30.888.837.54 120.672 45.267-103.543 59.187-45.535-60.736zm-219.384 0l-15.548-46.663-.568-.92-41.01-41.023 53.817 13.46 30.88 30.888.837.54 120.673 45.267-103.543 59.187-45.538-60.736zm-219.382 0l-15.548-46.663-.568-.92-41.01-41.023 53.819 13.46 30.876 30.888.837.54 120.674 45.267-103.542 59.187-45.538-60.736zm-219.38 0l-15.55-46.663-.57-.92-41.007-41.023 53.816 13.46 30.88 30.888.837.54 120.671 45.267-103.543 59.187-45.535-60.736zm-219.384 0l-15.549-46.663-.568-.92-41.01-41.023 53.818 13.46 30.88 30.888.836.54 120.674 45.267-103.543 59.187-45.538-60.736zm-219.382 0l-15.549-46.663-.568-.92-41.01-41.023 53.82 13.46 30.876 30.888.837.54 120.673 45.267-103.542 59.187-45.537-60.736zm-219.381 0l-15.55-46.663-.57-.92-41.007-41.023 53.817 13.46 30.88 30.888.836.54 120.672 45.267-103.543 59.187-45.535-60.736zm-219.383 0l-15.55-46.663-.567-.92-41.01-41.023 53.818 13.46 30.879 30.888.836.54 120.674 45.267-103.543 59.187-45.537-60.736zm-219.383 0L381.98 639.85l-.57-.92-41.008-41.023 53.819 13.46 30.878 30.888.836.54 120.673 45.267-103.542 59.187-45.538-60.736zm-219.38 0l-15.55-46.663-.57-.92-41.007-41.023 53.816 13.46 30.88 30.888.837.54 120.672 45.267-103.544 59.187-45.534-60.736zm-219.384 0l-15.549-46.663-.568-.92-41.01-41.023 53.818 13.46 30.88 30.888.835.54 120.675 45.267L4.302 747.249l-45.538-60.736zm-219.382 0l-15.549-46.663-.568-.92-41.01-41.023 53.82 13.46 30.876 30.888.837.54 120.673 45.267-103.542 59.187-45.537-60.736zm3666.634 3.457h55.078l-68.849 68.87 13.771-68.87zm-219.383 0h55.08l-68.849 68.87 13.769-68.87zm-219.38 0h55.078l-68.849 68.87 13.77-68.87zm-219.383 0h55.08l-68.851 68.87 13.771-68.87zm-219.383 0h55.081l-68.85 68.87 13.769-68.87zm-219.381 0h55.079l-68.85 68.87 13.77-68.87zm-219.382 0h55.079l-68.85 68.87 13.77-68.87zm-219.384 0h55.082l-68.85 68.87 13.768-68.87zm-219.38 0h55.079l-68.85 68.87 13.77-68.87zm-219.383 0h55.08l-68.85 68.87 13.77-68.87zm-219.383 0h55.082l-68.851 68.87 13.769-68.87zm-219.381 0h55.079l-68.85 68.87 13.77-68.87zm-219.382 0h55.079l-68.85 68.87 13.77-68.87zm-219.384 0h55.082l-68.85 68.87 13.768-68.87zm-219.38 0h55.079l-68.85 68.87 13.77-68.87zm-219.383 0h55.08l-68.85 68.87 13.77-68.87zm-219.383 0h55.082l-68.851 68.87 13.769-68.87zm-219.381 0h55.08l-68.85 68.87 13.77-68.87zM3127.7 768.347h41.336l1.66-.689 76.437-76.46 45.384 60.531 1.138.822 33.268 11.093h-32.526l-.742.12-47.01 15.675-1.139.82-45.383 60.533-72.423-72.445zm-219.383 0h41.337l1.662-.689 76.435-76.46 45.383 60.531 1.139.822 33.268 11.093h-32.526l-.742.12-47.01 15.675-1.14.82-45.382 60.533-72.424-72.445zm-219.38 0h41.334l1.661-.689 76.437-76.46 45.382 60.531 1.139.822 33.27 11.093h-32.527l-.743.12-47.01 15.675-1.14.82-45.382 60.533-72.422-72.445zm-219.383 0h41.335l1.661-.689 76.435-76.46 45.385 60.531 1.137.822 33.27 11.093h-32.527l-.743.12-47.01 15.675-1.137.82-45.385 60.533-72.421-72.445zm-219.383 0h41.336l1.662-.689 76.436-76.46 45.383 60.531 1.137.822 33.27 11.093h-32.527l-.743.12-47.01 15.675-1.138.82-45.383 60.533-72.423-72.445zm-219.381 0h41.335l1.662-.689 76.435-76.46 45.382 60.531 1.138.822 33.271 11.093h-32.527l-.744.12-47.01 15.675-1.138.82-45.382 60.533-72.422-72.445zm-219.382 0h41.336l1.66-.689 76.436-76.46 45.384 60.531 1.137.822 33.269 11.093h-32.526l-.743.12-47.01 15.675-1.138.82-45.383 60.533-72.422-72.445zm-219.384 0h41.337l1.662-.689 76.435-76.46 45.383 60.531 1.138.822 33.269 11.093h-32.525l-.744.12-47.01 15.675-1.138.82-45.383 60.533-72.424-72.445zm-219.38 0h41.334l1.663-.689 76.435-76.46 45.382 60.531 1.139.822 33.27 11.093h-32.527l-.743.12-47.01 15.675-1.14.82-45.382 60.533-72.422-72.445zm-219.383 0h41.337l1.66-.689 76.436-76.46 45.383 60.531 1.138.822 33.269 11.093h-32.526l-.743.12-47.01 15.675-1.138.82-45.384 60.533-72.422-72.445zm-219.383 0h41.336l1.663-.689 76.435-76.46 45.383 60.531 1.137.822 33.27 11.093h-32.525l-.745.12-47.01 15.675-1.137.82-45.384 60.533-72.423-72.445zm-219.381 0h41.335l1.662-.689 76.435-76.46 45.383 60.531 1.138.822 33.27 11.093h-32.527l-.743.12-47.01 15.675-1.139.82-45.382 60.533-72.422-72.445zm-219.382 0h41.335l1.66-.689 76.437-76.46 45.384 60.531 1.137.822 33.27 11.093h-32.527l-.743.12-47.01 15.675-1.138.82-45.383 60.533-72.422-72.445zm-219.384 0h41.337l1.662-.689 76.435-76.46 45.384 60.531 1.137.822 33.269 11.093H442.43l-.743.12-47.01 15.675-1.138.82-45.383 60.533-72.424-72.445zm-219.38 0h41.335l1.662-.689 76.435-76.46 45.382 60.531 1.139.822 33.27 11.093h-32.527l-.743.12-47.01 15.675-1.14.82-45.381 60.533-72.423-72.445zm-219.383 0h41.335l1.661-.689 76.437-76.46L1.785 751.73l1.138.822 33.269 11.093H3.666l-.743.12-47.01 15.675-1.138.82-45.384 60.533-72.422-72.445zm-219.383 0h41.336l1.663-.689 76.435-76.46 45.383 60.531 1.137.822 33.27 11.093h-32.527l-.743.12-47.01 15.675-1.137.82-45.384 60.533-72.423-72.445zm3682.542-18.594l94.428-53.976-53.959 67.47-40.469-13.494zm-219.38 0l94.425-53.976-53.958 67.47-40.468-13.494zm-219.383 0l94.426-53.976-53.958 67.47-40.468-13.494zm-219.382 0l94.424-53.976-53.956 67.47-40.468-13.494zm-219.382 0l94.424-53.976-53.956 67.47-40.468-13.494zm-219.382 0l94.424-53.976-53.956 67.47-40.468-13.494zm-219.383 0l94.425-53.976-53.956 67.47-40.469-13.494zm-219.382 0l94.426-53.976-53.958 67.47-40.468-13.494zm-219.382 0l94.425-53.976-53.957 67.47-40.468-13.494zm-219.382 0l94.424-53.976-53.956 67.47-40.468-13.494zm-219.382 0l94.426-53.976-53.958 67.47-40.468-13.494zm-219.382 0l94.424-53.976-53.956 67.47-40.468-13.494zm-219.383 0l94.426-53.976-53.957 67.47-40.469-13.494zm-219.382 0l94.426-53.976-53.958 67.47-40.468-13.494zm-219.382 0l94.425-53.976-53.957 67.47-40.468-13.494zm-219.382 0l94.426-53.976-53.958 67.47-40.468-13.494zm-219.382 0l94.426-53.976-53.958 67.47-40.468-13.494zm-219.382 0l94.424-53.976-53.956 67.47-40.468-13.494zm3829.256-53.12l-13.396 67.011h-40.194l53.59-67.012zm-219.38 0l-13.398 67.011h-40.194l53.592-67.012zm-219.384 0l-13.398 67.011h-40.193l53.591-67.012zm-219.382 0l-13.397 67.011h-40.194l53.59-67.012zm-219.382 0l-13.397 67.011h-40.194l53.59-67.012zm-219.382 0l-13.398 67.011h-40.193l53.59-67.012zm-219.383 0l-13.396 67.011h-40.194l53.59-67.012zm-219.38 0l-13.398 67.011h-40.194l53.592-67.012zm-219.384 0l-13.398 67.011h-40.192l53.59-67.012zm-219.382 0l-13.397 67.011h-40.194l53.591-67.012zm-219.38 0l-13.399 67.011h-40.194l53.592-67.012zm-219.384 0l-13.398 67.011h-40.193l53.59-67.012zm-219.382 0l-13.397 67.011h-40.194l53.59-67.012zm-219.381 0l-13.398 67.011h-40.193l53.59-67.012zm-219.384 0l-13.398 67.011H274.95l53.59-67.012zm-219.382 0L95.76 763.643H55.566l53.591-67.012zm-219.38 0l-13.399 67.011h-40.192l53.59-67.012zm-219.384 0l-13.398 67.011h-40.193l53.59-67.012zm3583.603 85.312l40.785-13.598h44.793l14.075 56.32-99.653-42.722zm-219.383 0l40.785-13.598h44.794l14.075 56.32-99.654-42.722zm-219.38 0l40.783-13.598h44.792l14.077 56.32-99.652-42.722zm-219.382 0l40.782-13.598h44.794l14.076 56.32-99.652-42.722zm-219.383 0l40.783-13.598h44.794l14.076 56.32-99.653-42.722zm-219.381 0l40.781-13.598h44.794l14.077 56.32-99.652-42.722zm-219.382 0l40.781-13.598h44.795l14.075 56.32-99.651-42.722zm-219.384 0l40.783-13.598h44.795l14.075 56.32-99.653-42.722zm-219.38 0l40.781-13.598h44.793l14.077 56.32-99.652-42.722zm-219.383 0l40.782-13.598h44.794l14.076 56.32-99.652-42.722zm-219.383 0l40.783-13.598h44.794l14.076 56.32-99.653-42.722zm-219.381 0l40.782-13.598h44.793l14.077 56.32-99.652-42.722zm-219.382 0l40.781-13.598h44.795l14.076 56.32-99.652-42.722zm-219.384 0l40.783-13.598h44.795l14.075 56.32-99.653-42.722zm-219.38 0l40.781-13.598h44.795l14.075 56.32-99.651-42.722zm-219.383 0l40.782-13.598h44.794l14.077 56.32-99.653-42.722zm-219.382 0l40.782-13.598h44.794l14.076 56.32-99.652-42.722zm-219.382 0l40.782-13.598h44.794l14.077 56.32-99.653-42.722zm3834.517 44.813l-13.27-53.099 66.348 66.372-53.078-13.273zm-219.384 0l-13.268-53.099 66.348 66.372-53.08-13.273zm-219.38 0l-13.272-53.099 66.35 66.372-53.079-13.273zm-219.383 0l-13.27-53.099 66.349 66.372-53.079-13.273zm-219.383 0l-13.269-53.099 66.349 66.372-53.08-13.273zm-219.381 0l-13.271-53.099 66.35 66.372-53.079-13.273zm-219.382 0l-13.27-53.099 66.349 66.372-53.08-13.273zm-219.384 0l-13.268-53.099 66.348 66.372-53.08-13.273zm-219.38 0l-13.272-53.099 66.35 66.372-53.079-13.273zm-219.383 0l-13.27-53.099 66.35 66.372-53.08-13.273zm-219.383 0l-13.269-53.099 66.349 66.372-53.08-13.273zm-219.381 0l-13.271-53.099 66.35 66.372-53.079-13.273zm-219.382 0l-13.27-53.099 66.349 66.372-53.08-13.273zm-219.384 0l-13.268-53.099 66.348 66.372-53.08-13.273zm-219.38 0l-13.272-53.099 66.35 66.372-53.078-13.273zm-219.383 0l-13.27-53.099 66.35 66.372-53.08-13.273zm-219.383 0l-13.269-53.099 66.349 66.372-53.08-13.273zm-219.38 0l-13.272-53.099 66.35 66.372-53.079-13.273zM3203.48 844.15l44.68-59.591 102.612 43.991-118.464 44.437-28.828-28.837zm-219.382 0l44.68-59.591 102.611 43.991-118.462 44.437-28.83-28.837zm-219.382 0l44.68-59.591 102.611 43.991-118.462 44.437-28.83-28.837zm-219.382 0l44.68-59.591 102.611 43.991-118.462 44.437-28.83-28.837zm-219.383 0l44.68-59.591 102.612 43.991-118.462 44.437-28.83-28.837zm-219.382 0l44.68-59.591 102.612 43.991-118.463 44.437-28.829-28.837zm-219.382 0l44.68-59.591 102.612 43.991-118.463 44.437-28.829-28.837zm-219.382 0l44.68-59.591 102.612 43.991-118.463 44.437-28.83-28.837zm-219.382 0l44.68-59.591 102.613 43.991-118.464 44.437-28.83-28.837zm-219.382 0l44.68-59.591 102.611 43.991-118.462 44.437-28.83-28.837zm-219.383 0l44.68-59.591 102.612 43.991-118.462 44.437-28.83-28.837zm-219.382 0l44.68-59.591 102.613 43.991-118.464 44.437-28.829-28.837zm-219.382 0l44.68-59.591 102.612 43.991-118.463 44.437-28.829-28.837zm-219.382 0l44.68-59.591 102.612 43.991-118.462 44.437-28.83-28.837zm-219.382 0l44.68-59.591 102.611 43.991-118.462 44.437-28.83-28.837zm-219.382 0l44.68-59.591L60.04 828.551l-118.462 44.437-28.83-28.837zm-219.382 0l44.68-59.591 102.611 43.991-118.461 44.437-28.83-28.837zm-219.383 0l44.68-59.591 102.612 43.991-118.462 44.437-28.83-28.837zm3764.428 31.571l118.075-44.293 45.548 45.564 14.463 43.404h-58.992l-119.094-44.675zm-219.382 0l118.075-44.293 45.548 45.564 14.463 43.404h-58.993l-119.093-44.675zm-219.382 0l118.075-44.293 45.548 45.564 14.463 43.404h-58.991l-119.095-44.675zm-219.382 0l118.076-44.293 45.546 45.564 14.464 43.404h-58.993l-119.093-44.675zm-219.382 0l118.076-44.293 45.546 45.564 14.464 43.404h-58.993l-119.093-44.675zm-219.382 0l118.076-44.293 45.546 45.564 14.464 43.404h-58.992l-119.094-44.675zm-219.383 0l118.076-44.293 45.547 45.564 14.464 43.404h-58.993l-119.094-44.675zm-219.382 0l118.076-44.293 45.547 45.564 14.463 43.404h-58.993l-119.093-44.675zm-219.382 0l118.076-44.293 45.547 45.564 14.463 43.404h-58.991l-119.095-44.675zm-219.38 0l118.074-44.293 45.547 45.564 14.463 43.404h-58.993l-119.092-44.675zm-219.384 0l118.076-44.293 45.546 45.564 14.464 43.404h-58.993l-119.093-44.675zm-219.382 0l118.076-44.293 45.546 45.564 14.464 43.404h-58.992L825.21 875.722zm-219.382 0l118.075-44.293 45.547 45.564 14.464 43.404H724.92l-119.093-44.675zm-219.383 0l118.076-44.293 45.547 45.564 14.463 43.404h-58.992l-119.094-44.675zm-219.382 0l118.076-44.293 45.547 45.564 14.463 43.404h-58.991l-119.095-44.675zm-219.38 0l118.074-44.293 45.547 45.564 14.463 43.404H66.773l-119.092-44.675zm-219.384 0l118.077-44.293 45.545 45.564 14.464 43.404h-58.993l-119.093-44.675zm-219.382 0l118.076-44.293 45.546 45.564 14.464 43.404h-58.992l-119.094-44.675zm3693.57 45.92l-15.549-46.663-.568-.92-41.01-41.023 53.817 13.46 30.88 30.888.836.54 120.675 45.267-103.544 59.187-45.537-60.737zm-219.382 0l-15.549-46.663-.57-.92-41.008-41.023 53.816 13.46 30.88 30.888.837.54 120.673 45.267-103.542 59.187-45.537-60.737zm-219.381 0l-15.55-46.663-.57-.92-41.007-41.023 53.817 13.46 30.879 30.888.836.54L2912.8 923.19l-103.543 59.187-45.535-60.737zm-219.384 0l-15.548-46.663-.568-.92-41.01-41.023 53.817 13.46 30.88 30.888.836.54 120.674 45.267-103.543 59.187-45.538-60.737zm-219.382 0l-15.548-46.663-.57-.92-41.009-41.023 53.818 13.46 30.878 30.888.837.54 120.674 45.267-103.542 59.187-45.538-60.737zm-219.38 0l-15.55-46.663-.57-.92-41.007-41.023 53.816 13.46 30.88 30.888.837.54 120.671 45.267-103.543 59.187-45.535-60.737zm-219.384 0l-15.549-46.663-.568-.92-41.01-41.023 53.818 13.46 30.88 30.888.836.54 120.674 45.267-103.543 59.187-45.538-60.737zm-219.382 0l-15.549-46.663-.568-.92-41.01-41.023 53.82 13.46 30.876 30.888.837.54 120.673 45.267-103.542 59.187-45.537-60.737zm-219.381 0l-15.55-46.663-.57-.92-41.007-41.023 53.817 13.46 30.88 30.888.836.54 120.672 45.267-103.543 59.187-45.535-60.737zm-219.383 0l-15.55-46.663-.567-.92-41.01-41.023 53.818 13.46 30.879 30.888.837.54 120.673 45.267-103.543 59.187-45.537-60.737zm-219.383 0l-15.548-46.663-.568-.92-41.01-41.023 53.819 13.46 30.876 30.888.837.54 120.674 45.267-103.542 59.187-45.538-60.737zm-219.38 0l-15.55-46.663-.57-.92-41.007-41.023 53.816 13.46 30.88 30.888.837.54 120.672 45.267-103.544 59.187-45.534-60.737zm-219.384 0l-15.549-46.663-.568-.92-41.01-41.023 53.818 13.46 30.88 30.888.835.54 120.675 45.267-103.543 59.187L569.9 921.64zm-219.382 0l-15.549-46.663-.57-.92-41.008-41.023 53.82 13.46 30.877 30.888.836.54 120.673 45.267-103.542 59.187-45.537-60.737zm-219.38 0l-15.55-46.663-.57-.92-41.008-41.023 53.817 13.46 30.88 30.888.836.54 120.672 45.267-103.543 59.187-45.535-60.737zm-219.384 0l-15.549-46.663-.568-.92-41.01-41.023 53.818 13.46 30.879 30.888.836.54L60.834 923.19l-103.543 59.187-45.537-60.737zm-219.382 0l-15.55-46.663-.567-.92-41.01-41.023 53.819 13.46 30.877 30.888.837.54 120.673 45.267-103.542 59.187-45.537-60.737zm3666.634 3.457h55.078l-68.85 68.87 13.772-68.87zm-219.383 0h55.08l-68.85 68.87 13.77-68.87zm-219.381 0h55.079l-68.85 68.87 13.77-68.87zm-219.382 0h55.079l-68.85 68.87 13.77-68.87zm-219.384 0h55.082l-68.85 68.87 13.768-68.87zm-219.38 0h55.078l-68.849 68.87 13.77-68.87zm-219.383 0h55.08l-68.85 68.87 13.77-68.87zm-219.383 0h55.081l-68.85 68.87 13.769-68.87zm-219.381 0h55.079l-68.85 68.87 13.77-68.87zm-219.382 0h55.079l-68.85 68.87 13.77-68.87zm-219.384 0h55.082l-68.85 68.87 13.768-68.87zm-219.38 0h55.079l-68.85 68.87 13.77-68.87zm-219.383 0h55.08l-68.85 68.87 13.77-68.87zm-219.383 0h55.082l-68.851 68.87 13.769-68.87zm-219.381 0h55.08l-68.85 68.87 13.77-68.87zm-219.382 0h55.079l-68.85 68.87 13.77-68.87zm-219.384 0h55.082l-68.85 68.87 13.768-68.87zm-219.38 0h55.079l-68.85 68.87 13.77-68.87zm3570.614 1.228l45.383 60.531 1.139.822 47.01 15.674.742.121h32.526l-33.268 11.093-1.138.82-45.384 60.533-76.436-76.46-1.661-.688H3127.7l72.423-72.446zm-219.382 0l45.383 60.531 1.139.822 47.01 15.674.742.121h32.526l-33.268 11.093-1.139.82-45.383 60.533-76.435-76.46-1.662-.688h-41.337l72.424-72.446zm-219.383 0l45.382 60.531 1.14.822 47.01 15.674.743.121h32.527l-33.27 11.093-1.14.82-45.381 60.533-76.437-76.46-1.66-.688h-41.336l72.422-72.446zm-219.383 0l45.385 60.531 1.137.822 47.01 15.674.743.121h32.526l-33.269 11.093-1.137.82-45.385 60.533-76.435-76.46-1.66-.688h-41.336l72.42-72.446zm-219.38 0l45.382 60.531 1.138.822 47.01 15.674.743.121h32.526l-33.269 11.093-1.137.82-45.383 60.533-76.436-76.46-1.662-.688h-41.336l72.423-72.446zm-219.383 0l45.382 60.531 1.137.822 47.01 15.674.745.121h32.527l-33.271 11.093-1.138.82-45.382 60.533-76.435-76.46-1.662-.688h-41.335l72.422-72.446zm-219.382 0l45.383 60.531 1.138.822 47.01 15.674.743.121h32.526l-33.269 11.093-1.137.82-45.384 60.533-76.436-76.46-1.66-.688h-41.336l72.422-72.446zm-219.382 0l45.383 60.531 1.137.822 47.01 15.674.745.121h32.525l-33.27 11.093-1.137.82-45.383 60.533-76.435-76.46-1.662-.688h-41.337l72.424-72.446zm-219.383 0l45.383 60.531 1.138.822 47.01 15.674.744.121h32.527l-33.27 11.093-1.139.82-45.382 60.533-76.435-76.46-1.663-.688h-41.335l72.422-72.446zm-219.382 0l45.384 60.531 1.137.822 47.01 15.674.744.121h32.526l-33.27 11.093-1.137.82-45.383 60.533-76.437-76.46-1.66-.688h-41.336l72.422-72.446zm-219.382 0l45.384 60.531 1.137.822 47.01 15.674.745.121h32.524l-33.269 11.093-1.137.82-45.383 60.533-76.435-76.46-1.663-.688H933.88l72.423-72.446zm-219.382 0l45.382 60.531 1.139.822 47.01 15.674.743.121h32.528l-33.27 11.093-1.14.82-45.382 60.533-76.435-76.46-1.662-.688h-41.335l72.422-72.446zm-219.382 0l45.383 60.531 1.138.822 47.01 15.674.743.121h32.526l-33.269 11.093-1.137.82-45.384 60.533-76.436-76.46-1.661-.688h-41.335l72.422-72.446zm-219.382 0l45.383 60.531 1.137.822 47.01 15.674.744.121h32.526l-33.27 11.093-1.136.82-45.384 60.533-76.435-76.46-1.662-.688h-41.337l72.424-72.446zm-219.382 0l45.382 60.531 1.138.822 47.01 15.674.744.121h32.527l-33.27 11.093-1.139.82-45.382 60.533-76.435-76.46-1.662-.688H56.35l72.423-72.446zm-219.383 0l45.384 60.531 1.137.822 47.01 15.674.744.121h32.526l-33.27 11.093-1.137.82-45.383 60.533-76.437-76.46-1.66-.688h-41.336l72.422-72.446zm-219.382 0l45.384 60.531 1.137.822 47.01 15.674.743.121h32.527l-33.27 11.093-1.137.82-45.383 60.533-76.435-76.46-1.663-.688h-41.336l72.423-72.446zm3563.109 58.555l94.428-53.977-53.959 67.47-40.47-13.493zm-219.381 0l94.425-53.977-53.957 67.47-40.468-13.493zm-219.382 0l94.425-53.977-53.957 67.47-40.468-13.493zm-219.383 0l94.425-53.977-53.956 67.47-40.469-13.493zm-219.382 0l94.425-53.977-53.957 67.47-40.468-13.493zm-219.382 0l94.424-53.977-53.956 67.47-40.468-13.493zm-219.382 0l94.424-53.977-53.956 67.47-40.468-13.493zm-219.382 0l94.425-53.977-53.957 67.47-40.468-13.493zm-219.382 0l94.424-53.977-53.956 67.47-40.468-13.493zm-219.383 0l94.425-53.977-53.956 67.47-40.469-13.493zm-219.382 0l94.426-53.977-53.958 67.47-40.468-13.493zm-219.382 0l94.425-53.977-53.957 67.47-40.468-13.493zm-219.382 0l94.426-53.977L661 998.375l-40.468-13.493zm-219.382 0l94.426-53.977-53.958 67.47-40.468-13.493zm-219.382 0l94.424-53.977-53.956 67.47-40.468-13.493zm-219.382 0l94.425-53.977-53.957 67.47-40.468-13.493zm-219.383 0l94.426-53.977-53.957 67.47-40.469-13.493zm-219.382 0l94.425-53.977-53.957 67.47-40.468-13.493zm3829.257-53.12l-13.397 67.01h-40.194l53.59-67.01zm-219.38 0l-13.399 67.01h-40.194l53.592-67.01zm-219.384 0l-13.398 67.01h-40.193l53.59-67.01zm-219.383 0l-13.396 67.01h-40.194l53.59-67.01zm-219.382 0l-13.396 67.01h-40.194l53.59-67.01zm-219.382 0l-13.398 67.01h-40.192l53.59-67.01zm-219.382 0l-13.397 67.01h-40.194l53.591-67.01zm-219.38 0l-13.399 67.01h-40.194l53.592-67.01zm-219.384 0l-13.398 67.01h-40.193l53.59-67.01zm-219.382 0l-13.397 67.01h-40.194l53.59-67.01zm-219.381 0l-13.398 67.01h-40.194l53.592-67.01zm-219.384 0l-13.398 67.01h-40.192l53.59-67.01zm-219.382 0l-13.397 67.01h-40.194l53.591-67.01zm-219.38 0l-13.399 67.01h-40.192l53.59-67.01zm-219.384 0l-13.398 67.01h-40.193l53.59-67.01zm-219.382 0l-13.397 67.01H8.556l53.59-67.01zm-219.381 0l-13.398 67.01h-40.193l53.59-67.01zm-219.384 0l-13.398 67.01h-40.192l53.59-67.01zm3677.625 85.312l40.784-13.599h44.793l14.076 56.322-99.653-42.723zm-219.384 0l40.786-13.599h44.793l14.076 56.322-99.655-42.723zm-219.38 0l40.784-13.599h44.792l14.077 56.322-99.653-42.723zm-219.381 0l40.781-13.599h44.795l14.075 56.322-99.651-42.723zm-219.384 0l40.783-13.599h44.795l14.075 56.322-99.653-42.723zm-219.38 0l40.78-13.599h44.794l14.077 56.322-99.652-42.723zm-219.383 0l40.782-13.599h44.794l14.076 56.322-99.652-42.723zm-219.383 0l40.783-13.599h44.794l14.076 56.322-99.653-42.723zm-219.381 0l40.781-13.599h44.794l14.077 56.322-99.652-42.723zm-219.382 0l40.781-13.599h44.795l14.075 56.322-99.651-42.723zm-219.384 0l40.783-13.599h44.795l14.075 56.322-99.653-42.723zm-219.38 0l40.781-13.599h44.793l14.077 56.322-99.652-42.723zm-219.383 0l40.782-13.599h44.794l14.076 56.322-99.652-42.723zm-219.383 0l40.783-13.599h44.794l14.076 56.322-99.653-42.723zm-219.381 0l40.782-13.599h44.794l14.076 56.322-99.652-42.723zm-219.382 0l40.781-13.599h44.795l14.077 56.322-99.653-42.723zm-219.382 0l40.781-13.599h44.795l14.075 56.322-99.651-42.723zm-219.382 0l40.781-13.599h44.795l14.077 56.322-99.653-42.723zm3834.516 44.813l-13.27-53.099 66.349 66.373-53.079-13.274zm-219.383 0l-13.269-53.099 66.349 66.373-53.08-13.274zm-219.381 0l-13.271-53.099 66.35 66.373-53.08-13.274zm-219.382 0l-13.27-53.099 66.348 66.373-53.078-13.274zm-219.384 0l-13.268-53.099 66.348 66.373-53.08-13.274zm-219.38 0l-13.272-53.099 66.35 66.373-53.079-13.274zm-219.383 0l-13.27-53.099 66.349 66.373-53.079-13.274zm-219.383 0l-13.269-53.099 66.349 66.373-53.08-13.274zm-219.381 0l-13.271-53.099 66.35 66.373-53.079-13.274zm-219.382 0l-13.27-53.099 66.349 66.373-53.08-13.274zm-219.384 0l-13.268-53.099 66.348 66.373-53.08-13.274zm-219.38 0l-13.272-53.099 66.35 66.373-53.078-13.274zm-219.383 0l-13.27-53.099 66.35 66.373-53.08-13.274zm-219.383 0l-13.269-53.099 66.349 66.373-53.08-13.274zm-219.38 0l-13.272-53.099 66.35 66.373-53.079-13.274zm-219.383 0l-13.27-53.099 66.349 66.373-53.08-13.274zm-219.384 0l-13.268-53.099 66.348 66.373-53.08-13.274zm-219.38 0l-13.272-53.099 66.35 66.373-53.078-13.274zm3573.96 17.393l44.679-59.591 102.612 43.991-118.464 44.437-28.828-28.837zm-219.383 0l44.68-59.591 102.612 43.991-118.463 44.437-28.829-28.837zm-219.382 0l44.68-59.591 102.612 43.991-118.464 44.437-28.828-28.837zm-219.382 0l44.68-59.591 102.612 43.991-118.463 44.437-28.829-28.837zm-219.382 0l44.68-59.591 102.611 43.991-118.462 44.437-28.83-28.837zm-219.382 0l44.68-59.591 102.611 43.991-118.462 44.437-28.83-28.837zm-219.382 0l44.68-59.591 102.611 43.991-118.462 44.437-28.83-28.837zm-219.383 0l44.68-59.591 102.612 43.991-118.462 44.437-28.83-28.837zm-219.382 0l44.68-59.591 102.613 43.991-118.464 44.437-28.829-28.837zm-219.382 0l44.68-59.591 102.612 43.991-118.463 44.437-28.829-28.837zm-219.382 0l44.68-59.591 102.612 43.991-118.463 44.437-28.83-28.837zm-219.382 0l44.68-59.591 102.613 43.991-118.464 44.437-28.83-28.837zm-219.382 0l44.68-59.591 102.611 43.991-118.462 44.437-28.83-28.837zm-219.383 0l44.68-59.591 102.612 43.991-118.461 44.437-28.83-28.837zm-219.382 0l44.68-59.591 102.612 43.991-118.463 44.437-28.829-28.837zm-219.382 0l44.68-59.591 102.612 43.991-118.463 44.437-28.829-28.837zm-219.382 0l44.68-59.591 102.612 43.991-118.462 44.437-28.83-28.837zm-219.382 0l44.68-59.591 102.611 43.991-118.462 44.437-28.83-28.837zm3764.428 31.57l118.074-44.292 45.548 45.564 14.464 43.403h-58.993l-119.093-44.674zm-219.382 0l118.074-44.292 45.548 45.564 14.464 43.403h-58.993l-119.093-44.674zm-219.382 0l118.074-44.292 45.548 45.564 14.464 43.403h-58.992l-119.094-44.674zm-219.383 0l118.076-44.292 45.547 45.564 14.463 43.403h-58.992l-119.094-44.674zm-219.382 0l118.076-44.292 45.547 45.564 14.463 43.403h-58.993l-119.093-44.674zm-219.382 0l118.076-44.292 45.547 45.564 14.463 43.403h-58.991l-119.095-44.674zm-219.382 0l118.076-44.292 45.546 45.564 14.464 43.403h-58.993l-119.093-44.674zm-219.382 0l118.076-44.292 45.546 45.564 14.464 43.403h-58.993l-119.093-44.674zm-219.382 0l118.076-44.292 45.546 45.564 14.464 43.403h-58.992l-119.094-44.674zm-219.381 0l118.074-44.292 45.547 45.564 14.464 43.403h-58.993l-119.092-44.674zm-219.384 0l118.076-44.292 45.547 45.564 14.463 43.403h-58.993l-119.093-44.674zm-219.382 0l118.076-44.292 45.547 45.564 14.463 43.403h-58.991l-119.095-44.674zm-219.38 0l118.074-44.292 45.547 45.564 14.463 43.403H771.93l-119.092-44.674zm-219.384 0l118.077-44.292 45.545 45.564 14.464 43.403h-58.993l-119.093-44.674zm-219.382 0l118.076-44.292 45.546 45.564 14.464 43.403h-58.992l-119.094-44.674zm-219.381 0l118.074-44.292 45.547 45.564 14.464 43.403h-58.993l-119.092-44.674zm-219.384 0l118.078-44.292 45.545 45.564 14.463 43.403h-58.992l-119.094-44.674zm-219.382 0l118.076-44.292 45.547 45.564 14.463 43.403h-58.991l-119.095-44.674zm3693.57 45.92l-15.548-46.662-.568-.92-41.01-41.022 53.816 13.458 30.88 30.888.836.54 120.675 45.267-103.543 59.188-45.538-60.737zm-219.382 0l-15.548-46.662-.57-.92-41.009-41.022 53.817 13.458 30.88 30.888.836.54 120.674 45.267-103.542 59.188-45.538-60.737zm-219.38 0l-15.55-46.662-.57-.92-41.007-41.022 53.816 13.458 30.88 30.888.835.54 120.673 45.267-103.543 59.188-45.535-60.737zm-219.384 0l-15.549-46.662-.568-.92-41.01-41.022 53.818 13.458 30.88 30.888.835.54 120.675 45.267-103.544 59.188-45.537-60.737zm-219.382 0l-15.549-46.662-.57-.92-41.008-41.022 53.818 13.458 30.878 30.888.837.54 120.673 45.267-103.542 59.188-45.537-60.737zm-219.381 0l-15.55-46.662-.57-.92-41.007-41.022 53.817 13.458 30.879 30.888.837.54 120.672 45.267-103.543 59.188-45.535-60.737zm-219.384 0l-15.548-46.662-.568-.92-41.01-41.022 53.817 13.458 30.88 30.888.837.54 120.673 45.267-103.543 59.188-45.538-60.737zm-219.382 0l-15.548-46.662-.568-.92-41.01-41.022 53.819 13.458 30.876 30.888.837.54 120.674 45.267-103.542 59.188-45.538-60.737zm-219.38 0l-15.55-46.662-.57-.92-41.007-41.022 53.816 13.458 30.88 30.888.837.54 120.671 45.267-103.543 59.188-45.535-60.737zm-219.384 0l-15.549-46.662-.568-.92-41.01-41.022 53.818 13.458 30.88 30.888.836.54 120.674 45.267-103.543 59.188-45.538-60.737zm-219.382 0l-15.549-46.662-.568-.92-41.01-41.022 53.82 13.458 30.876 30.888.837.54 120.673 45.267-103.542 59.188-45.537-60.737zm-219.381 0l-15.55-46.662-.57-.92-41.007-41.022 53.817 13.458 30.88 30.888.836.54 120.672 45.267-103.543 59.188-45.535-60.737zm-219.383 0l-15.55-46.662-.567-.92-41.01-41.022 53.818 13.458 30.879 30.888.836.54 120.674 45.267-103.543 59.188-45.537-60.737zm-219.383 0l-15.548-46.662-.57-.92-41.008-41.022 53.819 13.458 30.878 30.888.836.54 120.673 45.267-103.542 59.188-45.538-60.737zm-219.38 0l-15.55-46.662-.57-.92-41.007-41.022 53.816 13.458 30.88 30.888.837.54 120.672 45.267-103.544 59.188-45.534-60.737zm-219.384 0l-15.549-46.662-.568-.92-41.01-41.022 53.818 13.458 30.88 30.888.835.54 120.675 45.267-103.543 59.188-45.538-60.737zm-219.382 0l-15.549-46.662-.568-.92-41.01-41.022 53.82 13.458 30.876 30.888.837.54 120.673 45.267-103.542 59.188-45.537-60.737zm3666.634 3.458h55.078l-68.849 68.87 13.771-68.87zm-219.383 0h55.08l-68.849 68.87 13.769-68.87zm-219.38 0h55.078l-68.849 68.87 13.77-68.87zm-219.383 0h55.08l-68.851 68.87 13.771-68.87zm-219.383 0h55.081l-68.85 68.87 13.769-68.87zm-219.381 0h55.079l-68.85 68.87 13.77-68.87zm-219.382 0h55.079l-68.85 68.87 13.77-68.87zm-219.384 0h55.082l-68.85 68.87 13.768-68.87zm-219.38 0h55.079l-68.85 68.87 13.77-68.87zm-219.383 0h55.08l-68.85 68.87 13.77-68.87zm-219.383 0h55.082l-68.851 68.87 13.769-68.87zm-219.381 0h55.079l-68.85 68.87 13.77-68.87zm-219.382 0h55.079l-68.85 68.87 13.77-68.87zm-219.384 0h55.082l-68.85 68.87 13.768-68.87zm-219.38 0h55.079l-68.85 68.87 13.77-68.87zm-219.383 0h55.08l-68.85 68.87 13.77-68.87zm-219.383 0h55.082l-68.851 68.87 13.769-68.87zm-219.381 0h55.08l-68.85 68.87 13.77-68.87zm3451.181 78.376h41.336l1.66-.688 76.437-76.46 45.384 60.531 1.138.822 33.268 11.093h-32.526l-.742.12-47.01 15.675-1.139.82-45.383 60.533-72.423-72.446zm-219.383 0h41.337l1.662-.688 76.435-76.46 45.383 60.531 1.139.822 33.268 11.093h-32.526l-.742.12-47.01 15.675-1.14.82-45.382 60.533-72.424-72.446zm-219.38 0h41.334l1.661-.688 76.437-76.46 45.382 60.531 1.139.822 33.27 11.093h-32.527l-.743.12-47.01 15.675-1.14.82-45.382 60.533-72.422-72.446zm-219.383 0h41.335l1.661-.688 76.435-76.46 45.385 60.531 1.137.822 33.27 11.093h-32.527l-.743.12-47.01 15.675-1.137.82-45.385 60.533-72.421-72.446zm-219.383 0h41.336l1.662-.688 76.436-76.46 45.383 60.531 1.137.822 33.27 11.093h-32.527l-.743.12-47.01 15.675-1.138.82-45.383 60.533-72.423-72.446zm-219.381 0h41.335l1.662-.688 76.435-76.46 45.382 60.531 1.138.822 33.271 11.093h-32.527l-.744.12-47.01 15.675-1.138.82-45.382 60.533-72.422-72.446zm-219.382 0h41.336l1.66-.688 76.436-76.46 45.384 60.531 1.137.822 33.269 11.093h-32.526l-.743.12-47.01 15.675-1.138.82-45.383 60.533-72.422-72.446zm-219.384 0h41.337l1.662-.688 76.435-76.46 45.383 60.531 1.138.822 33.269 11.093h-32.525l-.744.12-47.01 15.675-1.138.82-45.383 60.533-72.424-72.446zm-219.38 0h41.334l1.663-.688 76.435-76.46 45.382 60.531 1.139.822 33.27 11.093h-32.527l-.743.12-47.01 15.675-1.14.82-45.382 60.533-72.422-72.446zm-219.383 0h41.337l1.66-.688 76.436-76.46 45.383 60.531 1.138.822 33.269 11.093h-32.526l-.743.12-47.01 15.675-1.138.82-45.384 60.533-72.422-72.446zm-219.383 0h41.336l1.663-.688 76.435-76.46 45.383 60.531 1.137.822 33.27 11.093h-32.525l-.745.12-47.01 15.675-1.137.82-45.384 60.533-72.423-72.446zm-219.381 0h41.335l1.662-.688 76.435-76.46 45.383 60.531 1.138.822 33.27 11.093h-32.527l-.743.12-47.01 15.675-1.139.82-45.382 60.533-72.422-72.446zm-219.382 0h41.335l1.66-.688 76.437-76.46 45.384 60.531 1.137.822 33.27 11.093h-32.527l-.743.12-47.01 15.675-1.138.82-45.383 60.533-72.422-72.446zm-219.384 0h41.337l1.662-.688 76.435-76.46 45.384 60.531 1.137.822 33.269 11.093H442.43l-.743.12-47.01 15.675-1.138.82-45.383 60.533-72.424-72.446zm-219.38 0h41.335l1.662-.688 76.435-76.46 45.382 60.531 1.139.822 33.27 11.093h-32.527l-.743.12-47.01 15.675-1.14.82-45.381 60.533-72.423-72.446zm-219.383 0h41.335l1.661-.688 76.437-76.46 45.383 60.531 1.138.822 33.269 11.093H3.666l-.743.12-47.01 15.675-1.138.82-45.384 60.533-72.422-72.446zm-219.383 0h41.336l1.663-.688 76.435-76.46 45.383 60.531 1.137.822 33.27 11.093h-32.527l-.743.12-47.01 15.675-1.137.82-45.384 60.533-72.423-72.446zm3682.542-18.593l94.428-53.977-53.959 67.47-40.469-13.493zm-219.38 0l94.425-53.977-53.958 67.47-40.468-13.493zm-219.383 0l94.426-53.977-53.958 67.47-40.468-13.493zm-219.382 0l94.424-53.977-53.956 67.47-40.468-13.493zm-219.382 0l94.424-53.977-53.956 67.47-40.468-13.493zm-219.382 0l94.424-53.977-53.956 67.47-40.468-13.493zm-219.383 0l94.425-53.977-53.956 67.47-40.469-13.493zm-219.382 0l94.426-53.977-53.958 67.47-40.468-13.493zm-219.382 0l94.425-53.977-53.957 67.47-40.468-13.493zm-219.382 0l94.424-53.977-53.956 67.47-40.468-13.493zm-219.382 0l94.426-53.977-53.958 67.47-40.468-13.493zm-219.382 0l94.424-53.977-53.956 67.47-40.468-13.493zm-219.383 0l94.426-53.977-53.957 67.47-40.469-13.493zm-219.382 0l94.426-53.977-53.958 67.47-40.468-13.493zm-219.382 0l94.425-53.977-53.957 67.47-40.468-13.493zm-219.382 0l94.426-53.977-53.958 67.47-40.468-13.493zm-219.382 0l94.426-53.977-53.958 67.47-40.468-13.493zm-219.382 0l94.424-53.977-53.956 67.47-40.468-13.493zm3829.256-53.121l-13.396 67.012h-40.194l53.59-67.012zm-219.38 0l-13.398 67.012h-40.194l53.592-67.012zm-219.384 0l-13.398 67.012h-40.193l53.591-67.012zm-219.382 0l-13.397 67.012h-40.194l53.59-67.012zm-219.382 0l-13.397 67.012h-40.194l53.59-67.012zm-219.382 0l-13.398 67.012h-40.193l53.59-67.012zm-219.383 0l-13.396 67.012h-40.194l53.59-67.012zm-219.38 0l-13.398 67.012h-40.194l53.592-67.012zm-219.384 0l-13.398 67.012h-40.192l53.59-67.012zm-219.382 0l-13.397 67.012h-40.194l53.591-67.012zm-219.38 0l-13.399 67.012h-40.194l53.592-67.012zm-219.384 0l-13.398 67.012h-40.193l53.59-67.012zm-219.382 0l-13.397 67.012h-40.194l53.59-67.012zm-219.381 0l-13.398 67.012h-40.193l53.59-67.012zm-219.384 0l-13.398 67.012H274.95l53.59-67.012zm-219.382 0l-13.397 67.012H55.566l53.591-67.012zm-219.38 0l-13.399 67.012h-40.192l53.59-67.012zm-219.384 0l-13.398 67.012h-40.193l53.59-67.012zm3583.603 85.312l40.785-13.598h44.793l14.075 56.321-99.653-42.723zm-219.383 0l40.785-13.598h44.794l14.075 56.321-99.654-42.723zm-219.38 0l40.783-13.598h44.792l14.077 56.321-99.652-42.723zm-219.382 0l40.782-13.598h44.794l14.076 56.321-99.652-42.723zm-219.383 0l40.783-13.598h44.794l14.076 56.321-99.653-42.723zm-219.381 0l40.781-13.598h44.794l14.077 56.321-99.652-42.723zm-219.382 0l40.781-13.598h44.795l14.075 56.321-99.651-42.723zm-219.384 0l40.783-13.598h44.795l14.075 56.321-99.653-42.723zm-219.38 0l40.781-13.598h44.793l14.077 56.321-99.652-42.723zm-219.383 0l40.782-13.598h44.794l14.076 56.321-99.652-42.723zm-219.383 0l40.783-13.598h44.794l14.076 56.321-99.653-42.723zm-219.381 0l40.782-13.598h44.793l14.077 56.321-99.652-42.723zm-219.382 0l40.781-13.598h44.795l14.076 56.321-99.652-42.723zm-219.384 0l40.783-13.598h44.795l14.075 56.321-99.653-42.723zm-219.38 0l40.781-13.598h44.795l14.075 56.321-99.651-42.723zm-219.383 0l40.782-13.598h44.794l14.077 56.321-99.653-42.723zm-219.382 0l40.782-13.598h44.794l14.076 56.321-99.652-42.723zm-219.382 0l40.782-13.598h44.794l14.077 56.321-99.653-42.723zm3834.517 44.813l-13.27-53.098 66.348 66.373-53.078-13.275zm-219.384 0l-13.268-53.098 66.348 66.373-53.08-13.275zm-219.38 0l-13.272-53.098 66.35 66.373-53.079-13.275zm-219.383 0l-13.27-53.098 66.349 66.373-53.079-13.275zm-219.383 0l-13.269-53.098 66.349 66.373-53.08-13.275zm-219.381 0l-13.271-53.098 66.35 66.373-53.079-13.275zm-219.382 0l-13.27-53.098 66.349 66.373-53.08-13.275zm-219.384 0l-13.268-53.098 66.348 66.373-53.08-13.275zm-219.38 0l-13.272-53.098 66.35 66.373-53.079-13.275zm-219.383 0l-13.27-53.098 66.35 66.373-53.08-13.275zm-219.383 0l-13.269-53.098 66.349 66.373-53.08-13.275zm-219.381 0l-13.271-53.098 66.35 66.373-53.079-13.275zm-219.382 0l-13.27-53.098 66.349 66.373-53.08-13.275zm-219.384 0l-13.268-53.098 66.348 66.373-53.08-13.275zm-219.38 0l-13.272-53.098 66.35 66.373-53.078-13.275zm-219.383 0l-13.27-53.098 66.35 66.373-53.08-13.275zm-219.383 0l-13.269-53.098 66.349 66.373-53.08-13.275zm-219.38 0l-13.272-53.098 66.35 66.373-53.079-13.275zm3573.959 17.393l44.68-59.59 102.612 43.99-118.464 44.438-28.828-28.838zm-219.382 0l44.68-59.59 102.611 43.99-118.462 44.438-28.83-28.838zm-219.382 0l44.68-59.59 102.611 43.99-118.462 44.438-28.83-28.838zm-219.382 0l44.68-59.59 102.611 43.99-118.462 44.438-28.83-28.838zm-219.383 0l44.68-59.59 102.612 43.99-118.462 44.438-28.83-28.838zm-219.382 0l44.68-59.59 102.612 43.99-118.463 44.438-28.829-28.838zm-219.382 0l44.68-59.59 102.612 43.99-118.463 44.438-28.829-28.838zm-219.382 0l44.68-59.59 102.612 43.99-118.463 44.438-28.83-28.838zm-219.382 0l44.68-59.59 102.613 43.99-118.464 44.438-28.83-28.838zm-219.382 0l44.68-59.59 102.611 43.99-118.462 44.438-28.83-28.838zm-219.383 0l44.68-59.59 102.612 43.99-118.462 44.438-28.83-28.838zm-219.382 0l44.68-59.59 102.613 43.99-118.464 44.438-28.829-28.838zm-219.382 0l44.68-59.59 102.612 43.99-118.463 44.438-28.829-28.838zm-219.382 0l44.68-59.59 102.612 43.99-118.462 44.438-28.83-28.838zm-219.382 0l44.68-59.59 102.611 43.99-118.462 44.438-28.83-28.838zm-219.382 0l44.68-59.59 102.611 43.99-118.462 44.438-28.83-28.838zm-219.382 0l44.68-59.59 102.611 43.99-118.461 44.438-28.83-28.838zm-219.383 0l44.68-59.59 102.612 43.99-118.462 44.438-28.83-28.838zm3764.428 31.572l118.075-44.293 45.548 45.564 14.463 43.403h-58.992l-119.094-44.674zm-219.382 0l118.075-44.293 45.548 45.564 14.463 43.403h-58.993l-119.093-44.674zm-219.382 0l118.075-44.293 45.548 45.564 14.463 43.403h-58.991l-119.095-44.674zm-219.382 0l118.076-44.293 45.546 45.564 14.464 43.403h-58.993l-119.093-44.674zm-219.382 0l118.076-44.293 45.546 45.564 14.464 43.403h-58.993l-119.093-44.674zm-219.382 0l118.076-44.293 45.546 45.564 14.464 43.403h-58.992l-119.094-44.674zm-219.383 0l118.076-44.293 45.547 45.564 14.464 43.403h-58.993l-119.094-44.674zm-219.382 0l118.076-44.293 45.547 45.564 14.463 43.403h-58.993l-119.093-44.674zm-219.382 0l118.076-44.293 45.547 45.564 14.463 43.403h-58.991l-119.095-44.674zm-219.38 0l118.074-44.293 45.547 45.564 14.463 43.403h-58.993l-119.092-44.674zm-219.384 0l118.076-44.293 45.546 45.564 14.464 43.403h-58.993l-119.093-44.674zm-219.382 0l118.076-44.293 45.546 45.564 14.464 43.403h-58.992L825.21 1345.98zm-219.382 0l118.075-44.293 45.547 45.564 14.464 43.403H724.92l-119.093-44.674zm-219.383 0l118.076-44.293 45.547 45.564 14.463 43.403h-58.992l-119.094-44.674zm-219.382 0l118.076-44.293 45.547 45.564 14.463 43.403h-58.991l-119.095-44.674zm-219.38 0l118.074-44.293 45.547 45.564 14.463 43.403H66.773l-119.092-44.674zm-219.384 0l118.077-44.293 45.545 45.564 14.464 43.403h-58.993l-119.093-44.674zm-219.382 0l118.076-44.293 45.546 45.564 14.464 43.403h-58.992l-119.094-44.674zm3693.57 45.919l-15.549-46.663-.568-.92-41.01-41.023 53.817 13.46 30.88 30.888.836.54 120.675 45.267-103.544 59.187-45.537-60.736zm-219.382 0l-15.549-46.663-.57-.92-41.008-41.023 53.816 13.46 30.88 30.888.837.54 120.673 45.267-103.542 59.187-45.537-60.736zm-219.381 0l-15.55-46.663-.57-.92-41.007-41.023 53.817 13.46 30.879 30.888.836.54 120.673 45.267-103.543 59.187-45.535-60.736zm-219.384 0l-15.548-46.663-.568-.92-41.01-41.023 53.817 13.46 30.88 30.888.836.54 120.674 45.267-103.543 59.187-45.538-60.736zm-219.382 0l-15.548-46.663-.57-.92-41.009-41.023 53.818 13.46 30.878 30.888.837.54 120.674 45.267-103.542 59.187-45.538-60.736zm-219.38 0l-15.55-46.663-.57-.92-41.007-41.023 53.816 13.46 30.88 30.888.837.54 120.671 45.267-103.543 59.187-45.535-60.736zm-219.384 0l-15.549-46.663-.568-.92-41.01-41.023 53.818 13.46 30.88 30.888.836.54 120.674 45.267-103.543 59.187-45.538-60.736zm-219.382 0l-15.549-46.663-.568-.92-41.01-41.023 53.82 13.46 30.876 30.888.837.54 120.673 45.267-103.542 59.187-45.537-60.736zm-219.381 0l-15.55-46.663-.57-.92-41.007-41.023 53.817 13.46 30.88 30.888.836.54 120.672 45.267-103.543 59.187-45.535-60.736zm-219.383 0l-15.55-46.663-.567-.92-41.01-41.023 53.818 13.46 30.879 30.888.837.54 120.673 45.267-103.543 59.187-45.537-60.736zm-219.383 0l-15.548-46.663-.568-.92-41.01-41.023 53.819 13.46 30.876 30.888.837.54 120.674 45.267-103.542 59.187-45.538-60.736zm-219.38 0l-15.55-46.663-.57-.92-41.007-41.023 53.816 13.46 30.88 30.888.837.54 120.672 45.267-103.544 59.187-45.534-60.736zm-219.384 0l-15.549-46.663-.568-.92-41.01-41.023 53.818 13.46 30.88 30.888.835.54 120.675 45.267-103.543 59.187L569.9 1391.9zm-219.382 0l-15.549-46.663-.57-.92-41.008-41.023 53.82 13.46 30.877 30.888.836.54 120.673 45.267-103.542 59.187-45.537-60.736zm-219.38 0l-15.55-46.663-.57-.92-41.008-41.023 53.817 13.46 30.88 30.888.836.54 120.672 45.267-103.543 59.187-45.535-60.736zm-219.384 0l-15.549-46.663-.568-.92-41.01-41.023 53.818 13.46 30.879 30.888.836.54 120.674 45.267-103.543 59.187-45.537-60.736zm-219.382 0l-15.55-46.663-.567-.92-41.01-41.023 53.819 13.46 30.877 30.888.837.54 120.673 45.267-103.542 59.187-45.537-60.736zm3666.634 3.458h55.078l-68.85 68.87 13.772-68.87zm-219.383 0h55.08l-68.85 68.87 13.77-68.87zm-219.381 0h55.079l-68.85 68.87 13.77-68.87zm-219.382 0h55.079l-68.85 68.87 13.77-68.87zm-219.384 0h55.082l-68.85 68.87 13.768-68.87zm-219.38 0h55.078l-68.849 68.87 13.77-68.87zm-219.383 0h55.08l-68.85 68.87 13.77-68.87zm-219.383 0h55.081l-68.85 68.87 13.769-68.87zm-219.381 0h55.079l-68.85 68.87 13.77-68.87zm-219.382 0h55.079l-68.85 68.87 13.77-68.87zm-219.384 0h55.082l-68.85 68.87 13.768-68.87zm-219.38 0h55.079l-68.85 68.87 13.77-68.87zm-219.383 0h55.08l-68.85 68.87 13.77-68.87zm-219.383 0h55.082l-68.851 68.87 13.769-68.87zm-219.381 0h55.08l-68.85 68.87 13.77-68.87zm-219.382 0h55.079l-68.85 68.87 13.77-68.87zm-219.384 0h55.082l-68.85 68.87 13.768-68.87zm-219.38 0h55.079l-68.85 68.87 13.77-68.87zm3623.608 59.782l94.428-53.976-53.959 67.47-40.47-13.494zm-219.381 0l94.425-53.976-53.957 67.47-40.468-13.494zm-219.382 0l94.425-53.976-53.957 67.47-40.468-13.494zm-219.383 0l94.425-53.976-53.956 67.47-40.469-13.494zm-219.382 0l94.425-53.976-53.957 67.47-40.468-13.494zm-219.382 0l94.424-53.976-53.956 67.47-40.468-13.494zm-219.382 0l94.424-53.976-53.956 67.47-40.468-13.494zm-219.382 0l94.425-53.976-53.957 67.47-40.468-13.494zm-219.382 0l94.424-53.976-53.956 67.47-40.468-13.494zm-219.383 0l94.425-53.976-53.956 67.47-40.469-13.494zm-219.382 0l94.426-53.976-53.958 67.47-40.468-13.494zm-219.382 0l94.425-53.976-53.957 67.47-40.468-13.494zm-219.382 0l94.426-53.976-53.958 67.47-40.468-13.494zm-219.382 0l94.426-53.976-53.958 67.47-40.468-13.494zm-219.382 0l94.424-53.976-53.956 67.47-40.468-13.494zm-219.382 0l94.425-53.976-53.957 67.47-40.468-13.494zm-219.383 0l94.426-53.976-53.957 67.47-40.469-13.494zm-219.382 0l94.425-53.976-53.957 67.47-40.468-13.494zm3829.257-53.12l-13.397 67.011h-40.194l53.59-67.011zm-219.38 0l-13.399 67.011h-40.194l53.592-67.011zm-219.384 0l-13.398 67.011h-40.193l53.59-67.011zm-219.383 0l-13.396 67.011h-40.194l53.59-67.011zm-219.382 0l-13.396 67.011h-40.194l53.59-67.011zm-219.382 0l-13.398 67.011h-40.192l53.59-67.011zm-219.382 0l-13.397 67.011h-40.194l53.591-67.011zm-219.38 0l-13.399 67.011h-40.194l53.592-67.011zm-219.384 0l-13.398 67.011h-40.193l53.59-67.011zm-219.382 0l-13.397 67.011h-40.194l53.59-67.011zm-219.381 0l-13.398 67.011h-40.194l53.592-67.011zm-219.384 0l-13.398 67.011h-40.192l53.59-67.011zm-219.382 0l-13.397 67.011h-40.194l53.591-67.011zm-219.38 0l-13.399 67.011h-40.192l53.59-67.011zm-219.384 0l-13.398 67.011h-40.193l53.59-67.011zm-219.382 0L48.75 1469.03H8.556l53.59-67.011zm-219.381 0l-13.398 67.011h-40.193l53.59-67.011zm-219.384 0l-13.398 67.011h-40.192l53.59-67.011z" mask="url(#b)"/>
    </g>
</svg>
