<svg xmlns="http://www.w3.org/2000/svg" xmlns:xlink="http://www.w3.org/1999/xlink" width="530" height="367" viewBox="0 0 530 367">
    <defs>
        <path id="a" d="M366.923 326.222L530 0H81.538L0 122.333V367l244.615-40.778z"/>
    </defs>
    <g fill="none" fill-rule="evenodd">
        <mask id="b" fill="#fff">
            <use xlink:href="#a"/>
        </mask>
        <use fill="#292A2E" xlink:href="#a"/>
        <path fill="#FFF" fill-opacity=".05" d="M465.634-228l-16.096 5.365-1.09.785-43.444 57.924L340.93-228h-6.363l63.347 63.346-50.81-12.702L334.443-228h-4.639l12.161 48.645-95.39-40.883L269.863-228h-14.23l-16.096 5.365-1.089.785-43.443 57.924L130.93-228h-6.363l63.345 63.346-50.809-12.702L124.444-228h-4.639l12.16 48.645-95.39-40.883L59.863-228H45.634l-16.096 5.365-1.09.785-43.443 57.924L-79.069-228h-6.363l63.346 63.346-50.81-12.702L-85.555-228h-4.638l12.161 48.645-95.39-40.883 23.287-7.762h-14.23l-16.096 5.365-1.089.785-43.443 57.924L-289.068-228h-6.364l63.346 63.346-50.809-12.702L-295.557-228h-4.637l12.161 48.645-95.391-40.883 23.288-7.762h-14.228l-16.097 5.365-1.09.785-43.442 57.924L-499.068-228h-6.364l63.347 63.346-50.81-12.702-12.66-50.644h-4.638l12.16 48.645-95.39-40.883 23.288-7.762h-14.229l-16.097 5.365-1.088.785-43.444 57.924L-709.067-228h-6.364l63.346 63.346-50.808-12.702L-715.555-228h-4.638l12.161 48.645-95.391-40.883 23.288-7.762h-14.228l-16.097 5.365-1.09.785-43.442 57.924L-905-213.933v6.364l42.916 42.915L-905-175.382v4.638l49.1 12.275 29.56 29.56.8.515 115.513 43.318-99.114 56.636-43.59-58.119-14.883-44.652-.545-.88L-905-168.935v6.365l33.284 33.284 13.845 41.535H-905v4.5h44.818L-905-38.431v6.364l50.008-50.008 43.443 57.925 1.089.784 31.847 10.616h-31.136l-.711.116-45 15-1.09.784-43.442 57.924-5.008-5.007v9.439l4.102 1.025 29.559 29.56.8.515 115.512 43.319-99.114 56.636-43.59-58.12-7.269-21.81v14.23l2.13 6.389H-905v10.682l5.008-5.007 43.443 57.925 1.089.784 45 15 .711.116h31.136l-31.847 10.615-1.09.785-43.442 57.925L-905 236.067v6.364l42.916 42.916L-905 274.62v4.637l49.1 12.275 29.56 29.56.8.516 115.513 43.317-99.114 56.637-43.59-58.12-14.883-44.653-.545-.879L-905 281.067v6.364l33.284 33.284 13.845 41.535H-905v4.5h44.818L-905 411.57v6.362l50.008-50.007 43.443 57.924 1.089.785 31.847 10.615h-31.136l-.711.116-45 15-1.09.785-43.442 57.924-5.008-5.007v9.439l4.102 1.025 29.559 29.56.8.515L-776.156 582h12.814l-99.999-37.5 113.026-42.385 43.6 43.6L-694.621 582h4.743l-12.737-38.211-.543-.88-39.256-39.256 51.515 12.878 29.56 29.56.8.515L-566.158 582h12.815l-99.999-37.5 113.025-42.385 43.6 43.6L-484.62 582h4.743l-12.738-38.211-.543-.88-39.256-39.256 51.516 12.878 29.558 29.56.801.515L-356.157 582h12.814l-100-37.5 113.027-42.385 43.6 43.6L-274.622 582h4.743l-12.737-38.211-.543-.88-39.256-39.256 51.515 12.878 29.559 29.56.8.515L-146.157 582h12.815l-100-37.5 113.027-42.385 43.6 43.6L-64.623 582h4.743l-12.737-38.211-.544-.88-39.255-39.256 51.514 12.878 29.56 29.56.8.515L63.842 582h12.814l-100-37.5 113.027-42.385 43.6 43.6L145.376 582h4.743l-12.737-38.211-.544-.88-39.255-39.256L149.1 516.53l29.559 29.56.8.515L273.843 582h12.814l-100-37.5 113.026-42.385 43.6 43.6L355.377 582h4.743l-12.737-38.211-.544-.88-39.255-39.256 51.514 12.878 29.56 29.56.8.515L483.84 582h12.815l-100-37.5 113.026-42.385L535 527.433v-6.364l-17.416-17.416L535 508.006v-4.637l-22.897-5.725-12.702-50.81 35.599 35.6v-6.365l-34.32-34.319H535v-4.5h-35.07L535 393.411v-7.203l-40.528 50.66-38.738-12.913L535 378.661v-5.182l-84.144 48.082-43.589-58.12-14.884-44.653-.543-.879-39.256-39.256 51.514 12.878 29.56 29.56.8.516L535 359.31v-4.806l-93.344-35.005L535 284.496v-4.806l-99.185 37.194-27.595-27.595 42.767-57.024L535 268.271v-4.897l-78.426-33.612 39.04-13.012H535v-4.5h-34.32L535 177.93v-6.364l-36.09 36.09 13.182-65.906H535v-4.5h-24.345L396.657 94.5l113.025-42.385L535 77.434v-6.365l-17.416-17.416L535 58.007v-4.639l-22.897-5.724-12.702-50.81L535 32.434v-6.365L500.68-8.25H535v-4.5h-35.07L535-56.587v-7.203l-40.528 50.659-38.738-12.912L535-71.338v-5.183L450.856-28.44l-43.589-58.119-14.884-44.652-.543-.88-39.256-39.256 51.514 12.878 29.56 29.56.8.515L535-90.691v-4.805l-93.344-35.005L535-165.504v-4.807l-99.185 37.195-27.595-27.595 42.767-57.024L535-181.73v-4.895l-78.426-33.613L479.862-228h-14.228zM198.22-160.712l42.769-57.024 98.223 42.096-113.395 42.524-27.597-27.595zm-210 0l42.77-57.024 98.222 42.096-113.394 42.524-27.597-27.595zm-209.999 0l42.769-57.024 98.223 42.096-113.396 42.524-27.596-27.595zm-210 0l42.77-57.024 98.223 42.096-113.396 42.524-27.596-27.595zm-209.998 0l42.767-57.024 98.224 42.096-113.396 42.524-27.595-27.595zm-210 0l42.768-57.024 98.224 42.096-113.396 42.524-27.596-27.595zM231.656-130.5l113.027-42.384 43.6 43.6 13.844 41.535h-56.47l-114-42.75zm-209.998 0l113.025-42.384 43.6 43.6 13.845 41.535h-56.471l-114-42.75zm-210 0l113.026-42.384 43.6 43.6 13.844 41.535h-56.471l-113.999-42.75zm-210 0l113.026-42.384 43.6 43.6 13.845 41.535h-56.472l-113.999-42.75zm-210 0l113.026-42.384 43.6 43.6 13.845 41.535h-56.472L-608.34-130.5zm-209.999 0l113.025-42.384 43.6 43.6 13.845 41.535h-56.471l-113.999-42.75zM197.267-86.559l-14.884-44.652-.543-.88-39.256-39.256 51.515 12.878 29.559 29.56.8.515 115.514 43.318-99.115 56.636-43.59-58.119zm-210 0l-14.884-44.652-.543-.88-39.255-39.256L-15.9-158.47l29.559 29.56.8.515 115.513 43.318L30.858-28.44l-43.59-58.119zm-209.999 0l-14.884-44.652-.543-.88-39.256-39.256 51.515 12.878 29.56 29.56.8.515 115.512 43.318-99.115 56.636-43.589-58.119zm-210 0l-14.883-44.652-.544-.88-39.255-39.256 51.515 12.878 29.559 29.56.8.515 115.512 43.318-99.114 56.636-43.59-58.119zm-209.999 0l-14.884-44.652-.543-.88-39.256-39.256 51.514 12.878 29.56 29.56.8.515 115.513 43.318-99.115 56.636-43.589-58.119zm989.824 3.309h52.724l-65.905 65.906 13.181-65.906zm-210 0h52.723l-65.904 65.906 13.182-65.906zm-209.999 0h52.723l-65.904 65.906 13.181-65.906zm-210 0h52.723l-65.904 65.906 13.18-65.906zm-210 0h52.724l-65.905 65.906 13.181-65.906zm-210 0h52.724l-65.905 65.906 13.182-65.906zm993.587 75h39.567l1.59-.66 73.166-73.165 43.444 57.925 1.09.784 31.846 10.616h-31.136l-.71.116-45.001 15-1.089.784-43.444 57.924L290.681-8.25zm-210 0h39.568l1.591-.66 73.165-73.165 43.443 57.925 1.09.784 31.847 10.616h-31.137l-.71.116-45 15-1.09.784-43.443 57.924L80.68-8.25zm-210 0h39.568l1.592-.66 73.164-73.165L28.45-24.15l1.089.784L61.385-12.75H30.25l-.712.116-45 15-1.09.784-43.443 57.924-69.324-69.324zm-210 0h39.568l1.592-.66 73.165-73.165 43.443 57.925 1.09.784 31.846 10.616h-31.135l-.712.116-44.999 15-1.09.784-43.443 57.924L-339.32-8.25zm-209.999 0h39.569l1.59-.66 73.166-73.165 43.443 57.925 1.089.784 31.847 10.616h-31.136l-.711.116-45 15-1.09.784-43.443 57.924-69.324-69.324zm-210 0h39.57l1.59-.66 73.165-73.165 43.444 57.925 1.088.784 31.847 10.616h-31.135l-.712.116-45 15-1.089.784-43.443 57.924-69.324-69.324zM245.736-26.043l90.387-51.65-51.65 64.562-38.737-12.912zm-210 0l90.387-51.65-51.65 64.562-38.737-12.912zm-210 0l90.387-51.65-51.65 64.562-38.737-12.912zm-210 0l90.388-51.65-51.65 64.562-38.737-12.912zm-209.999 0l90.387-51.65-51.65 64.562-38.737-12.912zm-210 0l90.388-51.65-51.65 64.562-38.737-12.912zM341.23-76.874L328.404-12.75H289.93l51.299-64.124zm-210 0L118.404-12.75H79.93l51.3-64.124zm-209.998 0L-91.594-12.75h-38.475l51.3-64.124zm-210 0l-12.825 64.124h-38.474l51.298-64.124zm-210 0l-12.825 64.124h-38.474l51.299-64.124zm-210 0l-12.824 64.124h-38.474l51.298-64.124zM411.574 4.763l39.04-13.013h42.878l13.474 53.895-95.392-40.882zm-210 0l39.04-13.013h42.879l13.473 53.895-95.391-40.882zm-209.999 0L30.615-8.25h42.878l13.474 53.895L-8.425 4.763zm-210 0l39.04-13.013h42.878l13.473 53.895-95.39-40.882zm-209.999 0l39.04-13.013h42.877l13.474 53.895-95.391-40.882zm-210 0l39.04-13.013h42.878l13.473 53.895-95.39-40.882zm-209.998 0l39.039-13.013h42.878l13.473 53.895-95.39-40.882zM302.104 47.645l-12.702-50.81 63.511 63.512-50.81-12.703zm-210 0L79.402-3.166l63.512 63.512-50.81-12.703zm-210 0l-12.701-50.81 63.512 63.512-50.81-12.703zm-209.999 0l-12.702-50.81 63.512 63.512-50.81-12.703zm-210 0l-12.701-50.81 63.51 63.512-50.809-12.703zm-210 0l-12.701-50.81 63.511 63.512-50.81-12.703zM363.22 64.288l42.768-57.025L504.21 49.36 390.815 91.886 363.22 64.289zm-210 0l42.768-57.025 98.224 42.096-113.397 42.525-27.595-27.596zm-210 0l42.768-57.025L84.212 49.36-29.184 91.886-56.78 64.289zm-210 0l42.769-57.025 98.223 42.096-113.395 42.525-27.596-27.596zm-210 0l42.77-57.025 98.222 42.096-113.394 42.525-27.597-27.596zm-209.999 0l42.769-57.025 98.223 42.096-113.395 42.525-27.597-27.596zm-210 0l42.77-57.025 98.223 42.096-113.396 42.525-27.597-27.596zM186.656 94.5l113.026-42.384 43.6 43.6 13.845 41.535h-56.472L186.656 94.5zm-210 0L89.684 52.115l43.6 43.6 13.844 41.535H90.656l-114-42.75zm-209.999 0l113.027-42.384 43.6 43.6 13.843 41.535h-56.47l-114-42.75zm-210 0l113.027-42.384 43.6 43.6 13.844 41.535h-56.47l-114-42.75zm-209.998 0l113.025-42.384 43.6 43.6 13.845 41.535h-56.471L-653.341 94.5zm-210 0l113.026-42.384 43.6 43.6 13.845 41.535h-56.472L-863.34 94.5zm1225.608 43.942l-14.884-44.652-.544-.88-39.255-39.256 51.514 12.878 29.56 29.56.8.515 115.513 43.319-99.115 56.636-43.589-58.12zm-210 0l-14.884-44.652-.544-.88-39.255-39.256L149.1 66.53l29.559 29.56.8.515 115.513 43.319-99.114 56.636-43.59-58.12zm-209.999 0l-14.884-44.652-.544-.88-39.255-39.256 51.514 12.878 29.56 29.56.8.515 115.513 43.319-99.115 56.636-43.589-58.12zm-210 0l-14.884-44.652-.543-.88-39.256-39.256L-270.9 66.53l29.559 29.56.8.515 115.514 43.319-99.115 56.636-43.59-58.12zm-210 0l-14.884-44.652-.543-.88-39.256-39.256 51.516 12.878 29.558 29.56.801.515 115.513 43.319-99.115 56.636-43.59-58.12zm-209.999 0l-14.884-44.652-.543-.88-39.256-39.256 51.515 12.878 29.56 29.56.8.515 115.513 43.319-99.115 56.636-43.59-58.12zm989.823 3.309h52.724l-65.905 65.905 13.181-65.905zm-210 0h52.725l-65.905 65.905 13.18-65.905zm-209.998 0h52.724l-65.906 65.905 13.182-65.905zm-210 0h52.724l-65.905 65.905 13.182-65.905zm-209.999 0h52.723l-65.904 65.905 13.181-65.905zm-210 0h52.723l-65.904 65.905 13.181-65.905zm1107.91 1.175l43.443 57.925 1.089.784 45 15 .71.116h31.137l-31.846 10.615-1.09.785-43.444 57.925-73.165-73.166-1.59-.659H290.68l69.323-69.325zm-210 0l43.443 57.925 1.09.784 45 15 .71.116h31.137l-31.848 10.615-1.089.785-43.443 57.925-73.165-73.166-1.591-.659H80.68l69.325-69.325zm-210 0l43.444 57.925 1.09.784 44.999 15 .712.116h31.135l-31.847 10.615-1.09.785-43.443 57.925-73.164-73.166-1.592-.659h-39.568l69.324-69.325zm-210 0l43.444 57.925 1.09.784 45 15 .711.116h31.135l-31.847 10.615-1.089.785-43.443 57.925-73.165-73.166-1.592-.659h-39.568l69.325-69.325zm-209.999 0l43.444 57.925 1.089.784 45 15 .711.116h31.136l-31.847 10.615-1.09.785-43.442 57.925-73.166-73.166-1.59-.659h-39.569l69.324-69.325zm-210 0l43.444 57.925 1.09.784 45 15 .71.116h31.136l-31.847 10.615-1.088.785-43.444 57.925-73.165-73.166-1.59-.659h-39.57l69.325-69.325zm1100.728 56.031l90.388-51.65-51.651 64.563-38.737-12.913zm-210 0l90.388-51.65-51.65 64.563-38.737-12.913zm-209.999 0l90.388-51.65-51.65 64.563-38.738-12.913zm-210 0l90.388-51.65-51.65 64.563-38.737-12.913zm-209.999 0l90.388-51.65-51.651 64.563-38.737-12.913zm-210 0l90.387-51.65-51.65 64.563-38.737-12.913zm-210 0l90.388-51.65-51.65 64.563-38.737-12.913zm1355.493-50.83l-12.825 64.124H454.93l51.299-64.124zm-210 0l-12.824 64.124H244.93l51.298-64.124zm-210 0L73.404 212.25H34.931l51.298-64.124zm-210 0l-12.824 64.124h-38.474l51.299-64.124zm-209.999 0l-12.825 64.124h-38.473l51.298-64.124zm-210 0l-12.824 64.124h-38.474l51.299-64.124zm-209.998 0l-12.825 64.124h-38.474l51.299-64.124zm1000.343 81.636l39.04-13.012h42.877l13.473 53.896-95.39-40.884zm-210 0l39.04-13.012h42.877l13.474 53.896-95.391-40.884zm-209.999 0l39.04-13.012h42.877l13.474 53.896-95.39-40.884zm-210 0l39.04-13.012h42.878l13.473 53.896-95.391-40.884zm-210 0l39.04-13.012h42.878l13.474 53.896-95.392-40.884zm-210 0l39.04-13.012h42.879l13.473 53.896-95.391-40.884zm1150.528 42.882l-12.702-50.81 63.512 63.513-50.81-12.702zm-210 0l-12.702-50.81 63.511 63.513-50.809-12.702zm-210 0l-12.701-50.81 63.51 63.513-50.808-12.702zm-209.999 0l-12.703-50.81 63.512 63.513-50.809-12.702zm-210 0l-12.702-50.81 63.512 63.513-50.81-12.702zm-209.998 0l-12.704-50.81 63.512 63.513-50.808-12.702zm901.112 16.645l42.769-57.024 98.223 42.096-113.395 42.523-27.597-27.595zm-210 0l42.77-57.024 98.222 42.096-113.394 42.523-27.597-27.595zm-209.999 0l42.769-57.024 98.223 42.096-113.396 42.523-27.596-27.595zm-210 0l42.77-57.024 98.223 42.096-113.396 42.523-27.596-27.595zm-209.998 0l42.767-57.024 98.224 42.096-113.396 42.523-27.595-27.595zm-210 0l42.768-57.024 98.224 42.096-113.396 42.523-27.596-27.595zM231.656 319.5l113.027-42.384 43.6 43.6 13.844 41.535h-56.47l-114-42.75zm-209.998 0l113.025-42.384 43.6 43.6 13.845 41.535h-56.471l-114-42.75zm-210 0l113.026-42.384 43.6 43.6 13.844 41.535h-56.471l-113.999-42.75zm-210 0l113.026-42.384 43.6 43.6 13.845 41.535h-56.472l-113.999-42.75zm-210 0l113.026-42.384 43.6 43.6 13.845 41.535h-56.472L-608.34 319.5zm-209.999 0l113.025-42.384 43.6 43.6 13.845 41.535h-56.471l-113.999-42.75zm1015.608 43.942l-14.884-44.653-.543-.879-39.256-39.256 51.515 12.878 29.559 29.56.8.516 115.514 43.317-99.115 56.637-43.59-58.12zm-210 0l-14.884-44.653-.543-.879-39.255-39.256L-15.9 291.53l29.559 29.56.8.516 115.513 43.317-99.114 56.637-43.59-58.12zm-209.999 0l-14.884-44.653-.543-.879-39.256-39.256 51.515 12.878 29.56 29.56.8.516 115.512 43.317-99.115 56.637-43.589-58.12zm-210 0l-14.883-44.653-.544-.879-39.255-39.256 51.515 12.878 29.559 29.56.8.516 115.512 43.317-99.114 56.637-43.59-58.12zm-209.999 0l-14.884-44.653-.543-.879-39.256-39.256 51.514 12.878 29.56 29.56.8.516 115.513 43.317-99.115 56.637-43.589-58.12zm989.824 3.309h52.724l-65.905 65.906 13.181-65.906zm-210 0h52.723l-65.904 65.906 13.182-65.906zm-209.999 0h52.723l-65.904 65.906 13.181-65.906zm-210 0h52.723l-65.904 65.906 13.18-65.906zm-210 0h52.724l-65.905 65.906 13.181-65.906zm-210 0h52.724l-65.905 65.906 13.182-65.906zm993.587 75h39.567l1.59-.66 73.166-73.165 43.444 57.924 1.09.785 31.846 10.615h-31.136l-.71.116-45.001 15-1.089.785-43.444 57.924-69.323-69.324zm-210 0h39.568l1.591-.66 73.165-73.165 43.443 57.924 1.09.785 31.847 10.615h-31.137l-.71.116-45 15-1.09.785-43.443 57.924L80.68 441.75zm-210 0h39.568l1.592-.66 73.164-73.165L28.45 425.85l1.089.785 31.847 10.615H30.25l-.712.116-45 15-1.09.785-43.443 57.924-69.324-69.324zm-210 0h39.568l1.592-.66 73.165-73.165 43.443 57.924 1.09.785 31.846 10.615h-31.135l-.712.116-44.999 15-1.09.785-43.443 57.924-69.325-69.324zm-209.999 0h39.569l1.59-.66 73.166-73.165 43.443 57.924 1.089.785 31.847 10.615h-31.136l-.711.116-45 15-1.09.785-43.443 57.924-69.324-69.324zm-210 0h39.57l1.59-.66 73.165-73.165 43.444 57.924 1.088.785 31.847 10.615h-31.135l-.712.116-45 15-1.089.785-43.443 57.924-69.324-69.324zm1005.053-17.794l90.387-51.65-51.65 64.563-38.737-12.913zm-210 0l90.387-51.65-51.65 64.563-38.737-12.913zm-210 0l90.387-51.65-51.65 64.563-38.737-12.913zm-210 0l90.388-51.65-51.65 64.563-38.737-12.913zm-209.999 0l90.387-51.65-51.65 64.563-38.737-12.913zm-210 0l90.388-51.65-51.65 64.563-38.737-12.913zM341.23 373.125l-12.825 64.124H289.93l51.299-64.124zm-210 0l-12.825 64.124H79.93l51.3-64.124zm-209.998 0l-12.825 64.124h-38.475l51.3-64.124zm-210 0l-12.825 64.124h-38.474l51.298-64.124zm-210 0l-12.825 64.124h-38.474l51.299-64.124zm-210 0l-12.824 64.124h-38.474l51.298-64.124zm1120.343 81.637l39.04-13.012h42.878l13.474 53.895-95.392-40.882zm-210 0l39.04-13.012h42.879l13.473 53.895-95.391-40.882zm-209.999 0l39.04-13.012h42.878l13.474 53.895-95.392-40.882zm-210 0l39.04-13.012h42.878l13.473 53.895-95.39-40.882zm-209.999 0l39.04-13.012h42.877l13.474 53.895-95.391-40.882zm-210 0l39.04-13.012h42.878l13.473 53.895-95.39-40.882zm-209.998 0l39.039-13.012h42.878l13.473 53.895-95.39-40.882zm1150.526 42.882l-12.702-50.81 63.511 63.512-50.81-12.702zm-210 0l-12.702-50.81 63.512 63.512-50.81-12.702zm-210 0l-12.701-50.81 63.512 63.512-50.81-12.702zm-209.999 0l-12.702-50.81 63.512 63.512-50.81-12.702zm-210 0l-12.701-50.81 63.51 63.512-50.809-12.702zm-210 0l-12.701-50.81 63.511 63.512-50.81-12.702zM363.22 514.288l42.768-57.024 98.223 42.096-113.396 42.524-27.595-27.596zm-210 0l42.768-57.024 98.224 42.096-113.397 42.524-27.595-27.596zm-210 0l42.768-57.024 98.224 42.096-113.396 42.524-27.596-27.596zm-210 0l42.769-57.024 98.223 42.096-113.395 42.524-27.596-27.596zm-210 0l42.77-57.024 98.222 42.096-113.394 42.524-27.597-27.596zm-209.999 0l42.769-57.024 98.223 42.096-113.395 42.524-27.597-27.596zm-210 0l42.77-57.024 98.223 42.096-113.396 42.524-27.597-27.596zM-905 580.861l.38 1.139h4.743L-905 566.633v14.228z" mask="url(#b)"/>
    </g>
</svg>
