<svg xmlns="http://www.w3.org/2000/svg" xmlns:xlink="http://www.w3.org/1999/xlink" width="530" height="354" viewBox="0 0 530 354">
    <defs>
        <path id="a" d="M0 0h485.833L530 132.5 309.167 353.333l-265-44.166z"/>
    </defs>
    <g fill="none" fill-rule="evenodd">
        <mask id="b" fill="#fff">
            <use xlink:href="#a"/>
        </mask>
        <use fill="#2E2C29" xlink:href="#a"/>
        <path fill="#383734" d="M476.634-334l-16.096 5.365-1.09.785-43.444 57.924L351.93-334h-6.363l63.347 63.346-50.81-12.702L345.443-334h-4.639l12.161 48.645-95.39-40.882L280.863-334h-14.23l-16.096 5.365-1.089.785-43.443 57.924L141.93-334h-6.363l63.345 63.346-50.809-12.702L135.444-334h-4.639l12.16 48.645-95.39-40.882L70.863-334H56.634l-16.096 5.365-1.09.785-43.443 57.924L-68.069-334h-6.363l63.346 63.346-50.81-12.702L-74.555-334h-4.638l12.161 48.645-95.39-40.882 23.287-7.763h-14.23l-16.096 5.365-1.089.785-43.443 57.924L-278.068-334h-6.364l63.346 63.346-50.809-12.702L-284.557-334h-4.637l12.161 48.645-95.391-40.882 23.288-7.763h-14.228l-16.097 5.365-1.09.785-43.442 57.924L-488.068-334h-6.364l63.347 63.346-50.81-12.702-12.66-50.644h-4.638l12.16 48.645-95.39-40.882 23.288-7.763h-14.229l-16.097 5.365-1.088.785-43.444 57.924L-698.067-334h-6.364l63.346 63.346-50.808-12.702L-704.555-334h-4.638l12.161 48.645-95.391-40.882 23.288-7.763h-14.228l-16.097 5.365-1.09.785-43.442 57.924L-894-319.933v6.364l42.916 42.916-42.916-10.73v4.64l49.1 12.274 29.56 29.56.8.515 115.513 43.318-99.114 56.636-43.59-58.119-14.883-44.652-.545-.88L-894-274.935v6.365l33.284 33.284 13.845 41.535H-894v4.5h44.818L-894-144.431v6.364l50.008-50.008 43.443 57.925 1.089.785 31.847 10.615h-31.136l-.711.115-45 15-1.09.785-43.442 57.924-5.008-5.007v9.439l4.102 1.025 29.559 29.56.8.515 115.512 43.319-99.114 56.636-43.59-58.12-7.269-21.81v14.23l2.13 6.389H-894v10.682l5.008-5.007 43.443 57.925 1.089.784 45 15 .711.116h31.136l-31.847 10.615-1.09.785-43.442 57.925L-894 130.067v6.364l42.916 42.916L-894 168.62v4.637l49.1 12.275 29.56 29.56.8.516 115.513 43.317-99.114 56.637-43.59-58.12-14.883-44.653-.545-.879L-894 175.067v6.364l33.284 33.284 13.845 41.535H-894v4.5h44.818L-894 305.57v6.362l50.008-50.007 43.443 57.924 1.089.785 31.847 10.615h-31.136l-.711.116-45 15-1.09.785-43.442 57.924-5.008-5.007v9.439l4.102 1.025 29.559 29.56.8.515L-765.156 476h12.814l-99.999-37.5 113.026-42.385 43.6 43.6L-683.621 476h4.743l-12.737-38.211-.543-.88-39.256-39.256 51.515 12.878 29.56 29.56.8.515L-555.158 476h12.815l-99.999-37.5 113.025-42.385 43.6 43.6L-473.62 476h4.743l-12.738-38.211-.543-.88-39.256-39.256 51.516 12.878 29.558 29.56.801.515L-345.157 476h12.814l-100-37.5 113.027-42.385 43.6 43.6L-263.622 476h4.743l-12.737-38.211-.543-.88-39.256-39.256 51.515 12.878 29.559 29.56.8.515L-135.157 476h12.815l-100-37.5 113.027-42.385 43.6 43.6L-53.623 476h4.743l-12.737-38.211-.544-.88-39.255-39.256 51.514 12.878 29.56 29.56.8.515L74.842 476h12.814l-100-37.5 113.027-42.385 43.6 43.6L156.376 476h4.743l-12.737-38.211-.544-.88-39.255-39.256L160.1 410.53l29.559 29.56.8.515L284.843 476h12.814l-100-37.5 113.026-42.385 43.6 43.6L366.377 476h4.743l-12.737-38.211-.544-.88-39.255-39.256 51.514 12.878 29.56 29.56.8.515L494.84 476h12.815l-100-37.5 113.026-42.385L546 421.433v-6.364l-17.416-17.416L546 402.006v-4.637l-22.897-5.725-12.702-50.81 35.599 35.6v-6.365l-34.32-34.319H546v-4.5h-35.07L546 287.411v-7.203l-40.528 50.66-38.738-12.913L546 272.661v-5.182l-84.144 48.082-43.589-58.12-14.884-44.653-.543-.879-39.256-39.256 51.514 12.878 29.56 29.56.8.516L546 253.31v-4.806l-93.344-35.005L546 178.496v-4.806l-99.185 37.194-27.595-27.595 42.767-57.024L546 162.27v-4.895l-78.426-33.612 39.04-13.013H546v-4.5h-34.32L546 71.93v-6.364l-36.09 36.09 13.182-65.906H546v-4.5h-24.345L407.657-11.5l113.025-42.385L546-28.566v-6.365l-17.416-17.416L546-47.993v-4.639l-22.897-5.724-12.702-50.81L546-73.566v-6.365l-34.32-34.319H546v-4.5h-35.07L546-162.588v-7.203l-40.528 50.66-38.738-12.912L546-177.338v-5.183l-84.144 48.081-43.589-58.119-14.884-44.652-.543-.88-39.256-39.256 51.514 12.878 29.56 29.56.8.515L546-196.691v-4.805l-93.344-35.005L546-271.504v-4.807l-99.185 37.195-27.595-27.595 42.767-57.024L546-287.73v-4.895l-78.426-33.613L490.862-334h-14.228zM209.22-266.712l42.769-57.024 98.223 42.096-113.395 42.524-27.597-27.595zm-210 0l42.77-57.024 98.222 42.096-113.394 42.524L-.78-266.711zm-209.999 0l42.769-57.024 98.223 42.096-113.396 42.524-27.596-27.595zm-210 0l42.77-57.024 98.223 42.096-113.396 42.524-27.596-27.595zm-209.998 0l42.767-57.024 98.224 42.096-113.396 42.524-27.595-27.595zm-210 0l42.768-57.024 98.224 42.096-113.396 42.524-27.596-27.595zM242.656-236.5l113.027-42.384 43.6 43.6 13.844 41.535h-56.47l-114-42.75zm-209.998 0l113.025-42.384 43.6 43.6 13.845 41.535h-56.471l-114-42.75zm-210 0l113.026-42.384 43.6 43.6 13.844 41.535h-56.471l-113.999-42.75zm-210 0l113.026-42.384 43.6 43.6 13.845 41.535h-56.472l-113.999-42.75zm-210 0l113.026-42.384 43.6 43.6 13.845 41.535h-56.472L-597.34-236.5zm-209.999 0l113.025-42.384 43.6 43.6 13.845 41.535h-56.471l-113.999-42.75zm1015.608 43.942l-14.884-44.652-.543-.88-39.256-39.256 51.515 12.878 29.559 29.56.8.515 115.514 43.318-99.115 56.636-43.59-58.119zm-210 0l-14.884-44.652-.543-.88-39.255-39.256L-4.9-264.47l29.559 29.56.8.515 115.513 43.318-99.114 56.636-43.59-58.119zm-209.999 0l-14.884-44.652-.543-.88-39.256-39.256 51.515 12.878 29.56 29.56.8.515 115.512 43.318-99.115 56.636-43.589-58.119zm-210 0l-14.883-44.652-.544-.88-39.255-39.256 51.515 12.878 29.559 29.56.8.515 115.512 43.318-99.114 56.636-43.59-58.119zm-209.999 0l-14.884-44.652-.543-.88-39.256-39.256 51.514 12.878 29.56 29.56.8.515 115.513 43.318-99.115 56.636-43.589-58.119zm989.824 3.309h52.724l-65.905 65.906 13.181-65.906zm-210 0h52.723l-65.904 65.906 13.182-65.906zm-209.999 0h52.723l-65.904 65.906 13.181-65.906zm-210 0h52.723l-65.904 65.906 13.18-65.906zm-210 0h52.724l-65.905 65.906 13.181-65.906zm-210 0h52.724l-65.905 65.906 13.182-65.906zm993.587 75h39.567l1.59-.66 73.166-73.165 43.444 57.925 1.09.785 31.846 10.615h-31.136l-.71.115-45.001 15-1.089.785-43.444 57.924-69.323-69.324zm-210 0h39.568l1.591-.66 73.165-73.165 43.443 57.925 1.09.785 31.847 10.615h-31.137l-.71.115-45 15-1.09.785-43.443 57.924L91.68-114.25zm-210 0h39.568l1.592-.66 73.164-73.165L39.45-130.15l1.089.785 31.847 10.615H41.25l-.712.115-45 15-1.09.785-43.443 57.924-69.324-69.324zm-210 0h39.568l1.592-.66 73.165-73.165 43.443 57.925 1.09.785 31.846 10.615h-31.135l-.712.115-44.999 15-1.09.785-43.443 57.924-69.325-69.324zm-209.999 0h39.569l1.59-.66 73.166-73.165 43.443 57.925 1.089.785 31.847 10.615h-31.136l-.711.115-45 15-1.09.785-43.443 57.924-69.324-69.324zm-210 0h39.57l1.59-.66 73.165-73.165 43.444 57.925 1.088.785 31.847 10.615h-31.135l-.712.115-45 15-1.089.785-43.443 57.924-69.324-69.324zm1005.053-17.793l90.387-51.65-51.65 64.562-38.737-12.912zm-210 0l90.387-51.65-51.65 64.562-38.737-12.912zm-210 0l90.387-51.65-51.65 64.562-38.737-12.912zm-210 0l90.388-51.65-51.65 64.562-38.737-12.912zm-209.999 0l90.387-51.65-51.65 64.562-38.737-12.912zm-210 0l90.388-51.65-51.65 64.562-38.737-12.912zM352.23-182.874l-12.825 64.124H300.93l51.299-64.124zm-210 0l-12.825 64.124H90.93l51.3-64.124zm-209.998 0l-12.825 64.124h-38.475l51.3-64.124zm-210 0l-12.825 64.124h-38.474l51.298-64.124zm-210 0l-12.825 64.124h-38.474l51.299-64.124zm-210 0l-12.824 64.124h-38.474l51.298-64.124zm1120.343 81.637l39.04-13.013h42.878l13.474 53.895-95.392-40.882zm-210 0l39.04-13.013h42.879l13.473 53.895-95.391-40.882zm-209.999 0l39.04-13.013h42.878l13.474 53.895-95.392-40.882zm-210 0l39.04-13.013h42.878l13.473 53.895-95.39-40.882zm-209.999 0l39.04-13.013h42.877l13.474 53.895-95.391-40.882zm-210 0l39.04-13.013h42.878l13.473 53.895-95.39-40.882zm-209.998 0l39.039-13.013h42.878l13.473 53.895-95.39-40.882zM313.104-58.356l-12.702-50.81 63.511 63.513-50.81-12.703zm-210 0l-12.702-50.81 63.512 63.513-50.81-12.703zm-210 0l-12.701-50.81 63.512 63.513-50.81-12.703zm-209.999 0l-12.702-50.81 63.512 63.513-50.81-12.703zm-210 0l-12.701-50.81 63.51 63.513-50.809-12.703zm-210 0l-12.701-50.81 63.511 63.513-50.81-12.703zM374.22-41.71l42.768-57.025 98.223 42.097-113.396 42.524-27.595-27.596zm-210 0l42.768-57.025 98.224 42.097-113.397 42.524-27.595-27.596zm-210 0l42.768-57.025 98.224 42.097-113.396 42.524-27.596-27.596zm-210 0l42.769-57.025 98.223 42.097-113.395 42.524-27.596-27.596zm-210 0l42.77-57.025 98.222 42.097-113.394 42.524-27.597-27.596zm-209.999 0l42.769-57.025 98.223 42.097-113.395 42.524-27.597-27.596zm-210 0l42.77-57.025 98.223 42.097-113.396 42.524-27.597-27.596zM197.656-11.5l113.026-42.384 43.6 43.6 13.845 41.535h-56.472L197.656-11.5zm-210 0l113.027-42.384 43.6 43.6 13.844 41.535h-56.471l-114-42.75zm-209.999 0l113.027-42.384 43.6 43.6 13.843 41.535h-56.47l-114-42.75zm-210 0l113.027-42.384 43.6 43.6 13.844 41.535h-56.47l-114-42.75zm-209.998 0l113.025-42.384 43.6 43.6 13.845 41.535h-56.471L-642.341-11.5zm-210 0l113.026-42.384 43.6 43.6 13.845 41.535h-56.472L-852.34-11.5zM373.267 32.441l-14.884-44.652-.544-.88-39.255-39.256 51.514 12.878 29.56 29.56.8.515L515.97 33.925 416.856 90.56l-43.589-58.12zm-210 0l-14.884-44.652-.544-.88-39.255-39.256L160.1-39.47l29.559 29.56.8.515 115.513 43.319-99.114 56.636-43.59-58.12zm-209.999 0l-14.884-44.652-.544-.88-39.255-39.256 51.514 12.878 29.56 29.56.8.515L95.972 33.925-3.143 90.56l-43.589-58.12zm-210 0l-14.884-44.652-.543-.88-39.256-39.256L-259.9-39.47l29.559 29.56.8.515 115.514 43.319-99.115 56.636-43.59-58.12zm-210 0l-14.884-44.652-.543-.88-39.256-39.256 51.516 12.878 29.558 29.56.801.515 115.513 43.319-99.115 56.636-43.59-58.12zm-209.999 0l-14.884-44.652-.543-.88-39.256-39.256 51.515 12.878 29.56 29.56.8.515 115.513 43.319-99.115 56.636-43.59-58.12zm989.823 3.309h52.724l-65.905 65.906 13.181-65.906zm-210 0h52.725l-65.905 65.906 13.18-65.906zm-209.998 0h52.724l-65.906 65.906 13.182-65.906zm-210 0h52.724l-65.905 65.906 13.182-65.906zm-209.999 0h52.723l-65.904 65.906 13.181-65.906zm-210 0h52.723l-65.904 65.906 13.181-65.906zm1107.91 1.175l43.443 57.925 1.089.784 45 15 .71.116h31.137l-31.846 10.615-1.09.785-43.444 57.925-73.165-73.166-1.59-.659H301.68l69.323-69.325zm-210 0l43.443 57.925 1.09.784 45 15 .71.116h31.137l-31.848 10.615-1.089.785-43.443 57.925-73.165-73.166-1.591-.659H91.68l69.325-69.325zm-210 0L-5.55 94.85l1.09.784 44.999 15 .712.116h31.135l-31.847 10.615-1.09.785-43.443 57.925-73.164-73.166-1.592-.659h-39.568l69.324-69.325zm-210 0l43.444 57.925 1.09.784 45 15 .711.116h31.135l-31.847 10.615-1.089.785-43.443 57.925-73.165-73.166-1.592-.659h-39.568l69.325-69.325zm-209.999 0l43.444 57.925 1.089.784 45 15 .711.116h31.136l-31.847 10.615-1.09.785-43.442 57.925-73.166-73.166-1.59-.659h-39.569l69.324-69.325zm-210 0l43.444 57.925 1.09.784 45 15 .71.116h31.136l-31.847 10.615-1.088.785-43.444 57.925-73.165-73.166-1.59-.659h-39.57l69.325-69.325zM421.735 92.956l90.388-51.65-51.651 64.563-38.737-12.913zm-210 0l90.388-51.65-51.65 64.563-38.737-12.913zm-209.999 0l90.388-51.65-51.65 64.563L1.735 92.956zm-210 0l90.388-51.65-51.65 64.563-38.737-12.913zm-209.999 0l90.388-51.65-51.651 64.563-38.737-12.913zm-210 0l90.387-51.65-51.65 64.563-38.737-12.913zm-210 0l90.388-51.65-51.65 64.563-38.737-12.913zM517.23 42.126l-12.825 64.124H465.93l51.299-64.124zm-210 0l-12.824 64.124H255.93l51.298-64.124zm-210 0L84.404 106.25H45.931l51.298-64.124zm-210 0l-12.824 64.124h-38.474l51.299-64.124zm-209.999 0l-12.825 64.124h-38.473l51.298-64.124zm-210 0l-12.824 64.124h-38.474l51.299-64.124zm-209.998 0l-12.825 64.124h-38.474l51.299-64.124zm1000.343 81.637l39.04-13.013h42.877l13.473 53.896-95.39-40.883zm-210 0l39.04-13.013h42.877l13.474 53.896-95.391-40.883zm-209.999 0l39.04-13.013h42.877l13.474 53.896-95.39-40.883zm-210 0l39.04-13.013h42.878l13.473 53.896-95.391-40.883zm-210 0l39.04-13.013h42.878l13.474 53.896-95.392-40.883zm-210 0l39.04-13.013h42.879l13.473 53.896-95.391-40.883zm1150.528 42.881l-12.702-50.81 63.512 63.513-50.81-12.703zm-210 0l-12.702-50.81 63.511 63.513-50.809-12.703zm-210 0l-12.701-50.81 63.51 63.513-50.808-12.703zm-209.999 0l-12.703-50.81 63.512 63.513-50.809-12.703zm-210 0l-12.702-50.81 63.512 63.513-50.81-12.703zm-209.998 0l-12.704-50.81 63.512 63.513-50.808-12.703zm901.112 16.645l42.769-57.024 98.223 42.096-113.395 42.523-27.597-27.595zm-210 0l42.77-57.024 98.222 42.096-113.394 42.523L-.78 183.289zm-209.999 0l42.769-57.024 98.223 42.096-113.396 42.523-27.596-27.595zm-210 0l42.77-57.024 98.223 42.096-113.396 42.523-27.596-27.595zm-209.998 0l42.767-57.024 98.224 42.096-113.396 42.523-27.595-27.595zm-210 0l42.768-57.024 98.224 42.096-113.396 42.523-27.596-27.595zM242.656 213.5l113.027-42.384 43.6 43.6 13.844 41.535h-56.47l-114-42.75zm-209.998 0l113.025-42.384 43.6 43.6 13.845 41.535h-56.471l-114-42.75zm-210 0l113.026-42.384 43.6 43.6 13.844 41.535h-56.471l-113.999-42.75zm-210 0l113.026-42.384 43.6 43.6 13.845 41.535h-56.472l-113.999-42.75zm-210 0l113.026-42.384 43.6 43.6 13.845 41.535h-56.472L-597.34 213.5zm-209.999 0l113.025-42.384 43.6 43.6 13.845 41.535h-56.471l-113.999-42.75zm1015.608 43.942l-14.884-44.653-.543-.879-39.256-39.256 51.515 12.878 29.559 29.56.8.516 115.514 43.317-99.115 56.637-43.59-58.12zm-210 0l-14.884-44.653-.543-.879-39.255-39.256L-4.9 185.53l29.559 29.56.8.516 115.513 43.317-99.114 56.637-43.59-58.12zm-209.999 0l-14.884-44.653-.543-.879-39.256-39.256 51.515 12.878 29.56 29.56.8.516 115.512 43.317-99.115 56.637-43.589-58.12zm-210 0l-14.883-44.653-.544-.879-39.255-39.256 51.515 12.878 29.559 29.56.8.516 115.512 43.317-99.114 56.637-43.59-58.12zm-209.999 0l-14.884-44.653-.543-.879-39.256-39.256 51.514 12.878 29.56 29.56.8.516 115.513 43.317-99.115 56.637-43.589-58.12zm989.824 3.309h52.724l-65.905 65.906 13.181-65.906zm-210 0h52.723l-65.904 65.906 13.182-65.906zm-209.999 0h52.723l-65.904 65.906 13.181-65.906zm-210 0h52.723l-65.904 65.906 13.18-65.906zm-210 0h52.724l-65.905 65.906 13.181-65.906zm-210 0h52.724l-65.905 65.906 13.182-65.906zm993.587 75h39.567l1.59-.66 73.166-73.165 43.444 57.924 1.09.785 31.846 10.615h-31.136l-.71.116-45.001 15-1.089.785-43.444 57.924-69.323-69.324zm-210 0h39.568l1.591-.66 73.165-73.165 43.443 57.924 1.09.785 31.847 10.615h-31.137l-.71.116-45 15-1.09.785-43.443 57.924L91.68 335.75zm-210 0h39.568l1.592-.66 73.164-73.165L39.45 319.85l1.089.785 31.847 10.615H41.25l-.712.116-45 15-1.09.785-43.443 57.924-69.324-69.324zm-210 0h39.568l1.592-.66 73.165-73.165 43.443 57.924 1.09.785 31.846 10.615h-31.135l-.712.116-44.999 15-1.09.785-43.443 57.924-69.325-69.324zm-209.999 0h39.569l1.59-.66 73.166-73.165 43.443 57.924 1.089.785 31.847 10.615h-31.136l-.711.116-45 15-1.09.785-43.443 57.924-69.324-69.324zm-210 0h39.57l1.59-.66 73.165-73.165 43.444 57.924 1.088.785 31.847 10.615h-31.135l-.712.116-45 15-1.089.785-43.443 57.924-69.324-69.324zm1005.053-17.794l90.387-51.65-51.65 64.563-38.737-12.913zm-210 0l90.387-51.65-51.65 64.563-38.737-12.913zm-210 0l90.387-51.65-51.65 64.563-38.737-12.913zm-210 0l90.388-51.65-51.65 64.563-38.737-12.913zm-209.999 0l90.387-51.65-51.65 64.563-38.737-12.913zm-210 0l90.388-51.65-51.65 64.563-38.737-12.913zM352.23 267.125l-12.825 64.124H300.93l51.299-64.124zm-210 0l-12.825 64.124H90.93l51.3-64.124zm-209.998 0l-12.825 64.124h-38.475l51.3-64.124zm-210 0l-12.825 64.124h-38.474l51.298-64.124zm-210 0l-12.825 64.124h-38.474l51.299-64.124zm-210 0l-12.824 64.124h-38.474l51.298-64.124zm1120.343 81.637l39.04-13.012h42.878l13.474 53.895-95.392-40.882zm-210 0l39.04-13.012h42.879l13.473 53.895-95.391-40.882zm-209.999 0l39.04-13.012h42.878l13.474 53.895-95.392-40.882zm-210 0l39.04-13.012h42.878l13.473 53.895-95.39-40.882zm-209.999 0l39.04-13.012h42.877l13.474 53.895-95.391-40.882zm-210 0l39.04-13.012h42.878l13.473 53.895-95.39-40.882zm-209.998 0l39.039-13.012h42.878l13.473 53.895-95.39-40.882zm1150.526 42.882l-12.702-50.81 63.511 63.512-50.81-12.702zm-210 0l-12.702-50.81 63.512 63.512-50.81-12.702zm-210 0l-12.701-50.81 63.512 63.512-50.81-12.702zm-209.999 0l-12.702-50.81 63.512 63.512-50.81-12.702zm-210 0l-12.701-50.81 63.51 63.512-50.809-12.702zm-210 0l-12.701-50.81 63.511 63.512-50.81-12.702zM374.22 408.288l42.768-57.024 98.223 42.096-113.396 42.524-27.595-27.596zm-210 0l42.768-57.024 98.224 42.096-113.397 42.524-27.595-27.596zm-210 0l42.768-57.024 98.224 42.096-113.396 42.524-27.596-27.596zm-210 0l42.769-57.024 98.223 42.096-113.395 42.524-27.596-27.596zm-210 0l42.77-57.024 98.222 42.096-113.394 42.524-27.597-27.596zm-209.999 0l42.769-57.024 98.223 42.096-113.395 42.524-27.597-27.596zm-210 0l42.77-57.024 98.223 42.096-113.396 42.524-27.597-27.596zM-894 474.861l.38 1.139h4.743L-894 460.632v14.229z" mask="url(#b)"/>
    </g>
</svg>
