<?xml version="1.0" encoding="utf-8"?>
<!-- Generator: Adobe Illustrator 23.0.3, SVG Export Plug-In . SVG Version: 6.00 Build 0)  -->
<svg version="1.1" id="Layer_1" xmlns="http://www.w3.org/2000/svg" xmlns:xlink="http://www.w3.org/1999/xlink" x="0px" y="0px"
	 viewBox="0 0 1440 860" style="enable-background:new 0 0 1440 860;" xml:space="preserve">
<style type="text/css">
	.st0{fill:#F5F5FA;}
	.st1{fill-rule:evenodd;clip-rule:evenodd;fill:#F0F0F7;}
	.st2{fill:#FFFFFF;}
</style>
<title>Background / 860H / Cool Grey / Terrain</title>
<desc>Created with Sketch.</desc>
<g>
	<g id="Mask">
		<rect class="st0" width="1440" height="860"/>
	</g>
	<path id="Fill-1" class="st1" d="M2161.3-149l-0.6,0.1l-36,12l-0.9,0.6L2089-89.9l-58.5-58.5l-1.3-0.5h-36l-0.6,0.1l-36,12
		l-0.9,0.6l-34.8,46.4l-58.5-58.5l-1.3-0.5h-36l-0.6,0.1l-36,12l-0.9,0.6l-34.8,46.4l-58.5-58.5l-1.3-0.5h-36l-0.6,0.1l-36,12
		l-0.9,0.6l-34.8,46.4l-58.5-58.5l-1.3-0.5h-36l-0.6,0.1l-36,12l-0.9,0.6l-34.8,46.4l-58.5-58.5l-1.3-0.5h-36l-0.6,0.1l-36,12
		l-0.9,0.6l-34.8,46.4l-58.5-58.5l-1.3-0.5h-36l-0.6,0.1l-36,12l-0.9,0.6l-34.8,46.4l-58.5-58.5l-1.3-0.5h-36l-0.6,0.1l-36,12
		l-0.9,0.6l-34.8,46.4l-58.5-58.5l-1.3-0.5h-36l-0.6,0.1l-36,12l-0.9,0.6l-34.8,46.4l-58.5-58.5l-1.3-0.5h-36l-0.6,0.1l-36,12
		l-0.9,0.6L576.1-89l-58.5-58.5l-1.3-0.5h-36l-0.6,0.1l-36,12l-0.9,0.6L408-88.9l-58.5-58.5l-1.3-0.5h-36l-0.6,0.1l-36,12l-0.9,0.6
		l-34.8,46.4l-58.5-58.5l-1.3-0.5h-36l-0.6,0.1l-36,12l-0.9,0.6L73.2-89.9l-58.5-58.5l-1.3-0.5h-36l-0.6,0.1l-36,12l-0.9,0.6
		l-34.8,46.4l-58.5-58.5l-1.3-0.5h-36l-0.6,0.1l-36,12l-0.9,0.6L-263-89.7l-58.5-58.5l-1.3-0.5h-36l-0.6,0.1l-36,12l-0.9,0.6
		l-34.8,46.4l-58.5-58.5l-1.3-0.5h-36l-0.6,0.1l-36,12l-0.9,0.6l-34.8,46.4l-58.5-58.5l-1.3-0.5h-36l-0.6,0.1l-36,12l-0.9,0.6
		l-36,48l0.2,2.4l24,24l0.6,0.4l92.4,34.7L-730.6,19l-35-46.7l-2.9,2.2l36,48l0.9,0.6l25.5,8.5H-731l-0.6,0.1l-36,12l-0.9,0.6
		l-36,48l0,0l0.2,2.3l24,24l0.6,0.4l92.4,34.7l-79.3,45.3l-35-46.7l-2.9,2.2l0,0l36,48l0.9,0.6l36,12l0.6,0.1h24.9l-25.5,8.5
		l-0.9,0.6l-36,48l0.2,2.4l24,24l0.6,0.4l92.4,34.7l-79.3,45.3l-35-46.7l-2.9,2.2l36,48l0.9,0.6l25.5,8.5H-731l-0.6,0.1l-36,12
		l-0.9,0.6l-36,48l0,0l0.2,2.3l24,24l0.6,0.4l92.4,34.7l-79.3,45.3l-35-46.7l-2.9,2.2l0,0l36,48l0.9,0.6l36,12l0.6,0.1h24.9
		l-25.5,8.5l-0.9,0.6l-36,48l0.2,2.4l24,24l0.6,0.4l92.4,34.7l-79.3,45.3l-35-46.7l-2.9,2.2l36,48l0.9,0.6l25.5,8.5H-731l-0.6,0.1
		l-36,12l-0.9,0.6l-36,48l0,0l0.2,2.3l24,24l0.6,0.4l92.4,34.7l-79.3,45.3l-35-46.7l-2.9,2.2l0,0l36,48l0.9,0.6l36,12l0.6,0.1h24.9
		l-25.5,8.5l-0.9,0.6l-36,48l0.2,2.4l24,24l0.6,0.4l92.4,34.7l-79.3,45.3l-35-46.7l-2.9,2.2l36,48l0.9,0.6l25.5,8.5H-731l-0.6,0.1
		l-36,12l-0.9,0.6l-36,48l0,0l0.2,2.3l24,24l0.6,0.4l92.4,34.7l-79.3,45.3l-35-46.7l-2.9,2.2l0,0l36,48l0.9,0.6l36,12l0.6,0.1h36
		l1.3-0.5l58.5-58.5l34.8,46.4l0.9,0.6l36,12l0.6,0.1h36l1.3-0.5l58.5-58.5l34.8,46.4l0.9,0.6l36,12l0.6,0.1h36l1.3-0.5l58.5-58.5
		l34.8,46.4l0.9,0.6l36,12l0.6,0.1h36l1.3-0.5l58.5-58.5l34.8,46.4l0.9,0.6l36,12l0.6,0.1h36l1.3-0.5l58.5-58.5l34.8,46.4l0.9,0.6
		l36,12l0.6,0.1h36l1.3-0.5l58.5-58.5l34.8,46.4l0.9,0.6l36,12l0.6,0.1h36l1.3-0.5l58.5-58.5l34.8,46.4l0.9,0.6l36,12l0.6,0.1h36
		l1.3-0.5l58.5-58.5l34.8,46.4l0.9,0.6l36,12l0.6,0.1h36l1.3-0.5l58.5-58.5l34.8,46.4l0.9,0.6l36,12l0.6,0.1h36l1.3-0.5l58.5-58.5
		l34.8,46.4l0.9,0.6l36,12l0.6,0.1h36l1.3-0.5l58.5-58.5l34.8,46.4l0.9,0.6l36,12l0.6,0.1h36l1.3-0.5l58.5-58.5l34.8,46.4l0.9,0.6
		l36,12l0.6,0.1h36l1.3-0.5l58.5-58.5l34.8,46.4l0.9,0.6l36,12l0.6,0.1h36l1.3-0.5l58.5-58.5l34.8,46.4l0.9,0.6l36,12l0.6,0.1h36
		l1.3-0.5l58.5-58.5l34.8,46.4l0.9,0.6l36,12l0.6,0.1h36l1.3-0.5l58.5-58.5l34.8,46.4l0.9,0.6l36,12l0.6,0.1h36l1.3-0.5l58.5-58.5
		l34.8,46.4l0.9,0.6l36,12l0.6,0.1h36l1.3-0.5l60-60l0.4-1.8l-12-36l-0.4-0.7l-31.4-31.4l41.7,10.4l1.7-3l-56.9-56.9h31.7l1.3-0.5
		l60-60l0.4-1.8l-12-36l-0.4-0.7l-31.4-31.4l41.7,10.4l1.7-3l-60-60l-1.3-0.5h-31.7l56.9-56.9l0.4-1.8l-12-36l-0.4-0.7l-31.4-31.4
		l41.7,10.4l1.7-3l-56.9-56.9h31.7l1.3-0.5l60-60l0.4-1.8l-12-36l-0.4-0.7l-31.4-31.4l41.7,10.4l1.7-3l-60-60l-1.3-0.5h-31.7
		l56.9-56.9l0.4-1.8l-12-36l-0.4-0.7l-31.4-31.4l41.7,10.4l1.7-3l-56.9-56.9h31.7l1.3-0.5l60-60l0.4-1.8l-12-36l-0.4-0.7l-31.4-31.4
		l41.7,10.4l1.7-3l-60-60l-1.3-0.5h-31.7l56.9-56.9l0.4-1.8l-12-36l-0.4-0.7l-31.4-31.4l41.7,10.4l1.7-3l-56.9-56.9h31.7l1.3-0.5
		l60-60l0.4-1.8l-12-36l-0.4-0.7l-31.4-31.4l41.7,10.4l1.7-3l-60-60l-1.3-0.5h-37.5V-149z M2130.4-135l31.2-10.4h34.3l10.8,43.1
		L2130.4-135z M1962.4-135l31.2-10.4h34.3l10.8,43.1L1962.4-135z M1794.4-135l31.2-10.4h34.3l10.8,43.1L1794.4-135z M1626.4-135
		l31.2-10.4h34.3l10.8,43.1L1626.4-135z M1458.4-135l31.2-10.4h34.3l10.8,43.1L1458.4-135z M1290.4-135l31.2-10.4h34.3l10.8,43.1
		L1290.4-135z M1122.4-135l31.2-10.4h34.3l10.8,43.1L1122.4-135z M954.4-135l31.2-10.4h34.3l10.8,43.1L954.4-135z M786.4-135
		l31.2-10.4H852l10.8,43.1L786.4-135z M618.4-135l31.2-10.4H684l10.8,43.1L618.4-135z M450.4-135l31.2-10.4H516l10.8,43.1L450.4-135
		z M282.4-135l31.2-10.4H348l10.8,43.1L282.4-135z M114.5-135l31.2-10.4H180l10.8,43.1L114.5-135z M-53.5-135l31.2-10.4H12
		l10.8,43.1L-53.5-135z M-221.5-135l31.2-10.4h34.3l10.8,43.1L-221.5-135z M-389.5-135l31.2-10.4h34.3l10.8,43.1L-389.5-135z
		 M-557.5-135l31.2-10.4h34.3l10.8,43.1L-557.5-135z M-725.5-135l31.2-10.4h34.3l10.8,43.1L-725.5-135z M2210.8-100.7l-10.2-40.7
		l50.8,50.8L2210.8-100.7z M2042.8-100.7l-10.2-40.7l50.8,50.8L2042.8-100.7z M1874.8-100.7l-10.2-40.7l50.8,50.8L1874.8-100.7z
		 M1706.8-100.7l-10.2-40.7l50.8,50.8L1706.8-100.7z M1538.8-100.7l-10.2-40.7l50.8,50.8L1538.8-100.7z M1370.8-100.7l-10.2-40.7
		l50.8,50.8L1370.8-100.7z M1202.8-100.7l-10.2-40.7l50.8,50.8L1202.8-100.7z M1034.8-100.7l-10.2-40.7l50.8,50.8L1034.8-100.7z
		 M866.8-100.7l-10.2-40.7l50.8,50.8L866.8-100.7z M698.9-100.7l-10.2-40.7l50.8,50.8L698.9-100.7z M530.9-100.7l-10.2-40.7
		l50.8,50.8L530.9-100.7z M362.9-100.7l-10.2-40.7l50.8,50.8L362.9-100.7z M194.9-100.7l-10.2-40.7l50.8,50.8L194.9-100.7z
		 M26.9-100.7l-10.2-40.7l50.8,50.8L26.9-100.7z M-141.1-100.7l-10.2-40.7l50.8,50.8L-141.1-100.7z M-309.1-100.7l-10.2-40.7
		l50.8,50.8L-309.1-100.7z M-477.1-100.7l-10.2-40.7l50.8,50.8L-477.1-100.7z M-645.1-100.7l-10.2-40.7l50.8,50.8L-645.1-100.7z
		 M2091.7-87.4l34.2-45.6l78.6,33.7l-90.7,34L2091.7-87.4z M1923.7-87.4l34.2-45.6l78.6,33.7l-90.7,34L1923.7-87.4z M1755.7-87.4
		l34.2-45.6l78.6,33.7l-90.7,34L1755.7-87.4z M1587.7-87.4l34.2-45.6l78.6,33.7l-90.7,34L1587.7-87.4z M1419.7-87.4l34.2-45.6
		l78.6,33.7l-90.7,34L1419.7-87.4z M1251.7-87.4l34.2-45.6l78.6,33.7l-90.7,34L1251.7-87.4z M1083.7-87.4l34.2-45.6l78.6,33.7
		l-90.7,34L1083.7-87.4z M915.7-87.4l34.2-45.6l78.6,33.7l-90.7,34L915.7-87.4z M747.7-87.4L782-133l78.6,33.7l-90.7,34L747.7-87.4z
		 M579.8-87.4L614-133l78.6,33.7l-90.7,34L579.8-87.4z M411.8-87.4L446-133l78.6,33.7l-90.7,34L411.8-87.4z M243.8-87.4L278-133
		l78.6,33.7l-90.7,34L243.8-87.4z M75.8-87.4L110-133l78.6,33.7l-90.7,34L75.8-87.4z M-92.2-87.4L-58-133l78.6,33.7l-90.7,34
		L-92.2-87.4z M-260.2-87.4L-226-133l78.6,33.7l-90.7,34L-260.2-87.4z M-428.2-87.4L-394-133l78.6,33.7l-90.7,34L-428.2-87.4z
		 M-596.2-87.4L-562-133l78.6,33.7l-90.7,34L-596.2-87.4z M-764.2-87.4L-730-133l78.6,33.7l-90.7,34L-764.2-87.4z M2118.4-63.2
		l90.4-33.9l34.9,34.9l11.1,33.2h-45.2L2118.4-63.2z M1950.4-63.2l90.4-33.9l34.9,34.9l11.1,33.2h-45.2L1950.4-63.2z M1782.4-63.2
		l90.4-33.9l34.9,34.9l11.1,33.2h-45.2L1782.4-63.2z M1614.5-63.2l90.4-33.9l34.9,34.9l11.1,33.2h-45.2L1614.5-63.2z M1446.5-63.2
		l90.4-33.9l34.9,34.9l11.1,33.2h-45.2L1446.5-63.2z M1278.5-63.2l90.4-33.9l34.9,34.9l11.1,33.2h-45.2L1278.5-63.2z M1110.5-63.2
		l90.4-33.9l34.9,34.9l11.1,33.2h-45.2L1110.5-63.2z M942.5-63.2l90.4-33.9l34.9,34.9l11.1,33.2h-45.2L942.5-63.2z M774.5-63.2
		l90.4-33.9l34.9,34.9L910.9-29h-45.2L774.5-63.2z M606.5-63.2l90.4-33.9l34.9,34.9L742.9-29h-45.2L606.5-63.2z M438.5-63.2
		l90.4-33.9l34.9,34.9L574.9-29h-45.2L438.5-63.2z M270.5-63.2l90.4-33.9l34.9,34.9L406.9-29h-45.2L270.5-63.2z M102.5-63.2
		l90.4-33.9l34.9,34.9L238.9-29h-45.2L102.5-63.2z M-65.5-63.2l90.4-33.9l34.9,34.9L70.9-29H25.7L-65.5-63.2z M-233.5-63.2
		l90.4-33.9l34.9,34.9L-97.1-29h-45.2L-233.5-63.2z M-401.5-63.2l90.4-33.9l34.9,34.9l11.1,33.2h-45.2L-401.5-63.2z M-569.4-63.2
		l90.4-33.9l34.9,34.9L-433-29h-45.2L-569.4-63.2z M-737.4-63.2l90.4-33.9l34.9,34.9L-601-29h-45.2L-737.4-63.2z M2090.9-28
		L2079-63.7l-0.4-0.7l-31.4-31.4l41.2,10.3l23.6,23.7l0.6,0.4l92.4,34.7l-79.3,45.3L2090.9-28z M1922.9-28L1911-63.7l-0.4-0.7
		l-31.4-31.4l41.2,10.3l23.6,23.7l0.6,0.4l92.4,34.7l-79.3,45.3L1922.9-28z M1754.9-28L1743-63.7l-0.4-0.7l-31.4-31.4l41.2,10.3
		l23.6,23.7l0.6,0.4l92.4,34.7l-79.3,45.3L1754.9-28z M1586.9-28L1575-63.7l-0.4-0.7l-31.4-31.4l41.2,10.3l23.6,23.7l0.6,0.4
		l92.4,34.7l-79.3,45.3L1586.9-28z M1418.9-28L1407-63.7l-0.4-0.7l-31.4-31.4l41.2,10.3l23.6,23.7l0.6,0.4l92.4,34.7l-79.3,45.3
		L1418.9-28z M1251-28l-12-35.7l-0.4-0.7l-31.4-31.4l41.2,10.3l23.6,23.7l0.6,0.4l92.4,34.7l-79.3,45.3L1251-28z M1083-28
		l-11.9-35.7l-0.4-0.7l-31.4-31.4l41.2,10.3l23.6,23.7l0.6,0.4l92.4,34.7l-79.3,45.3L1083-28z M915-28l-11.9-35.7l-0.4-0.7
		l-31.4-31.4l41.2,10.3l23.6,23.7l0.6,0.4l92.4,34.7l-79.3,45.3L915-28z M747-28l-11.9-35.7l-0.4-0.7l-31.4-31.4l41.2,10.3
		l23.6,23.7l0.6,0.4l92.4,34.7l-79.3,45.3L747-28z M579-28l-11.9-35.7l-0.4-0.7l-31.4-31.4l41.2,10.3l23.6,23.7l0.6,0.4l92.4,34.7
		l-79.3,45.3L579-28z M411-28l-11.9-35.7l-0.4-0.7l-31.4-31.4l41.2,10.3l23.6,23.7l0.6,0.4l92.4,34.7l-79.3,45.3L411-28z M243-28
		l-11.9-35.7l-0.4-0.7l-31.4-31.4l41.2,10.3l23.6,23.7l0.6,0.4l92.4,34.7l-79.3,45.3L243-28z M75-28L63.1-63.7l-0.4-0.7L31.3-95.9
		l41.2,10.3l23.6,23.7l0.6,0.4l92.4,34.7l-79.3,45.3L75-28z M-93-28l-11.9-35.7l-0.4-0.7l-31.4-31.4l41.2,10.3l23.6,23.7l0.6,0.4
		l92.4,34.7l-79.3,45.3L-93-28z M-261-28l-11.9-35.7l-0.4-0.7l-31.4-31.4l41.2,10.3l23.6,23.7l0.6,0.4l92.4,34.7l-79.3,45.3L-261-28
		z M-429-28l-11.9-35.7l-0.4-0.7l-31.4-31.4l41.2,10.3l23.6,23.7l0.6,0.4l92.4,34.7l-79.3,45.3L-429-28z M-597-28l-11.9-35.7
		l-0.4-0.7l-31.4-31.4l41.2,10.3l23.6,23.7l0.6,0.4l92.4,34.7l-79.3,45.3L-597-28z M2210.8-25.4h42.2l-52.7,52.7L2210.8-25.4z
		 M2042.8-25.4h42.2l-52.7,52.7L2042.8-25.4z M1874.8-25.4h42.2l-52.7,52.7L1874.8-25.4z M1706.8-25.4h42.2l-52.7,52.7L1706.8-25.4z
		 M1538.8-25.4h42.2l-52.7,52.7L1538.8-25.4z M1370.8-25.4h42.2l-52.7,52.7L1370.8-25.4z M1202.8-25.4h42.2l-52.7,52.7L1202.8-25.4z
		 M1034.8-25.4h42.2l-52.7,52.7L1034.8-25.4z M866.8-25.4H909l-52.7,52.7L866.8-25.4z M698.8-25.4H741l-52.7,52.7L698.8-25.4z
		 M530.9-25.4H573l-52.7,52.7L530.9-25.4z M362.9-25.4H405l-52.7,52.7L362.9-25.4z M194.9-25.4H237l-52.7,52.7L194.9-25.4z
		 M26.9-25.4h42.2L16.3,27.4L26.9-25.4z M-141.1-25.4h42.2l-52.7,52.7L-141.1-25.4z M-309.1-25.4h42.2l-52.7,52.7L-309.1-25.4z
		 M-477.1-25.4h42.2l-52.7,52.7L-477.1-25.4z M-645.1-25.4h42.2l-52.7,52.7L-645.1-25.4z M1997.7,34.7h31.7l1.3-0.5l58.5-58.5
		l34.8,46.4l0.9,0.6l25.5,8.5h-24.9l-0.6,0.1l-36,12l-0.9,0.6l-34.8,46.4L1997.7,34.7z M1829.7,34.7h31.7l1.3-0.5l58.5-58.5
		l34.8,46.4l0.9,0.6l25.5,8.5h-24.9l-0.6,0.1l-36,12l-0.9,0.6l-34.8,46.4L1829.7,34.7z M1661.7,34.7h31.7l1.3-0.5l58.5-58.5
		l34.8,46.4l0.9,0.6l25.5,8.5h-24.9l-0.6,0.1l-36,12l-0.9,0.6l-34.8,46.4L1661.7,34.7z M1493.7,34.7h31.7l1.3-0.5l58.5-58.5
		l34.8,46.4l0.9,0.6l25.5,8.5h-24.9l-0.6,0.1l-36,12l-0.9,0.6l-34.8,46.4L1493.7,34.7z M1325.7,34.7h31.7l1.3-0.5l58.5-58.5
		l34.8,46.4l0.9,0.6l25.5,8.5h-24.9l-0.6,0.1l-36,12l-0.9,0.6l-34.8,46.4L1325.7,34.7z M1157.7,34.7h31.7l1.3-0.5l58.5-58.5
		l34.8,46.4l0.9,0.6l25.5,8.5h-24.9l-0.6,0.1l-36,12l-0.9,0.6l-34.8,46.4L1157.7,34.7z M989.7,34.7h31.7l1.3-0.5l58.5-58.5
		l34.8,46.4l0.9,0.6l25.5,8.5h-24.9l-0.6,0.1l-36,12l-0.9,0.6l-34.8,46.4L989.7,34.7z M821.7,34.7h31.7l1.3-0.5l58.5-58.5L948,22.1
		l0.9,0.6l25.5,8.5h-24.9l-0.6,0.1l-36,12l-0.9,0.6l-34.8,46.4L821.7,34.7z M653.7,34.7h31.7l1.3-0.5l58.5-58.5L780,22.1l0.9,0.6
		l25.5,8.5h-24.9l-0.6,0.1l-36,12l-0.9,0.6l-34.8,46.4L653.7,34.7z M485.7,34.7h31.7l1.3-0.5l58.5-58.5L612,22.1l0.9,0.6l25.5,8.5
		h-24.9l-0.6,0.1l-36,12l-0.9,0.6l-34.8,46.4L485.7,34.7z M317.7,34.7h31.7l1.3-0.5l58.5-58.5L444,22.1l0.9,0.6l25.5,8.5h-24.9
		l-0.6,0.1l-36,12l-0.9,0.6l-34.8,46.4L317.7,34.7z M149.7,34.7h31.7l1.3-0.5l58.5-58.5L276,22.1l0.9,0.6l25.5,8.5h-24.9l-0.6,0.1
		l-36,12l-0.9,0.6l-34.8,46.4L149.7,34.7z M-18.3,34.7h31.7l1.3-0.5l58.5-58.5L108,21.9l0.9,0.6l25.5,8.5h-24.9l-0.6,0.1l-36,12
		L72,43.8L37.2,90.1L-18.3,34.7z M-186.2,34.7h31.7l1.3-0.5l58.5-58.5L-60,21.9l0.9,0.6l25.5,8.5h-24.9l-0.6,0.1l-36,12l-0.9,0.6
		l-34.8,46.4L-186.2,34.7z M-354.2,34.7h31.7l1.3-0.5l58.5-58.5l34.8,46.4l0.9,0.6l25.5,8.5h-24.9l-0.6,0.1l-36,12l-0.9,0.6
		l-34.8,46.4L-354.2,34.7z M-522.2,34.7h31.7l1.3-0.5l58.5-58.5l34.8,46.4l0.9,0.6l25.5,8.5h-24.9l-0.6,0.1l-36,12l-0.9,0.6
		l-34.8,46.4L-522.2,34.7z M-690.2,34.7h31.7l1.3-0.5l58.5-58.5l34.8,46.4l0.9,0.6l25.5,8.5h-24.9l-0.6,0.1l-36,12l-0.9,0.6
		l-34.8,46.4L-690.2,34.7z M2129.7,20.4l72.3-41.3l-41.3,51.7L2129.7,20.4z M1961.7,20.4l72.3-41.3l-41.3,51.7L1961.7,20.4z
		 M1793.7,20.4l72.3-41.3l-41.3,51.7L1793.7,20.4z M1625.7,20.4l72.3-41.3l-41.3,51.7L1625.7,20.4z M1457.7,20.4l72.3-41.3
		l-41.3,51.7L1457.7,20.4z M1289.7,20.4l72.3-41.3l-41.3,51.7L1289.7,20.4z M1121.7,20.4l72.3-41.3l-41.3,51.7L1121.7,20.4z
		 M953.7,20.4l72.3-41.3l-41.3,51.7L953.7,20.4z M785.8,20.4l72.3-41.3l-41.3,51.7L785.8,20.4z M617.8,20.4l72.3-41.3l-41.3,51.7
		L617.8,20.4z M449.8,20.4l72.3-41.3l-41.3,51.7L449.8,20.4z M281.8,20.4l72.3-41.3l-41.3,51.7L281.8,20.4z M113.8,20.4l72.3-41.3
		l-41.3,51.7L113.8,20.4z M-54.2,20.4l72.3-41.3l-41.3,51.7L-54.2,20.4z M-222.2,20.4l72.3-41.3l-41.3,51.7L-222.2,20.4z
		 M-390.2,20.4l72.3-41.3l-41.3,51.7L-390.2,20.4z M-558.2,20.4l72.3-41.3l-41.3,51.7L-558.2,20.4z M-726.2,20.4l72.3-41.3
		l-41.3,51.7L-726.2,20.4z M2206.1-20.3L2195.8,31H2165L2206.1-20.3z M2038.1-20.3L2027.8,31H1997L2038.1-20.3z M1870.1-20.3
		L1859.8,31H1829L1870.1-20.3z M1702.1-20.3L1691.8,31H1661L1702.1-20.3z M1534.1-20.3L1523.9,31h-30.8L1534.1-20.3z M1366.1-20.3
		L1355.9,31h-30.8L1366.1-20.3z M1198.1-20.3L1187.9,31h-30.8L1198.1-20.3z M1030.1-20.3L1019.9,31h-30.8L1030.1-20.3z M862.1-20.3
		L851.9,31h-30.8L862.1-20.3z M694.2-20.3L683.9,31h-30.8L694.2-20.3z M526.2-20.3L515.9,31h-30.8L526.2-20.3z M358.2-20.3L347.9,31
		h-30.8L358.2-20.3z M190.2-20.3L179.9,31h-30.8L190.2-20.3z M22.2-20.3L11.9,31h-30.8L22.2-20.3z M-145.8-20.3L-156.1,31h-30.8
		L-145.8-20.3z M-313.8-20.3L-324.1,31h-30.8L-313.8-20.3z M-481.8-20.3L-492.1,31h-30.8L-481.8-20.3z M-649.8-20.3L-660,31h-30.8
		L-649.8-20.3z M2094.4,45.1l31.2-10.4h34.3l10.8,43.1L2094.4,45.1z M1926.4,45.1l31.2-10.4h34.3l10.8,43.1L1926.4,45.1z
		 M1758.4,45.1l31.2-10.4h34.3l10.8,43.1L1758.4,45.1z M1590.4,45.1l31.2-10.4h34.3l10.8,43.1L1590.4,45.1z M1422.4,45.1l31.2-10.4
		h34.3l10.8,43.1L1422.4,45.1z M1254.4,45.1l31.2-10.4h34.3l10.8,43.1L1254.4,45.1z M1086.4,45.1l31.2-10.4h34.3l10.8,43.1
		L1086.4,45.1z M918.4,45.1l31.2-10.4h34.3l10.8,43.1L918.4,45.1z M750.4,45.1l31.2-10.4H816l10.8,43.1L750.4,45.1z M582.4,45.1
		l31.2-10.4H648l10.8,43.1L582.4,45.1z M414.4,45.1l31.2-10.4H480l10.8,43.1L414.4,45.1z M246.5,45.1l31.2-10.4H312l10.8,43.1
		L246.5,45.1z M78.5,45.1l31.2-10.4H144l10.8,43.1L78.5,45.1z M-89.5,45.1l31.2-10.4H-24l10.8,43.1L-89.5,45.1z M-257.5,45.1
		l31.2-10.4h34.3l10.8,43.1L-257.5,45.1z M-425.5,45.1l31.2-10.4h34.3l10.8,43.1L-425.5,45.1z M-593.5,45.1l31.2-10.4h34.3
		l10.8,43.1L-593.5,45.1z M-761.5,45.1l31.2-10.4h34.3l10.8,43.1L-761.5,45.1z M2174.8,79.4l-10.2-40.7l50.8,50.8L2174.8,79.4z
		 M2006.8,79.4l-10.2-40.7l50.8,50.8L2006.8,79.4z M1838.8,79.4l-10.2-40.7l50.8,50.8L1838.8,79.4z M1670.8,79.4l-10.2-40.7
		l50.8,50.8L1670.8,79.4z M1502.8,79.4l-10.2-40.7l50.8,50.8L1502.8,79.4z M1334.8,79.4l-10.2-40.7l50.8,50.8L1334.8,79.4z
		 M1166.8,79.4l-10.2-40.7l50.8,50.8L1166.8,79.4z M998.8,79.4l-10.2-40.7l50.8,50.8L998.8,79.4z M830.8,79.4l-10.2-40.7l50.8,50.8
		L830.8,79.4z M662.9,79.4l-10.2-40.7l50.8,50.8L662.9,79.4z M494.9,79.4l-10.2-40.7l50.8,50.8L494.9,79.4z M326.9,79.4l-10.2-40.7
		l50.8,50.8L326.9,79.4z M158.9,79.4l-10.2-40.7l50.8,50.8L158.9,79.4z M-9.1,79.4l-10.2-40.7l50.8,50.8L-9.1,79.4z M-177.1,79.4
		l-10.2-40.7l50.8,50.8L-177.1,79.4z M-345.1,79.4l-10.2-40.7l50.8,50.8L-345.1,79.4z M-513.1,79.4l-10.2-40.7l50.8,50.8
		L-513.1,79.4z M-681.1,79.4l-10.2-40.7l50.8,50.8L-681.1,79.4z M2055.7,92.7l34.2-45.6l78.6,33.7l-90.7,34L2055.7,92.7z
		 M1887.7,92.7l34.2-45.6l78.6,33.7l-90.7,34L1887.7,92.7z M1719.7,92.7l34.2-45.6l78.6,33.7l-90.7,34L1719.7,92.7z M1551.7,92.7
		l34.2-45.6l78.6,33.7l-90.7,34L1551.7,92.7z M1383.7,92.7l34.2-45.6l78.6,33.7l-90.7,34L1383.7,92.7z M1215.7,92.7l34.2-45.6
		l78.6,33.7l-90.7,34L1215.7,92.7z M1047.7,92.7l34.2-45.6l78.6,33.7l-90.7,34L1047.7,92.7z M879.7,92.7l34.2-45.6l78.6,33.7
		l-90.7,34L879.7,92.7z M711.7,92.7L746,47.1l78.6,33.7l-90.7,34L711.7,92.7z M543.8,92.7L578,47.1l78.6,33.7l-90.7,34L543.8,92.7z
		 M375.8,92.7L410,47.1l78.6,33.7l-90.7,34L375.8,92.7z M207.8,92.7L242,47.1l78.6,33.7l-90.7,34L207.8,92.7z M39.8,92.7L74,47.1
		l78.6,33.7l-90.7,34L39.8,92.7z M-128.2,92.7L-94,47.1l78.6,33.7l-90.7,34L-128.2,92.7z M-296.2,92.7l34.2-45.6l78.6,33.7l-90.7,34
		L-296.2,92.7z M-464.2,92.7l34.2-45.6l78.6,33.7l-90.7,34L-464.2,92.7z M-632.2,92.7l34.2-45.6l78.6,33.7l-90.7,34L-632.2,92.7z
		 M-800.2,92.7l34.2-45.6l78.6,33.7l-90.7,34L-800.2,92.7z M2082.4,116.9l90.4-33.9l34.9,34.9l11.1,33.2h-45.2L2082.4,116.9z
		 M1914.4,116.9l90.4-33.9l34.9,34.9l11.1,33.2h-45.2L1914.4,116.9z M1746.4,116.9l90.4-33.9l34.9,34.9l11.1,33.2h-45.2
		L1746.4,116.9z M1578.5,116.9l90.4-33.9l34.9,34.9l11.1,33.2h-45.2L1578.5,116.9z M1410.5,116.9l90.4-33.9l34.9,34.9l11.1,33.2
		h-45.2L1410.5,116.9z M1242.5,116.9l90.4-33.9l34.9,34.9l11.1,33.2h-45.2L1242.5,116.9z M1074.5,116.9l90.4-33.9l34.9,34.9
		l11.1,33.2h-45.2L1074.5,116.9z M906.5,116.9L996.9,83l34.9,34.9l11.1,33.2h-45.2L906.5,116.9z M738.5,116.9L828.9,83l34.9,34.9
		l11.1,33.2h-45.2L738.5,116.9z M570.5,116.9L660.9,83l34.9,34.9l11.1,33.2h-45.2L570.5,116.9z M402.5,116.9L492.9,83l34.9,34.9
		l11.1,33.2h-45.2L402.5,116.9z M234.5,116.9L324.9,83l34.9,34.9l11.1,33.2h-45.2L234.5,116.9z M66.5,116.9L156.9,83l34.9,34.9
		l11.1,33.2h-45.2L66.5,116.9z M-101.5,116.9L-11.1,83l34.9,34.9l11.1,33.2h-45.2L-101.5,116.9z M-269.5,116.9L-179,83l34.9,34.9
		l11.1,33.2h-45.2L-269.5,116.9z M-437.4,116.9L-347,83l34.9,34.9l11.1,33.2h-45.2L-437.4,116.9z M-605.4,116.9L-515,83l34.9,34.9
		l11.1,33.2h-45.2L-605.4,116.9z M-773.4,116.9L-683,83l34.9,34.9l11.1,33.2h-45.2L-773.4,116.9z M2054.9,152l-11.9-35.7l-0.4-0.7
		l-31.4-31.4l41.2,10.3l23.6,23.7l0.6,0.4l92.4,34.7l-79.3,45.3L2054.9,152z M1886.9,152l-11.9-35.7l-0.4-0.7l-31.4-31.4l41.2,10.3
		l23.6,23.7l0.6,0.4l92.4,34.7l-79.3,45.3L1886.9,152z M1718.9,152l-11.9-35.7l-0.4-0.7l-31.4-31.4l41.2,10.3l23.6,23.7l0.6,0.4
		l92.4,34.7l-79.3,45.3L1718.9,152z M1550.9,152l-11.9-35.7l-0.4-0.7l-31.4-31.4l41.2,10.3l23.6,23.7l0.6,0.4l92.4,34.7l-79.3,45.3
		L1550.9,152z M1382.9,152l-11.9-35.7l-0.4-0.7l-31.4-31.4l41.2,10.3l23.6,23.7l0.6,0.4l92.4,34.7l-79.3,45.3L1382.9,152z M1215,152
		l-11.9-35.7l-0.4-0.7l-31.4-31.4l41.2,10.3l23.6,23.7l0.6,0.4l92.4,34.7l-79.3,45.3L1215,152z M1047,152l-11.9-35.7l-0.4-0.7
		l-31.4-31.4l41.2,10.3l23.6,23.7l0.6,0.4l92.4,34.7l-79.3,45.3L1047,152z M879,152l-11.9-35.7l-0.4-0.7l-31.4-31.4l41.2,10.3
		l23.6,23.7l0.6,0.4l92.4,34.7l-79.3,45.3L879,152z M711,152l-11.9-35.7l-0.4-0.7l-31.4-31.4l41.2,10.3l23.6,23.7l0.6,0.4l92.4,34.7
		l-79.3,45.3L711,152z M543,152l-11.9-35.7l-0.4-0.7l-31.4-31.4l41.2,10.3l23.6,23.7l0.6,0.4l92.4,34.7l-79.3,45.3L543,152z
		 M375,152l-11.9-35.7l-0.4-0.7l-31.4-31.4l41.2,10.3l23.6,23.7l0.6,0.4l92.4,34.7l-79.3,45.3L375,152z M207,152l-11.9-35.7
		l-0.4-0.7l-31.4-31.4l41.2,10.3l23.6,23.7l0.6,0.4l92.4,34.7l-79.3,45.3L207,152z M39,152l-11.9-35.7l-0.4-0.7L-4.7,84.2l41.2,10.3
		l23.6,23.7l0.6,0.4l92.4,34.7l-79.3,45.3L39,152z M-129,152l-11.9-35.7l-0.4-0.7l-31.4-31.4l41.2,10.3l23.6,23.7l0.6,0.4l92.4,34.7
		l-79.3,45.3L-129,152z M-297,152l-11.9-35.7l-0.4-0.7l-31.4-31.4l41.2,10.3l23.6,23.7l0.6,0.4l92.4,34.7l-79.3,45.3L-297,152z
		 M-465,152l-11.9-35.7l-0.4-0.7l-31.4-31.4l41.2,10.3l23.6,23.7l0.6,0.4l92.4,34.7l-79.3,45.3L-465,152z M-633,152l-11.9-35.7
		l-0.4-0.7l-31.4-31.4l41.2,10.3l23.6,23.7l0.6,0.4l92.4,34.7l-79.3,45.3L-633,152z M2174.8,154.7h42.2l-52.7,52.7L2174.8,154.7z
		 M2006.8,154.7h42.2l-52.7,52.7L2006.8,154.7z M1838.8,154.7h42.2l-52.7,52.7L1838.8,154.7z M1670.8,154.7h42.2l-52.7,52.7
		L1670.8,154.7z M1502.8,154.7h42.2l-52.7,52.7L1502.8,154.7z M1334.8,154.7h42.2l-52.7,52.7L1334.8,154.7z M1166.8,154.7h42.2
		l-52.7,52.7L1166.8,154.7z M998.8,154.7h42.2l-52.7,52.7L998.8,154.7z M830.8,154.7H873l-52.7,52.7L830.8,154.7z M662.8,154.7H705
		l-52.7,52.7L662.8,154.7z M494.9,154.7H537l-52.7,52.7L494.9,154.7z M326.9,154.7H369l-52.7,52.7L326.9,154.7z M158.9,154.7H201
		l-52.7,52.7L158.9,154.7z M-9.1,154.7h42.2l-52.7,52.7L-9.1,154.7z M-177.1,154.7h42.2l-52.7,52.7L-177.1,154.7z M-345.1,154.7
		h42.2l-52.7,52.7L-345.1,154.7z M-513.1,154.7h42.2l-52.7,52.7L-513.1,154.7z M-681.1,154.7h42.2l-52.7,52.7L-681.1,154.7z
		 M2053.1,155.6l34.8,46.4l0.9,0.6l36,12l0.6,0.1h24.9l-25.5,8.5l-0.9,0.6l-34.8,46.4l-58.5-58.5l-1.3-0.5h-31.7L2053.1,155.6z
		 M1885.1,155.6l34.8,46.4l0.9,0.6l36,12l0.6,0.1h24.9l-25.5,8.5l-0.9,0.6l-34.8,46.4l-58.5-58.5l-1.3-0.5h-31.7L1885.1,155.6z
		 M1717.1,155.6l34.8,46.4l0.9,0.6l36,12l0.6,0.1h24.9l-25.5,8.5l-0.9,0.6l-34.8,46.4l-58.5-58.5l-1.3-0.5h-31.7L1717.1,155.6z
		 M1549.1,155.6l34.8,46.4l0.9,0.6l36,12l0.6,0.1h24.9l-25.5,8.5l-0.9,0.6l-34.8,46.4l-58.5-58.5l-1.3-0.5h-31.7L1549.1,155.6z
		 M1381.1,155.6l34.8,46.4l0.9,0.6l36,12l0.6,0.1h24.9l-25.5,8.5l-0.9,0.6l-34.8,46.4l-58.5-58.5l-1.3-0.5h-31.7L1381.1,155.6z
		 M1213.1,155.6l34.8,46.4l0.9,0.6l36,12l0.6,0.1h24.9l-25.5,8.5l-0.9,0.6l-34.8,46.4l-58.5-58.5l-1.3-0.5h-31.7L1213.1,155.6z
		 M1045.2,155.6L1080,202l0.9,0.6l36,12l0.6,0.1h24.9l-25.5,8.5l-0.9,0.6l-34.8,46.4l-58.5-58.5l-1.3-0.5h-31.7L1045.2,155.6z
		 M877.2,155.6L912,202l0.9,0.6l36,12l0.6,0.1h24.9l-25.5,8.5l-0.9,0.6l-34.8,46.4l-58.5-58.5l-1.3-0.5h-31.7L877.2,155.6z
		 M709.2,155.6L744,202l0.9,0.6l36,12l0.6,0.1h24.9l-25.5,8.5l-0.9,0.6l-34.8,46.4l-58.5-58.5l-1.3-0.5h-31.7L709.2,155.6z
		 M541.2,155.6L576,202l0.9,0.6l36,12l0.6,0.1h24.9l-25.5,8.5l-0.9,0.6l-34.8,46.4l-58.5-58.5l-1.3-0.5h-31.7L541.2,155.6z
		 M373.2,155.6L408,202l0.9,0.6l36,12l0.6,0.1h24.9l-25.5,8.5l-0.9,0.6l-34.8,46.4l-58.5-58.5l-1.3-0.5h-31.7L373.2,155.6z
		 M205.2,155.6L240,202l0.9,0.6l36,12l0.6,0.1h24.9l-25.5,8.5l-0.9,0.6l-34.8,46.4l-58.5-58.5l-1.3-0.5h-31.7L205.2,155.6z
		 M37.2,155.6L72,202l0.9,0.6l36,12l0.6,0.1h24.9l-25.5,8.5l-0.9,0.6l-34.8,46.4l-58.5-58.5l-1.3-0.5h-31.7L37.2,155.6z
		 M-130.8,155.6L-96,202l0.9,0.6l36,12l0.6,0.1h24.9l-25.5,8.5l-0.9,0.6l-34.8,46.4l-58.5-58.5l-1.3-0.5h-31.7L-130.8,155.6z
		 M-298.8,155.6L-264,202l0.9,0.6l36,12l0.6,0.1h24.9l-25.5,8.5l-0.9,0.6l-34.8,46.4l-58.5-58.5l-1.3-0.5h-31.7L-298.8,155.6z
		 M-466.8,155.6L-432,202l0.9,0.6l36,12l0.6,0.1h24.9l-25.5,8.5l-0.9,0.6l-34.8,46.4l-58.5-58.5l-1.3-0.5h-31.7L-466.8,155.6z
		 M-634.8,155.6L-600,202l0.9,0.6l36,12l0.6,0.1h24.9l-25.5,8.5l-0.9,0.6l-34.8,46.4l-58.5-58.5l-1.3-0.5h-31.7L-634.8,155.6z
		 M2093.7,200.5l72.3-41.3l-41.3,51.7L2093.7,200.5z M1925.7,200.5l72.3-41.3l-41.3,51.7L1925.7,200.5z M1757.7,200.5l72.3-41.3
		l-41.3,51.7L1757.7,200.5z M1589.7,200.5l72.3-41.3l-41.3,51.7L1589.7,200.5z M1421.7,200.5l72.3-41.3l-41.3,51.7L1421.7,200.5z
		 M1253.7,200.5l72.3-41.3l-41.3,51.7L1253.7,200.5z M1085.7,200.5l72.3-41.3l-41.3,51.7L1085.7,200.5z M917.7,200.5l72.3-41.3
		l-41.3,51.7L917.7,200.5z M749.8,200.5l72.3-41.3l-41.3,51.7L749.8,200.5z M581.8,200.5l72.3-41.3l-41.3,51.7L581.8,200.5z
		 M413.8,200.5l72.3-41.3l-41.3,51.7L413.8,200.5z M245.8,200.5l72.3-41.3l-41.3,51.7L245.8,200.5z M77.8,200.5l72.3-41.3
		l-41.3,51.7L77.8,200.5z M-90.2,200.5l72.3-41.3l-41.3,51.7L-90.2,200.5z M-258.2,200.5l72.3-41.3l-41.3,51.7L-258.2,200.5z
		 M-426.2,200.5l72.3-41.3l-41.3,51.7L-426.2,200.5z M-594.2,200.5l72.3-41.3l-41.3,51.7L-594.2,200.5z M-762.2,200.5l72.3-41.3
		l-41.3,51.7L-762.2,200.5z M2170.1,159.8l-10.3,51.3H2129L2170.1,159.8z M2002.1,159.8l-10.3,51.3H1961L2002.1,159.8z
		 M1834.1,159.8l-10.3,51.3H1793L1834.1,159.8z M1666.1,159.8l-10.3,51.3H1625L1666.1,159.8z M1498.1,159.8l-10.3,51.3H1457
		L1498.1,159.8z M1330.1,159.8l-10.3,51.3H1289L1330.1,159.8z M1162.1,159.8l-10.3,51.3H1121L1162.1,159.8z M994.1,159.8l-10.3,51.3
		H953L994.1,159.8z M826.1,159.8l-10.3,51.3H785L826.1,159.8z M658.2,159.8l-10.3,51.3h-30.8L658.2,159.8z M490.2,159.8l-10.3,51.3
		h-30.8L490.2,159.8z M322.2,159.8l-10.3,51.3h-30.8L322.2,159.8z M154.2,159.8l-10.3,51.3h-30.8L154.2,159.8z M-13.8,159.8
		l-10.3,51.3h-30.8L-13.8,159.8z M-181.8,159.8l-10.3,51.3h-30.8L-181.8,159.8z M-349.8,159.8l-10.3,51.3h-30.8L-349.8,159.8z
		 M-517.8,159.8l-10.3,51.3h-30.8L-517.8,159.8z M-685.8,159.8l-10.3,51.3h-30.8L-685.8,159.8z M2130.4,225.1l31.2-10.4h34.3
		l10.8,43.1L2130.4,225.1z M1962.4,225.1l31.2-10.4h34.3l10.8,43.1L1962.4,225.1z M1794.4,225.1l31.2-10.4h34.3l10.8,43.1
		L1794.4,225.1z M1626.4,225.1l31.2-10.4h34.3l10.8,43.1L1626.4,225.1z M1458.4,225.1l31.2-10.4h34.3l10.8,43.1L1458.4,225.1z
		 M1290.4,225.1l31.2-10.4h34.3l10.8,43.1L1290.4,225.1z M1122.4,225.1l31.2-10.4h34.3l10.8,43.1L1122.4,225.1z M954.4,225.1
		l31.2-10.4h34.3l10.8,43.1L954.4,225.1z M786.4,225.1l31.2-10.4H852l10.8,43.1L786.4,225.1z M618.4,225.1l31.2-10.4H684l10.8,43.1
		L618.4,225.1z M450.4,225.1l31.2-10.4H516l10.8,43.1L450.4,225.1z M282.4,225.1l31.2-10.4H348l10.8,43.1L282.4,225.1z M114.5,225.1
		l31.2-10.4H180l10.8,43.1L114.5,225.1z M-53.5,225.1l31.2-10.4H12l10.8,43.1L-53.5,225.1z M-221.5,225.1l31.2-10.4h34.3l10.8,43.1
		L-221.5,225.1z M-389.5,225.1l31.2-10.4h34.3l10.8,43.1L-389.5,225.1z M-557.5,225.1l31.2-10.4h34.3l10.8,43.1L-557.5,225.1z
		 M-725.5,225.1l31.2-10.4h34.3l10.8,43.1L-725.5,225.1z M2210.8,259.4l-10.2-40.7l50.8,50.8L2210.8,259.4z M2042.8,259.4
		l-10.2-40.7l50.8,50.8L2042.8,259.4z M1874.8,259.4l-10.2-40.7l50.8,50.8L1874.8,259.4z M1706.8,259.4l-10.2-40.7l50.8,50.8
		L1706.8,259.4z M1538.8,259.4l-10.2-40.7l50.8,50.8L1538.8,259.4z M1370.8,259.4l-10.2-40.7l50.8,50.8L1370.8,259.4z M1202.8,259.4
		l-10.2-40.7l50.8,50.8L1202.8,259.4z M1034.8,259.4l-10.2-40.7l50.8,50.8L1034.8,259.4z M866.8,259.4l-10.2-40.7l50.8,50.8
		L866.8,259.4z M698.9,259.4l-10.2-40.7l50.8,50.8L698.9,259.4z M530.9,259.4l-10.2-40.7l50.8,50.8L530.9,259.4z M362.9,259.4
		l-10.2-40.7l50.8,50.8L362.9,259.4z M194.9,259.4l-10.2-40.7l50.8,50.8L194.9,259.4z M26.9,259.4l-10.2-40.7l50.8,50.8L26.9,259.4z
		 M-141.1,259.4l-10.2-40.7l50.8,50.8L-141.1,259.4z M-309.1,259.4l-10.2-40.7l50.8,50.8L-309.1,259.4z M-477.1,259.4l-10.2-40.7
		l50.8,50.8L-477.1,259.4z M-645.1,259.4l-10.2-40.7l50.8,50.8L-645.1,259.4z M2091.7,272.7l34.2-45.6l78.6,33.7l-90.7,34
		L2091.7,272.7z M1923.7,272.7l34.2-45.6l78.6,33.7l-90.7,34L1923.7,272.7z M1755.7,272.7l34.2-45.6l78.6,33.7l-90.7,34
		L1755.7,272.7z M1587.7,272.7l34.2-45.6l78.6,33.7l-90.7,34L1587.7,272.7z M1419.7,272.7l34.2-45.6l78.6,33.7l-90.7,34
		L1419.7,272.7z M1251.7,272.7l34.2-45.6l78.6,33.7l-90.7,34L1251.7,272.7z M1083.7,272.7l34.2-45.6l78.6,33.7l-90.7,34
		L1083.7,272.7z M915.7,272.7l34.2-45.6l78.6,33.7l-90.7,34L915.7,272.7z M747.7,272.7l34.2-45.6l78.6,33.7l-90.7,34L747.7,272.7z
		 M579.8,272.7l34.2-45.6l78.6,33.7l-90.7,34L579.8,272.7z M411.8,272.7l34.2-45.6l78.6,33.7l-90.7,34L411.8,272.7z M243.8,272.7
		l34.2-45.6l78.6,33.7l-90.7,34L243.8,272.7z M75.8,272.7l34.2-45.6l78.6,33.7l-90.7,34L75.8,272.7z M-92.2,272.7l34.2-45.6
		l78.6,33.7l-90.7,34L-92.2,272.7z M-260.2,272.7l34.2-45.6l78.6,33.7l-90.7,34L-260.2,272.7z M-428.2,272.7l34.2-45.6l78.6,33.7
		l-90.7,34L-428.2,272.7z M-596.2,272.7l34.2-45.6l78.6,33.7l-90.7,34L-596.2,272.7z M-764.2,272.7l34.2-45.6l78.6,33.7l-90.7,34
		L-764.2,272.7z M2118.4,296.9l90.4-33.9l34.9,34.9l11.1,33.2h-45.2L2118.4,296.9z M1950.4,296.9l90.4-33.9l34.9,34.9l11.1,33.2
		h-45.2L1950.4,296.9z M1782.4,296.9l90.4-33.9l34.9,34.9l11.1,33.2h-45.2L1782.4,296.9z M1614.5,296.9l90.4-33.9l34.9,34.9
		l11.1,33.2h-45.2L1614.5,296.9z M1446.5,296.9l90.4-33.9l34.9,34.9l11.1,33.2h-45.2L1446.5,296.9z M1278.5,296.9l90.4-33.9
		l34.9,34.9l11.1,33.2h-45.2L1278.5,296.9z M1110.5,296.9l90.4-33.9l34.9,34.9l11.1,33.2h-45.2L1110.5,296.9z M942.5,296.9
		l90.4-33.9l34.9,34.9l11.1,33.2h-45.2L942.5,296.9z M774.5,296.9l90.4-33.9l34.9,34.9l11.1,33.2h-45.2L774.5,296.9z M606.5,296.9
		l90.4-33.9l34.9,34.9l11.1,33.2h-45.2L606.5,296.9z M438.5,296.9l90.4-33.9l34.9,34.9l11.1,33.2h-45.2L438.5,296.9z M270.5,296.9
		l90.4-33.9l34.9,34.9l11.1,33.2h-45.2L270.5,296.9z M102.5,296.9l90.4-33.9l34.9,34.9l11.1,33.2h-45.2L102.5,296.9z M-65.5,296.9
		L24.9,263l34.9,34.9l11.1,33.2H25.7L-65.5,296.9z M-233.5,296.9L-143,263l34.9,34.9l11.1,33.2h-45.2L-233.5,296.9z M-401.5,296.9
		L-311,263l34.9,34.9l11.1,33.2h-45.2L-401.5,296.9z M-569.4,296.9L-479,263l34.9,34.9l11.1,33.2h-45.2L-569.4,296.9z M-737.4,296.9
		L-647,263l34.9,34.9l11.1,33.2h-45.2L-737.4,296.9z M2090.9,332.1l-11.9-35.7l-0.4-0.7l-31.4-31.4l41.2,10.3l23.6,23.7l0.6,0.4
		l92.4,34.7l-79.3,45.3L2090.9,332.1z M1922.9,332.1l-11.9-35.7l-0.4-0.7l-31.4-31.4l41.2,10.3l23.6,23.7l0.6,0.4l92.4,34.7
		l-79.3,45.3L1922.9,332.1z M1754.9,332.1l-11.9-35.7l-0.4-0.7l-31.4-31.4l41.2,10.3l23.6,23.7l0.6,0.4l92.4,34.7l-79.3,45.3
		L1754.9,332.1z M1586.9,332.1l-11.9-35.7l-0.4-0.7l-31.4-31.4l41.2,10.3l23.6,23.7l0.6,0.4l92.4,34.7l-79.3,45.3L1586.9,332.1z
		 M1418.9,332.1l-11.9-35.7l-0.4-0.7l-31.4-31.4l41.2,10.3l23.6,23.7l0.6,0.4l92.4,34.7l-79.3,45.3L1418.9,332.1z M1251,332.1
		l-11.9-35.7l-0.4-0.7l-31.4-31.4l41.2,10.3l23.6,23.7l0.6,0.4l92.4,34.7l-79.3,45.3L1251,332.1z M1083,332.1l-11.9-35.7l-0.4-0.7
		l-31.4-31.4l41.2,10.3l23.6,23.7l0.6,0.4l92.4,34.7l-79.3,45.3L1083,332.1z M915,332.1l-11.9-35.7l-0.4-0.7l-31.4-31.4l41.2,10.3
		l23.6,23.7l0.6,0.4l92.4,34.7l-79.3,45.3L915,332.1z M747,332.1l-11.9-35.7l-0.4-0.7l-31.4-31.4l41.2,10.3l23.6,23.7l0.6,0.4
		l92.4,34.7l-79.3,45.3L747,332.1z M579,332.1l-11.9-35.7l-0.4-0.7l-31.4-31.4l41.2,10.3l23.6,23.7l0.6,0.4l92.4,34.7l-79.3,45.3
		L579,332.1z M411,332.1l-11.9-35.7l-0.4-0.7l-31.4-31.4l41.2,10.3l23.6,23.7l0.6,0.4l92.4,34.7l-79.3,45.3L411,332.1z M243,332.1
		l-11.9-35.7l-0.4-0.7l-31.4-31.4l41.2,10.3l23.6,23.7l0.6,0.4l92.4,34.7l-79.3,45.3L243,332.1z M75,332.1l-11.9-35.7l-0.4-0.7
		l-31.4-31.4l41.2,10.3l23.6,23.7l0.6,0.4l92.4,34.7l-79.3,45.3L75,332.1z M-93,332.1l-11.9-35.7l-0.4-0.7l-31.4-31.4l41.2,10.3
		l23.6,23.7l0.6,0.4l92.4,34.7l-79.3,45.3L-93,332.1z M-261,332.1l-11.9-35.7l-0.4-0.7l-31.4-31.4l41.2,10.3l23.6,23.7l0.6,0.4
		l92.4,34.7l-79.3,45.3L-261,332.1z M-429,332.1l-11.9-35.7l-0.4-0.7l-31.4-31.4l41.2,10.3l23.6,23.7l0.6,0.4l92.4,34.7l-79.3,45.3
		L-429,332.1z M-597,332.1l-11.9-35.7l-0.4-0.7l-31.4-31.4l41.2,10.3l23.6,23.7l0.6,0.4l92.4,34.7l-79.3,45.3L-597,332.1z
		 M2210.8,334.7h42.2l-52.7,52.7L2210.8,334.7z M2042.8,334.7h42.2l-52.7,52.7L2042.8,334.7z M1874.8,334.7h42.2l-52.7,52.7
		L1874.8,334.7z M1706.8,334.7h42.2l-52.7,52.7L1706.8,334.7z M1538.8,334.7h42.2l-52.7,52.7L1538.8,334.7z M1370.8,334.7h42.2
		l-52.7,52.7L1370.8,334.7z M1202.8,334.7h42.2l-52.7,52.7L1202.8,334.7z M1034.8,334.7h42.2l-52.7,52.7L1034.8,334.7z M866.8,334.7
		H909l-52.7,52.7L866.8,334.7z M698.8,334.7H741l-52.7,52.7L698.8,334.7z M530.9,334.7H573l-52.7,52.7L530.9,334.7z M362.9,334.7
		H405l-52.7,52.7L362.9,334.7z M194.9,334.7H237l-52.7,52.7L194.9,334.7z M26.9,334.7h42.2l-52.7,52.7L26.9,334.7z M-141.1,334.7
		h42.2l-52.7,52.7L-141.1,334.7z M-309.1,334.7h42.2l-52.7,52.7L-309.1,334.7z M-477.1,334.7h42.2l-52.7,52.7L-477.1,334.7z
		 M-645.1,334.7h42.2l-52.7,52.7L-645.1,334.7z M1997.7,394.8h31.7l1.3-0.5l58.5-58.5l34.8,46.4l0.9,0.6l25.5,8.5h-24.9l-0.6,0.1
		l-36,12l-0.9,0.6l-34.8,46.4L1997.7,394.8z M1829.7,394.8h31.7l1.3-0.5l58.5-58.5l34.8,46.4l0.9,0.6l25.5,8.5h-24.9l-0.6,0.1
		l-36,12l-0.9,0.6l-34.8,46.4L1829.7,394.8z M1661.7,394.8h31.7l1.3-0.5l58.5-58.5l34.8,46.4l0.9,0.6l25.5,8.5h-24.9l-0.6,0.1
		l-36,12l-0.9,0.6l-34.8,46.4L1661.7,394.8z M1493.7,394.8h31.7l1.3-0.5l58.5-58.5l34.8,46.4l0.9,0.6l25.5,8.5h-24.9l-0.6,0.1
		l-36,12l-0.9,0.6l-34.8,46.4L1493.7,394.8z M1325.7,394.8h31.7l1.3-0.5l58.5-58.5l34.8,46.4l0.9,0.6l25.5,8.5h-24.9l-0.6,0.1
		l-36,12l-0.9,0.6l-34.8,46.4L1325.7,394.8z M1157.7,394.8h31.7l1.3-0.5l58.5-58.5l34.8,46.4l0.9,0.6l25.5,8.5h-24.9l-0.6,0.1
		l-36,12l-0.9,0.6l-34.8,46.4L1157.7,394.8z M989.7,394.8h31.7l1.3-0.5l58.5-58.5l34.8,46.4l0.9,0.6l25.5,8.5h-24.9l-0.6,0.1l-36,12
		l-0.9,0.6l-34.8,46.4L989.7,394.8z M821.7,394.8h31.7l1.3-0.5l58.5-58.5l34.8,46.4l0.9,0.6l25.5,8.5h-24.9l-0.6,0.1l-36,12L912,404
		l-34.8,46.4L821.7,394.8z M653.7,394.8h31.7l1.3-0.5l58.5-58.5l34.8,46.4l0.9,0.6l25.5,8.5h-24.9l-0.6,0.1l-36,12L744,404
		l-34.8,46.4L653.7,394.8z M485.7,394.8h31.7l1.3-0.5l58.5-58.5l34.8,46.4l0.9,0.6l25.5,8.5h-24.9l-0.6,0.1l-36,12L576,404
		l-34.8,46.4L485.7,394.8z M317.7,394.8h31.7l1.3-0.5l58.5-58.5l34.8,46.4l0.9,0.6l25.5,8.5h-24.9l-0.6,0.1l-36,12L408,404
		l-34.8,46.4L317.7,394.8z M149.7,394.8h31.7l1.3-0.5l58.5-58.5l34.8,46.4l0.9,0.6l25.5,8.5h-24.9l-0.6,0.1l-36,12L240,404
		l-34.8,46.4L149.7,394.8z M-18.3,394.8h31.7l1.3-0.5l58.5-58.5L108,382l0.9,0.6l25.5,8.5h-24.9l-0.6,0.1l-36,12l-0.9,0.6
		l-34.8,46.4L-18.3,394.8z M-186.2,394.8h31.7l1.3-0.5l58.5-58.5L-60,382l0.9,0.6l25.5,8.5h-24.9l-0.6,0.1l-36,12l-0.9,0.6
		l-34.8,46.4L-186.2,394.8z M-354.2,394.8h31.7l1.3-0.5l58.5-58.5L-228,382l0.9,0.6l25.5,8.5h-24.9l-0.6,0.1l-36,12l-0.9,0.6
		l-34.8,46.4L-354.2,394.8z M-522.2,394.8h31.7l1.3-0.5l58.5-58.5L-396,382l0.9,0.6l25.5,8.5h-24.9l-0.6,0.1l-36,12l-0.9,0.6
		l-34.8,46.4L-522.2,394.8z M-690.2,394.8h31.7l1.3-0.5l58.5-58.5L-564,382l0.9,0.6l25.5,8.5h-24.9l-0.6,0.1l-36,12l-0.9,0.6
		l-34.8,46.4L-690.2,394.8z M2129.7,380.5l72.3-41.3l-41.3,51.7L2129.7,380.5z M1961.7,380.5l72.3-41.3l-41.3,51.7L1961.7,380.5z
		 M1793.7,380.5l72.3-41.3l-41.3,51.7L1793.7,380.5z M1625.7,380.5l72.3-41.3l-41.3,51.7L1625.7,380.5z M1457.7,380.5l72.3-41.3
		l-41.3,51.7L1457.7,380.5z M1289.7,380.5l72.3-41.3l-41.3,51.7L1289.7,380.5z M1121.7,380.5l72.3-41.3l-41.3,51.7L1121.7,380.5z
		 M953.7,380.5l72.3-41.3l-41.3,51.7L953.7,380.5z M785.8,380.5l72.3-41.3l-41.3,51.7L785.8,380.5z M617.8,380.5l72.3-41.3
		l-41.3,51.7L617.8,380.5z M449.8,380.5l72.3-41.3l-41.3,51.7L449.8,380.5z M281.8,380.5l72.3-41.3l-41.3,51.7L281.8,380.5z
		 M113.8,380.5l72.3-41.3l-41.3,51.7L113.8,380.5z M-54.2,380.5l72.3-41.3l-41.3,51.7L-54.2,380.5z M-222.2,380.5l72.3-41.3
		l-41.3,51.7L-222.2,380.5z M-390.2,380.5l72.3-41.3l-41.3,51.7L-390.2,380.5z M-558.2,380.5l72.3-41.3l-41.3,51.7L-558.2,380.5z
		 M-726.2,380.5l72.3-41.3l-41.3,51.7L-726.2,380.5z M2206.1,339.8l-10.3,51.3H2165L2206.1,339.8z M2038.1,339.8l-10.3,51.3H1997
		L2038.1,339.8z M1870.1,339.8l-10.3,51.3H1829L1870.1,339.8z M1702.1,339.8l-10.3,51.3H1661L1702.1,339.8z M1534.1,339.8
		l-10.3,51.3H1493L1534.1,339.8z M1366.1,339.8l-10.3,51.3H1325L1366.1,339.8z M1198.1,339.8l-10.3,51.3H1157L1198.1,339.8z
		 M1030.1,339.8l-10.3,51.3H989L1030.1,339.8z M862.1,339.8l-10.3,51.3H821L862.1,339.8z M694.2,339.8l-10.3,51.3h-30.8L694.2,339.8
		z M526.2,339.8l-10.3,51.3h-30.8L526.2,339.8z M358.2,339.8l-10.3,51.3h-30.8L358.2,339.8z M190.2,339.8l-10.3,51.3h-30.8
		L190.2,339.8z M22.2,339.8l-10.3,51.3h-30.8L22.2,339.8z M-145.8,339.8l-10.3,51.3h-30.8L-145.8,339.8z M-313.8,339.8l-10.3,51.3
		h-30.8L-313.8,339.8z M-481.8,339.8l-10.3,51.3h-30.8L-481.8,339.8z M-649.8,339.8l-10.3,51.3h-30.8L-649.8,339.8z M2094.4,405.2
		l31.2-10.4h34.3l10.8,43.1L2094.4,405.2z M1926.4,405.2l31.2-10.4h34.3l10.8,43.1L1926.4,405.2z M1758.4,405.2l31.2-10.4h34.3
		l10.8,43.1L1758.4,405.2z M1590.4,405.2l31.2-10.4h34.3l10.8,43.1L1590.4,405.2z M1422.4,405.2l31.2-10.4h34.3l10.8,43.1
		L1422.4,405.2z M1254.4,405.2l31.2-10.4h34.3l10.8,43.1L1254.4,405.2z M1086.4,405.2l31.2-10.4h34.3l10.8,43.1L1086.4,405.2z
		 M918.4,405.2l31.2-10.4h34.3l10.8,43.1L918.4,405.2z M750.4,405.2l31.2-10.4H816l10.8,43.1L750.4,405.2z M582.4,405.2l31.2-10.4
		H648l10.8,43.1L582.4,405.2z M414.4,405.2l31.2-10.4H480l10.8,43.1L414.4,405.2z M246.5,405.2l31.2-10.4H312l10.8,43.1L246.5,405.2
		z M78.5,405.2l31.2-10.4H144l10.8,43.1L78.5,405.2z M-89.5,405.2l31.2-10.4H-24l10.8,43.1L-89.5,405.2z M-257.5,405.2l31.2-10.4
		h34.3l10.8,43.1L-257.5,405.2z M-425.5,405.2l31.2-10.4h34.3l10.8,43.1L-425.5,405.2z M-593.5,405.2l31.2-10.4h34.3l10.8,43.1
		L-593.5,405.2z M-761.5,405.2l31.2-10.4h34.3l10.8,43.1L-761.5,405.2z M2174.8,439.5l-10.2-40.7l50.8,50.8L2174.8,439.5z
		 M2006.8,439.5l-10.2-40.7l50.8,50.8L2006.8,439.5z M1838.8,439.5l-10.2-40.7l50.8,50.8L1838.8,439.5z M1670.8,439.5l-10.2-40.7
		l50.8,50.8L1670.8,439.5z M1502.8,439.5l-10.2-40.7l50.8,50.8L1502.8,439.5z M1334.8,439.5l-10.2-40.7l50.8,50.8L1334.8,439.5z
		 M1166.8,439.5l-10.2-40.7l50.8,50.8L1166.8,439.5z M998.8,439.5l-10.2-40.7l50.8,50.8L998.8,439.5z M830.8,439.5l-10.2-40.7
		l50.8,50.8L830.8,439.5z M662.9,439.5l-10.2-40.7l50.8,50.8L662.9,439.5z M494.9,439.5l-10.2-40.7l50.8,50.8L494.9,439.5z
		 M326.9,439.5l-10.2-40.7l50.8,50.8L326.9,439.5z M158.9,439.5l-10.2-40.7l50.8,50.8L158.9,439.5z M-9.1,439.5l-10.2-40.7
		l50.8,50.8L-9.1,439.5z M-177.1,439.5l-10.2-40.7l50.8,50.8L-177.1,439.5z M-345.1,439.5l-10.2-40.7l50.8,50.8L-345.1,439.5z
		 M-513.1,439.5l-10.2-40.7l50.8,50.8L-513.1,439.5z M-681.1,439.5l-10.2-40.7l50.8,50.8L-681.1,439.5z M2055.7,452.8l34.2-45.6
		l78.6,33.7l-90.7,34L2055.7,452.8z M1887.7,452.8l34.2-45.6l78.6,33.7l-90.7,34L1887.7,452.8z M1719.7,452.8l34.2-45.6l78.6,33.7
		l-90.7,34L1719.7,452.8z M1551.7,452.8l34.2-45.6l78.6,33.7l-90.7,34L1551.7,452.8z M1383.7,452.8l34.2-45.6l78.6,33.7l-90.7,34
		L1383.7,452.8z M1215.7,452.8l34.2-45.6l78.6,33.7l-90.7,34L1215.7,452.8z M1047.7,452.8l34.2-45.6l78.6,33.7l-90.7,34
		L1047.7,452.8z M879.7,452.8l34.2-45.6l78.6,33.7l-90.7,34L879.7,452.8z M711.7,452.8l34.2-45.6l78.6,33.7l-90.7,34L711.7,452.8z
		 M543.8,452.8l34.2-45.6l78.6,33.7l-90.7,34L543.8,452.8z M375.8,452.8l34.2-45.6l78.6,33.7l-90.7,34L375.8,452.8z M207.8,452.8
		l34.2-45.6l78.6,33.7l-90.7,34L207.8,452.8z M39.8,452.8L74,407.2l78.6,33.7l-90.7,34L39.8,452.8z M-128.2,452.8l34.2-45.6
		l78.6,33.7l-90.7,34L-128.2,452.8z M-296.2,452.8l34.2-45.6l78.6,33.7l-90.7,34L-296.2,452.8z M-464.2,452.8l34.2-45.6l78.6,33.7
		l-90.7,34L-464.2,452.8z M-632.2,452.8l34.2-45.6l78.6,33.7l-90.7,34L-632.2,452.8z M-800.2,452.8l34.2-45.6l78.6,33.7l-90.7,34
		L-800.2,452.8z M2082.4,477l90.4-33.9l34.9,34.9l11.1,33.2h-45.2L2082.4,477z M1914.4,477l90.4-33.9l34.9,34.9l11.1,33.2h-45.2
		L1914.4,477z M1746.4,477l90.4-33.9l34.9,34.9l11.1,33.2h-45.2L1746.4,477z M1578.5,477l90.4-33.9l34.9,34.9l11.1,33.2h-45.2
		L1578.5,477z M1410.5,477l90.4-33.9l34.9,34.9l11.1,33.2h-45.2L1410.5,477z M1242.5,477l90.4-33.9l34.9,34.9l11.1,33.2h-45.2
		L1242.5,477z M1074.5,477l90.4-33.9l34.9,34.9l11.1,33.2h-45.2L1074.5,477z M906.5,477l90.4-33.9l34.9,34.9l11.1,33.2h-45.2
		L906.5,477z M738.5,477l90.4-33.9l34.9,34.9l11.1,33.2h-45.2L738.5,477z M570.5,477l90.4-33.9l34.9,34.9l11.1,33.2h-45.2L570.5,477
		z M402.5,477l90.4-33.9l34.9,34.9l11.1,33.2h-45.2L402.5,477z M234.5,477l90.4-33.9l34.9,34.9l11.1,33.2h-45.2L234.5,477z
		 M66.5,477l90.4-33.9l34.9,34.9l11.1,33.2h-45.2L66.5,477z M-101.5,477l90.4-33.9L23.8,478l11.1,33.2h-45.2L-101.5,477z
		 M-269.5,477l90.4-33.9l34.9,34.9l11.1,33.2h-45.2L-269.5,477z M-437.4,477l90.4-33.9l34.9,34.9l11.1,33.2h-45.2L-437.4,477z
		 M-605.4,477l90.4-33.9l34.9,34.9l11.1,33.2h-45.2L-605.4,477z M-773.4,477l90.4-33.9l34.9,34.9l11.1,33.2h-45.2L-773.4,477z
		 M2054.9,512.1l-11.9-35.7l-0.4-0.7l-31.4-31.4l41.2,10.3l23.6,23.7l0.6,0.4l92.4,34.7l-79.3,45.3L2054.9,512.1z M1886.9,512.1
		l-11.9-35.7l-0.4-0.7l-31.4-31.4l41.2,10.3l23.6,23.7l0.6,0.4l92.4,34.7l-79.3,45.3L1886.9,512.1z M1718.9,512.1l-11.9-35.7
		l-0.4-0.7l-31.4-31.4l41.2,10.3l23.6,23.7l0.6,0.4l92.4,34.7l-79.3,45.3L1718.9,512.1z M1550.9,512.1l-11.9-35.7l-0.4-0.7
		l-31.4-31.4l41.2,10.3l23.6,23.7l0.6,0.4l92.4,34.7l-79.3,45.3L1550.9,512.1z M1382.9,512.1l-11.9-35.7l-0.4-0.7l-31.4-31.4
		l41.2,10.3l23.6,23.7l0.6,0.4l92.4,34.7l-79.3,45.3L1382.9,512.1z M1215,512.1l-11.9-35.7l-0.4-0.7l-31.4-31.4l41.2,10.3l23.6,23.7
		l0.6,0.4l92.4,34.7l-79.3,45.3L1215,512.1z M1047,512.1l-11.9-35.7l-0.4-0.7l-31.4-31.4l41.2,10.3l23.6,23.7l0.6,0.4l92.4,34.7
		l-79.3,45.3L1047,512.1z M879,512.1l-11.9-35.7l-0.4-0.7l-31.4-31.4l41.2,10.3l23.6,23.7l0.6,0.4l92.4,34.7l-79.3,45.3L879,512.1z
		 M711,512.1l-11.9-35.7l-0.4-0.7l-31.4-31.4l41.2,10.3l23.6,23.7l0.6,0.4l92.4,34.7l-79.3,45.3L711,512.1z M543,512.1l-11.9-35.7
		l-0.4-0.7l-31.4-31.4l41.2,10.3l23.6,23.7l0.6,0.4l92.4,34.7l-79.3,45.3L543,512.1z M375,512.1l-11.9-35.7l-0.4-0.7l-31.4-31.4
		l41.2,10.3l23.6,23.7l0.6,0.4l92.4,34.7l-79.3,45.3L375,512.1z M207,512.1l-11.9-35.7l-0.4-0.7l-31.4-31.4l41.2,10.3l23.6,23.7
		l0.6,0.4l92.4,34.7l-79.3,45.3L207,512.1z M39,512.1l-11.9-35.7l-0.4-0.7l-31.4-31.4l41.2,10.3l23.6,23.7l0.6,0.4l92.4,34.7
		l-79.3,45.3L39,512.1z M-129,512.1l-11.9-35.7l-0.4-0.7l-31.4-31.4l41.2,10.3l23.6,23.7l0.6,0.4l92.4,34.7l-79.3,45.3L-129,512.1z
		 M-297,512.1l-11.9-35.7l-0.4-0.7l-31.4-31.4l41.2,10.3l23.6,23.7l0.6,0.4l92.4,34.7l-79.3,45.3L-297,512.1z M-465,512.1
		l-11.9-35.7l-0.4-0.7l-31.4-31.4l41.2,10.3l23.6,23.7l0.6,0.4l92.4,34.7l-79.3,45.3L-465,512.1z M-633,512.1l-11.9-35.7l-0.4-0.7
		l-31.4-31.4l41.2,10.3l23.6,23.7l0.6,0.4l92.4,34.7l-79.3,45.3L-633,512.1z M2174.8,514.8h42.2l-52.7,52.7L2174.8,514.8z
		 M2006.8,514.8h42.2l-52.7,52.7L2006.8,514.8z M1838.8,514.8h42.2l-52.7,52.7L1838.8,514.8z M1670.8,514.8h42.2l-52.7,52.7
		L1670.8,514.8z M1502.8,514.8h42.2l-52.7,52.7L1502.8,514.8z M1334.8,514.8h42.2l-52.7,52.7L1334.8,514.8z M1166.8,514.8h42.2
		l-52.7,52.7L1166.8,514.8z M998.8,514.8h42.2l-52.7,52.7L998.8,514.8z M830.8,514.8H873l-52.7,52.7L830.8,514.8z M662.8,514.8H705
		l-52.7,52.7L662.8,514.8z M494.9,514.8H537l-52.7,52.7L494.9,514.8z M326.9,514.8H369l-52.7,52.7L326.9,514.8z M158.9,514.8H201
		l-52.7,52.7L158.9,514.8z M-9.1,514.8h42.2l-52.7,52.7L-9.1,514.8z M-177.1,514.8h42.2l-52.7,52.7L-177.1,514.8z M-345.1,514.8
		h42.2l-52.7,52.7L-345.1,514.8z M-513.1,514.8h42.2l-52.7,52.7L-513.1,514.8z M-681.1,514.8h42.2l-52.7,52.7L-681.1,514.8z
		 M2053.1,515.7l34.8,46.4l0.9,0.6l36,12l0.6,0.1h24.9l-25.5,8.5l-0.9,0.6l-34.8,46.4l-58.5-58.5l-1.3-0.5h-31.7L2053.1,515.7z
		 M1885.1,515.7l34.8,46.4l0.9,0.6l36,12l0.6,0.1h24.9l-25.5,8.5l-0.9,0.6l-34.8,46.4l-58.5-58.5l-1.3-0.5h-31.7L1885.1,515.7z
		 M1717.1,515.7l34.8,46.4l0.9,0.6l36,12l0.6,0.1h24.9l-25.5,8.5l-0.9,0.6l-34.8,46.4l-58.5-58.5l-1.3-0.5h-31.7L1717.1,515.7z
		 M1549.1,515.7l34.8,46.4l0.9,0.6l36,12l0.6,0.1h24.9l-25.5,8.5l-0.9,0.6l-34.8,46.4l-58.5-58.5l-1.3-0.5h-31.7L1549.1,515.7z
		 M1381.1,515.7l34.8,46.4l0.9,0.6l36,12l0.6,0.1h24.9l-25.5,8.5l-0.9,0.6l-34.8,46.4l-58.5-58.5l-1.3-0.5h-31.7L1381.1,515.7z
		 M1213.1,515.7l34.8,46.4l0.9,0.6l36,12l0.6,0.1h24.9l-25.5,8.5l-0.9,0.6l-34.8,46.4l-58.5-58.5l-1.3-0.5h-31.7L1213.1,515.7z
		 M1045.2,515.7l34.8,46.4l0.9,0.6l36,12l0.6,0.1h24.9l-25.5,8.5l-0.9,0.6l-34.8,46.4l-58.5-58.5l-1.3-0.5h-31.7L1045.2,515.7z
		 M877.2,515.7l34.8,46.4l0.9,0.6l36,12l0.6,0.1h24.9l-25.5,8.5l-0.9,0.6l-34.8,46.4l-58.5-58.5l-1.3-0.5h-31.7L877.2,515.7z
		 M709.2,515.7l34.8,46.4l0.9,0.6l36,12l0.6,0.1h24.9l-25.5,8.5l-0.9,0.6l-34.8,46.4l-58.5-58.5l-1.3-0.5h-31.7L709.2,515.7z
		 M541.2,515.7l34.8,46.4l0.9,0.6l36,12l0.6,0.1h24.9l-25.5,8.5l-0.9,0.6l-34.8,46.4l-58.5-58.5l-1.3-0.5h-31.7L541.2,515.7z
		 M373.2,515.7l34.8,46.4l0.9,0.6l36,12l0.6,0.1h24.9l-25.5,8.5l-0.9,0.6l-34.8,46.4l-58.5-58.5l-1.3-0.5h-31.7L373.2,515.7z
		 M205.2,515.7l34.8,46.4l0.9,0.6l36,12l0.6,0.1h24.9l-25.5,8.5l-0.9,0.6l-34.8,46.4l-58.5-58.5l-1.3-0.5h-31.7L205.2,515.7z
		 M37.2,515.7L72,562.1l0.9,0.6l36,12l0.6,0.1h24.9l-25.5,8.5l-0.9,0.6l-34.8,46.4l-58.5-58.5l-1.3-0.5h-31.7L37.2,515.7z
		 M-130.8,515.7l34.8,46.4l0.9,0.6l36,12l0.6,0.1h24.9l-25.5,8.5l-0.9,0.6l-34.8,46.4l-58.5-58.5l-1.3-0.5h-31.7L-130.8,515.7z
		 M-298.8,515.7l34.8,46.4l0.9,0.6l36,12l0.6,0.1h24.9l-25.5,8.5l-0.9,0.6l-34.8,46.4l-58.5-58.5l-1.3-0.5h-31.7L-298.8,515.7z
		 M-466.8,515.7l34.8,46.4l0.9,0.6l36,12l0.6,0.1h24.9l-25.5,8.5l-0.9,0.6l-34.8,46.4l-58.5-58.5l-1.3-0.5h-31.7L-466.8,515.7z
		 M-634.8,515.7l34.8,46.4l0.9,0.6l36,12l0.6,0.1h24.9l-25.5,8.5l-0.9,0.6l-34.8,46.4l-58.5-58.5l-1.3-0.5h-31.7L-634.8,515.7z
		 M2093.7,560.6l72.3-41.3l-41.3,51.7L2093.7,560.6z M1925.7,560.6l72.3-41.3l-41.3,51.7L1925.7,560.6z M1757.7,560.6l72.3-41.3
		l-41.3,51.7L1757.7,560.6z M1589.7,560.6l72.3-41.3l-41.3,51.7L1589.7,560.6z M1421.7,560.6l72.3-41.3l-41.3,51.7L1421.7,560.6z
		 M1253.7,560.6l72.3-41.3l-41.3,51.7L1253.7,560.6z M1085.7,560.6l72.3-41.3l-41.3,51.7L1085.7,560.6z M917.7,560.6l72.3-41.3
		L948.7,571L917.7,560.6z M749.8,560.6l72.3-41.3L780.8,571L749.8,560.6z M581.8,560.6l72.3-41.3L612.8,571L581.8,560.6z
		 M413.8,560.6l72.3-41.3L444.8,571L413.8,560.6z M245.8,560.6l72.3-41.3L276.8,571L245.8,560.6z M77.8,560.6l72.3-41.3L108.8,571
		L77.8,560.6z M-90.2,560.6l72.3-41.3L-59.2,571L-90.2,560.6z M-258.2,560.6l72.3-41.3l-41.3,51.7L-258.2,560.6z M-426.2,560.6
		l72.3-41.3l-41.3,51.7L-426.2,560.6z M-594.2,560.6l72.3-41.3l-41.3,51.7L-594.2,560.6z M-762.2,560.6l72.3-41.3l-41.3,51.7
		L-762.2,560.6z M2170.1,519.9l-10.3,51.3H2129L2170.1,519.9z M2002.1,519.9l-10.3,51.3H1961L2002.1,519.9z M1834.1,519.9
		l-10.3,51.3H1793L1834.1,519.9z M1666.1,519.9l-10.3,51.3H1625L1666.1,519.9z M1498.1,519.9l-10.3,51.3H1457L1498.1,519.9z
		 M1330.1,519.9l-10.3,51.3H1289L1330.1,519.9z M1162.1,519.9l-10.3,51.3H1121L1162.1,519.9z M994.1,519.9l-10.3,51.3H953
		L994.1,519.9z M826.1,519.9l-10.3,51.3H785L826.1,519.9z M658.2,519.9l-10.3,51.3h-30.8L658.2,519.9z M490.2,519.9l-10.3,51.3
		h-30.8L490.2,519.9z M322.2,519.9l-10.3,51.3h-30.8L322.2,519.9z M154.2,519.9l-10.3,51.3h-30.8L154.2,519.9z M-13.8,519.9
		l-10.3,51.3h-30.8L-13.8,519.9z M-181.8,519.9l-10.3,51.3h-30.8L-181.8,519.9z M-349.8,519.9l-10.3,51.3h-30.8L-349.8,519.9z
		 M-517.8,519.9l-10.3,51.3h-30.8L-517.8,519.9z M-685.8,519.9l-10.3,51.3h-30.8L-685.8,519.9z M2130.4,585.2l31.2-10.4h34.3
		l10.8,43.1L2130.4,585.2z M1962.4,585.2l31.2-10.4h34.3l10.8,43.1L1962.4,585.2z M1794.4,585.2l31.2-10.4h34.3l10.8,43.1
		L1794.4,585.2z M1626.4,585.2l31.2-10.4h34.3l10.8,43.1L1626.4,585.2z M1458.4,585.2l31.2-10.4h34.3l10.8,43.1L1458.4,585.2z
		 M1290.4,585.2l31.2-10.4h34.3l10.8,43.1L1290.4,585.2z M1122.4,585.2l31.2-10.4h34.3l10.8,43.1L1122.4,585.2z M954.4,585.2
		l31.2-10.4h34.3l10.8,43.1L954.4,585.2z M786.4,585.2l31.2-10.4H852l10.8,43.1L786.4,585.2z M618.4,585.2l31.2-10.4H684l10.8,43.1
		L618.4,585.2z M450.4,585.2l31.2-10.4H516l10.8,43.1L450.4,585.2z M282.4,585.2l31.2-10.4H348l10.8,43.1L282.4,585.2z M114.5,585.2
		l31.2-10.4H180l10.8,43.1L114.5,585.2z M-53.5,585.2l31.2-10.4H12l10.8,43.1L-53.5,585.2z M-221.5,585.2l31.2-10.4h34.3l10.8,43.1
		L-221.5,585.2z M-389.5,585.2l31.2-10.4h34.3l10.8,43.1L-389.5,585.2z M-557.5,585.2l31.2-10.4h34.3l10.8,43.1L-557.5,585.2z
		 M-725.5,585.2l31.2-10.4h34.3l10.8,43.1L-725.5,585.2z M2210.8,619.5l-10.2-40.7l50.8,50.8L2210.8,619.5z M2042.8,619.5
		l-10.2-40.7l50.8,50.8L2042.8,619.5z M1874.8,619.5l-10.2-40.7l50.8,50.8L1874.8,619.5z M1706.8,619.5l-10.2-40.7l50.8,50.8
		L1706.8,619.5z M1538.8,619.5l-10.2-40.7l50.8,50.8L1538.8,619.5z M1370.8,619.5l-10.2-40.7l50.8,50.8L1370.8,619.5z M1202.8,619.5
		l-10.2-40.7l50.8,50.8L1202.8,619.5z M1034.8,619.5l-10.2-40.7l50.8,50.8L1034.8,619.5z M866.8,619.5l-10.2-40.7l50.8,50.8
		L866.8,619.5z M698.9,619.5l-10.2-40.7l50.8,50.8L698.9,619.5z M530.9,619.5l-10.2-40.7l50.8,50.8L530.9,619.5z M362.9,619.5
		l-10.2-40.7l50.8,50.8L362.9,619.5z M194.9,619.5l-10.2-40.7l50.8,50.8L194.9,619.5z M26.9,619.5l-10.2-40.7l50.8,50.8L26.9,619.5z
		 M-141.1,619.5l-10.2-40.7l50.8,50.8L-141.1,619.5z M-309.1,619.5l-10.2-40.7l50.8,50.8L-309.1,619.5z M-477.1,619.5l-10.2-40.7
		l50.8,50.8L-477.1,619.5z M-645.1,619.5l-10.2-40.7l50.8,50.8L-645.1,619.5z M2091.7,632.8l34.2-45.6l78.6,33.7l-90.7,34
		L2091.7,632.8z M1923.7,632.8l34.2-45.6l78.6,33.7l-90.7,34L1923.7,632.8z M1755.7,632.8l34.2-45.6l78.6,33.7l-90.7,34
		L1755.7,632.8z M1587.7,632.8l34.2-45.6l78.6,33.7l-90.7,34L1587.7,632.8z M1419.7,632.8l34.2-45.6l78.6,33.7l-90.7,34
		L1419.7,632.8z M1251.7,632.8l34.2-45.6l78.6,33.7l-90.7,34L1251.7,632.8z M1083.7,632.8l34.2-45.6l78.6,33.7l-90.7,34
		L1083.7,632.8z M915.7,632.8l34.2-45.6l78.6,33.7l-90.7,34L915.7,632.8z M747.7,632.8l34.2-45.6l78.6,33.7l-90.7,34L747.7,632.8z
		 M579.8,632.8l34.2-45.6l78.6,33.7l-90.7,34L579.8,632.8z M411.8,632.8l34.2-45.6l78.6,33.7l-90.7,34L411.8,632.8z M243.8,632.8
		l34.2-45.6l78.6,33.7l-90.7,34L243.8,632.8z M75.8,632.8l34.2-45.6l78.6,33.7l-90.7,34L75.8,632.8z M-92.2,632.8l34.2-45.6
		l78.6,33.7l-90.7,34L-92.2,632.8z M-260.2,632.8l34.2-45.6l78.6,33.7l-90.7,34L-260.2,632.8z M-428.2,632.8l34.2-45.6l78.6,33.7
		l-90.7,34L-428.2,632.8z M-596.2,632.8l34.2-45.6l78.6,33.7l-90.7,34L-596.2,632.8z M-764.2,632.8l34.2-45.6l78.6,33.7l-90.7,34
		L-764.2,632.8z M2118.4,657l90.4-33.9l34.9,34.9l11.1,33.2h-45.2L2118.4,657z M1950.4,657l90.4-33.9l34.9,34.9l11.1,33.2h-45.2
		L1950.4,657z M1782.4,657l90.4-33.9l34.9,34.9l11.1,33.2h-45.2L1782.4,657z M1614.5,657l90.4-33.9l34.9,34.9l11.1,33.2h-45.2
		L1614.5,657z M1446.5,657l90.4-33.9l34.9,34.9l11.1,33.2h-45.2L1446.5,657z M1278.5,657l90.4-33.9l34.9,34.9l11.1,33.2h-45.2
		L1278.5,657z M1110.5,657l90.4-33.9l34.9,34.9l11.1,33.2h-45.2L1110.5,657z M942.5,657l90.4-33.9l34.9,34.9l11.1,33.2h-45.2
		L942.5,657z M774.5,657l90.4-33.9l34.9,34.9l11.1,33.2h-45.2L774.5,657z M606.5,657l90.4-33.9l34.9,34.9l11.1,33.2h-45.2L606.5,657
		z M438.5,657l90.4-33.9l34.9,34.9l11.1,33.2h-45.2L438.5,657z M270.5,657l90.4-33.9l34.9,34.9l11.1,33.2h-45.2L270.5,657z
		 M102.5,657l90.4-33.9l34.9,34.9l11.1,33.2h-45.2L102.5,657z M-65.5,657l90.4-33.9L59.8,658l11.1,33.2H25.7L-65.5,657z M-233.5,657
		l90.4-33.9l34.9,34.9l11.1,33.2h-45.2L-233.5,657z M-401.5,657l90.4-33.9l34.9,34.9l11.1,33.2h-45.2L-401.5,657z M-569.4,657
		l90.4-33.9l34.9,34.9l11.1,33.2h-45.2L-569.4,657z M-737.4,657l90.4-33.9l34.9,34.9l11.1,33.2h-45.2L-737.4,657z M2090.9,692.2
		l-11.9-35.7l-0.4-0.7l-31.4-31.4l41.2,10.3l23.6,23.7l0.6,0.4l92.4,34.7l-79.3,45.3L2090.9,692.2z M1922.9,692.2l-11.9-35.7
		l-0.4-0.7l-31.4-31.4l41.2,10.3l23.6,23.7l0.6,0.4l92.4,34.7l-79.3,45.3L1922.9,692.2z M1754.9,692.2l-11.9-35.7l-0.4-0.7
		l-31.4-31.4l41.2,10.3l23.6,23.7l0.6,0.4l92.4,34.7l-79.3,45.3L1754.9,692.2z M1586.9,692.2l-11.9-35.7l-0.4-0.7l-31.4-31.4
		l41.2,10.3l23.6,23.7l0.6,0.4l92.4,34.7l-79.3,45.3L1586.9,692.2z M1418.9,692.2l-11.9-35.7l-0.4-0.7l-31.4-31.4l41.2,10.3
		l23.6,23.7l0.6,0.4l92.4,34.7l-79.3,45.3L1418.9,692.2z M1251,692.2l-11.9-35.7l-0.4-0.7l-31.4-31.4l41.2,10.3l23.6,23.7l0.6,0.4
		l92.4,34.7l-79.3,45.3L1251,692.2z M1083,692.2l-11.9-35.7l-0.4-0.7l-31.4-31.4l41.2,10.3l23.6,23.7l0.6,0.4l92.4,34.7l-79.3,45.3
		L1083,692.2z M915,692.2l-11.9-35.7l-0.4-0.7l-31.4-31.4l41.2,10.3l23.6,23.7l0.6,0.4l92.4,34.7l-79.3,45.3L915,692.2z M747,692.2
		l-11.9-35.7l-0.4-0.7l-31.4-31.4l41.2,10.3l23.6,23.7l0.6,0.4l92.4,34.7l-79.3,45.3L747,692.2z M579,692.2l-11.9-35.7l-0.4-0.7
		l-31.4-31.4l41.2,10.3l23.6,23.7l0.6,0.4l92.4,34.7l-79.3,45.3L579,692.2z M411,692.2l-11.9-35.7l-0.4-0.7l-31.4-31.4l41.2,10.3
		l23.6,23.7l0.6,0.4l92.4,34.7l-79.3,45.3L411,692.2z M243,692.2l-11.9-35.7l-0.4-0.7l-31.4-31.4l41.2,10.3l23.6,23.7l0.6,0.4
		l92.4,34.7l-79.3,45.3L243,692.2z M75,692.2l-11.9-35.7l-0.4-0.7l-31.4-31.4l41.2,10.3l23.6,23.7l0.6,0.4l92.4,34.7l-79.3,45.3
		L75,692.2z M-93,692.2l-11.9-35.7l-0.4-0.7l-31.4-31.4l41.2,10.3l23.6,23.7l0.6,0.4l92.4,34.7l-79.3,45.3L-93,692.2z M-261,692.2
		l-11.9-35.7l-0.4-0.7l-31.4-31.4l41.2,10.3l23.6,23.7l0.6,0.4l92.4,34.7l-79.3,45.3L-261,692.2z M-429,692.2l-11.9-35.7l-0.4-0.7
		l-31.4-31.4l41.2,10.3l23.6,23.7l0.6,0.4l92.4,34.7l-79.3,45.3L-429,692.2z M-597,692.2l-11.9-35.7l-0.4-0.7l-31.4-31.4l41.2,10.3
		l23.6,23.7l0.6,0.4l92.4,34.7l-79.3,45.3L-597,692.2z M2210.8,694.8h42.2l-52.7,52.7L2210.8,694.8z M2042.8,694.8h42.2l-52.7,52.7
		L2042.8,694.8z M1874.8,694.8h42.2l-52.7,52.7L1874.8,694.8z M1706.8,694.8h42.2l-52.7,52.7L1706.8,694.8z M1538.8,694.8h42.2
		l-52.7,52.7L1538.8,694.8z M1370.8,694.8h42.2l-52.7,52.7L1370.8,694.8z M1202.8,694.8h42.2l-52.7,52.7L1202.8,694.8z
		 M1034.8,694.8h42.2l-52.7,52.7L1034.8,694.8z M866.8,694.8H909l-52.7,52.7L866.8,694.8z M698.8,694.8H741l-52.7,52.7L698.8,694.8z
		 M530.9,694.8H573l-52.7,52.7L530.9,694.8z M362.9,694.8H405l-52.7,52.7L362.9,694.8z M194.9,694.8H237l-52.7,52.7L194.9,694.8z
		 M26.9,694.8h42.2l-52.7,52.7L26.9,694.8z M-141.1,694.8h42.2l-52.7,52.7L-141.1,694.8z M-309.1,694.8h42.2l-52.7,52.7
		L-309.1,694.8z M-477.1,694.8h42.2l-52.7,52.7L-477.1,694.8z M-645.1,694.8h42.2l-52.7,52.7L-645.1,694.8z M1997.7,754.9h31.7
		l1.3-0.5l58.5-58.5l34.8,46.4l0.9,0.6l25.5,8.5h-24.9l-0.6,0.1l-36,12l-0.9,0.6l-34.8,46.4L1997.7,754.9z M1829.7,754.9h31.7
		l1.3-0.5l58.5-58.5l34.8,46.4l0.9,0.6l25.5,8.5h-24.9l-0.6,0.1l-36,12l-0.9,0.6l-34.8,46.4L1829.7,754.9z M1661.7,754.9h31.7
		l1.3-0.5l58.5-58.5l34.8,46.4l0.9,0.6l25.5,8.5h-24.9l-0.6,0.1l-36,12l-0.9,0.6l-34.8,46.4L1661.7,754.9z M1493.7,754.9h31.7
		l1.3-0.5l58.5-58.5l34.8,46.4l0.9,0.6l25.5,8.5h-24.9l-0.6,0.1l-36,12l-0.9,0.6l-34.8,46.4L1493.7,754.9z M1325.7,754.9h31.7
		l1.3-0.5l58.5-58.5l34.8,46.4l0.9,0.6l25.5,8.5h-24.9l-0.6,0.1l-36,12l-0.9,0.6l-34.8,46.4L1325.7,754.9z M1157.7,754.9h31.7
		l1.3-0.5l58.5-58.5l34.8,46.4l0.9,0.6l25.5,8.5h-24.9l-0.6,0.1l-36,12l-0.9,0.6l-34.8,46.4L1157.7,754.9z M989.7,754.9h31.7
		l1.3-0.5l58.5-58.5l34.8,46.4l0.9,0.6l25.5,8.5h-24.9l-0.6,0.1l-36,12l-0.9,0.6l-34.8,46.4L989.7,754.9z M821.7,754.9h31.7l1.3-0.5
		l58.5-58.5l34.8,46.4l0.9,0.6l25.5,8.5h-24.9l-0.6,0.1l-36,12l-0.9,0.6l-34.8,46.4L821.7,754.9z M653.7,754.9h31.7l1.3-0.5
		l58.5-58.5l34.8,46.4l0.9,0.6l25.5,8.5h-24.9l-0.6,0.1l-36,12l-0.9,0.6l-34.8,46.4L653.7,754.9z M485.7,754.9h31.7l1.3-0.5
		l58.5-58.5l34.8,46.4l0.9,0.6l25.5,8.5h-24.9l-0.6,0.1l-36,12l-0.9,0.6l-34.8,46.4L485.7,754.9z M317.7,754.9h31.7l1.3-0.5
		l58.5-58.5l34.8,46.4l0.9,0.6l25.5,8.5h-24.9l-0.6,0.1l-36,12l-0.9,0.6l-34.8,46.4L317.7,754.9z M149.7,754.9h31.7l1.3-0.5
		l58.5-58.5l34.8,46.4l0.9,0.6l25.5,8.5h-24.9l-0.6,0.1l-36,12l-0.9,0.6l-34.8,46.4L149.7,754.9z M-18.3,754.9h31.7l1.3-0.5
		l58.5-58.5l34.8,46.4l0.9,0.6l25.5,8.5h-24.9l-0.6,0.1l-36,12L72,764l-34.8,46.4L-18.3,754.9z M-186.2,754.9h31.7l1.3-0.5
		l58.5-58.5l34.8,46.4l0.9,0.6l25.5,8.5h-24.9l-0.6,0.1l-36,12l-1,0.5l-34.8,46.4L-186.2,754.9z M-354.2,754.9h31.7l1.3-0.5
		l58.5-58.5l34.8,46.4l0.9,0.6l25.5,8.5h-24.9l-0.6,0.1l-36,12l-0.9,0.6l-34.8,46.4L-354.2,754.9z M-522.2,754.9h31.7l1.3-0.5
		l58.5-58.5l34.8,46.4l0.9,0.6l25.5,8.5h-24.9l-0.6,0.1l-36,12l-0.9,0.6l-34.8,46.4L-522.2,754.9z M-690.2,754.9h31.7l1.3-0.5
		l58.5-58.5l34.8,46.4l0.9,0.6l25.5,8.5h-24.9l-0.6,0.1l-36,12l-0.9,0.6l-34.8,46.4L-690.2,754.9z M2129.7,740.6l72.3-41.3
		l-41.3,51.7L2129.7,740.6z M1961.7,740.6l72.3-41.3l-41.3,51.7L1961.7,740.6z M1793.7,740.6l72.3-41.3l-41.3,51.7L1793.7,740.6z
		 M1625.7,740.6l72.3-41.3l-41.3,51.7L1625.7,740.6z M1457.7,740.6l72.3-41.3l-41.3,51.7L1457.7,740.6z M1289.7,740.6l72.3-41.3
		l-41.3,51.7L1289.7,740.6z M1121.7,740.6l72.3-41.3l-41.3,51.7L1121.7,740.6z M953.7,740.6l72.3-41.3L984.7,751L953.7,740.6z
		 M785.8,740.6l72.3-41.3L816.8,751L785.8,740.6z M617.8,740.6l72.3-41.3L648.8,751L617.8,740.6z M449.8,740.6l72.3-41.3L480.8,751
		L449.8,740.6z M281.8,740.6l72.3-41.3L312.8,751L281.8,740.6z M113.8,740.6l72.3-41.3L144.8,751L113.8,740.6z M-54.2,740.6
		l72.3-41.3L-23.2,751L-54.2,740.6z M-222.2,740.6l72.3-41.3l-41.3,51.7L-222.2,740.6z M-390.2,740.6l72.3-41.3l-41.3,51.7
		L-390.2,740.6z M-558.2,740.6l72.3-41.3l-41.3,51.7L-558.2,740.6z M-726.2,740.6l72.3-41.3l-41.3,51.7L-726.2,740.6z M2206.1,699.9
		l-10.3,51.3H2165L2206.1,699.9z M2038.1,699.9l-10.3,51.3H1997L2038.1,699.9z M1870.1,699.9l-10.3,51.3H1829L1870.1,699.9z
		 M1702.1,699.9l-10.3,51.3H1661L1702.1,699.9z M1534.1,699.9l-10.3,51.3H1493L1534.1,699.9z M1366.1,699.9l-10.3,51.3H1325
		L1366.1,699.9z M1198.1,699.9l-10.3,51.3H1157L1198.1,699.9z M1030.1,699.9l-10.3,51.3H989L1030.1,699.9z M862.1,699.9l-10.3,51.3
		H821L862.1,699.9z M694.2,699.9l-10.3,51.3h-30.8L694.2,699.9z M526.2,699.9l-10.3,51.3h-30.8L526.2,699.9z M358.2,699.9
		l-10.3,51.3h-30.8L358.2,699.9z M190.2,699.9l-10.3,51.3h-30.8L190.2,699.9z M22.2,699.9l-10.3,51.3h-30.8L22.2,699.9z
		 M-145.8,699.9l-10.3,51.3h-30.8L-145.8,699.9z M-313.8,699.9l-10.3,51.3h-30.8L-313.8,699.9z M-481.8,699.9l-10.3,51.3h-30.8
		L-481.8,699.9z M-649.8,699.9l-10.3,51.3h-30.8L-649.8,699.9z M2094.4,765.3l31.2-10.4h34.3l10.8,43.1L2094.4,765.3z M1926.4,765.3
		l31.2-10.4h34.3l10.8,43.1L1926.4,765.3z M1758.4,765.3l31.2-10.4h34.3l10.8,43.1L1758.4,765.3z M1590.4,765.3l31.2-10.4h34.3
		l10.8,43.1L1590.4,765.3z M1422.4,765.3l31.2-10.4h34.3l10.8,43.1L1422.4,765.3z M1254.4,765.3l31.2-10.4h34.3l10.8,43.1
		L1254.4,765.3z M1086.4,765.3l31.2-10.4h34.3l10.8,43.1L1086.4,765.3z M918.4,765.3l31.2-10.4h34.3l10.8,43.1L918.4,765.3z
		 M750.4,765.3l31.2-10.4H816l10.8,43.1L750.4,765.3z M582.4,765.3l31.2-10.4H648l10.8,43.1L582.4,765.3z M414.4,765.3l31.2-10.4
		H480l10.8,43.1L414.4,765.3z M246.5,765.3l31.2-10.4H312l10.8,43.1L246.5,765.3z M78.5,765.3l31.2-10.4H144l10.8,43.1L78.5,765.3z
		 M-89.5,765.3l31.2-10.4H-24l10.8,43.1L-89.5,765.3z M-257.5,765.3l31.2-10.4h34.3l10.8,43.1L-257.5,765.3z M-425.5,765.3
		l31.2-10.4h34.3l10.8,43.1L-425.5,765.3z M-593.5,765.3l31.2-10.4h34.3l10.8,43.1L-593.5,765.3z M-761.5,765.3l31.2-10.4h34.3
		l10.8,43.1L-761.5,765.3z M2174.8,799.6l-10.2-40.7l50.8,50.8L2174.8,799.6z M2006.8,799.6l-10.2-40.7l50.8,50.8L2006.8,799.6z
		 M1838.8,799.6l-10.2-40.7l50.8,50.8L1838.8,799.6z M1670.8,799.6l-10.2-40.7l50.8,50.8L1670.8,799.6z M1502.8,799.6l-10.2-40.7
		l50.8,50.8L1502.8,799.6z M1334.8,799.6l-10.2-40.7l50.8,50.8L1334.8,799.6z M1166.8,799.6l-10.2-40.7l50.8,50.8L1166.8,799.6z
		 M998.8,799.6l-10.2-40.7l50.8,50.8L998.8,799.6z M830.8,799.6l-10.2-40.7l50.8,50.8L830.8,799.6z M662.9,799.6l-10.2-40.7
		l50.8,50.8L662.9,799.6z M494.9,799.6l-10.2-40.7l50.8,50.8L494.9,799.6z M326.9,799.6l-10.2-40.7l50.8,50.8L326.9,799.6z
		 M158.9,799.6l-10.2-40.7l50.8,50.8L158.9,799.6z M-9.1,799.6l-10.2-40.7l50.8,50.8L-9.1,799.6z M-177.1,799.6l-10.2-40.7
		l50.8,50.8L-177.1,799.6z M-345.1,799.6l-10.2-40.7l50.8,50.8L-345.1,799.6z M-513.1,799.6l-10.2-40.7l50.8,50.8L-513.1,799.6z
		 M-681.1,799.6l-10.2-40.7l50.8,50.8L-681.1,799.6z M2055.7,812.9l34.2-45.6l78.6,33.7l-90.7,34L2055.7,812.9z M1887.7,812.9
		l34.2-45.6l78.6,33.7l-90.7,34L1887.7,812.9z M1719.7,812.9l34.2-45.6l78.6,33.7l-90.7,34L1719.7,812.9z M1551.7,812.9l34.2-45.6
		l78.6,33.7l-90.7,34L1551.7,812.9z M1383.7,812.9l34.2-45.6l78.6,33.7l-90.7,34L1383.7,812.9z M1215.7,812.9l34.2-45.6l78.6,33.7
		l-90.7,34L1215.7,812.9z M1047.7,812.9l34.2-45.6l78.6,33.7l-90.7,34L1047.7,812.9z M879.7,812.9l34.2-45.6l78.6,33.7l-90.7,34
		L879.7,812.9z M711.7,812.9l34.2-45.6l78.6,33.7l-90.7,34L711.7,812.9z M543.8,812.9l34.2-45.6l78.6,33.7l-90.7,34L543.8,812.9z
		 M375.8,812.9l34.2-45.6l78.6,33.7l-90.7,34L375.8,812.9z M207.8,812.9l34.2-45.6l78.6,33.7l-90.7,34L207.8,812.9z M39.8,812.9
		L74,767.3l78.6,33.7l-90.7,34L39.8,812.9z M-128.2,812.9l34.2-45.6l78.6,33.7l-90.7,34L-128.2,812.9z M-296.2,812.9l34.2-45.6
		l78.6,33.7l-90.7,34L-296.2,812.9z M-464.2,812.9l34.2-45.6l78.6,33.7l-90.7,34L-464.2,812.9z M-632.2,812.9l34.2-45.6l78.6,33.7
		l-90.7,34L-632.2,812.9z M-800.2,812.9l34.2-45.6l78.6,33.7l-90.7,34L-800.2,812.9z M2082.4,837.1l90.4-33.9l34.9,34.9l11.1,33.2
		h-45.2L2082.4,837.1z M1914.4,837.1l90.4-33.9l34.9,34.9l11.1,33.2h-45.2L1914.4,837.1z M1746.4,837.1l90.4-33.9l34.9,34.9
		l11.1,33.2h-45.2L1746.4,837.1z M1578.5,837.1l90.4-33.9l34.9,34.9l11.1,33.2h-45.2L1578.5,837.1z M1410.5,837.1l90.4-33.9
		l34.9,34.9l11.1,33.2h-45.2L1410.5,837.1z M1242.5,837.1l90.4-33.9l34.9,34.9l11.1,33.2h-45.2L1242.5,837.1z M1074.5,837.1
		l90.4-33.9l34.9,34.9l11.1,33.2h-45.2L1074.5,837.1z M906.5,837.1l90.4-33.9l34.9,34.9l11.1,33.2h-45.2L906.5,837.1z M738.5,837.1
		l90.4-33.9l34.9,34.9l11.1,33.2h-45.2L738.5,837.1z M570.5,837.1l90.4-33.9l34.9,34.9l11.1,33.2h-45.2L570.5,837.1z M402.5,837.1
		l90.4-33.9l34.9,34.9l11.1,33.2h-45.2L402.5,837.1z M234.5,837.1l90.4-33.9l34.9,34.9l11.1,33.2h-45.2L234.5,837.1z M66.5,837.1
		l90.4-33.9l34.9,34.9l11.1,33.2h-45.2L66.5,837.1z M-101.5,837.1l90.4-33.9L23.8,838l11.1,33.2h-45.2L-101.5,837.1z M-269.5,837.1
		l90.4-33.9l34.9,34.9l11.1,33.2h-45.2L-269.5,837.1z M-437.4,837.1l90.4-33.9l34.9,34.9l11.1,33.2h-45.2L-437.4,837.1z
		 M-605.4,837.1l90.4-33.9l34.9,34.9l11.1,33.2h-45.2L-605.4,837.1z M-773.4,837.1l90.4-33.9l34.9,34.9l11.1,33.2h-45.2
		L-773.4,837.1z M2054.9,872.2l-11.9-35.7l-0.4-0.7l-31.4-31.4l41.2,10.3l23.6,23.7l0.6,0.4l92.4,34.7l-79.3,45.3L2054.9,872.2z
		 M1886.9,872.2l-11.9-35.7l-0.4-0.7l-31.4-31.4l41.2,10.3l23.6,23.7l0.6,0.4l92.4,34.7l-79.3,45.3L1886.9,872.2z M1718.9,872.2
		l-11.9-35.7l-0.4-0.7l-31.4-31.4l41.2,10.3l23.6,23.7l0.6,0.4l92.4,34.7l-79.3,45.3L1718.9,872.2z M1550.9,872.2l-11.9-35.7
		l-0.4-0.7l-31.4-31.4l41.2,10.3l23.6,23.7l0.6,0.4l92.4,34.7l-79.3,45.3L1550.9,872.2z M1382.9,872.2l-11.9-35.7l-0.4-0.7
		l-31.4-31.4l41.2,10.3l23.6,23.7l0.6,0.4l92.4,34.7l-79.3,45.3L1382.9,872.2z M1215,872.2l-11.9-35.7l-0.4-0.7l-31.4-31.4
		l41.2,10.3l23.6,23.7l0.6,0.4l92.4,34.7l-79.3,45.3L1215,872.2z M1047,872.2l-11.9-35.7l-0.4-0.7l-31.4-31.4l41.2,10.3l23.6,23.7
		l0.6,0.4l92.4,34.7l-79.3,45.3L1047,872.2z M879,872.2l-11.9-35.7l-0.4-0.7l-31.4-31.4l41.2,10.3l23.6,23.7l0.6,0.4l92.4,34.7
		l-79.3,45.3L879,872.2z M711,872.2l-11.9-35.7l-0.4-0.7l-31.4-31.4l41.2,10.3l23.6,23.7l0.6,0.4l92.4,34.7l-79.3,45.3L711,872.2z
		 M543,872.2l-11.9-35.7l-0.4-0.7l-31.4-31.4l41.2,10.3l23.6,23.7l0.6,0.4l92.4,34.7l-79.3,45.3L543,872.2z M375,872.2l-11.9-35.7
		l-0.4-0.7l-31.4-31.4l41.2,10.3l23.6,23.7l0.6,0.4l92.4,34.7l-79.3,45.3L375,872.2z M207,872.2l-11.9-35.7l-0.4-0.7l-31.4-31.4
		l41.2,10.3l23.6,23.7l0.6,0.4l92.4,34.7l-79.3,45.3L207,872.2z M39,872.2l-11.9-35.7l-0.4-0.7l-31.4-31.4l41.2,10.3l23.6,23.7
		l0.6,0.4l92.4,34.7l-79.3,45.3L39,872.2z M-129,872.2l-11.9-35.7l-0.4-0.7l-31.4-31.4l41.2,10.3l23.6,23.7l0.6,0.4l92.4,34.7
		l-79.3,45.3L-129,872.2z M-297,872.2l-11.9-35.7l-0.4-0.7l-31.4-31.4l41.2,10.3l23.6,23.7l0.6,0.4l92.4,34.7l-79.3,45.3L-297,872.2
		z M-465,872.2l-11.9-35.7l-0.4-0.7l-31.4-31.4l41.2,10.3l23.6,23.7l0.6,0.4l92.4,34.7l-79.3,45.3L-465,872.2z M-633,872.2
		l-11.9-35.7l-0.4-0.7l-31.4-31.4l41.2,10.3l23.6,23.7l0.6,0.4l92.4,34.7l-79.3,45.3L-633,872.2z M2174.8,874.9h42.2l-52.7,52.7
		L2174.8,874.9z M2006.8,874.9h42.2l-52.7,52.7L2006.8,874.9z M1838.8,874.9h42.2l-52.7,52.7L1838.8,874.9z M1670.8,874.9h42.2
		l-52.7,52.7L1670.8,874.9z M1502.8,874.9h42.2l-52.7,52.7L1502.8,874.9z M1334.8,874.9h42.2l-52.7,52.7L1334.8,874.9z
		 M1166.8,874.9h42.2l-52.7,52.7L1166.8,874.9z M998.8,874.9h42.2l-52.7,52.7L998.8,874.9z M830.8,874.9H873l-52.7,52.7L830.8,874.9
		z M662.8,874.9H705l-52.7,52.7L662.8,874.9z M494.9,874.9H537l-52.7,52.7L494.9,874.9z M326.9,874.9H369l-52.7,52.7L326.9,874.9z
		 M158.9,874.9H201l-52.7,52.7L158.9,874.9z M-9.1,874.9h42.2l-52.7,52.7L-9.1,874.9z M-177.1,874.9h42.2l-52.7,52.7L-177.1,874.9z
		 M-345.1,874.9h42.2l-52.7,52.7L-345.1,874.9z M-513.1,874.9h42.2l-52.7,52.7L-513.1,874.9z M-681.1,874.9h42.2l-52.7,52.7
		L-681.1,874.9z M2053.1,875.8l34.8,46.4l0.9,0.6l36,12l0.6,0.1h24.9l-25.5,8.5l-0.9,0.6l-34.8,46.4l-58.5-58.5l-1.3-0.5h-31.7
		L2053.1,875.8z M1885.1,875.8l34.8,46.4l0.9,0.6l36,12l0.6,0.1h24.9l-25.5,8.5l-0.9,0.6l-34.8,46.4l-58.5-58.5l-1.3-0.5h-31.7
		L1885.1,875.8z M1717.1,875.8l34.8,46.4l0.9,0.6l36,12l0.6,0.1h24.9l-25.5,8.5l-0.9,0.6l-34.8,46.4l-58.5-58.5l-1.3-0.5h-31.7
		L1717.1,875.8z M1549.1,875.8l34.8,46.4l0.9,0.6l36,12l0.6,0.1h24.9l-25.5,8.5l-0.9,0.6l-34.8,46.4l-58.5-58.5l-1.3-0.5h-31.7
		L1549.1,875.8z M1381.1,875.8l34.8,46.4l0.9,0.6l36,12l0.6,0.1h24.9l-25.5,8.5l-0.9,0.6l-34.8,46.4l-58.5-58.5l-1.3-0.5h-31.7
		L1381.1,875.8z M1213.1,875.8l34.8,46.4l0.9,0.6l36,12l0.6,0.1h24.9l-25.5,8.5l-0.9,0.6l-34.8,46.4l-58.5-58.5l-1.3-0.5h-31.7
		L1213.1,875.8z M1045.2,875.8l34.8,46.4l0.9,0.6l36,12l0.6,0.1h24.9l-25.5,8.5l-0.9,0.6l-34.8,46.4l-58.5-58.5l-1.3-0.5h-31.7
		L1045.2,875.8z M877.2,875.8l34.8,46.4l0.9,0.6l36,12l0.6,0.1h24.9l-25.5,8.5L948,944l-34.8,46.4l-58.5-58.5l-1.3-0.5h-31.7
		L877.2,875.8z M709.2,875.8l34.8,46.4l0.9,0.6l36,12l0.6,0.1h24.9l-25.5,8.5L780,944l-34.8,46.4l-58.5-58.5l-1.3-0.5h-31.7
		L709.2,875.8z M541.2,875.8l34.8,46.4l0.9,0.6l36,12l0.6,0.1h24.9l-25.5,8.5L612,944l-34.8,46.4l-58.5-58.5l-1.3-0.5h-31.7
		L541.2,875.8z M373.2,875.8l34.8,46.4l0.9,0.6l36,12l0.6,0.1h24.9l-25.5,8.5L444,944l-34.8,46.4l-58.5-58.5l-1.3-0.5h-31.7
		L373.2,875.8z M205.2,875.8l34.8,46.4l0.9,0.6l36,12l0.6,0.1h24.9l-25.5,8.5L276,944l-34.8,46.4l-58.5-58.5l-1.3-0.5h-31.7
		L205.2,875.8z M37.2,875.8L72,922.2l0.9,0.6l36,12l0.6,0.1h24.9l-25.5,8.5L108,944l-34.8,46.4l-58.5-58.5l-1.3-0.5h-31.7
		L37.2,875.8z M-130.8,875.8l34.8,46.4l0.9,0.6l36,12l0.6,0.1h24.9l-25.5,8.5L-60,944l-34.8,46.4l-58.5-58.5l-1.3-0.5h-31.7
		L-130.8,875.8z M-298.8,875.8l34.8,46.4l0.9,0.6l36,12l0.6,0.1h24.9l-25.5,8.5l-0.9,0.6l-34.8,46.4l-58.5-58.5l-1.3-0.5h-31.7
		L-298.8,875.8z M-466.8,875.8l34.8,46.4l0.9,0.6l36,12l0.6,0.1h24.9l-25.5,8.5l-0.9,0.6l-34.8,46.4l-58.5-58.5l-1.3-0.5h-31.7
		L-466.8,875.8z M-634.8,875.8l34.8,46.4l0.9,0.6l36,12l0.6,0.1h24.9l-25.5,8.5l-0.9,0.6l-34.8,46.4l-58.5-58.5l-1.3-0.5h-31.7
		L-634.8,875.8z M2093.7,920.7l72.3-41.3l-41.3,51.7L2093.7,920.7z M1925.7,920.7l72.3-41.3l-41.3,51.7L1925.7,920.7z M1757.7,920.7
		l72.3-41.3l-41.3,51.7L1757.7,920.7z M1589.7,920.7l72.3-41.3l-41.3,51.7L1589.7,920.7z M1421.7,920.7l72.3-41.3l-41.3,51.7
		L1421.7,920.7z M1253.7,920.7l72.3-41.3l-41.3,51.7L1253.7,920.7z M1085.7,920.7l72.3-41.3l-41.3,51.7L1085.7,920.7z M917.7,920.7
		l72.3-41.3L948.7,931L917.7,920.7z M749.8,920.7l72.3-41.3L780.7,931L749.8,920.7z M581.8,920.7l72.3-41.3L612.8,931L581.8,920.7z
		 M413.8,920.7l72.3-41.3L444.8,931L413.8,920.7z M245.8,920.7l72.3-41.3L276.8,931L245.8,920.7z M77.8,920.7l72.3-41.3L108.8,931
		L77.8,920.7z M-90.2,920.7l72.3-41.3L-59.2,931L-90.2,920.7z M-258.2,920.7l72.3-41.3l-41.3,51.7L-258.2,920.7z M-426.2,920.7
		l72.3-41.3l-41.3,51.7L-426.2,920.7z M-594.2,920.7l72.3-41.3l-41.3,51.7L-594.2,920.7z M-762.2,920.7l72.3-41.3l-41.3,51.7
		L-762.2,920.7z M2170.1,880l-10.3,51.3H2129L2170.1,880z M2002.1,880l-10.3,51.3H1961L2002.1,880z M1834.1,880l-10.3,51.3H1793
		L1834.1,880z M1666.1,880l-10.3,51.3H1625L1666.1,880z M1498.1,880l-10.3,51.3H1457L1498.1,880z M1330.1,880l-10.3,51.3H1289
		L1330.1,880z M1162.1,880l-10.3,51.3H1121L1162.1,880z M994.1,880l-10.3,51.3H953L994.1,880z M826.1,880l-10.3,51.3H785L826.1,880z
		 M658.2,880l-10.3,51.3h-30.8L658.2,880z M490.2,880l-10.3,51.3h-30.8L490.2,880z M322.2,880l-10.3,51.3h-30.8L322.2,880z
		 M154.2,880l-10.3,51.3h-30.8L154.2,880z M-13.8,880l-10.3,51.3h-30.8L-13.8,880z M-181.8,880l-10.3,51.3h-30.8L-181.8,880z
		 M-349.8,880l-10.3,51.3h-30.8L-349.8,880z M-517.8,880l-10.3,51.3h-30.8L-517.8,880z M-685.8,880l-10.3,51.3h-30.8L-685.8,880z
		 M2130.4,945.3l31.2-10.4h34.3l10.8,43.1L2130.4,945.3z M1962.4,945.3l31.2-10.4h34.3l10.8,43.1L1962.4,945.3z M1794.4,945.3
		l31.2-10.4h34.3l10.8,43.1L1794.4,945.3z M1626.4,945.3l31.2-10.4h34.3l10.8,43.1L1626.4,945.3z M1458.4,945.3l31.2-10.4h34.3
		l10.8,43.1L1458.4,945.3z M1290.4,945.3l31.2-10.4h34.3l10.8,43.1L1290.4,945.3z M1122.4,945.3l31.2-10.4h34.3l10.8,43.1
		L1122.4,945.3z M954.4,945.3l31.2-10.4h34.3l10.8,43.1L954.4,945.3z M786.4,945.3l31.2-10.4H852l10.8,43.1L786.4,945.3z
		 M618.4,945.3l31.2-10.4H684l10.8,43.1L618.4,945.3z M450.4,945.3l31.2-10.4H516l10.8,43.1L450.4,945.3z M282.4,945.3l31.2-10.4
		H348l10.8,43.1L282.4,945.3z M114.5,945.3l31.2-10.4H180l10.8,43.1L114.5,945.3z M-53.5,945.3l31.2-10.4H12L22.8,978L-53.5,945.3z
		 M-221.5,945.3l31.2-10.4h34.3l10.8,43.1L-221.5,945.3z M-389.5,945.3l31.2-10.4h34.3l10.8,43.1L-389.5,945.3z M-557.5,945.3
		l31.2-10.4h34.3l10.8,43.1L-557.5,945.3z M-725.5,945.3l31.2-10.4h34.3l10.8,43.1L-725.5,945.3z M2210.8,979.6l-10.2-40.7
		l50.8,50.8L2210.8,979.6z M2042.8,979.6l-10.2-40.7l50.8,50.8L2042.8,979.6z M1874.8,979.6l-10.2-40.7l50.8,50.8L1874.8,979.6z
		 M1706.8,979.6l-10.2-40.7l50.8,50.8L1706.8,979.6z M1538.8,979.6l-10.2-40.7l50.8,50.8L1538.8,979.6z M1370.8,979.6l-10.2-40.7
		l50.8,50.8L1370.8,979.6z M1202.8,979.6l-10.2-40.7l50.8,50.8L1202.8,979.6z M1034.8,979.6l-10.2-40.7l50.8,50.8L1034.8,979.6z
		 M866.8,979.6L856.7,939l50.8,50.8L866.8,979.6z M698.9,979.6L688.7,939l50.8,50.8L698.9,979.6z M530.9,979.6L520.7,939l50.8,50.8
		L530.9,979.6z M362.9,979.6L352.7,939l50.8,50.8L362.9,979.6z M194.9,979.6L184.7,939l50.8,50.8L194.9,979.6z M26.9,979.6L16.7,939
		l50.8,50.8L26.9,979.6z M-141.1,979.6l-10.2-40.7l50.8,50.8L-141.1,979.6z M-309.1,979.6l-10.2-40.7l50.8,50.8L-309.1,979.6z
		 M-477.1,979.6l-10.2-40.7l50.8,50.8L-477.1,979.6z M-645.1,979.6l-10.2-40.7l50.8,50.8L-645.1,979.6z M2091.7,992.9l34.2-45.6
		l78.6,33.7l-90.7,34L2091.7,992.9z M1923.7,992.9l34.2-45.6l78.6,33.7l-90.7,34L1923.7,992.9z M1755.7,992.9l34.2-45.6l78.6,33.7
		l-90.7,34L1755.7,992.9z M1587.7,992.9l34.2-45.6l78.6,33.7l-90.7,34L1587.7,992.9z M1419.7,992.9l34.2-45.6l78.6,33.7l-90.7,34
		L1419.7,992.9z M1251.7,992.9l34.2-45.6l78.6,33.7l-90.7,34L1251.7,992.9z M1083.7,992.9l34.2-45.6l78.6,33.7l-90.7,34
		L1083.7,992.9z M915.7,992.9l34.2-45.6l78.6,33.7l-90.7,34L915.7,992.9z M747.7,992.9l34.2-45.6l78.6,33.7l-90.7,34L747.7,992.9z
		 M579.8,992.9l34.2-45.6l78.6,33.7l-90.7,34L579.8,992.9z M411.8,992.9l34.2-45.6l78.6,33.7l-90.7,34L411.8,992.9z M243.8,992.9
		l34.2-45.6l78.6,33.7l-90.7,34L243.8,992.9z M75.8,992.9l34.2-45.6l78.6,33.7l-90.7,34L75.8,992.9z M-92.2,992.9l34.2-45.6
		L20.6,981l-90.7,34L-92.2,992.9z M-260.2,992.9l34.2-45.6l78.6,33.7l-90.7,34L-260.2,992.9z M-428.2,992.9l34.2-45.6l78.6,33.7
		l-90.7,34L-428.2,992.9z M-596.2,992.9l34.2-45.6l78.6,33.7l-90.7,34L-596.2,992.9z M-764.2,992.9l34.2-45.6l78.6,33.7l-90.7,34
		L-764.2,992.9z M2118.4,1017.1l90.4-33.9l34.9,34.9l11.1,33.2h-45.2L2118.4,1017.1z M1950.4,1017.1l90.4-33.9l34.9,34.9l11.1,33.2
		h-45.2L1950.4,1017.1z M1782.4,1017.1l90.4-33.9l34.9,34.9l11.1,33.2h-45.2L1782.4,1017.1z M1614.5,1017.1l90.4-33.9l34.9,34.9
		l11.1,33.2h-45.2L1614.5,1017.1z M1446.5,1017.1l90.4-33.9l34.9,34.9l11.1,33.2h-45.2L1446.5,1017.1z M1278.5,1017.1l90.4-33.9
		l34.9,34.9l11.1,33.2h-45.2L1278.5,1017.1z M1110.5,1017.1l90.4-33.9l34.9,34.9l11.1,33.2h-45.2L1110.5,1017.1z M942.5,1017.1
		l90.4-33.9l34.9,34.9l11.1,33.2h-45.2L942.5,1017.1z M774.5,1017.1l90.4-33.9l34.9,34.9l11.1,33.2h-45.2L774.5,1017.1z
		 M606.5,1017.1l90.4-33.9l34.9,34.9l11.1,33.2h-45.2L606.5,1017.1z M438.5,1017.1l90.4-33.9l34.9,34.9l11.1,33.2h-45.2
		L438.5,1017.1z M270.5,1017.1l90.4-33.9l34.9,34.9l11.1,33.2h-45.2L270.5,1017.1z M102.5,1017.1l90.4-33.9l34.9,34.9l11.1,33.2
		h-45.2L102.5,1017.1z M-65.5,1017.1l90.4-33.9l34.9,34.9l11.1,33.2H25.7L-65.5,1017.1z M-233.5,1017.1l90.4-33.9l34.9,34.9
		l11.1,33.2h-45.2L-233.5,1017.1z M-401.5,1017.1l90.4-33.9l34.9,34.9l11.1,33.2h-45.2L-401.5,1017.1z M-569.4,1017.1l90.4-33.9
		l34.9,34.9l11.1,33.2h-45.2L-569.4,1017.1z M-737.4,1017.1l90.4-33.9l34.9,34.9l11.1,33.2h-45.2L-737.4,1017.1z M2090.9,1052.3
		l-11.9-35.7l-0.4-0.7l-31.4-31.4l41.2,10.3l23.6,23.7l0.6,0.4l92.4,34.7l-79.3,45.3L2090.9,1052.3z M1922.9,1052.3l-11.9-35.7
		l-0.4-0.7l-31.4-31.4l41.2,10.3l23.6,23.7l0.6,0.4l92.4,34.7l-79.3,45.3L1922.9,1052.3z M1754.9,1052.3l-11.9-35.7l-0.4-0.7
		l-31.4-31.4l41.2,10.3l23.6,23.7l0.6,0.4l92.4,34.7l-79.3,45.3L1754.9,1052.3z M1586.9,1052.3l-11.9-35.7l-0.4-0.7l-31.4-31.4
		l41.2,10.3l23.6,23.7l0.6,0.4l92.4,34.7l-79.3,45.3L1586.9,1052.3z M1418.9,1052.3l-11.9-35.7l-0.4-0.7l-31.4-31.4l41.2,10.3
		l23.6,23.7l0.6,0.4l92.4,34.7l-79.3,45.3L1418.9,1052.3z M1251,1052.3l-11.9-35.7l-0.4-0.7l-31.4-31.4l41.2,10.3l23.6,23.7l0.6,0.4
		l92.4,34.7l-79.3,45.3L1251,1052.3z M1083,1052.3l-11.9-35.7l-0.4-0.7l-31.4-31.4l41.2,10.3l23.6,23.7l0.6,0.4l92.4,34.7
		l-79.3,45.3L1083,1052.3z M915,1052.3l-11.9-35.7l-0.4-0.7l-31.4-31.4l41.2,10.3l23.6,23.7l0.6,0.4l92.4,34.7l-79.3,45.3
		L915,1052.3z M747,1052.3l-11.9-35.7l-0.4-0.7l-31.4-31.4l41.2,10.3l23.6,23.7l0.6,0.4l92.4,34.7l-79.3,45.3L747,1052.3z
		 M579,1052.3l-11.9-35.7l-0.4-0.7l-31.4-31.4l41.2,10.3l23.6,23.7l0.6,0.4l92.4,34.7l-79.3,45.3L579,1052.3z M411,1052.3
		l-11.9-35.7l-0.4-0.7l-31.4-31.4l41.2,10.3l23.6,23.7l0.6,0.4l92.4,34.7l-79.3,45.3L411,1052.3z M243,1052.3l-11.9-35.7l-0.4-0.7
		l-31.4-31.4l41.2,10.3l23.6,23.7l0.6,0.4l92.4,34.7l-79.3,45.3L243,1052.3z M75,1052.3l-11.9-35.7l-0.4-0.7l-31.4-31.4l41.2,10.3
		l23.6,23.7l0.6,0.4l92.4,34.7l-79.3,45.3L75,1052.3z M-93,1052.3l-11.9-35.7l-0.4-0.7l-31.4-31.4l41.2,10.3l23.6,23.7l0.6,0.4
		l92.4,34.7l-79.3,45.3L-93,1052.3z M-261,1052.3l-11.9-35.7l-0.4-0.7l-31.4-31.4l41.2,10.3l23.6,23.7l0.6,0.4l92.4,34.7l-79.3,45.3
		L-261,1052.3z M-429,1052.3l-11.9-35.7l-0.4-0.7l-31.4-31.4l41.2,10.3l23.6,23.7l0.6,0.4l92.4,34.7l-79.3,45.3L-429,1052.3z
		 M-597,1052.3l-11.9-35.7l-0.4-0.7l-31.4-31.4l41.2,10.3l23.6,23.7l0.6,0.4l92.4,34.7l-79.3,45.3L-597,1052.3z M2210.8,1054.9h42.2
		l-52.7,52.7L2210.8,1054.9z M2042.8,1054.9h42.2l-52.7,52.7L2042.8,1054.9z M1874.8,1054.9h42.2l-52.7,52.7L1874.8,1054.9z
		 M1706.8,1054.9h42.2l-52.7,52.7L1706.8,1054.9z M1538.8,1054.9h42.2l-52.7,52.7L1538.8,1054.9z M1370.8,1054.9h42.2l-52.7,52.7
		L1370.8,1054.9z M1202.8,1054.9h42.2l-52.7,52.7L1202.8,1054.9z M1034.8,1054.9h42.2l-52.7,52.7L1034.8,1054.9z M866.8,1054.9H909
		l-52.7,52.7L866.8,1054.9z M698.8,1054.9H741l-52.7,52.7L698.8,1054.9z M530.9,1054.9H573l-52.7,52.7L530.9,1054.9z M362.9,1054.9
		H405l-52.7,52.7L362.9,1054.9z M194.9,1054.9H237l-52.7,52.7L194.9,1054.9z M26.9,1054.9h42.2l-52.7,52.7L26.9,1054.9z
		 M-141.1,1054.9h42.2l-52.7,52.7L-141.1,1054.9z M-309.1,1054.9h42.2l-52.7,52.7L-309.1,1054.9z M-477.1,1054.9h42.2l-52.7,52.7
		L-477.1,1054.9z M-645.1,1054.9h42.2l-52.7,52.7L-645.1,1054.9z M1997.7,1115h31.7l1.3-0.5l58.5-58.5l34.8,46.4l0.9,0.6l25.5,8.5
		h-24.9l-0.6,0.1l-36,12l-0.9,0.6l-34.8,46.4L1997.7,1115z M1829.7,1115h31.7l1.3-0.5l58.5-58.5l34.8,46.4l0.9,0.6l25.5,8.5h-24.9
		l-0.6,0.1l-36,12l-0.9,0.6l-34.8,46.4L1829.7,1115z M1661.7,1115h31.7l1.3-0.5l58.5-58.5l34.8,46.4l0.9,0.6l25.5,8.5h-24.9
		l-0.6,0.1l-36,12l-0.9,0.6l-34.8,46.4L1661.7,1115z M1493.7,1115h31.7l1.3-0.5l58.5-58.5l34.8,46.4l0.9,0.6l25.5,8.5h-24.9
		l-0.6,0.1l-36,12l-0.9,0.6l-34.8,46.4L1493.7,1115z M1325.7,1115h31.7l1.3-0.5l58.5-58.5l34.8,46.4l0.9,0.6l25.5,8.5h-24.9
		l-0.6,0.1l-36,12l-0.9,0.6l-34.8,46.4L1325.7,1115z M1157.7,1115h31.7l1.3-0.5l58.5-58.5l34.8,46.4l0.9,0.6l25.5,8.5h-24.9
		l-0.6,0.1l-36,12l-0.9,0.6l-34.8,46.4L1157.7,1115z M989.7,1115h31.7l1.3-0.5l58.5-58.5l34.8,46.4l0.9,0.6l25.5,8.5h-24.9l-0.6,0.1
		l-36,12l-0.9,0.6l-34.8,46.4L989.7,1115z M821.7,1115h31.7l1.3-0.5l58.5-58.5l34.8,46.4l0.9,0.6l25.5,8.5h-24.9l-0.6,0.1l-36,12
		l-0.9,0.6l-34.8,46.4L821.7,1115z M653.7,1115h31.7l1.3-0.5l58.5-58.5l34.8,46.4l0.9,0.6l25.5,8.5h-24.9l-0.6,0.1l-36,12l-0.9,0.6
		l-34.8,46.4L653.7,1115z M485.7,1115h31.7l1.3-0.5l58.5-58.5l34.8,46.4l0.9,0.6l25.5,8.5h-24.9l-0.6,0.1l-36,12l-0.9,0.6
		l-34.8,46.4L485.7,1115z M317.7,1115h31.7l1.3-0.5l58.5-58.5l34.8,46.4l0.9,0.6l25.5,8.5h-24.9l-0.6,0.1l-36,12l-0.9,0.6
		l-34.8,46.4L317.7,1115z M149.7,1115h31.7l1.3-0.5l58.5-58.5l34.8,46.4l0.9,0.6l25.5,8.5h-24.9l-0.6,0.1l-36,12l-0.9,0.6
		l-34.8,46.4L149.7,1115z M-18.3,1115h31.7l1.3-0.5l58.5-58.5l34.8,46.4l0.9,0.6l25.5,8.5h-24.9l-0.6,0.1l-36,12l-0.9,0.6
		l-34.8,46.4L-18.3,1115z M-186.2,1115h31.7l1.3-0.5l58.5-58.5l34.8,46.4l0.9,0.6l25.5,8.5h-24.9l-0.6,0.1l-36,12l-0.9,0.6
		l-34.8,46.4L-186.2,1115z M-354.2,1115h31.7l1.3-0.5l58.5-58.5l34.8,46.4l0.9,0.6l25.5,8.5h-24.9l-0.6,0.1l-36,12l-0.9,0.6
		l-34.8,46.4L-354.2,1115z M-522.2,1115h31.7l1.3-0.5l58.5-58.5l34.8,46.4l0.9,0.6l25.5,8.5h-24.9l-0.6,0.1l-36,12l-0.9,0.6
		l-34.8,46.4L-522.2,1115z M-690.2,1115h31.7l1.3-0.5l58.5-58.5l34.8,46.4l0.9,0.6l25.5,8.5h-24.9l-0.6,0.1l-36,12l-0.9,0.6
		l-34.8,46.4L-690.2,1115z M2129.7,1100.7l72.3-41.3l-41.3,51.7L2129.7,1100.7z M1961.7,1100.7l72.3-41.3l-41.3,51.7L1961.7,1100.7z
		 M1793.7,1100.7l72.3-41.3l-41.3,51.7L1793.7,1100.7z M1625.7,1100.7l72.3-41.3l-41.3,51.7L1625.7,1100.7z M1457.7,1100.7
		l72.3-41.3l-41.3,51.7L1457.7,1100.7z M1289.7,1100.7l72.3-41.3l-41.3,51.7L1289.7,1100.7z M1121.7,1100.7l72.3-41.3l-41.3,51.7
		L1121.7,1100.7z M953.7,1100.7l72.3-41.3l-41.3,51.7L953.7,1100.7z M785.8,1100.7l72.3-41.3l-41.3,51.7L785.8,1100.7z
		 M617.8,1100.7l72.3-41.3l-41.3,51.7L617.8,1100.7z M449.8,1100.7l72.3-41.3l-41.3,51.7L449.8,1100.7z M281.8,1100.7l72.3-41.3
		l-41.3,51.7L281.8,1100.7z M113.8,1100.7l72.3-41.3l-41.3,51.7L113.8,1100.7z M-54.2,1100.7l72.3-41.3l-41.3,51.7L-54.2,1100.7z
		 M-222.2,1100.7l72.3-41.3l-41.3,51.7L-222.2,1100.7z M-390.2,1100.7l72.3-41.3l-41.3,51.7L-390.2,1100.7z M-558.2,1100.7
		l72.3-41.3l-41.3,51.7L-558.2,1100.7z M-726.2,1100.7l72.3-41.3l-41.3,51.7L-726.2,1100.7z M2206.1,1060l-10.3,51.3H2165
		L2206.1,1060z M2038.1,1060l-10.3,51.3H1997L2038.1,1060z M1870.1,1060l-10.3,51.3H1829L1870.1,1060z M1702.1,1060l-10.3,51.3H1661
		L1702.1,1060z M1534.1,1060l-10.3,51.3H1493L1534.1,1060z M1366.1,1060l-10.3,51.3H1325L1366.1,1060z M1198.1,1060l-10.3,51.3H1157
		L1198.1,1060z M1030.1,1060l-10.3,51.3H989L1030.1,1060z M862.1,1060l-10.3,51.3H821L862.1,1060z M694.2,1060l-10.3,51.3h-30.8
		L694.2,1060z M526.2,1060l-10.3,51.3h-30.8L526.2,1060z M358.2,1060l-10.3,51.3h-30.8L358.2,1060z M190.2,1060l-10.3,51.3h-30.8
		L190.2,1060z M22.2,1060l-10.3,51.3h-30.8L22.2,1060z M-145.8,1060l-10.3,51.3h-30.8L-145.8,1060z M-313.8,1060l-10.3,51.3h-30.8
		L-313.8,1060z M-481.8,1060l-10.3,51.3h-30.8L-481.8,1060z M-649.8,1060l-10.3,51.3h-30.8L-649.8,1060z M2094.4,1125.4l31.2-10.4
		h34.3l10.8,43.1L2094.4,1125.4z M1926.4,1125.4l31.2-10.4h34.3l10.8,43.1L1926.4,1125.4z M1758.4,1125.4l31.2-10.4h34.3l10.8,43.1
		L1758.4,1125.4z M1590.4,1125.4l31.2-10.4h34.3l10.8,43.1L1590.4,1125.4z M1422.4,1125.4l31.2-10.4h34.3l10.8,43.1L1422.4,1125.4z
		 M1254.4,1125.4l31.2-10.4h34.3l10.8,43.1L1254.4,1125.4z M1086.4,1125.4l31.2-10.4h34.3l10.8,43.1L1086.4,1125.4z M918.4,1125.4
		l31.2-10.4h34.3l10.8,43.1L918.4,1125.4z M750.4,1125.4l31.2-10.4H816l10.8,43.1L750.4,1125.4z M582.4,1125.4l31.2-10.4H648
		l10.8,43.1L582.4,1125.4z M414.4,1125.4l31.2-10.4H480l10.8,43.1L414.4,1125.4z M246.5,1125.4l31.2-10.4H312l10.8,43.1
		L246.5,1125.4z M78.5,1125.4l31.2-10.4H144l10.8,43.1L78.5,1125.4z M-89.5,1125.4l31.2-10.4H-24l10.8,43.1L-89.5,1125.4z
		 M-257.5,1125.4l31.2-10.4h34.3l10.8,43.1L-257.5,1125.4z M-425.5,1125.4l31.2-10.4h34.3l10.8,43.1L-425.5,1125.4z M-593.5,1125.4
		l31.2-10.4h34.3l10.8,43.1L-593.5,1125.4z M-761.5,1125.4l31.2-10.4h34.3l10.8,43.1L-761.5,1125.4z M2174.8,1159.7l-10.2-40.7
		l50.8,50.8L2174.8,1159.7z M2006.8,1159.7l-10.2-40.7l50.8,50.8L2006.8,1159.7z M1838.8,1159.7l-10.2-40.7l50.8,50.8L1838.8,1159.7
		z M1670.8,1159.7l-10.2-40.7l50.8,50.8L1670.8,1159.7z M1502.8,1159.7l-10.2-40.7l50.8,50.8L1502.8,1159.7z M1334.8,1159.7
		l-10.2-40.7l50.8,50.8L1334.8,1159.7z M1166.8,1159.7l-10.2-40.7l50.8,50.8L1166.8,1159.7z M998.8,1159.7l-10.2-40.7l50.8,50.8
		L998.8,1159.7z M830.8,1159.7l-10.2-40.7l50.8,50.8L830.8,1159.7z M662.9,1159.7l-10.2-40.7l50.8,50.8L662.9,1159.7z M494.9,1159.7
		l-10.2-40.7l50.8,50.8L494.9,1159.7z M326.9,1159.7l-10.2-40.7l50.8,50.8L326.9,1159.7z M158.9,1159.7l-10.2-40.7l50.8,50.8
		L158.9,1159.7z M-9.1,1159.7l-10.2-40.7l50.8,50.8L-9.1,1159.7z M-177.1,1159.7l-10.2-40.7l50.8,50.8L-177.1,1159.7z
		 M-345.1,1159.7l-10.2-40.7l50.8,50.8L-345.1,1159.7z M-513.1,1159.7l-10.2-40.7l50.8,50.8L-513.1,1159.7z M-681.1,1159.7
		l-10.2-40.7l50.8,50.8L-681.1,1159.7z M2055.7,1173l34.2-45.6l78.6,33.7l-90.7,34L2055.7,1173z M1887.7,1173l34.2-45.6l78.6,33.7
		l-90.7,34L1887.7,1173z M1719.7,1173l34.2-45.6l78.6,33.7l-90.7,34L1719.7,1173z M1551.7,1173l34.2-45.6l78.6,33.7l-90.7,34
		L1551.7,1173z M1383.7,1173l34.2-45.6l78.6,33.7l-90.7,34L1383.7,1173z M1215.7,1173l34.2-45.6l78.6,33.7l-90.7,34L1215.7,1173z
		 M1047.7,1173l34.2-45.6l78.6,33.7l-90.7,34L1047.7,1173z M879.7,1173l34.2-45.6l78.6,33.7l-90.7,34L879.7,1173z M711.7,1173
		l34.2-45.6l78.6,33.7l-90.7,34L711.7,1173z M543.8,1173l34.2-45.6l78.6,33.7l-90.7,34L543.8,1173z M375.8,1173l34.2-45.6l78.6,33.7
		l-90.7,34L375.8,1173z M207.8,1173l34.2-45.6l78.6,33.7l-90.7,34L207.8,1173z M39.8,1173l34.2-45.6l78.6,33.7l-90.7,34L39.8,1173z
		 M-128.2,1173l34.2-45.6l78.6,33.7l-90.7,34L-128.2,1173z M-296.2,1173l34.2-45.6l78.6,33.7l-90.7,34L-296.2,1173z M-464.2,1173
		l34.2-45.6l78.6,33.7l-90.7,34L-464.2,1173z M-632.2,1173l34.2-45.6l78.6,33.7l-90.7,34L-632.2,1173z M-800.2,1173l34.2-45.6
		l78.6,33.7l-90.7,34L-800.2,1173z M2082.4,1197.2l90.4-33.9l34.9,34.9l11.1,33.2h-45.2L2082.4,1197.2z M1914.4,1197.2l90.4-33.9
		l34.9,34.9l11.1,33.2h-45.2L1914.4,1197.2z M1746.4,1197.2l90.4-33.9l34.9,34.9l11.1,33.2h-45.2L1746.4,1197.2z M1578.5,1197.2
		l90.4-33.9l34.9,34.9l11.1,33.2h-45.2L1578.5,1197.2z M1410.5,1197.2l90.4-33.9l34.9,34.9l11.1,33.2h-45.2L1410.5,1197.2z
		 M1242.5,1197.2l90.4-33.9l34.9,34.9l11.1,33.2h-45.2L1242.5,1197.2z M1074.5,1197.2l90.4-33.9l34.9,34.9l11.1,33.2h-45.2
		L1074.5,1197.2z M906.5,1197.2l90.4-33.9l34.9,34.9l11.1,33.2h-45.2L906.5,1197.2z M738.5,1197.2l90.4-33.9l34.9,34.9l11.1,33.2
		h-45.2L738.5,1197.2z M570.5,1197.2l90.4-33.9l34.9,34.9l11.1,33.2h-45.2L570.5,1197.2z M402.5,1197.2l90.4-33.9l34.9,34.9
		l11.1,33.2h-45.2L402.5,1197.2z M234.5,1197.2l90.4-33.9l34.9,34.9l11.1,33.2h-45.2L234.5,1197.2z M66.5,1197.2l90.4-33.9
		l34.9,34.9l11.1,33.2h-45.2L66.5,1197.2z M-101.5,1197.2l90.4-33.9l34.9,34.9l11.1,33.2h-45.2L-101.5,1197.2z M-269.5,1197.2
		l90.4-33.9l34.9,34.9l11.1,33.2h-45.2L-269.5,1197.2z M-437.4,1197.2l90.4-33.9l34.9,34.9l11.1,33.2h-45.2L-437.4,1197.2z
		 M-605.4,1197.2l90.4-33.9l34.9,34.9l11.1,33.2h-45.2L-605.4,1197.2z M-773.4,1197.2l90.4-33.9l34.9,34.9l11.1,33.2h-45.2
		L-773.4,1197.2z M2054.9,1232.3l-11.9-35.7l-0.4-0.7l-31.4-31.4l41.2,10.3l23.6,23.7l0.6,0.4l92.4,34.7l-79.3,45.3L2054.9,1232.3z
		 M1886.9,1232.3l-11.9-35.7l-0.4-0.7l-31.4-31.4l41.2,10.3l23.6,23.7l0.6,0.4l92.4,34.7l-79.3,45.3L1886.9,1232.3z M1718.9,1232.3
		l-11.9-35.7l-0.4-0.7l-31.4-31.4l41.2,10.3l23.6,23.7l0.6,0.4l92.4,34.7l-79.3,45.3L1718.9,1232.3z M1550.9,1232.3l-11.9-35.7
		l-0.4-0.7l-31.4-31.4l41.2,10.3l23.6,23.7l0.6,0.4l92.4,34.7l-79.3,45.3L1550.9,1232.3z M1382.9,1232.3l-11.9-35.7l-0.4-0.7
		l-31.4-31.4l41.2,10.3l23.6,23.7l0.6,0.4l92.4,34.7l-79.3,45.3L1382.9,1232.3z M1215,1232.3l-11.9-35.7l-0.4-0.7l-31.4-31.4
		l41.2,10.3l23.6,23.7l0.6,0.4l92.4,34.7l-79.3,45.3L1215,1232.3z M1047,1232.3l-11.9-35.7l-0.4-0.7l-31.4-31.4l41.2,10.3l23.6,23.7
		l0.6,0.4l92.4,34.7l-79.3,45.3L1047,1232.3z M879,1232.3l-11.9-35.7l-0.4-0.7l-31.4-31.4l41.2,10.3l23.6,23.7l0.6,0.4l92.4,34.7
		l-79.3,45.3L879,1232.3z M711,1232.3l-11.9-35.7l-0.4-0.7l-31.4-31.4l41.2,10.3l23.6,23.7l0.6,0.4l92.4,34.7l-79.3,45.3L711,1232.3
		z M543,1232.3l-11.9-35.7l-0.4-0.7l-31.4-31.4l41.2,10.3l23.6,23.7l0.6,0.4l92.4,34.7l-79.3,45.3L543,1232.3z M375,1232.3
		l-11.9-35.7l-0.4-0.7l-31.4-31.4l41.2,10.3l23.6,23.7l0.6,0.4l92.4,34.7l-79.3,45.3L375,1232.3z M207,1232.3l-11.9-35.7l-0.4-0.7
		l-31.4-31.4l41.2,10.3l23.6,23.7l0.6,0.4l92.4,34.7l-79.3,45.3L207,1232.3z M39,1232.3l-11.9-35.7l-0.4-0.7l-31.4-31.4l41.2,10.3
		l23.6,23.7l0.6,0.4l92.4,34.7l-79.3,45.3L39,1232.3z M-129,1232.3l-11.9-35.7l-0.4-0.7l-31.4-31.4l41.2,10.3l23.6,23.7l0.6,0.4
		l92.4,34.7l-79.3,45.3L-129,1232.3z M-297,1232.3l-11.9-35.7l-0.4-0.7l-31.4-31.4l41.2,10.3l23.6,23.7l0.6,0.4l92.4,34.7
		l-79.3,45.3L-297,1232.3z M-465,1232.3l-11.9-35.7l-0.4-0.7l-31.4-31.4l41.2,10.3l23.6,23.7l0.6,0.4l92.4,34.7l-79.3,45.3
		L-465,1232.3z M-633,1232.3l-11.9-35.7l-0.4-0.7l-31.4-31.4l41.2,10.3l23.6,23.7l0.6,0.4l92.4,34.7l-79.3,45.3L-633,1232.3z
		 M2174.8,1235h42.2l-52.7,52.7L2174.8,1235z M2006.8,1235h42.2l-52.7,52.7L2006.8,1235z M1838.8,1235h42.2l-52.7,52.7L1838.8,1235z
		 M1670.8,1235h42.2l-52.7,52.7L1670.8,1235z M1502.8,1235h42.2l-52.7,52.7L1502.8,1235z M1334.8,1235h42.2l-52.7,52.7L1334.8,1235z
		 M1166.8,1235h42.2l-52.7,52.7L1166.8,1235z M998.8,1235h42.2l-52.7,52.7L998.8,1235z M830.8,1235H873l-52.7,52.7L830.8,1235z
		 M662.8,1235H705l-52.7,52.7L662.8,1235z M494.9,1235H537l-52.7,52.7L494.9,1235z M326.9,1235H369l-52.7,52.7L326.9,1235z
		 M158.9,1235H201l-52.7,52.7L158.9,1235z M-9.1,1235h42.2l-52.7,52.7L-9.1,1235z M-177.1,1235h42.2l-52.7,52.7L-177.1,1235z
		 M-345.1,1235h42.2l-52.7,52.7L-345.1,1235z M-513.1,1235h42.2l-52.7,52.7L-513.1,1235z M-681.1,1235h42.2l-52.7,52.7L-681.1,1235z
		 M2093.7,1280.8l72.3-41.3l-41.3,51.7L2093.7,1280.8z M1925.7,1280.8l72.3-41.3l-41.3,51.7L1925.7,1280.8z M1757.7,1280.8
		l72.3-41.3l-41.3,51.7L1757.7,1280.8z M1589.7,1280.8l72.3-41.3l-41.3,51.7L1589.7,1280.8z M1421.7,1280.8l72.3-41.3l-41.3,51.7
		L1421.7,1280.8z M1253.7,1280.8l72.3-41.3l-41.3,51.7L1253.7,1280.8z M1085.7,1280.8l72.3-41.3l-41.3,51.7L1085.7,1280.8z
		 M917.7,1280.8l72.3-41.3l-41.3,51.7L917.7,1280.8z M749.8,1280.8l72.3-41.3l-41.3,51.7L749.8,1280.8z M581.8,1280.8l72.3-41.3
		l-41.3,51.7L581.8,1280.8z M413.8,1280.8l72.3-41.3l-41.3,51.7L413.8,1280.8z M245.8,1280.8l72.3-41.3l-41.3,51.7L245.8,1280.8z
		 M77.8,1280.8l72.3-41.3l-41.3,51.7L77.8,1280.8z M-90.2,1280.8l72.3-41.3l-41.3,51.7L-90.2,1280.8z M-258.2,1280.8l72.3-41.3
		l-41.3,51.7L-258.2,1280.8z M-426.2,1280.8l72.3-41.3l-41.3,51.7L-426.2,1280.8z M-594.2,1280.8l72.3-41.3l-41.3,51.7
		L-594.2,1280.8z M-762.2,1280.8l72.3-41.3l-41.3,51.7L-762.2,1280.8z M2170.1,1240.1l-10.3,51.3H2129L2170.1,1240.1z
		 M2002.1,1240.1l-10.3,51.3H1961L2002.1,1240.1z M1834.1,1240.1l-10.3,51.3H1793L1834.1,1240.1z M1666.1,1240.1l-10.3,51.3H1625
		L1666.1,1240.1z M1498.1,1240.1l-10.3,51.3H1457L1498.1,1240.1z M1330.1,1240.1l-10.3,51.3H1289L1330.1,1240.1z M1162.1,1240.1
		l-10.3,51.3H1121L1162.1,1240.1z M994.1,1240.1l-10.3,51.3H953L994.1,1240.1z M826.1,1240.1l-10.3,51.3H785L826.1,1240.1z
		 M658.2,1240.1l-10.3,51.3h-30.8L658.2,1240.1z M490.2,1240.1l-10.3,51.3h-30.8L490.2,1240.1z M322.2,1240.1l-10.3,51.3h-30.8
		L322.2,1240.1z M154.2,1240.1l-10.3,51.3h-30.8L154.2,1240.1z M-13.8,1240.1l-10.3,51.3h-30.8L-13.8,1240.1z M-181.8,1240.1
		l-10.3,51.3h-30.8L-181.8,1240.1z M-349.8,1240.1l-10.3,51.3h-30.8L-349.8,1240.1z M-517.8,1240.1l-10.3,51.3h-30.8L-517.8,1240.1z
		 M-685.8,1240.1l-10.3,51.3h-30.8L-685.8,1240.1z"/>
</g>
<rect y="0" class="st2" width="1440" height="430"/>
</svg>
