<svg xmlns="http://www.w3.org/2000/svg" xmlns:xlink="http://www.w3.org/1999/xlink" width="480" height="480" viewBox="0 0 480 480">
    <defs>
        <path id="a" d="M205.714 0L102.86 34.286 0 171.429 102.859 480 480 342.857V171.43L308.571 0z"/>
    </defs>
    <g fill="none" fill-rule="evenodd">
        <mask id="b" fill="#fff">
            <use xlink:href="#a"/>
        </mask>
        <use fill="#090958" xlink:href="#a"/>
        <path fill="#FFF" fill-opacity=".1" d="M670.634-282l-16.096 5.365-1.09.785-43.444 57.924L545.93-282h-6.363l63.347 63.346-50.81-12.702L539.443-282h-4.639l12.161 48.645-95.39-40.883L474.863-282h-14.23l-16.096 5.365-1.089.785-43.443 57.924L335.93-282h-6.363l63.345 63.346-50.809-12.702L329.444-282h-4.639l12.16 48.645-95.39-40.883L264.863-282h-14.229l-16.096 5.365-1.09.785-43.443 57.924L125.931-282h-6.363l63.346 63.346-50.81-12.702L119.445-282h-4.638l12.161 48.645-95.39-40.883L54.863-282h-14.23l-16.096 5.365-1.089.785-43.443 57.924L-84.068-282h-6.364l63.346 63.346-50.809-12.702L-90.557-282h-4.637l12.161 48.645-95.391-40.883 23.288-7.762h-14.228l-16.097 5.365-1.09.785-43.442 57.924L-294.068-282h-6.364l63.347 63.346-50.81-12.702-12.66-50.644h-4.638l12.16 48.645-95.39-40.883 23.288-7.762h-14.229l-16.097 5.365-1.088.785-43.444 57.924L-504.067-282h-6.364l63.346 63.346-50.808-12.702L-510.555-282h-4.638l12.161 48.645-95.391-40.883 23.288-7.762h-14.228l-16.097 5.365-1.09.785-43.442 57.924L-700-267.933v6.364l42.916 42.916-42.916-10.73v4.64l49.1 12.274 29.56 29.56.8.515 115.513 43.318-99.114 56.636-43.59-58.119-14.883-44.652-.545-.88L-700-222.935v6.365l33.284 33.284 13.845 41.535H-700v4.5h44.818L-700-92.431v6.364l50.008-50.008 43.443 57.925 1.089.785 31.847 10.615h-31.136l-.711.115-45 15-1.09.785-43.442 57.924L-700 2.067v9.439l4.102 1.025 29.559 29.56.8.515 115.512 43.318-99.114 56.637-43.59-58.12-7.269-21.81v14.23l2.13 6.389H-700v10.682l5.008-5.007 43.443 57.925 1.089.784 45 15 .711.116h31.136l-31.847 10.615-1.09.785-43.442 57.925L-700 182.067v6.364l42.916 42.916L-700 220.62v4.637l49.1 12.275 29.56 29.56.8.516 115.513 43.317-99.114 56.637-43.59-58.12-14.883-44.653-.545-.879L-700 227.067v6.364l33.284 33.284 13.845 41.535H-700v4.5h44.818L-700 357.57v6.362l50.008-50.007 43.443 57.924 1.089.785 31.847 10.615h-31.136l-.711.116-45 15-1.09.785-43.442 57.924-5.008-5.007v9.439l4.102 1.025 29.559 29.56.8.515L-571.156 528h12.814l-99.999-37.5 113.026-42.385 43.6 43.6L-489.621 528h4.743l-12.737-38.211-.543-.88-39.256-39.256 51.515 12.878 29.56 29.56.8.515L-361.158 528h12.815l-99.999-37.5 113.025-42.385 43.6 43.6L-279.62 528h4.743l-12.738-38.211-.543-.88-39.256-39.256 51.516 12.878 29.558 29.56.801.515L-151.157 528h12.814l-100-37.5 113.027-42.385 43.6 43.6L-69.622 528h4.743l-12.737-38.211-.543-.88-39.256-39.256L-65.9 462.53l29.559 29.56.8.515L58.843 528h12.815l-100-37.5 113.027-42.385 43.6 43.6L140.377 528h4.743l-12.737-38.211-.544-.88-39.255-39.256 51.514 12.878 29.56 29.56.8.515L268.842 528h12.814l-100-37.5 113.027-42.385 43.6 43.6L350.376 528h4.743l-12.737-38.211-.544-.88-39.255-39.256L354.1 462.53l29.559 29.56.8.515L478.843 528h12.814l-100-37.5 113.026-42.385 43.6 43.6L560.377 528h4.743l-12.737-38.211-.544-.88-39.255-39.256 51.514 12.878 29.56 29.56.8.515L688.84 528h12.815l-100-37.5 113.026-42.385L740 473.433v-6.364l-17.416-17.416L740 454.006v-4.637l-22.897-5.725-12.702-50.81 35.599 35.6v-6.365l-34.32-34.319H740v-4.5h-35.07L740 339.411v-7.203l-40.528 50.66-38.738-12.913L740 324.661v-5.182l-84.144 48.082-43.589-58.12-14.884-44.653-.543-.879-39.256-39.256 51.514 12.878 29.56 29.56.8.516L740 305.31v-4.806l-93.344-35.005L740 230.496v-4.806l-99.185 37.194-27.595-27.595 42.767-57.024L740 214.271v-4.896l-78.426-33.613 39.04-13.012H740v-4.5h-34.32L740 123.93v-6.364l-36.09 36.09 13.182-65.906H740v-4.5h-24.345L601.657 40.5 714.682-1.886 740 23.434v-6.365L722.584-.347 740 4.007V-.631l-22.897-5.724-12.702-50.81L740-21.567v-6.365L705.68-62.25H740v-4.5h-35.07L740-110.588v-7.203l-40.528 50.66-38.738-12.912L740-125.338v-5.183L655.856-82.44l-43.589-58.119-14.884-44.652-.543-.88-39.256-39.256 51.514 12.878 29.56 29.56.8.515L740-144.691v-4.805l-93.344-35.005L740-219.504v-4.807l-99.185 37.195-27.595-27.595 42.767-57.024L740-235.73v-4.895l-78.426-33.613L684.862-282h-14.228zM403.22-214.712l42.769-57.024 98.223 42.096-113.395 42.524-27.597-27.595zm-210 0l42.77-57.024 98.222 42.096-113.394 42.524-27.597-27.595zm-209.999 0l42.769-57.024 98.223 42.096-113.396 42.524-27.596-27.595zm-210 0l42.77-57.024 98.223 42.096-113.396 42.524-27.596-27.595zm-209.998 0l42.767-57.024 98.224 42.096-113.396 42.524-27.595-27.595zm-210 0l42.768-57.024 98.224 42.096-113.396 42.524-27.596-27.595zM436.656-184.5l113.027-42.384 43.6 43.6 13.844 41.535h-56.47l-114-42.75zm-209.998 0l113.025-42.384 43.6 43.6 13.845 41.535h-56.471l-114-42.75zm-210 0l113.026-42.384 43.6 43.6 13.844 41.535h-56.471L16.658-184.5zm-210 0l113.026-42.384 43.6 43.6 13.845 41.535h-56.472l-113.999-42.75zm-210 0l113.026-42.384 43.6 43.6 13.845 41.535h-56.472L-403.34-184.5zm-209.999 0l113.025-42.384 43.6 43.6 13.845 41.535h-56.471l-113.999-42.75zm1015.608 43.942l-14.884-44.652-.543-.88-39.256-39.256 51.515 12.878 29.559 29.56.8.515 115.514 43.318-99.115 56.636-43.59-58.119zm-210 0l-14.884-44.652-.543-.88-39.255-39.256L189.1-212.47l29.559 29.56.8.515 115.513 43.318-99.114 56.636-43.59-58.119zm-209.999 0l-14.884-44.652-.543-.88-39.256-39.256L-20.9-212.47l29.56 29.56.8.515 115.512 43.318L25.857-82.44l-43.589-58.119zm-210 0l-14.883-44.652-.544-.88-39.255-39.256 51.515 12.878 29.559 29.56.8.515 115.512 43.318-99.114 56.636-43.59-58.119zm-209.999 0l-14.884-44.652-.543-.88-39.256-39.256 51.514 12.878 29.56 29.56.8.515 115.513 43.318-99.115 56.636-43.589-58.119zm989.824 3.309h52.724l-65.905 65.906 13.181-65.906zm-210 0h52.723l-65.904 65.906 13.182-65.906zm-209.999 0h52.723l-65.904 65.906 13.181-65.906zm-210 0h52.723l-65.904 65.906 13.18-65.906zm-210 0h52.724l-65.905 65.906 13.181-65.906zm-210 0h52.724l-65.905 65.906 13.182-65.906zm993.587 75h39.567l1.59-.66 73.166-73.165 43.444 57.925 1.09.785 31.846 10.615h-31.136l-.71.115-45.001 15-1.089.785-43.444 57.924-69.323-69.324zm-210 0h39.568l1.591-.66 73.165-73.165 43.443 57.925 1.09.785 31.847 10.615h-31.137l-.71.115-45 15-1.09.785-43.443 57.924L285.68-62.25zm-210 0h39.568l1.592-.66 73.164-73.165L233.45-78.15l1.089.785 31.847 10.615H235.25l-.712.115-45 15-1.09.785-43.443 57.924L75.681-62.25zm-210 0h39.568l1.592-.66 73.165-73.165L23.45-78.15l1.09.785L56.384-66.75H25.25l-.712.115-44.999 15-1.09.785-43.443 57.924-69.325-69.324zm-209.999 0h39.569l1.59-.66 73.166-73.165 43.443 57.925 1.089.785 31.847 10.615h-31.136l-.711.115-45 15-1.09.785-43.443 57.924-69.324-69.324zm-210 0h39.57l1.59-.66 73.165-73.165 43.444 57.925 1.088.785 31.847 10.615h-31.135l-.712.115-45 15-1.089.785-43.443 57.924-69.324-69.324zM450.736-80.043l90.387-51.65-51.65 64.562-38.737-12.912zm-210 0l90.387-51.65-51.65 64.562-38.737-12.912zm-210 0l90.387-51.65-51.65 64.562-38.737-12.912zm-210 0l90.388-51.65-51.65 64.562-38.737-12.912zm-209.999 0l90.387-51.65-51.65 64.562-38.737-12.912zm-210 0l90.388-51.65-51.65 64.562-38.737-12.912zM546.23-130.874L533.404-66.75H494.93l51.299-64.124zm-210 0L323.404-66.75H284.93l51.3-64.124zm-209.998 0L113.406-66.75H74.93l51.3-64.124zm-210 0L-96.595-66.75h-38.474l51.298-64.124zm-210 0l-12.825 64.124h-38.474l51.299-64.124zm-210 0l-12.824 64.124h-38.474l51.298-64.124zM616.574-49.237l39.04-13.013h42.878l13.474 53.895-95.392-40.882zm-210 0l39.04-13.013h42.879l13.473 53.895-95.391-40.882zm-209.999 0l39.04-13.013h42.878l13.474 53.895-95.392-40.882zm-210 0l39.04-13.013h42.878L81.966-8.355l-95.39-40.882zm-209.999 0l39.04-13.013h42.877l13.474 53.895-95.391-40.882zm-210 0l39.04-13.013h42.878l13.473 53.895-95.39-40.882zm-209.998 0l39.039-13.013h42.878l13.473 53.895-95.39-40.882zM507.104-6.355l-12.702-50.81 63.511 63.512-50.81-12.703zm-210 0l-12.702-50.81 63.512 63.512-50.81-12.703zm-210 0l-12.701-50.81 63.512 63.512-50.81-12.703zm-209.999 0l-12.702-50.81 63.512 63.512-50.81-12.703zm-210 0l-12.701-50.81 63.51 63.512-50.809-12.703zm-210 0l-12.701-50.81 63.511 63.512-50.81-12.703zM568.22 10.288l42.768-57.024L709.21-4.64 595.815 37.885 568.22 10.289zm-210 0l42.768-57.024L499.212-4.64 385.815 37.885 358.22 10.289zm-210 0l42.768-57.024L289.212-4.64 175.816 37.885 148.22 10.289zm-210 0l42.769-57.024L79.212-4.64-34.183 37.885l-27.596-27.596zm-210 0l42.77-57.024 98.222 42.096-113.394 42.524-27.597-27.596zm-209.999 0l42.769-57.024 98.223 42.096-113.395 42.524-27.597-27.596zm-210 0l42.77-57.024 98.223 42.096-113.396 42.524-27.597-27.596zM391.656 40.5L504.682-1.885l43.6 43.6 13.845 41.535h-56.472L391.656 40.5zm-210 0L294.684-1.885l43.6 43.6 13.844 41.535h-56.471l-114-42.75zm-209.999 0L84.684-1.885l43.6 43.6 13.843 41.535h-56.47l-114-42.75zm-210 0l113.027-42.384 43.6 43.6 13.844 41.535h-56.47l-114-42.75zm-209.998 0l113.025-42.384 43.6 43.6 13.845 41.535h-56.471L-448.341 40.5zm-210 0l113.026-42.384 43.6 43.6 13.845 41.535h-56.472L-658.34 40.5zM567.267 84.441l-14.884-44.652-.544-.88L512.584-.347l51.514 12.878 29.56 29.56.8.515L709.97 85.924l-99.115 56.637-43.589-58.12zm-210 0l-14.884-44.652-.544-.88L302.584-.347 354.1 12.53l29.559 29.56.8.515 115.513 43.318-99.114 56.637-43.59-58.12zm-209.999 0l-14.884-44.652-.544-.88L92.585-.347l51.514 12.878 29.56 29.56.8.515 115.513 43.318-99.115 56.637-43.589-58.12zm-210 0l-14.884-44.652-.543-.88-39.256-39.256L-65.9 12.53l29.559 29.56.8.515L79.974 85.924l-99.115 56.637-43.59-58.12zm-210 0l-14.884-44.652-.543-.88-39.256-39.256 51.516 12.878 29.558 29.56.801.515 115.513 43.318-99.115 56.637-43.59-58.12zm-209.999 0l-14.884-44.652-.543-.88-39.256-39.256 51.515 12.878 29.56 29.56.8.515 115.513 43.318-99.115 56.637-43.59-58.12zm989.823 3.309h52.724l-65.905 65.905 13.181-65.905zm-210 0h52.725l-65.905 65.905 13.18-65.905zm-209.998 0h52.724l-65.906 65.905L87.094 87.75zm-210 0h52.724l-65.905 65.905 13.182-65.905zm-209.999 0h52.723l-65.904 65.905 13.181-65.905zm-210 0h52.723l-65.904 65.905 13.181-65.905zm1107.91 1.175l43.443 57.925 1.089.784 45 15 .71.116h31.137l-31.846 10.615-1.09.785-43.444 57.925-73.165-73.166-1.59-.659H495.68l69.323-69.325zm-210 0l43.443 57.925 1.09.784 45 15 .71.116h31.137l-31.848 10.615-1.089.785-43.443 57.925-73.165-73.166-1.591-.659H285.68l69.325-69.325zm-210 0l43.444 57.925 1.09.784 44.999 15 .712.116h31.135l-31.847 10.615-1.09.785-43.443 57.925-73.164-73.166-1.592-.659H75.681l69.324-69.325zm-210 0l43.444 57.925 1.09.784 45 15 .711.116h31.135l-31.847 10.615-1.089.785-43.443 57.925-73.165-73.166-1.592-.659h-39.568l69.325-69.325zm-209.999 0l43.444 57.925 1.089.784 45 15 .711.116h31.136l-31.847 10.615-1.09.785-43.442 57.925-73.166-73.166-1.59-.659h-39.569l69.324-69.325zm-210 0l43.444 57.925 1.09.784 45 15 .71.116h31.136l-31.847 10.615-1.088.785-43.444 57.925-73.165-73.166-1.59-.659h-39.57l69.325-69.325zm1100.728 56.031l90.388-51.65-51.651 64.563-38.737-12.913zm-210 0l90.388-51.65-51.65 64.563-38.737-12.913zm-209.999 0l90.388-51.65-51.65 64.563-38.738-12.913zm-210 0l90.388-51.65-51.65 64.563-38.737-12.913zm-209.999 0l90.388-51.65-51.651 64.563-38.737-12.913zm-210 0l90.387-51.65-51.65 64.563-38.737-12.913zm-210 0l90.388-51.65-51.65 64.563-38.737-12.913zM711.23 94.126l-12.825 64.124H659.93l51.299-64.124zm-210 0l-12.824 64.124H449.93l51.298-64.124zm-210 0l-12.825 64.124h-38.473l51.298-64.124zm-210 0L68.406 158.25H29.93L81.23 94.126zm-209.999 0l-12.825 64.124h-38.473l51.298-64.124zm-210 0l-12.824 64.124h-38.474l51.299-64.124zm-209.998 0l-12.825 64.124h-38.474l51.299-64.124zm1000.343 81.636l39.04-13.012h42.877l13.473 53.896-95.39-40.883zm-210 0l39.04-13.012h42.877l13.474 53.896-95.391-40.883zm-209.999 0l39.04-13.012h42.877l13.474 53.896-95.39-40.883zm-210 0l39.04-13.012h42.878l13.473 53.896-95.391-40.883zm-210 0l39.04-13.012h42.878l13.474 53.896-95.392-40.883zm-210 0l39.04-13.012h42.879l13.473 53.896-95.391-40.883zm1150.528 42.882l-12.702-50.81 63.512 63.513-50.81-12.703zm-210 0l-12.702-50.81 63.511 63.513-50.809-12.703zm-210 0l-12.701-50.81 63.51 63.513-50.808-12.703zm-209.999 0l-12.703-50.81 63.512 63.513-50.809-12.703zm-210 0l-12.702-50.81 63.512 63.513-50.81-12.703zm-209.998 0l-12.704-50.81 63.512 63.513-50.808-12.703zm901.112 16.645l42.769-57.024 98.223 42.096-113.395 42.523-27.597-27.595zm-210 0l42.77-57.024 98.222 42.096-113.394 42.523-27.597-27.595zm-209.999 0l42.769-57.024 98.223 42.096-113.396 42.523-27.596-27.595zm-210 0l42.77-57.024 98.223 42.096-113.396 42.523-27.596-27.595zm-209.998 0l42.767-57.024 98.224 42.096-113.396 42.523-27.595-27.595zm-210 0l42.768-57.024 98.224 42.096-113.396 42.523-27.596-27.595zM436.656 265.5l113.027-42.384 43.6 43.6 13.844 41.535h-56.47l-114-42.75zm-209.998 0l113.025-42.384 43.6 43.6 13.845 41.535h-56.471l-114-42.75zm-210 0l113.026-42.384 43.6 43.6 13.844 41.535h-56.471L16.658 265.5zm-210 0l113.026-42.384 43.6 43.6 13.845 41.535h-56.472l-113.999-42.75zm-210 0l113.026-42.384 43.6 43.6 13.845 41.535h-56.472L-403.34 265.5zm-209.999 0l113.025-42.384 43.6 43.6 13.845 41.535h-56.471l-113.999-42.75zm1015.608 43.942l-14.884-44.653-.543-.879-39.256-39.256 51.515 12.878 29.559 29.56.8.516 115.514 43.317-99.115 56.637-43.59-58.12zm-210 0l-14.884-44.653-.543-.879-39.255-39.256L189.1 237.53l29.559 29.56.8.516 115.513 43.317-99.114 56.637-43.59-58.12zm-209.999 0l-14.884-44.653-.543-.879-39.256-39.256L-20.9 237.53l29.56 29.56.8.516 115.512 43.317-99.115 56.637-43.589-58.12zm-210 0l-14.883-44.653-.544-.879-39.255-39.256 51.515 12.878 29.559 29.56.8.516 115.512 43.317-99.114 56.637-43.59-58.12zm-209.999 0l-14.884-44.653-.543-.879-39.256-39.256 51.514 12.878 29.56 29.56.8.516 115.513 43.317-99.115 56.637-43.589-58.12zm989.824 3.309h52.724l-65.905 65.906 13.181-65.906zm-210 0h52.723l-65.904 65.906 13.182-65.906zm-209.999 0h52.723l-65.904 65.906 13.181-65.906zm-210 0h52.723l-65.904 65.906 13.18-65.906zm-210 0h52.724l-65.905 65.906 13.181-65.906zm-210 0h52.724l-65.905 65.906 13.182-65.906zm993.587 75h39.567l1.59-.66 73.166-73.165 43.444 57.924 1.09.785 31.846 10.615h-31.136l-.71.116-45.001 15-1.089.785-43.444 57.924-69.323-69.324zm-210 0h39.568l1.591-.66 73.165-73.165 43.443 57.924 1.09.785 31.847 10.615h-31.137l-.71.116-45 15-1.09.785-43.443 57.924-69.325-69.324zm-210 0h39.568l1.592-.66 73.164-73.165 43.444 57.924 1.089.785 31.847 10.615H235.25l-.712.116-45 15-1.09.785-43.443 57.924-69.324-69.324zm-210 0h39.568l1.592-.66 73.165-73.165L23.45 371.85l1.09.785 31.846 10.615H25.25l-.712.116-44.999 15-1.09.785-43.443 57.924-69.325-69.324zm-209.999 0h39.569l1.59-.66 73.166-73.165 43.443 57.924 1.089.785 31.847 10.615h-31.136l-.711.116-45 15-1.09.785-43.443 57.924-69.324-69.324zm-210 0h39.57l1.59-.66 73.165-73.165 43.444 57.924 1.088.785 31.847 10.615h-31.135l-.712.116-45 15-1.089.785-43.443 57.924-69.324-69.324zm1005.053-17.794l90.387-51.65-51.65 64.563-38.737-12.913zm-210 0l90.387-51.65-51.65 64.563-38.737-12.913zm-210 0l90.387-51.65-51.65 64.563-38.737-12.913zm-210 0l90.388-51.65-51.65 64.563-38.737-12.913zm-209.999 0l90.387-51.65-51.65 64.563-38.737-12.913zm-210 0l90.388-51.65-51.65 64.563-38.737-12.913zM546.23 319.125l-12.825 64.124H494.93l51.299-64.124zm-210 0l-12.825 64.124H284.93l51.3-64.124zm-209.998 0l-12.825 64.124H74.93l51.3-64.124zm-210 0l-12.825 64.124h-38.474l51.298-64.124zm-210 0l-12.825 64.124h-38.474l51.299-64.124zm-210 0l-12.824 64.124h-38.474l51.298-64.124zm1120.343 81.637l39.04-13.012h42.878l13.474 53.895-95.392-40.882zm-210 0l39.04-13.012h42.879l13.473 53.895-95.391-40.882zm-209.999 0l39.04-13.012h42.878l13.474 53.895-95.392-40.882zm-210 0l39.04-13.012h42.878l13.473 53.895-95.39-40.882zm-209.999 0l39.04-13.012h42.877l13.474 53.895-95.391-40.882zm-210 0l39.04-13.012h42.878l13.473 53.895-95.39-40.882zm-209.998 0l39.039-13.012h42.878l13.473 53.895-95.39-40.882zm1150.526 42.882l-12.702-50.81 63.511 63.512-50.81-12.702zm-210 0l-12.702-50.81 63.512 63.512-50.81-12.702zm-210 0l-12.701-50.81 63.512 63.512-50.81-12.702zm-209.999 0l-12.702-50.81 63.512 63.512-50.81-12.702zm-210 0l-12.701-50.81 63.51 63.512-50.809-12.702zm-210 0l-12.701-50.81 63.511 63.512-50.81-12.702zM568.22 460.288l42.768-57.024 98.223 42.096-113.396 42.524-27.595-27.596zm-210 0l42.768-57.024 98.224 42.096-113.397 42.524-27.595-27.596zm-210 0l42.768-57.024 98.224 42.096-113.396 42.524-27.596-27.596zm-210 0l42.769-57.024 98.223 42.096-113.395 42.524-27.596-27.596zm-210 0l42.77-57.024 98.222 42.096-113.394 42.524-27.597-27.596zm-209.999 0l42.769-57.024 98.223 42.096-113.395 42.524-27.597-27.596zm-210 0l42.77-57.024 98.223 42.096-113.396 42.524-27.597-27.596zM-700 526.861l.38 1.139h4.743L-700 512.633v14.228z" mask="url(#b)"/>
    </g>
</svg>
